%TF.GenerationSoftware,KiCad,Pcbnew,(6.0.0)*%
%TF.CreationDate,2022-03-19T09:51:22+00:00*%
%TF.ProjectId,open-amiga-samplerV1,6f70656e-2d61-46d6-9967-612d73616d70,rev?*%
%TF.SameCoordinates,Original*%
%TF.FileFunction,Copper,L2,Bot*%
%TF.FilePolarity,Positive*%
%FSLAX46Y46*%
G04 Gerber Fmt 4.6, Leading zero omitted, Abs format (unit mm)*
G04 Created by KiCad (PCBNEW (6.0.0)) date 2022-03-19 09:51:22*
%MOMM*%
%LPD*%
G01*
G04 APERTURE LIST*
%TA.AperFunction,ComponentPad*%
%ADD10C,1.600000*%
%TD*%
%TA.AperFunction,ComponentPad*%
%ADD11O,1.600000X1.600000*%
%TD*%
%TA.AperFunction,ComponentPad*%
%ADD12R,1.600000X1.600000*%
%TD*%
%TA.AperFunction,SMDPad,CuDef*%
%ADD13R,1.846667X3.480000*%
%TD*%
%TA.AperFunction,ComponentPad*%
%ADD14R,1.200000X1.200000*%
%TD*%
%TA.AperFunction,ComponentPad*%
%ADD15C,1.200000*%
%TD*%
%TA.AperFunction,ViaPad*%
%ADD16C,0.800000*%
%TD*%
%TA.AperFunction,Conductor*%
%ADD17C,0.250000*%
%TD*%
G04 APERTURE END LIST*
D10*
%TO.P,R7,1*%
%TO.N,Net-(U1-Pad1)*%
X73025000Y-41910000D03*
D11*
%TO.P,R7,2*%
%TO.N,Vo*%
X83185000Y-41910000D03*
%TD*%
D10*
%TO.P,C6,1*%
%TO.N,Net-(U1-Pad1)*%
X70445000Y-43180000D03*
%TO.P,C6,2*%
%TO.N,GND*%
X67945000Y-43180000D03*
%TD*%
%TO.P,C5,1*%
%TO.N,VCC*%
X85090000Y-36961000D03*
%TO.P,C5,2*%
%TO.N,GND*%
X85090000Y-34461000D03*
%TD*%
%TO.P,C3,1*%
%TO.N,VCC*%
X78421000Y-47264000D03*
%TO.P,C3,2*%
%TO.N,GND*%
X78421000Y-49764000D03*
%TD*%
D12*
%TO.P,C1,1*%
%TO.N,MONO_AUDIO*%
X64770000Y-43815000D03*
D10*
%TO.P,C1,2*%
%TO.N,Net-(C1-Pad2)*%
X62270000Y-43815000D03*
%TD*%
D13*
%TO.P,J3,14,P14*%
%TO.N,VCC*%
X54065000Y-59305000D03*
%TO.P,J3,15,P15*%
%TO.N,unconnected-(J3-Pad15)*%
X56835000Y-59305000D03*
%TO.P,J3,16,P16*%
%TO.N,unconnected-(J3-Pad16)*%
X59605000Y-59305000D03*
%TO.P,J3,17,P17*%
%TO.N,unconnected-(J3-Pad17)*%
X62375000Y-59305000D03*
%TO.P,J3,18,P18*%
%TO.N,GND*%
X65145000Y-59305000D03*
%TO.P,J3,19,P19*%
X67915000Y-59305000D03*
%TO.P,J3,20,P20*%
X70685000Y-59305000D03*
%TO.P,J3,21,P21*%
X73455000Y-59305000D03*
%TO.P,J3,22,P22*%
X76225000Y-59305000D03*
%TO.P,J3,23,P23*%
X78995000Y-59305000D03*
%TO.P,J3,24,P24*%
X81765000Y-59305000D03*
%TO.P,J3,25,P25*%
X84535000Y-59305000D03*
%TD*%
D12*
%TO.P,U1,1,VIN*%
%TO.N,Net-(U1-Pad1)*%
X52829499Y-55290499D03*
D11*
%TO.P,U1,2,DB0*%
%TO.N,D0*%
X55369499Y-55290499D03*
%TO.P,U1,3,DB1*%
%TO.N,D1*%
X57909499Y-55290499D03*
%TO.P,U1,4,DB2*%
%TO.N,D2*%
X60449499Y-55290499D03*
%TO.P,U1,5,DB3*%
%TO.N,D3*%
X62989499Y-55290499D03*
%TO.P,U1,6,~{WR!/RDY}*%
%TO.N,STROBE*%
X65529499Y-55290499D03*
%TO.P,U1,7,MODE*%
%TO.N,Net-(R3-Pad1)*%
X68069499Y-55290499D03*
%TO.P,U1,8,~{RD}*%
%TO.N,GND*%
X70609499Y-55290499D03*
%TO.P,U1,9,~{INT}*%
%TO.N,unconnected-(U1-Pad9)*%
X73149499Y-55290499D03*
%TO.P,U1,10,GND*%
%TO.N,GND*%
X75689499Y-55290499D03*
%TO.P,U1,11,VREF(-)*%
X75689499Y-47670499D03*
%TO.P,U1,12,VREF(+)*%
%TO.N,VCC*%
X73149499Y-47670499D03*
%TO.P,U1,13,~{CS}*%
%TO.N,GND*%
X70609499Y-47670499D03*
%TO.P,U1,14,DB4*%
%TO.N,D4*%
X68069499Y-47670499D03*
%TO.P,U1,15,DB5*%
%TO.N,D5*%
X65529499Y-47670499D03*
%TO.P,U1,16,DB6*%
%TO.N,D6*%
X62989499Y-47670499D03*
%TO.P,U1,17,DB7*%
%TO.N,D7*%
X60449499Y-47670499D03*
%TO.P,U1,18,~{OFL}*%
%TO.N,unconnected-(U1-Pad18)*%
X57909499Y-47670499D03*
%TO.P,U1,19*%
%TO.N,N/C*%
X55369499Y-47670499D03*
%TO.P,U1,20,VCC*%
%TO.N,VCC*%
X52829499Y-47670499D03*
%TD*%
%TO.P,R6,2*%
%TO.N,Net-(U2-Pad5)*%
X67310000Y-30480000D03*
D10*
%TO.P,R6,1*%
%TO.N,GND*%
X67310000Y-40640000D03*
%TD*%
%TO.P,R5,1*%
%TO.N,Net-(U2-Pad5)*%
X71120000Y-30480000D03*
D11*
%TO.P,R5,2*%
%TO.N,VCC*%
X71120000Y-40640000D03*
%TD*%
D12*
%TO.P,U2,1*%
%TO.N,Vo*%
X81915000Y-31137001D03*
D11*
%TO.P,U2,2,-*%
%TO.N,Net-(R4-Pad1)*%
X79375000Y-31137001D03*
%TO.P,U2,3,+*%
%TO.N,Net-(U2-Pad5)*%
X76835000Y-31137001D03*
%TO.P,U2,4,V-*%
%TO.N,GND*%
X74295000Y-31137001D03*
%TO.P,U2,5,+*%
%TO.N,Net-(U2-Pad5)*%
X74295000Y-38757001D03*
%TO.P,U2,6,-*%
%TO.N,Net-(U2-Pad6)*%
X76835000Y-38757001D03*
%TO.P,U2,7*%
X79375000Y-38757001D03*
%TO.P,U2,8,V+*%
%TO.N,VCC*%
X81915000Y-38757001D03*
%TD*%
%TO.P,R2,2*%
%TO.N,Net-(J2-Pad1)*%
X55880000Y-33655000D03*
D10*
%TO.P,R2,1*%
%TO.N,MONO_AUDIO*%
X55880000Y-43815000D03*
%TD*%
%TO.P,R1,1*%
%TO.N,MONO_AUDIO*%
X52705000Y-43815000D03*
D11*
%TO.P,R1,2*%
%TO.N,Net-(J1-Pad1)*%
X52705000Y-33655000D03*
%TD*%
%TO.P,R4,2*%
%TO.N,Net-(C1-Pad2)*%
X59055000Y-43815000D03*
D10*
%TO.P,R4,1*%
%TO.N,Net-(R4-Pad1)*%
X59055000Y-33655000D03*
%TD*%
%TO.P,R3,1*%
%TO.N,Net-(R3-Pad1)*%
X85050000Y-45805000D03*
D11*
%TO.P,R3,2*%
%TO.N,VCC*%
X85050000Y-55965000D03*
%TD*%
D12*
%TO.P,C4,1*%
%TO.N,VCC*%
X82739000Y-54528499D03*
D10*
%TO.P,C4,2*%
%TO.N,GND*%
X80739000Y-54528499D03*
%TD*%
D14*
%TO.P,C2,1*%
%TO.N,Net-(U2-Pad5)*%
X64365000Y-31750000D03*
D15*
%TO.P,C2,2*%
%TO.N,GND*%
X62865000Y-31750000D03*
%TD*%
D16*
%TO.N,GND*%
X73239884Y-51903054D03*
X68088600Y-51514401D03*
X86550000Y-56305000D03*
X86550000Y-32055000D03*
X86550000Y-33555000D03*
X86050000Y-42805000D03*
X52050000Y-45555000D03*
X55050000Y-28305000D03*
X86050000Y-47055000D03*
X86550000Y-54805000D03*
X83550000Y-28305000D03*
X52050000Y-31805000D03*
X86050000Y-44055000D03*
%TD*%
D17*
%TO.N,MONO_AUDIO*%
X57150000Y-45085000D02*
X63500000Y-45085000D01*
X63500000Y-45085000D02*
X64770000Y-43815000D01*
X55880000Y-43815000D02*
X57150000Y-45085000D01*
X52705000Y-43815000D02*
X55880000Y-43815000D01*
%TO.N,VCC*%
X83293999Y-38757001D02*
X85090000Y-36961000D01*
X81915000Y-38757001D02*
X83293999Y-38757001D01*
%TO.N,Net-(U1-Pad1)*%
X53954010Y-47010990D02*
X55245000Y-45720000D01*
X67905000Y-45720000D02*
X70445000Y-43180000D01*
X53954010Y-52339988D02*
X53954010Y-47010990D01*
X55245000Y-45720000D02*
X67905000Y-45720000D01*
X52829499Y-55290499D02*
X52829499Y-53464499D01*
X52829499Y-53464499D02*
X53954010Y-52339988D01*
%TO.N,GND*%
X76225000Y-59305000D02*
X78995000Y-59305000D01*
X70685000Y-59305000D02*
X73455000Y-59305000D01*
X73455000Y-59305000D02*
X76225000Y-59305000D01*
X67915000Y-59305000D02*
X70685000Y-59305000D01*
X78995000Y-59305000D02*
X81765000Y-59305000D01*
X65145000Y-58826664D02*
X65145000Y-59305000D01*
X65145000Y-59305000D02*
X67915000Y-59305000D01*
%TO.N,VCC*%
X85050000Y-55965000D02*
X84179000Y-56836000D01*
X54544000Y-56836000D02*
X78399499Y-56836000D01*
X54065000Y-57315000D02*
X54544000Y-56836000D01*
X74274500Y-48795500D02*
X76889500Y-48795500D01*
X84179000Y-56836000D02*
X78399499Y-56836000D01*
X73149499Y-47670499D02*
X74274500Y-48795500D01*
X76889500Y-48795500D02*
X78421000Y-47264000D01*
X54065000Y-59305000D02*
X54065000Y-57315000D01*
%TO.N,Net-(R3-Pad1)*%
X81004000Y-49851000D02*
X85050000Y-45805000D01*
X73508998Y-49851000D02*
X81004000Y-49851000D01*
X68069499Y-55290499D02*
X73508998Y-49851000D01*
%TD*%
%TA.AperFunction,Conductor*%
%TO.N,GND*%
G36*
X87488121Y-23769002D02*
G01*
X87534614Y-23822658D01*
X87546000Y-23875000D01*
X87546000Y-60925000D01*
X87525998Y-60993121D01*
X87472342Y-61039614D01*
X87420000Y-61051000D01*
X86092333Y-61051000D01*
X86024212Y-61030998D01*
X85977719Y-60977342D01*
X85966333Y-60925000D01*
X85966333Y-59577115D01*
X85961858Y-59561876D01*
X85960468Y-59560671D01*
X85952785Y-59559000D01*
X65017000Y-59559000D01*
X64948879Y-59538998D01*
X64902386Y-59485342D01*
X64891000Y-59433000D01*
X64891000Y-59177000D01*
X64911002Y-59108879D01*
X64964658Y-59062386D01*
X65017000Y-59051000D01*
X85948217Y-59051000D01*
X85963456Y-59046525D01*
X85964661Y-59045135D01*
X85966332Y-59037452D01*
X85966332Y-57520331D01*
X85965962Y-57513510D01*
X85960438Y-57462648D01*
X85956812Y-57447396D01*
X85911657Y-57326946D01*
X85903119Y-57311351D01*
X85826618Y-57209276D01*
X85814057Y-57196715D01*
X85711982Y-57120214D01*
X85696387Y-57111676D01*
X85633496Y-57088099D01*
X85576732Y-57045457D01*
X85552032Y-56978896D01*
X85567240Y-56909547D01*
X85610213Y-56863731D01*
X85612262Y-56862431D01*
X85617763Y-56859652D01*
X85780722Y-56732334D01*
X85784748Y-56727670D01*
X85784751Y-56727667D01*
X85911819Y-56580457D01*
X85911820Y-56580455D01*
X85915848Y-56575789D01*
X85975079Y-56471525D01*
X86014950Y-56401340D01*
X86014952Y-56401336D01*
X86017995Y-56395979D01*
X86067225Y-56247988D01*
X86081325Y-56205601D01*
X86081326Y-56205598D01*
X86083270Y-56199753D01*
X86109189Y-55994586D01*
X86109602Y-55965000D01*
X86089422Y-55759189D01*
X86029651Y-55561217D01*
X85958712Y-55427800D01*
X85935459Y-55384067D01*
X85935457Y-55384064D01*
X85932565Y-55378625D01*
X85928674Y-55373855D01*
X85928672Y-55373851D01*
X85805758Y-55223143D01*
X85805755Y-55223140D01*
X85801863Y-55218368D01*
X85794966Y-55212662D01*
X85647271Y-55090478D01*
X85647266Y-55090475D01*
X85642522Y-55086550D01*
X85637103Y-55083620D01*
X85637100Y-55083618D01*
X85466032Y-54991122D01*
X85466027Y-54991120D01*
X85460612Y-54988192D01*
X85263063Y-54927040D01*
X85256938Y-54926396D01*
X85256937Y-54926396D01*
X85063526Y-54906068D01*
X85063524Y-54906068D01*
X85057397Y-54905424D01*
X84931229Y-54916906D01*
X84857591Y-54923607D01*
X84857590Y-54923607D01*
X84851450Y-54924166D01*
X84653066Y-54982554D01*
X84647601Y-54985411D01*
X84475261Y-55075508D01*
X84475257Y-55075511D01*
X84469801Y-55078363D01*
X84308635Y-55207943D01*
X84175708Y-55366360D01*
X84076082Y-55547578D01*
X84013553Y-55744696D01*
X84012867Y-55750813D01*
X84012866Y-55750817D01*
X83991420Y-55942010D01*
X83990501Y-55950206D01*
X83991743Y-55965000D01*
X84006303Y-56138374D01*
X84007806Y-56156278D01*
X84009505Y-56162203D01*
X84047804Y-56295770D01*
X84047353Y-56366765D01*
X84008591Y-56426247D01*
X83943824Y-56455329D01*
X83926685Y-56456500D01*
X76677479Y-56456500D01*
X76609358Y-56436498D01*
X76562865Y-56382842D01*
X76552761Y-56312568D01*
X76582255Y-56247988D01*
X76588384Y-56241405D01*
X76691415Y-56138374D01*
X76698471Y-56129966D01*
X76823430Y-55951506D01*
X76828913Y-55942010D01*
X76920989Y-55744552D01*
X76924735Y-55734260D01*
X76956808Y-55614561D01*
X80017493Y-55614561D01*
X80026789Y-55626576D01*
X80077994Y-55662430D01*
X80087489Y-55667913D01*
X80284947Y-55759989D01*
X80295239Y-55763735D01*
X80505688Y-55820124D01*
X80516481Y-55822027D01*
X80733525Y-55841016D01*
X80744475Y-55841016D01*
X80961519Y-55822027D01*
X80972312Y-55820124D01*
X81182761Y-55763735D01*
X81193053Y-55759989D01*
X81390511Y-55667913D01*
X81400007Y-55662430D01*
X81578467Y-55537471D01*
X81586875Y-55530415D01*
X81593028Y-55524262D01*
X81655340Y-55490236D01*
X81726155Y-55495301D01*
X81754493Y-55513513D01*
X81755516Y-55511983D01*
X81821055Y-55555775D01*
X81839699Y-55568233D01*
X81913933Y-55582999D01*
X82738866Y-55582999D01*
X83564066Y-55582998D01*
X83599818Y-55575887D01*
X83626126Y-55570655D01*
X83626128Y-55570654D01*
X83638301Y-55568233D01*
X83648621Y-55561338D01*
X83648622Y-55561337D01*
X83712168Y-55518876D01*
X83722484Y-55511983D01*
X83778734Y-55427800D01*
X83793500Y-55353566D01*
X83793499Y-53703433D01*
X83778734Y-53629198D01*
X83763075Y-53605762D01*
X83729377Y-53555331D01*
X83722484Y-53545015D01*
X83638301Y-53488765D01*
X83564067Y-53473999D01*
X82739134Y-53473999D01*
X81913934Y-53474000D01*
X81878182Y-53481111D01*
X81851874Y-53486343D01*
X81851872Y-53486344D01*
X81839699Y-53488765D01*
X81829379Y-53495660D01*
X81829378Y-53495661D01*
X81755516Y-53545015D01*
X81753702Y-53542301D01*
X81708906Y-53566762D01*
X81638091Y-53561697D01*
X81593028Y-53532736D01*
X81586875Y-53526583D01*
X81578467Y-53519527D01*
X81400007Y-53394568D01*
X81390511Y-53389085D01*
X81193053Y-53297009D01*
X81182761Y-53293263D01*
X80972312Y-53236874D01*
X80961519Y-53234971D01*
X80744475Y-53215982D01*
X80733525Y-53215982D01*
X80516481Y-53234971D01*
X80505688Y-53236874D01*
X80295239Y-53293263D01*
X80284947Y-53297009D01*
X80087489Y-53389085D01*
X80077994Y-53394568D01*
X80025952Y-53431008D01*
X80017576Y-53441487D01*
X80024644Y-53454933D01*
X81009115Y-54439404D01*
X81043141Y-54501716D01*
X81038076Y-54572531D01*
X81009115Y-54617594D01*
X80023923Y-55602786D01*
X80017493Y-55614561D01*
X76956808Y-55614561D01*
X76970893Y-55561996D01*
X76970557Y-55547900D01*
X76962615Y-55544499D01*
X75561499Y-55544499D01*
X75493378Y-55524497D01*
X75446885Y-55470841D01*
X75435499Y-55418499D01*
X75435499Y-55018384D01*
X75943499Y-55018384D01*
X75947974Y-55033623D01*
X75949364Y-55034828D01*
X75957047Y-55036499D01*
X76957466Y-55036499D01*
X76970997Y-55032526D01*
X76972226Y-55023977D01*
X76924735Y-54846738D01*
X76920989Y-54836446D01*
X76828913Y-54638988D01*
X76823430Y-54629492D01*
X76756548Y-54533974D01*
X79426483Y-54533974D01*
X79445472Y-54751018D01*
X79447375Y-54761811D01*
X79503764Y-54972260D01*
X79507510Y-54982552D01*
X79599586Y-55180010D01*
X79605069Y-55189505D01*
X79641509Y-55241547D01*
X79651988Y-55249923D01*
X79665434Y-55242855D01*
X80366978Y-54541311D01*
X80374592Y-54527367D01*
X80374461Y-54525534D01*
X80370210Y-54518919D01*
X79664713Y-53813422D01*
X79652938Y-53806992D01*
X79640923Y-53816288D01*
X79605069Y-53867493D01*
X79599586Y-53876988D01*
X79507510Y-54074446D01*
X79503764Y-54084738D01*
X79447375Y-54295187D01*
X79445472Y-54305980D01*
X79426483Y-54523024D01*
X79426483Y-54533974D01*
X76756548Y-54533974D01*
X76698471Y-54451032D01*
X76691415Y-54442624D01*
X76537374Y-54288583D01*
X76528966Y-54281527D01*
X76350506Y-54156568D01*
X76341010Y-54151085D01*
X76143552Y-54059009D01*
X76133260Y-54055263D01*
X75960996Y-54009105D01*
X75946900Y-54009441D01*
X75943499Y-54017383D01*
X75943499Y-55018384D01*
X75435499Y-55018384D01*
X75435499Y-54022532D01*
X75431526Y-54009001D01*
X75422977Y-54007772D01*
X75245738Y-54055263D01*
X75235446Y-54059009D01*
X75037988Y-54151085D01*
X75028492Y-54156568D01*
X74850032Y-54281527D01*
X74841624Y-54288583D01*
X74687583Y-54442624D01*
X74680527Y-54451032D01*
X74555568Y-54629492D01*
X74550085Y-54638988D01*
X74458009Y-54836446D01*
X74454264Y-54846735D01*
X74410203Y-55011172D01*
X74373251Y-55071794D01*
X74309390Y-55102816D01*
X74238896Y-55094387D01*
X74184149Y-55049184D01*
X74167874Y-55014978D01*
X74166432Y-55010199D01*
X74129150Y-54886716D01*
X74032064Y-54704124D01*
X74028173Y-54699354D01*
X74028171Y-54699350D01*
X73905257Y-54548642D01*
X73905254Y-54548639D01*
X73901362Y-54543867D01*
X73894465Y-54538161D01*
X73746770Y-54415977D01*
X73746765Y-54415974D01*
X73742021Y-54412049D01*
X73736602Y-54409119D01*
X73736599Y-54409117D01*
X73565531Y-54316621D01*
X73565526Y-54316619D01*
X73560111Y-54313691D01*
X73362562Y-54252539D01*
X73356437Y-54251895D01*
X73356436Y-54251895D01*
X73163025Y-54231567D01*
X73163023Y-54231567D01*
X73156896Y-54230923D01*
X73030728Y-54242405D01*
X72957090Y-54249106D01*
X72957089Y-54249106D01*
X72950949Y-54249665D01*
X72752565Y-54308053D01*
X72747100Y-54310910D01*
X72574760Y-54401007D01*
X72574756Y-54401010D01*
X72569300Y-54403862D01*
X72408134Y-54533442D01*
X72275207Y-54691859D01*
X72175581Y-54873077D01*
X72173718Y-54878950D01*
X72130343Y-55015686D01*
X72090680Y-55074571D01*
X72025478Y-55102663D01*
X71955438Y-55091046D01*
X71902798Y-55043406D01*
X71888534Y-55010199D01*
X71844735Y-54846738D01*
X71840989Y-54836446D01*
X71748913Y-54638988D01*
X71743430Y-54629492D01*
X71618471Y-54451032D01*
X71611415Y-54442624D01*
X71457374Y-54288583D01*
X71448966Y-54281527D01*
X71270506Y-54156568D01*
X71261010Y-54151085D01*
X71063552Y-54059009D01*
X71053260Y-54055263D01*
X70880996Y-54009105D01*
X70866900Y-54009441D01*
X70863499Y-54017383D01*
X70863499Y-55418499D01*
X70843497Y-55486620D01*
X70789841Y-55533113D01*
X70737499Y-55544499D01*
X70481499Y-55544499D01*
X70413378Y-55524497D01*
X70366885Y-55470841D01*
X70355499Y-55418499D01*
X70355499Y-54022532D01*
X70351526Y-54009001D01*
X70342977Y-54007772D01*
X70176938Y-54052262D01*
X70105962Y-54050572D01*
X70047166Y-54010778D01*
X70019218Y-53945513D01*
X70030992Y-53875500D01*
X70055232Y-53841460D01*
X73629287Y-50267405D01*
X73691599Y-50233379D01*
X73718382Y-50230500D01*
X77115043Y-50230500D01*
X77183164Y-50250502D01*
X77229238Y-50303250D01*
X77281586Y-50415511D01*
X77287069Y-50425006D01*
X77323509Y-50477048D01*
X77333988Y-50485424D01*
X77347434Y-50478356D01*
X77558385Y-50267405D01*
X77620697Y-50233379D01*
X77647480Y-50230500D01*
X78009520Y-50230500D01*
X78077641Y-50250502D01*
X78124134Y-50304158D01*
X78134238Y-50374432D01*
X78104744Y-50439012D01*
X78098615Y-50445595D01*
X77705923Y-50838287D01*
X77699493Y-50850062D01*
X77708789Y-50862077D01*
X77759994Y-50897931D01*
X77769489Y-50903414D01*
X77966947Y-50995490D01*
X77977239Y-50999236D01*
X78187688Y-51055625D01*
X78198481Y-51057528D01*
X78415525Y-51076517D01*
X78426475Y-51076517D01*
X78643519Y-51057528D01*
X78654312Y-51055625D01*
X78864761Y-50999236D01*
X78875053Y-50995490D01*
X79072511Y-50903414D01*
X79082006Y-50897931D01*
X79134048Y-50861491D01*
X79142424Y-50851012D01*
X79135356Y-50837566D01*
X78743385Y-50445595D01*
X78709359Y-50383283D01*
X78714424Y-50312468D01*
X78756971Y-50255632D01*
X78823491Y-50230821D01*
X78832480Y-50230500D01*
X79194520Y-50230500D01*
X79262641Y-50250502D01*
X79283615Y-50267405D01*
X79495287Y-50479077D01*
X79507062Y-50485507D01*
X79519077Y-50476211D01*
X79554931Y-50425006D01*
X79560414Y-50415511D01*
X79612762Y-50303250D01*
X79659680Y-50249965D01*
X79726957Y-50230500D01*
X80950080Y-50230500D01*
X80974028Y-50233049D01*
X80975693Y-50233128D01*
X80985876Y-50235320D01*
X80996217Y-50234096D01*
X81019223Y-50231373D01*
X81025154Y-50231023D01*
X81025146Y-50230928D01*
X81030324Y-50230500D01*
X81035524Y-50230500D01*
X81040653Y-50229646D01*
X81040656Y-50229646D01*
X81054565Y-50227331D01*
X81060443Y-50226494D01*
X81101001Y-50221694D01*
X81101002Y-50221694D01*
X81111341Y-50220470D01*
X81119593Y-50216507D01*
X81128626Y-50215004D01*
X81137795Y-50210057D01*
X81137797Y-50210056D01*
X81173732Y-50190666D01*
X81179025Y-50187969D01*
X81218082Y-50169215D01*
X81218086Y-50169212D01*
X81225232Y-50165781D01*
X81229508Y-50162186D01*
X81231431Y-50160263D01*
X81233363Y-50158491D01*
X81233442Y-50158448D01*
X81233555Y-50158572D01*
X81234095Y-50158096D01*
X81239814Y-50155010D01*
X81276417Y-50115413D01*
X81279846Y-50111848D01*
X84563587Y-46828107D01*
X84625899Y-46794081D01*
X84691618Y-46797369D01*
X84822466Y-46839884D01*
X85027809Y-46864370D01*
X85033944Y-46863898D01*
X85033946Y-46863898D01*
X85227856Y-46848977D01*
X85227860Y-46848976D01*
X85233998Y-46848504D01*
X85433178Y-46792892D01*
X85438682Y-46790112D01*
X85438684Y-46790111D01*
X85612262Y-46702431D01*
X85612264Y-46702430D01*
X85617763Y-46699652D01*
X85780722Y-46572334D01*
X85784748Y-46567670D01*
X85784751Y-46567667D01*
X85911819Y-46420457D01*
X85911820Y-46420455D01*
X85915848Y-46415789D01*
X86017995Y-46235979D01*
X86064728Y-46095494D01*
X86081325Y-46045601D01*
X86081326Y-46045598D01*
X86083270Y-46039753D01*
X86109189Y-45834586D01*
X86109602Y-45805000D01*
X86089422Y-45599189D01*
X86029651Y-45401217D01*
X85977744Y-45303595D01*
X85935459Y-45224067D01*
X85935457Y-45224064D01*
X85932565Y-45218625D01*
X85928674Y-45213855D01*
X85928672Y-45213851D01*
X85805758Y-45063143D01*
X85805755Y-45063140D01*
X85801863Y-45058368D01*
X85794966Y-45052662D01*
X85647271Y-44930478D01*
X85647266Y-44930475D01*
X85642522Y-44926550D01*
X85637103Y-44923620D01*
X85637100Y-44923618D01*
X85466032Y-44831122D01*
X85466027Y-44831120D01*
X85460612Y-44828192D01*
X85263063Y-44767040D01*
X85256938Y-44766396D01*
X85256937Y-44766396D01*
X85063526Y-44746068D01*
X85063524Y-44746068D01*
X85057397Y-44745424D01*
X84931229Y-44756906D01*
X84857591Y-44763607D01*
X84857590Y-44763607D01*
X84851450Y-44764166D01*
X84653066Y-44822554D01*
X84647601Y-44825411D01*
X84475261Y-44915508D01*
X84475257Y-44915511D01*
X84469801Y-44918363D01*
X84308635Y-45047943D01*
X84175708Y-45206360D01*
X84076082Y-45387578D01*
X84013553Y-45584696D01*
X83990501Y-45790206D01*
X83991743Y-45805000D01*
X84006659Y-45982615D01*
X84007806Y-45996278D01*
X84009505Y-46002203D01*
X84057371Y-46169134D01*
X84056920Y-46240129D01*
X84025347Y-46292959D01*
X80883711Y-49434595D01*
X80821399Y-49468621D01*
X80794616Y-49471500D01*
X79793450Y-49471500D01*
X79725329Y-49451498D01*
X79678836Y-49397842D01*
X79671744Y-49378112D01*
X79656239Y-49320247D01*
X79652490Y-49309947D01*
X79560414Y-49112489D01*
X79554931Y-49102994D01*
X79518491Y-49050952D01*
X79508012Y-49042576D01*
X79494566Y-49049644D01*
X79109615Y-49434595D01*
X79047303Y-49468621D01*
X79020520Y-49471500D01*
X78658480Y-49471500D01*
X78590359Y-49451498D01*
X78543866Y-49397842D01*
X78533762Y-49327568D01*
X78563256Y-49262988D01*
X78569385Y-49256405D01*
X79136077Y-48689713D01*
X79142507Y-48677938D01*
X79133211Y-48665923D01*
X79082006Y-48630069D01*
X79072511Y-48624586D01*
X78875053Y-48532510D01*
X78864761Y-48528764D01*
X78772709Y-48504099D01*
X78712086Y-48467147D01*
X78681065Y-48403287D01*
X78689493Y-48332792D01*
X78734696Y-48278045D01*
X78771435Y-48261034D01*
X78798237Y-48253551D01*
X78798239Y-48253550D01*
X78804178Y-48251892D01*
X78809682Y-48249112D01*
X78809684Y-48249111D01*
X78983262Y-48161431D01*
X78983264Y-48161430D01*
X78988763Y-48158652D01*
X79151722Y-48031334D01*
X79155748Y-48026670D01*
X79155751Y-48026667D01*
X79282819Y-47879457D01*
X79282820Y-47879455D01*
X79286848Y-47874789D01*
X79388995Y-47694979D01*
X79454270Y-47498753D01*
X79480189Y-47293586D01*
X79480602Y-47264000D01*
X79460422Y-47058189D01*
X79400651Y-46860217D01*
X79315277Y-46699652D01*
X79306459Y-46683067D01*
X79306457Y-46683064D01*
X79303565Y-46677625D01*
X79299674Y-46672855D01*
X79299672Y-46672851D01*
X79176758Y-46522143D01*
X79176755Y-46522140D01*
X79172863Y-46517368D01*
X79165966Y-46511662D01*
X79018271Y-46389478D01*
X79018266Y-46389475D01*
X79013522Y-46385550D01*
X79008103Y-46382620D01*
X79008100Y-46382618D01*
X78837032Y-46290122D01*
X78837027Y-46290120D01*
X78831612Y-46287192D01*
X78634063Y-46226040D01*
X78627938Y-46225396D01*
X78627937Y-46225396D01*
X78434526Y-46205068D01*
X78434524Y-46205068D01*
X78428397Y-46204424D01*
X78302229Y-46215906D01*
X78228591Y-46222607D01*
X78228590Y-46222607D01*
X78222450Y-46223166D01*
X78024066Y-46281554D01*
X78018601Y-46284411D01*
X77846261Y-46374508D01*
X77846257Y-46374511D01*
X77840801Y-46377363D01*
X77679635Y-46506943D01*
X77546708Y-46665360D01*
X77447082Y-46846578D01*
X77384553Y-47043696D01*
X77383867Y-47049813D01*
X77383866Y-47049817D01*
X77364021Y-47226738D01*
X77361501Y-47249206D01*
X77363038Y-47267505D01*
X77376130Y-47423406D01*
X77378806Y-47455278D01*
X77380505Y-47461203D01*
X77428371Y-47628134D01*
X77427920Y-47699129D01*
X77396347Y-47751959D01*
X77180004Y-47968302D01*
X77117692Y-48002328D01*
X77046877Y-47997263D01*
X76986561Y-47949830D01*
X76972193Y-47928600D01*
X76962615Y-47924499D01*
X75561499Y-47924499D01*
X75493378Y-47904497D01*
X75446885Y-47850841D01*
X75435499Y-47798499D01*
X75435499Y-47398384D01*
X75943499Y-47398384D01*
X75947974Y-47413623D01*
X75949364Y-47414828D01*
X75957047Y-47416499D01*
X76957466Y-47416499D01*
X76970997Y-47412526D01*
X76972226Y-47403977D01*
X76924735Y-47226738D01*
X76920989Y-47216446D01*
X76828913Y-47018988D01*
X76823430Y-47009492D01*
X76698471Y-46831032D01*
X76691415Y-46822624D01*
X76537374Y-46668583D01*
X76528966Y-46661527D01*
X76350506Y-46536568D01*
X76341010Y-46531085D01*
X76143552Y-46439009D01*
X76133260Y-46435263D01*
X75960996Y-46389105D01*
X75946900Y-46389441D01*
X75943499Y-46397383D01*
X75943499Y-47398384D01*
X75435499Y-47398384D01*
X75435499Y-46402532D01*
X75431526Y-46389001D01*
X75422977Y-46387772D01*
X75245738Y-46435263D01*
X75235446Y-46439009D01*
X75037988Y-46531085D01*
X75028492Y-46536568D01*
X74850032Y-46661527D01*
X74841624Y-46668583D01*
X74687583Y-46822624D01*
X74680527Y-46831032D01*
X74555568Y-47009492D01*
X74550085Y-47018988D01*
X74458009Y-47216446D01*
X74454264Y-47226735D01*
X74410203Y-47391172D01*
X74373251Y-47451794D01*
X74309390Y-47482816D01*
X74238896Y-47474387D01*
X74184149Y-47429184D01*
X74167874Y-47394978D01*
X74166432Y-47390199D01*
X74129150Y-47266716D01*
X74032064Y-47084124D01*
X74028173Y-47079354D01*
X74028171Y-47079350D01*
X73905257Y-46928642D01*
X73905254Y-46928639D01*
X73901362Y-46923867D01*
X73894465Y-46918161D01*
X73746770Y-46795977D01*
X73746765Y-46795974D01*
X73742021Y-46792049D01*
X73736602Y-46789119D01*
X73736599Y-46789117D01*
X73565531Y-46696621D01*
X73565526Y-46696619D01*
X73560111Y-46693691D01*
X73362562Y-46632539D01*
X73356437Y-46631895D01*
X73356436Y-46631895D01*
X73163025Y-46611567D01*
X73163023Y-46611567D01*
X73156896Y-46610923D01*
X73030728Y-46622405D01*
X72957090Y-46629106D01*
X72957089Y-46629106D01*
X72950949Y-46629665D01*
X72752565Y-46688053D01*
X72747100Y-46690910D01*
X72574760Y-46781007D01*
X72574756Y-46781010D01*
X72569300Y-46783862D01*
X72408134Y-46913442D01*
X72275207Y-47071859D01*
X72175581Y-47253077D01*
X72172981Y-47261274D01*
X72130343Y-47395686D01*
X72090680Y-47454571D01*
X72025478Y-47482663D01*
X71955438Y-47471046D01*
X71902798Y-47423406D01*
X71888534Y-47390199D01*
X71844735Y-47226738D01*
X71840989Y-47216446D01*
X71748913Y-47018988D01*
X71743430Y-47009492D01*
X71618471Y-46831032D01*
X71611415Y-46822624D01*
X71457374Y-46668583D01*
X71448966Y-46661527D01*
X71270506Y-46536568D01*
X71261010Y-46531085D01*
X71063552Y-46439009D01*
X71053260Y-46435263D01*
X70880996Y-46389105D01*
X70866900Y-46389441D01*
X70863499Y-46397383D01*
X70863499Y-48938466D01*
X70867472Y-48951997D01*
X70876021Y-48953226D01*
X71053260Y-48905735D01*
X71063552Y-48901989D01*
X71261010Y-48809913D01*
X71270506Y-48804430D01*
X71448966Y-48679471D01*
X71457374Y-48672415D01*
X71611415Y-48518374D01*
X71618471Y-48509966D01*
X71743430Y-48331506D01*
X71748913Y-48322010D01*
X71840989Y-48124552D01*
X71844735Y-48114260D01*
X71888951Y-47949242D01*
X71925903Y-47888619D01*
X71989763Y-47857598D01*
X72060258Y-47866026D01*
X72115005Y-47911229D01*
X72131777Y-47947123D01*
X72133214Y-47952133D01*
X72164306Y-48060565D01*
X72167124Y-48066047D01*
X72167125Y-48066051D01*
X72256013Y-48239008D01*
X72256016Y-48239012D01*
X72258833Y-48244494D01*
X72387285Y-48406560D01*
X72391978Y-48410554D01*
X72391979Y-48410555D01*
X72500849Y-48503210D01*
X72544770Y-48540590D01*
X72725288Y-48641479D01*
X72921965Y-48705383D01*
X73127308Y-48729869D01*
X73133443Y-48729397D01*
X73133445Y-48729397D01*
X73327355Y-48714476D01*
X73327359Y-48714475D01*
X73333497Y-48714003D01*
X73514937Y-48663344D01*
X73585926Y-48664291D01*
X73637914Y-48695608D01*
X73968022Y-49025716D01*
X73983164Y-49044464D01*
X73984279Y-49045689D01*
X73989929Y-49054440D01*
X73998107Y-49060887D01*
X73998109Y-49060889D01*
X74016300Y-49075229D01*
X74020741Y-49079175D01*
X74020803Y-49079102D01*
X74024767Y-49082461D01*
X74028444Y-49086138D01*
X74044192Y-49097392D01*
X74048862Y-49100898D01*
X74089147Y-49132656D01*
X74097781Y-49135688D01*
X74105234Y-49141014D01*
X74154350Y-49155703D01*
X74159992Y-49157536D01*
X74200699Y-49171831D01*
X74208351Y-49174518D01*
X74213916Y-49175000D01*
X74216624Y-49175000D01*
X74219258Y-49175114D01*
X74219356Y-49175143D01*
X74219349Y-49175307D01*
X74220053Y-49175351D01*
X74226278Y-49177213D01*
X74280135Y-49175097D01*
X74285082Y-49175000D01*
X76835580Y-49175000D01*
X76859528Y-49177549D01*
X76861193Y-49177628D01*
X76871376Y-49179820D01*
X76881717Y-49178596D01*
X76904723Y-49175873D01*
X76910654Y-49175523D01*
X76910646Y-49175428D01*
X76915824Y-49175000D01*
X76921024Y-49175000D01*
X76926153Y-49174146D01*
X76926156Y-49174146D01*
X76940065Y-49171831D01*
X76945943Y-49170994D01*
X76986501Y-49166194D01*
X76986502Y-49166194D01*
X76996841Y-49164970D01*
X77005093Y-49161007D01*
X77014126Y-49159504D01*
X77023291Y-49154559D01*
X77028426Y-49152801D01*
X77099353Y-49149663D01*
X77160717Y-49185370D01*
X77193035Y-49248584D01*
X77187633Y-49315107D01*
X77185759Y-49320256D01*
X77170256Y-49378112D01*
X77133305Y-49438734D01*
X77069444Y-49469756D01*
X77048550Y-49471500D01*
X73562918Y-49471500D01*
X73538971Y-49468951D01*
X73537305Y-49468872D01*
X73527122Y-49466680D01*
X73516780Y-49467904D01*
X73516777Y-49467904D01*
X73493785Y-49470626D01*
X73487844Y-49470977D01*
X73487852Y-49471072D01*
X73482672Y-49471500D01*
X73477474Y-49471500D01*
X73472352Y-49472353D01*
X73472347Y-49472353D01*
X73458425Y-49474671D01*
X73452548Y-49475508D01*
X73446047Y-49476277D01*
X73411995Y-49480307D01*
X73411993Y-49480308D01*
X73401657Y-49481531D01*
X73393408Y-49485492D01*
X73384372Y-49486996D01*
X73375203Y-49491943D01*
X73375201Y-49491944D01*
X73339238Y-49511348D01*
X73333949Y-49514043D01*
X73294913Y-49532788D01*
X73287766Y-49536220D01*
X73283490Y-49539814D01*
X73281550Y-49541754D01*
X73279639Y-49543507D01*
X73279549Y-49543556D01*
X73279437Y-49543433D01*
X73278902Y-49543905D01*
X73273184Y-49546990D01*
X73266117Y-49554635D01*
X73236582Y-49586586D01*
X73233152Y-49590152D01*
X68556385Y-54266919D01*
X68494073Y-54300945D01*
X68430033Y-54298189D01*
X68282562Y-54252539D01*
X68276437Y-54251895D01*
X68276436Y-54251895D01*
X68083025Y-54231567D01*
X68083023Y-54231567D01*
X68076896Y-54230923D01*
X67950728Y-54242405D01*
X67877090Y-54249106D01*
X67877089Y-54249106D01*
X67870949Y-54249665D01*
X67672565Y-54308053D01*
X67667100Y-54310910D01*
X67494760Y-54401007D01*
X67494756Y-54401010D01*
X67489300Y-54403862D01*
X67328134Y-54533442D01*
X67195207Y-54691859D01*
X67095581Y-54873077D01*
X67033052Y-55070195D01*
X67032366Y-55076312D01*
X67032365Y-55076316D01*
X67016872Y-55214439D01*
X67010000Y-55275705D01*
X67011242Y-55290499D01*
X67026387Y-55470841D01*
X67027305Y-55481777D01*
X67084306Y-55680565D01*
X67087124Y-55686047D01*
X67087125Y-55686051D01*
X67176013Y-55859008D01*
X67176016Y-55859012D01*
X67178833Y-55864494D01*
X67307285Y-56026560D01*
X67311978Y-56030554D01*
X67311979Y-56030555D01*
X67452487Y-56150136D01*
X67464770Y-56160590D01*
X67535498Y-56200119D01*
X67571987Y-56220512D01*
X67621692Y-56271206D01*
X67636100Y-56340725D01*
X67610636Y-56406998D01*
X67553385Y-56448983D01*
X67510516Y-56456500D01*
X66088974Y-56456500D01*
X66020853Y-56436498D01*
X65974360Y-56382842D01*
X65964256Y-56312568D01*
X65993750Y-56247988D01*
X66032164Y-56218034D01*
X66091761Y-56187930D01*
X66091763Y-56187929D01*
X66097262Y-56185151D01*
X66260221Y-56057833D01*
X66264247Y-56053169D01*
X66264250Y-56053166D01*
X66391318Y-55905956D01*
X66391319Y-55905954D01*
X66395347Y-55901288D01*
X66480827Y-55750817D01*
X66494449Y-55726839D01*
X66494451Y-55726835D01*
X66497494Y-55721478D01*
X66550805Y-55561217D01*
X66560824Y-55531100D01*
X66560825Y-55531097D01*
X66562769Y-55525252D01*
X66588688Y-55320085D01*
X66589101Y-55290499D01*
X66568921Y-55084688D01*
X66509150Y-54886716D01*
X66412064Y-54704124D01*
X66408173Y-54699354D01*
X66408171Y-54699350D01*
X66285257Y-54548642D01*
X66285254Y-54548639D01*
X66281362Y-54543867D01*
X66274465Y-54538161D01*
X66126770Y-54415977D01*
X66126765Y-54415974D01*
X66122021Y-54412049D01*
X66116602Y-54409119D01*
X66116599Y-54409117D01*
X65945531Y-54316621D01*
X65945526Y-54316619D01*
X65940111Y-54313691D01*
X65742562Y-54252539D01*
X65736437Y-54251895D01*
X65736436Y-54251895D01*
X65543025Y-54231567D01*
X65543023Y-54231567D01*
X65536896Y-54230923D01*
X65410728Y-54242405D01*
X65337090Y-54249106D01*
X65337089Y-54249106D01*
X65330949Y-54249665D01*
X65132565Y-54308053D01*
X65127100Y-54310910D01*
X64954760Y-54401007D01*
X64954756Y-54401010D01*
X64949300Y-54403862D01*
X64788134Y-54533442D01*
X64655207Y-54691859D01*
X64555581Y-54873077D01*
X64493052Y-55070195D01*
X64492366Y-55076312D01*
X64492365Y-55076316D01*
X64476872Y-55214439D01*
X64470000Y-55275705D01*
X64471242Y-55290499D01*
X64486387Y-55470841D01*
X64487305Y-55481777D01*
X64544306Y-55680565D01*
X64547124Y-55686047D01*
X64547125Y-55686051D01*
X64636013Y-55859008D01*
X64636016Y-55859012D01*
X64638833Y-55864494D01*
X64767285Y-56026560D01*
X64771978Y-56030554D01*
X64771979Y-56030555D01*
X64912487Y-56150136D01*
X64924770Y-56160590D01*
X64995498Y-56200119D01*
X65031987Y-56220512D01*
X65081692Y-56271206D01*
X65096100Y-56340725D01*
X65070636Y-56406998D01*
X65013385Y-56448983D01*
X64970516Y-56456500D01*
X63548974Y-56456500D01*
X63480853Y-56436498D01*
X63434360Y-56382842D01*
X63424256Y-56312568D01*
X63453750Y-56247988D01*
X63492164Y-56218034D01*
X63551761Y-56187930D01*
X63551763Y-56187929D01*
X63557262Y-56185151D01*
X63720221Y-56057833D01*
X63724247Y-56053169D01*
X63724250Y-56053166D01*
X63851318Y-55905956D01*
X63851319Y-55905954D01*
X63855347Y-55901288D01*
X63940827Y-55750817D01*
X63954449Y-55726839D01*
X63954451Y-55726835D01*
X63957494Y-55721478D01*
X64010805Y-55561217D01*
X64020824Y-55531100D01*
X64020825Y-55531097D01*
X64022769Y-55525252D01*
X64048688Y-55320085D01*
X64049101Y-55290499D01*
X64028921Y-55084688D01*
X63969150Y-54886716D01*
X63872064Y-54704124D01*
X63868173Y-54699354D01*
X63868171Y-54699350D01*
X63745257Y-54548642D01*
X63745254Y-54548639D01*
X63741362Y-54543867D01*
X63734465Y-54538161D01*
X63586770Y-54415977D01*
X63586765Y-54415974D01*
X63582021Y-54412049D01*
X63576602Y-54409119D01*
X63576599Y-54409117D01*
X63405531Y-54316621D01*
X63405526Y-54316619D01*
X63400111Y-54313691D01*
X63202562Y-54252539D01*
X63196437Y-54251895D01*
X63196436Y-54251895D01*
X63003025Y-54231567D01*
X63003023Y-54231567D01*
X62996896Y-54230923D01*
X62870728Y-54242405D01*
X62797090Y-54249106D01*
X62797089Y-54249106D01*
X62790949Y-54249665D01*
X62592565Y-54308053D01*
X62587100Y-54310910D01*
X62414760Y-54401007D01*
X62414756Y-54401010D01*
X62409300Y-54403862D01*
X62248134Y-54533442D01*
X62115207Y-54691859D01*
X62015581Y-54873077D01*
X61953052Y-55070195D01*
X61952366Y-55076312D01*
X61952365Y-55076316D01*
X61936872Y-55214439D01*
X61930000Y-55275705D01*
X61931242Y-55290499D01*
X61946387Y-55470841D01*
X61947305Y-55481777D01*
X62004306Y-55680565D01*
X62007124Y-55686047D01*
X62007125Y-55686051D01*
X62096013Y-55859008D01*
X62096016Y-55859012D01*
X62098833Y-55864494D01*
X62227285Y-56026560D01*
X62231978Y-56030554D01*
X62231979Y-56030555D01*
X62372487Y-56150136D01*
X62384770Y-56160590D01*
X62455498Y-56200119D01*
X62491987Y-56220512D01*
X62541692Y-56271206D01*
X62556100Y-56340725D01*
X62530636Y-56406998D01*
X62473385Y-56448983D01*
X62430516Y-56456500D01*
X61008974Y-56456500D01*
X60940853Y-56436498D01*
X60894360Y-56382842D01*
X60884256Y-56312568D01*
X60913750Y-56247988D01*
X60952164Y-56218034D01*
X61011761Y-56187930D01*
X61011763Y-56187929D01*
X61017262Y-56185151D01*
X61180221Y-56057833D01*
X61184247Y-56053169D01*
X61184250Y-56053166D01*
X61311318Y-55905956D01*
X61311319Y-55905954D01*
X61315347Y-55901288D01*
X61400827Y-55750817D01*
X61414449Y-55726839D01*
X61414451Y-55726835D01*
X61417494Y-55721478D01*
X61470805Y-55561217D01*
X61480824Y-55531100D01*
X61480825Y-55531097D01*
X61482769Y-55525252D01*
X61508688Y-55320085D01*
X61509101Y-55290499D01*
X61488921Y-55084688D01*
X61429150Y-54886716D01*
X61332064Y-54704124D01*
X61328173Y-54699354D01*
X61328171Y-54699350D01*
X61205257Y-54548642D01*
X61205254Y-54548639D01*
X61201362Y-54543867D01*
X61194465Y-54538161D01*
X61046770Y-54415977D01*
X61046765Y-54415974D01*
X61042021Y-54412049D01*
X61036602Y-54409119D01*
X61036599Y-54409117D01*
X60865531Y-54316621D01*
X60865526Y-54316619D01*
X60860111Y-54313691D01*
X60662562Y-54252539D01*
X60656437Y-54251895D01*
X60656436Y-54251895D01*
X60463025Y-54231567D01*
X60463023Y-54231567D01*
X60456896Y-54230923D01*
X60330728Y-54242405D01*
X60257090Y-54249106D01*
X60257089Y-54249106D01*
X60250949Y-54249665D01*
X60052565Y-54308053D01*
X60047100Y-54310910D01*
X59874760Y-54401007D01*
X59874756Y-54401010D01*
X59869300Y-54403862D01*
X59708134Y-54533442D01*
X59575207Y-54691859D01*
X59475581Y-54873077D01*
X59413052Y-55070195D01*
X59412366Y-55076312D01*
X59412365Y-55076316D01*
X59396872Y-55214439D01*
X59390000Y-55275705D01*
X59391242Y-55290499D01*
X59406387Y-55470841D01*
X59407305Y-55481777D01*
X59464306Y-55680565D01*
X59467124Y-55686047D01*
X59467125Y-55686051D01*
X59556013Y-55859008D01*
X59556016Y-55859012D01*
X59558833Y-55864494D01*
X59687285Y-56026560D01*
X59691978Y-56030554D01*
X59691979Y-56030555D01*
X59832487Y-56150136D01*
X59844770Y-56160590D01*
X59915498Y-56200119D01*
X59951987Y-56220512D01*
X60001692Y-56271206D01*
X60016100Y-56340725D01*
X59990636Y-56406998D01*
X59933385Y-56448983D01*
X59890516Y-56456500D01*
X58468974Y-56456500D01*
X58400853Y-56436498D01*
X58354360Y-56382842D01*
X58344256Y-56312568D01*
X58373750Y-56247988D01*
X58412164Y-56218034D01*
X58471761Y-56187930D01*
X58471763Y-56187929D01*
X58477262Y-56185151D01*
X58640221Y-56057833D01*
X58644247Y-56053169D01*
X58644250Y-56053166D01*
X58771318Y-55905956D01*
X58771319Y-55905954D01*
X58775347Y-55901288D01*
X58860827Y-55750817D01*
X58874449Y-55726839D01*
X58874451Y-55726835D01*
X58877494Y-55721478D01*
X58930805Y-55561217D01*
X58940824Y-55531100D01*
X58940825Y-55531097D01*
X58942769Y-55525252D01*
X58968688Y-55320085D01*
X58969101Y-55290499D01*
X58948921Y-55084688D01*
X58889150Y-54886716D01*
X58792064Y-54704124D01*
X58788173Y-54699354D01*
X58788171Y-54699350D01*
X58665257Y-54548642D01*
X58665254Y-54548639D01*
X58661362Y-54543867D01*
X58654465Y-54538161D01*
X58506770Y-54415977D01*
X58506765Y-54415974D01*
X58502021Y-54412049D01*
X58496602Y-54409119D01*
X58496599Y-54409117D01*
X58325531Y-54316621D01*
X58325526Y-54316619D01*
X58320111Y-54313691D01*
X58122562Y-54252539D01*
X58116437Y-54251895D01*
X58116436Y-54251895D01*
X57923025Y-54231567D01*
X57923023Y-54231567D01*
X57916896Y-54230923D01*
X57790728Y-54242405D01*
X57717090Y-54249106D01*
X57717089Y-54249106D01*
X57710949Y-54249665D01*
X57512565Y-54308053D01*
X57507100Y-54310910D01*
X57334760Y-54401007D01*
X57334756Y-54401010D01*
X57329300Y-54403862D01*
X57168134Y-54533442D01*
X57035207Y-54691859D01*
X56935581Y-54873077D01*
X56873052Y-55070195D01*
X56872366Y-55076312D01*
X56872365Y-55076316D01*
X56856872Y-55214439D01*
X56850000Y-55275705D01*
X56851242Y-55290499D01*
X56866387Y-55470841D01*
X56867305Y-55481777D01*
X56924306Y-55680565D01*
X56927124Y-55686047D01*
X56927125Y-55686051D01*
X57016013Y-55859008D01*
X57016016Y-55859012D01*
X57018833Y-55864494D01*
X57147285Y-56026560D01*
X57151978Y-56030554D01*
X57151979Y-56030555D01*
X57292487Y-56150136D01*
X57304770Y-56160590D01*
X57375498Y-56200119D01*
X57411987Y-56220512D01*
X57461692Y-56271206D01*
X57476100Y-56340725D01*
X57450636Y-56406998D01*
X57393385Y-56448983D01*
X57350516Y-56456500D01*
X55928974Y-56456500D01*
X55860853Y-56436498D01*
X55814360Y-56382842D01*
X55804256Y-56312568D01*
X55833750Y-56247988D01*
X55872164Y-56218034D01*
X55931761Y-56187930D01*
X55931763Y-56187929D01*
X55937262Y-56185151D01*
X56100221Y-56057833D01*
X56104247Y-56053169D01*
X56104250Y-56053166D01*
X56231318Y-55905956D01*
X56231319Y-55905954D01*
X56235347Y-55901288D01*
X56320827Y-55750817D01*
X56334449Y-55726839D01*
X56334451Y-55726835D01*
X56337494Y-55721478D01*
X56390805Y-55561217D01*
X56400824Y-55531100D01*
X56400825Y-55531097D01*
X56402769Y-55525252D01*
X56428688Y-55320085D01*
X56429101Y-55290499D01*
X56408921Y-55084688D01*
X56349150Y-54886716D01*
X56252064Y-54704124D01*
X56248173Y-54699354D01*
X56248171Y-54699350D01*
X56125257Y-54548642D01*
X56125254Y-54548639D01*
X56121362Y-54543867D01*
X56114465Y-54538161D01*
X55966770Y-54415977D01*
X55966765Y-54415974D01*
X55962021Y-54412049D01*
X55956602Y-54409119D01*
X55956599Y-54409117D01*
X55785531Y-54316621D01*
X55785526Y-54316619D01*
X55780111Y-54313691D01*
X55582562Y-54252539D01*
X55576437Y-54251895D01*
X55576436Y-54251895D01*
X55383025Y-54231567D01*
X55383023Y-54231567D01*
X55376896Y-54230923D01*
X55250728Y-54242405D01*
X55177090Y-54249106D01*
X55177089Y-54249106D01*
X55170949Y-54249665D01*
X54972565Y-54308053D01*
X54967100Y-54310910D01*
X54794760Y-54401007D01*
X54794756Y-54401010D01*
X54789300Y-54403862D01*
X54628134Y-54533442D01*
X54495207Y-54691859D01*
X54395581Y-54873077D01*
X54333052Y-55070195D01*
X54332366Y-55076312D01*
X54332365Y-55076316D01*
X54316872Y-55214439D01*
X54310000Y-55275705D01*
X54311242Y-55290499D01*
X54326387Y-55470841D01*
X54327305Y-55481777D01*
X54384306Y-55680565D01*
X54387124Y-55686047D01*
X54387125Y-55686051D01*
X54476013Y-55859008D01*
X54476016Y-55859012D01*
X54478833Y-55864494D01*
X54607285Y-56026560D01*
X54611978Y-56030554D01*
X54611979Y-56030555D01*
X54752487Y-56150136D01*
X54764770Y-56160590D01*
X54835498Y-56200119D01*
X54871987Y-56220512D01*
X54921692Y-56271206D01*
X54936100Y-56340725D01*
X54910636Y-56406998D01*
X54853385Y-56448983D01*
X54810516Y-56456500D01*
X54597920Y-56456500D01*
X54573973Y-56453951D01*
X54572307Y-56453872D01*
X54562124Y-56451680D01*
X54551782Y-56452904D01*
X54551779Y-56452904D01*
X54528787Y-56455626D01*
X54522846Y-56455977D01*
X54522854Y-56456072D01*
X54517674Y-56456500D01*
X54512476Y-56456500D01*
X54507354Y-56457353D01*
X54507349Y-56457353D01*
X54493427Y-56459671D01*
X54487550Y-56460508D01*
X54481049Y-56461277D01*
X54446997Y-56465307D01*
X54446995Y-56465308D01*
X54436659Y-56466531D01*
X54428410Y-56470492D01*
X54419374Y-56471996D01*
X54410205Y-56476943D01*
X54410203Y-56476944D01*
X54374240Y-56496348D01*
X54368951Y-56499043D01*
X54329915Y-56517788D01*
X54322768Y-56521220D01*
X54318492Y-56524814D01*
X54316552Y-56526754D01*
X54314641Y-56528507D01*
X54314551Y-56528556D01*
X54314439Y-56528433D01*
X54313904Y-56528905D01*
X54308186Y-56531990D01*
X54301119Y-56539635D01*
X54271584Y-56571586D01*
X54268154Y-56575152D01*
X53834784Y-57008522D01*
X53816036Y-57023664D01*
X53814811Y-57024779D01*
X53806060Y-57030429D01*
X53799613Y-57038607D01*
X53799611Y-57038609D01*
X53785271Y-57056800D01*
X53781325Y-57061241D01*
X53781398Y-57061303D01*
X53778039Y-57065267D01*
X53774362Y-57068944D01*
X53763108Y-57084692D01*
X53759602Y-57089362D01*
X53727844Y-57129647D01*
X53724812Y-57138281D01*
X53719486Y-57145734D01*
X53716501Y-57155715D01*
X53704799Y-57194844D01*
X53702964Y-57200493D01*
X53693918Y-57226251D01*
X53652474Y-57283896D01*
X53586444Y-57309984D01*
X53575036Y-57310501D01*
X53116601Y-57310501D01*
X53080849Y-57317612D01*
X53054541Y-57322844D01*
X53054539Y-57322845D01*
X53042366Y-57325266D01*
X53032046Y-57332161D01*
X53032045Y-57332162D01*
X52971652Y-57372516D01*
X52958183Y-57381516D01*
X52901933Y-57465699D01*
X52887167Y-57539933D01*
X52887167Y-57546120D01*
X52887168Y-60925000D01*
X52867166Y-60993121D01*
X52813510Y-61039614D01*
X52761168Y-61051000D01*
X51180000Y-61051000D01*
X51111879Y-61030998D01*
X51065386Y-60977342D01*
X51054000Y-60925000D01*
X51054000Y-43800206D01*
X51645501Y-43800206D01*
X51662806Y-44006278D01*
X51719807Y-44205066D01*
X51722625Y-44210548D01*
X51722626Y-44210552D01*
X51811514Y-44383509D01*
X51811517Y-44383513D01*
X51814334Y-44388995D01*
X51942786Y-44551061D01*
X51947479Y-44555055D01*
X51947480Y-44555056D01*
X52037704Y-44631842D01*
X52100271Y-44685091D01*
X52280789Y-44785980D01*
X52477466Y-44849884D01*
X52682809Y-44874370D01*
X52688944Y-44873898D01*
X52688946Y-44873898D01*
X52882856Y-44858977D01*
X52882860Y-44858976D01*
X52888998Y-44858504D01*
X53088178Y-44802892D01*
X53093682Y-44800112D01*
X53093684Y-44800111D01*
X53267262Y-44712431D01*
X53267264Y-44712430D01*
X53272763Y-44709652D01*
X53435722Y-44582334D01*
X53439748Y-44577670D01*
X53439751Y-44577667D01*
X53566819Y-44430457D01*
X53566820Y-44430455D01*
X53570848Y-44425789D01*
X53666017Y-44258263D01*
X53717057Y-44208912D01*
X53775573Y-44194500D01*
X54812467Y-44194500D01*
X54880588Y-44214502D01*
X54924533Y-44262906D01*
X54986514Y-44383509D01*
X54986517Y-44383513D01*
X54989334Y-44388995D01*
X55117786Y-44551061D01*
X55122479Y-44555055D01*
X55122480Y-44555056D01*
X55212704Y-44631842D01*
X55275271Y-44685091D01*
X55455789Y-44785980D01*
X55652466Y-44849884D01*
X55857809Y-44874370D01*
X55863944Y-44873898D01*
X55863946Y-44873898D01*
X56057856Y-44858977D01*
X56057860Y-44858976D01*
X56063998Y-44858504D01*
X56245438Y-44807845D01*
X56316427Y-44808792D01*
X56368415Y-44840109D01*
X56653711Y-45125405D01*
X56687737Y-45187717D01*
X56682672Y-45258532D01*
X56640125Y-45315368D01*
X56573605Y-45340179D01*
X56564616Y-45340500D01*
X55298925Y-45340500D01*
X55274967Y-45337950D01*
X55273308Y-45337872D01*
X55263124Y-45335679D01*
X55252782Y-45336903D01*
X55252779Y-45336903D01*
X55229779Y-45339626D01*
X55223848Y-45339976D01*
X55223856Y-45340072D01*
X55218680Y-45340500D01*
X55213476Y-45340500D01*
X55194412Y-45343673D01*
X55188566Y-45344504D01*
X55177117Y-45345859D01*
X55137659Y-45350530D01*
X55129407Y-45354493D01*
X55120374Y-45355996D01*
X55111205Y-45360943D01*
X55111203Y-45360944D01*
X55075255Y-45380341D01*
X55070002Y-45383018D01*
X55023769Y-45405219D01*
X55019493Y-45408813D01*
X55017553Y-45410753D01*
X55015641Y-45412507D01*
X55015552Y-45412555D01*
X55015440Y-45412432D01*
X55014904Y-45412905D01*
X55009186Y-45415990D01*
X55002119Y-45423635D01*
X54972584Y-45455586D01*
X54969154Y-45459152D01*
X53723794Y-46704512D01*
X53705046Y-46719654D01*
X53703821Y-46720769D01*
X53695070Y-46726419D01*
X53688623Y-46734597D01*
X53688621Y-46734599D01*
X53674281Y-46752790D01*
X53670335Y-46757231D01*
X53670408Y-46757293D01*
X53667049Y-46761257D01*
X53663372Y-46764934D01*
X53652118Y-46780682D01*
X53648601Y-46785365D01*
X53637527Y-46799414D01*
X53635836Y-46801558D01*
X53577953Y-46842670D01*
X53507033Y-46845961D01*
X53456573Y-46820633D01*
X53426771Y-46795978D01*
X53426768Y-46795976D01*
X53422021Y-46792049D01*
X53416602Y-46789119D01*
X53416599Y-46789117D01*
X53245531Y-46696621D01*
X53245526Y-46696619D01*
X53240111Y-46693691D01*
X53042562Y-46632539D01*
X53036437Y-46631895D01*
X53036436Y-46631895D01*
X52843025Y-46611567D01*
X52843023Y-46611567D01*
X52836896Y-46610923D01*
X52710728Y-46622405D01*
X52637090Y-46629106D01*
X52637089Y-46629106D01*
X52630949Y-46629665D01*
X52432565Y-46688053D01*
X52427100Y-46690910D01*
X52254760Y-46781007D01*
X52254756Y-46781010D01*
X52249300Y-46783862D01*
X52088134Y-46913442D01*
X51955207Y-47071859D01*
X51855581Y-47253077D01*
X51793052Y-47450195D01*
X51792366Y-47456312D01*
X51792365Y-47456316D01*
X51787605Y-47498753D01*
X51770000Y-47655705D01*
X51771242Y-47670499D01*
X51786387Y-47850841D01*
X51787305Y-47861777D01*
X51844306Y-48060565D01*
X51847124Y-48066047D01*
X51847125Y-48066051D01*
X51936013Y-48239008D01*
X51936016Y-48239012D01*
X51938833Y-48244494D01*
X52067285Y-48406560D01*
X52071978Y-48410554D01*
X52071979Y-48410555D01*
X52180849Y-48503210D01*
X52224770Y-48540590D01*
X52405288Y-48641479D01*
X52601965Y-48705383D01*
X52807308Y-48729869D01*
X52813443Y-48729397D01*
X52813445Y-48729397D01*
X53007355Y-48714476D01*
X53007359Y-48714475D01*
X53013497Y-48714003D01*
X53212677Y-48658391D01*
X53279600Y-48624586D01*
X53391700Y-48567961D01*
X53461522Y-48555101D01*
X53527213Y-48582031D01*
X53567916Y-48640201D01*
X53574510Y-48680427D01*
X53574510Y-52130604D01*
X53554508Y-52198725D01*
X53537605Y-52219699D01*
X52599283Y-53158021D01*
X52580535Y-53173163D01*
X52579310Y-53174278D01*
X52570559Y-53179928D01*
X52564112Y-53188106D01*
X52564110Y-53188108D01*
X52549770Y-53206299D01*
X52545824Y-53210740D01*
X52545897Y-53210802D01*
X52542538Y-53214766D01*
X52538861Y-53218443D01*
X52527607Y-53234191D01*
X52524101Y-53238861D01*
X52492343Y-53279146D01*
X52489311Y-53287780D01*
X52483985Y-53295233D01*
X52481000Y-53305214D01*
X52469298Y-53344343D01*
X52467463Y-53349991D01*
X52453109Y-53390866D01*
X52450481Y-53398350D01*
X52449999Y-53403915D01*
X52449999Y-53406623D01*
X52449885Y-53409257D01*
X52449856Y-53409355D01*
X52449692Y-53409348D01*
X52449648Y-53410052D01*
X52447786Y-53416277D01*
X52449305Y-53454933D01*
X52449902Y-53470134D01*
X52449999Y-53475081D01*
X52449999Y-54110000D01*
X52429997Y-54178121D01*
X52376341Y-54224614D01*
X52323999Y-54236000D01*
X52004433Y-54236000D01*
X51968681Y-54243111D01*
X51942373Y-54248343D01*
X51942371Y-54248344D01*
X51930198Y-54250765D01*
X51919878Y-54257660D01*
X51919877Y-54257661D01*
X51906022Y-54266919D01*
X51846015Y-54307015D01*
X51789765Y-54391198D01*
X51774999Y-54465432D01*
X51775000Y-56115565D01*
X51789765Y-56189800D01*
X51796660Y-56200119D01*
X51796661Y-56200121D01*
X51810286Y-56220512D01*
X51846015Y-56273983D01*
X51930198Y-56330233D01*
X52004432Y-56344999D01*
X52829365Y-56344999D01*
X53654565Y-56344998D01*
X53690317Y-56337887D01*
X53716625Y-56332655D01*
X53716627Y-56332654D01*
X53728800Y-56330233D01*
X53739120Y-56323338D01*
X53739121Y-56323337D01*
X53802667Y-56280876D01*
X53812983Y-56273983D01*
X53869233Y-56189800D01*
X53883999Y-56115566D01*
X53883998Y-54465433D01*
X53876887Y-54429681D01*
X53871655Y-54403373D01*
X53871654Y-54403371D01*
X53869233Y-54391198D01*
X53812983Y-54307015D01*
X53728800Y-54250765D01*
X53654566Y-54235999D01*
X53334999Y-54235999D01*
X53266878Y-54215997D01*
X53220385Y-54162341D01*
X53208999Y-54109999D01*
X53208999Y-53673883D01*
X53229001Y-53605762D01*
X53245904Y-53584788D01*
X54184226Y-52646466D01*
X54202974Y-52631324D01*
X54204199Y-52630209D01*
X54212950Y-52624559D01*
X54219397Y-52616381D01*
X54219399Y-52616379D01*
X54233739Y-52598188D01*
X54237685Y-52593747D01*
X54237612Y-52593685D01*
X54240971Y-52589721D01*
X54244648Y-52586044D01*
X54255902Y-52570296D01*
X54259408Y-52565626D01*
X54291166Y-52525341D01*
X54294198Y-52516707D01*
X54299524Y-52509254D01*
X54314213Y-52460138D01*
X54316046Y-52454496D01*
X54330400Y-52413621D01*
X54330400Y-52413620D01*
X54333028Y-52406137D01*
X54333510Y-52400572D01*
X54333510Y-52397864D01*
X54333624Y-52395230D01*
X54333653Y-52395132D01*
X54333817Y-52395139D01*
X54333861Y-52394435D01*
X54335723Y-52388210D01*
X54333607Y-52334353D01*
X54333510Y-52329406D01*
X54333510Y-48422965D01*
X54353512Y-48354844D01*
X54407168Y-48308351D01*
X54477442Y-48298247D01*
X54542022Y-48327741D01*
X54558255Y-48344700D01*
X54607285Y-48406560D01*
X54611978Y-48410554D01*
X54611979Y-48410555D01*
X54720849Y-48503210D01*
X54764770Y-48540590D01*
X54945288Y-48641479D01*
X55141965Y-48705383D01*
X55347308Y-48729869D01*
X55353443Y-48729397D01*
X55353445Y-48729397D01*
X55547355Y-48714476D01*
X55547359Y-48714475D01*
X55553497Y-48714003D01*
X55752677Y-48658391D01*
X55758181Y-48655611D01*
X55758183Y-48655610D01*
X55931761Y-48567930D01*
X55931763Y-48567929D01*
X55937262Y-48565151D01*
X56100221Y-48437833D01*
X56104247Y-48433169D01*
X56104250Y-48433166D01*
X56231318Y-48285956D01*
X56231319Y-48285954D01*
X56235347Y-48281288D01*
X56286420Y-48191383D01*
X56334449Y-48106839D01*
X56334451Y-48106835D01*
X56337494Y-48101478D01*
X56389556Y-47944972D01*
X56400824Y-47911100D01*
X56400825Y-47911097D01*
X56402769Y-47905252D01*
X56428688Y-47700085D01*
X56429101Y-47670499D01*
X56427650Y-47655705D01*
X56850000Y-47655705D01*
X56851242Y-47670499D01*
X56866387Y-47850841D01*
X56867305Y-47861777D01*
X56924306Y-48060565D01*
X56927124Y-48066047D01*
X56927125Y-48066051D01*
X57016013Y-48239008D01*
X57016016Y-48239012D01*
X57018833Y-48244494D01*
X57147285Y-48406560D01*
X57151978Y-48410554D01*
X57151979Y-48410555D01*
X57260849Y-48503210D01*
X57304770Y-48540590D01*
X57485288Y-48641479D01*
X57681965Y-48705383D01*
X57887308Y-48729869D01*
X57893443Y-48729397D01*
X57893445Y-48729397D01*
X58087355Y-48714476D01*
X58087359Y-48714475D01*
X58093497Y-48714003D01*
X58292677Y-48658391D01*
X58298181Y-48655611D01*
X58298183Y-48655610D01*
X58471761Y-48567930D01*
X58471763Y-48567929D01*
X58477262Y-48565151D01*
X58640221Y-48437833D01*
X58644247Y-48433169D01*
X58644250Y-48433166D01*
X58771318Y-48285956D01*
X58771319Y-48285954D01*
X58775347Y-48281288D01*
X58826420Y-48191383D01*
X58874449Y-48106839D01*
X58874451Y-48106835D01*
X58877494Y-48101478D01*
X58929556Y-47944972D01*
X58940824Y-47911100D01*
X58940825Y-47911097D01*
X58942769Y-47905252D01*
X58968688Y-47700085D01*
X58969101Y-47670499D01*
X58967650Y-47655705D01*
X59390000Y-47655705D01*
X59391242Y-47670499D01*
X59406387Y-47850841D01*
X59407305Y-47861777D01*
X59464306Y-48060565D01*
X59467124Y-48066047D01*
X59467125Y-48066051D01*
X59556013Y-48239008D01*
X59556016Y-48239012D01*
X59558833Y-48244494D01*
X59687285Y-48406560D01*
X59691978Y-48410554D01*
X59691979Y-48410555D01*
X59800849Y-48503210D01*
X59844770Y-48540590D01*
X60025288Y-48641479D01*
X60221965Y-48705383D01*
X60427308Y-48729869D01*
X60433443Y-48729397D01*
X60433445Y-48729397D01*
X60627355Y-48714476D01*
X60627359Y-48714475D01*
X60633497Y-48714003D01*
X60832677Y-48658391D01*
X60838181Y-48655611D01*
X60838183Y-48655610D01*
X61011761Y-48567930D01*
X61011763Y-48567929D01*
X61017262Y-48565151D01*
X61180221Y-48437833D01*
X61184247Y-48433169D01*
X61184250Y-48433166D01*
X61311318Y-48285956D01*
X61311319Y-48285954D01*
X61315347Y-48281288D01*
X61366420Y-48191383D01*
X61414449Y-48106839D01*
X61414451Y-48106835D01*
X61417494Y-48101478D01*
X61469556Y-47944972D01*
X61480824Y-47911100D01*
X61480825Y-47911097D01*
X61482769Y-47905252D01*
X61508688Y-47700085D01*
X61509101Y-47670499D01*
X61507650Y-47655705D01*
X61930000Y-47655705D01*
X61931242Y-47670499D01*
X61946387Y-47850841D01*
X61947305Y-47861777D01*
X62004306Y-48060565D01*
X62007124Y-48066047D01*
X62007125Y-48066051D01*
X62096013Y-48239008D01*
X62096016Y-48239012D01*
X62098833Y-48244494D01*
X62227285Y-48406560D01*
X62231978Y-48410554D01*
X62231979Y-48410555D01*
X62340849Y-48503210D01*
X62384770Y-48540590D01*
X62565288Y-48641479D01*
X62761965Y-48705383D01*
X62967308Y-48729869D01*
X62973443Y-48729397D01*
X62973445Y-48729397D01*
X63167355Y-48714476D01*
X63167359Y-48714475D01*
X63173497Y-48714003D01*
X63372677Y-48658391D01*
X63378181Y-48655611D01*
X63378183Y-48655610D01*
X63551761Y-48567930D01*
X63551763Y-48567929D01*
X63557262Y-48565151D01*
X63720221Y-48437833D01*
X63724247Y-48433169D01*
X63724250Y-48433166D01*
X63851318Y-48285956D01*
X63851319Y-48285954D01*
X63855347Y-48281288D01*
X63906420Y-48191383D01*
X63954449Y-48106839D01*
X63954451Y-48106835D01*
X63957494Y-48101478D01*
X64009556Y-47944972D01*
X64020824Y-47911100D01*
X64020825Y-47911097D01*
X64022769Y-47905252D01*
X64048688Y-47700085D01*
X64049101Y-47670499D01*
X64047650Y-47655705D01*
X64470000Y-47655705D01*
X64471242Y-47670499D01*
X64486387Y-47850841D01*
X64487305Y-47861777D01*
X64544306Y-48060565D01*
X64547124Y-48066047D01*
X64547125Y-48066051D01*
X64636013Y-48239008D01*
X64636016Y-48239012D01*
X64638833Y-48244494D01*
X64767285Y-48406560D01*
X64771978Y-48410554D01*
X64771979Y-48410555D01*
X64880849Y-48503210D01*
X64924770Y-48540590D01*
X65105288Y-48641479D01*
X65301965Y-48705383D01*
X65507308Y-48729869D01*
X65513443Y-48729397D01*
X65513445Y-48729397D01*
X65707355Y-48714476D01*
X65707359Y-48714475D01*
X65713497Y-48714003D01*
X65912677Y-48658391D01*
X65918181Y-48655611D01*
X65918183Y-48655610D01*
X66091761Y-48567930D01*
X66091763Y-48567929D01*
X66097262Y-48565151D01*
X66260221Y-48437833D01*
X66264247Y-48433169D01*
X66264250Y-48433166D01*
X66391318Y-48285956D01*
X66391319Y-48285954D01*
X66395347Y-48281288D01*
X66446420Y-48191383D01*
X66494449Y-48106839D01*
X66494451Y-48106835D01*
X66497494Y-48101478D01*
X66549556Y-47944972D01*
X66560824Y-47911100D01*
X66560825Y-47911097D01*
X66562769Y-47905252D01*
X66588688Y-47700085D01*
X66589101Y-47670499D01*
X66587650Y-47655705D01*
X67010000Y-47655705D01*
X67011242Y-47670499D01*
X67026387Y-47850841D01*
X67027305Y-47861777D01*
X67084306Y-48060565D01*
X67087124Y-48066047D01*
X67087125Y-48066051D01*
X67176013Y-48239008D01*
X67176016Y-48239012D01*
X67178833Y-48244494D01*
X67307285Y-48406560D01*
X67311978Y-48410554D01*
X67311979Y-48410555D01*
X67420849Y-48503210D01*
X67464770Y-48540590D01*
X67645288Y-48641479D01*
X67841965Y-48705383D01*
X68047308Y-48729869D01*
X68053443Y-48729397D01*
X68053445Y-48729397D01*
X68247355Y-48714476D01*
X68247359Y-48714475D01*
X68253497Y-48714003D01*
X68452677Y-48658391D01*
X68458181Y-48655611D01*
X68458183Y-48655610D01*
X68631761Y-48567930D01*
X68631763Y-48567929D01*
X68637262Y-48565151D01*
X68800221Y-48437833D01*
X68804247Y-48433169D01*
X68804250Y-48433166D01*
X68931318Y-48285956D01*
X68931319Y-48285954D01*
X68935347Y-48281288D01*
X68986420Y-48191383D01*
X69034449Y-48106839D01*
X69034451Y-48106835D01*
X69037494Y-48101478D01*
X69039439Y-48095630D01*
X69039442Y-48095624D01*
X69089557Y-47944972D01*
X69130038Y-47886648D01*
X69195626Y-47859468D01*
X69265497Y-47872063D01*
X69317466Y-47920433D01*
X69330822Y-47952133D01*
X69374263Y-48114260D01*
X69378009Y-48124552D01*
X69470085Y-48322010D01*
X69475568Y-48331506D01*
X69600527Y-48509966D01*
X69607583Y-48518374D01*
X69761624Y-48672415D01*
X69770032Y-48679471D01*
X69948492Y-48804430D01*
X69957988Y-48809913D01*
X70155446Y-48901989D01*
X70165738Y-48905735D01*
X70338002Y-48951893D01*
X70352098Y-48951557D01*
X70355499Y-48943615D01*
X70355499Y-46402532D01*
X70351526Y-46389001D01*
X70342977Y-46387772D01*
X70165738Y-46435263D01*
X70155446Y-46439009D01*
X69957988Y-46531085D01*
X69948492Y-46536568D01*
X69770032Y-46661527D01*
X69761624Y-46668583D01*
X69607583Y-46822624D01*
X69600527Y-46831032D01*
X69475568Y-47009492D01*
X69470085Y-47018988D01*
X69378009Y-47216446D01*
X69374264Y-47226735D01*
X69330203Y-47391172D01*
X69293251Y-47451794D01*
X69229390Y-47482816D01*
X69158896Y-47474387D01*
X69104149Y-47429184D01*
X69087874Y-47394978D01*
X69086432Y-47390199D01*
X69049150Y-47266716D01*
X68952064Y-47084124D01*
X68948173Y-47079354D01*
X68948171Y-47079350D01*
X68825257Y-46928642D01*
X68825254Y-46928639D01*
X68821362Y-46923867D01*
X68814465Y-46918161D01*
X68666770Y-46795977D01*
X68666765Y-46795974D01*
X68662021Y-46792049D01*
X68656602Y-46789119D01*
X68656599Y-46789117D01*
X68485531Y-46696621D01*
X68485526Y-46696619D01*
X68480111Y-46693691D01*
X68282562Y-46632539D01*
X68276437Y-46631895D01*
X68276436Y-46631895D01*
X68083025Y-46611567D01*
X68083023Y-46611567D01*
X68076896Y-46610923D01*
X67950728Y-46622405D01*
X67877090Y-46629106D01*
X67877089Y-46629106D01*
X67870949Y-46629665D01*
X67672565Y-46688053D01*
X67667100Y-46690910D01*
X67494760Y-46781007D01*
X67494756Y-46781010D01*
X67489300Y-46783862D01*
X67328134Y-46913442D01*
X67195207Y-47071859D01*
X67095581Y-47253077D01*
X67033052Y-47450195D01*
X67032366Y-47456312D01*
X67032365Y-47456316D01*
X67027605Y-47498753D01*
X67010000Y-47655705D01*
X66587650Y-47655705D01*
X66568921Y-47464688D01*
X66509150Y-47266716D01*
X66412064Y-47084124D01*
X66408173Y-47079354D01*
X66408171Y-47079350D01*
X66285257Y-46928642D01*
X66285254Y-46928639D01*
X66281362Y-46923867D01*
X66274465Y-46918161D01*
X66126770Y-46795977D01*
X66126765Y-46795974D01*
X66122021Y-46792049D01*
X66116602Y-46789119D01*
X66116599Y-46789117D01*
X65945531Y-46696621D01*
X65945526Y-46696619D01*
X65940111Y-46693691D01*
X65742562Y-46632539D01*
X65736437Y-46631895D01*
X65736436Y-46631895D01*
X65543025Y-46611567D01*
X65543023Y-46611567D01*
X65536896Y-46610923D01*
X65410728Y-46622405D01*
X65337090Y-46629106D01*
X65337089Y-46629106D01*
X65330949Y-46629665D01*
X65132565Y-46688053D01*
X65127100Y-46690910D01*
X64954760Y-46781007D01*
X64954756Y-46781010D01*
X64949300Y-46783862D01*
X64788134Y-46913442D01*
X64655207Y-47071859D01*
X64555581Y-47253077D01*
X64493052Y-47450195D01*
X64492366Y-47456312D01*
X64492365Y-47456316D01*
X64487605Y-47498753D01*
X64470000Y-47655705D01*
X64047650Y-47655705D01*
X64028921Y-47464688D01*
X63969150Y-47266716D01*
X63872064Y-47084124D01*
X63868173Y-47079354D01*
X63868171Y-47079350D01*
X63745257Y-46928642D01*
X63745254Y-46928639D01*
X63741362Y-46923867D01*
X63734465Y-46918161D01*
X63586770Y-46795977D01*
X63586765Y-46795974D01*
X63582021Y-46792049D01*
X63576602Y-46789119D01*
X63576599Y-46789117D01*
X63405531Y-46696621D01*
X63405526Y-46696619D01*
X63400111Y-46693691D01*
X63202562Y-46632539D01*
X63196437Y-46631895D01*
X63196436Y-46631895D01*
X63003025Y-46611567D01*
X63003023Y-46611567D01*
X62996896Y-46610923D01*
X62870728Y-46622405D01*
X62797090Y-46629106D01*
X62797089Y-46629106D01*
X62790949Y-46629665D01*
X62592565Y-46688053D01*
X62587100Y-46690910D01*
X62414760Y-46781007D01*
X62414756Y-46781010D01*
X62409300Y-46783862D01*
X62248134Y-46913442D01*
X62115207Y-47071859D01*
X62015581Y-47253077D01*
X61953052Y-47450195D01*
X61952366Y-47456312D01*
X61952365Y-47456316D01*
X61947605Y-47498753D01*
X61930000Y-47655705D01*
X61507650Y-47655705D01*
X61488921Y-47464688D01*
X61429150Y-47266716D01*
X61332064Y-47084124D01*
X61328173Y-47079354D01*
X61328171Y-47079350D01*
X61205257Y-46928642D01*
X61205254Y-46928639D01*
X61201362Y-46923867D01*
X61194465Y-46918161D01*
X61046770Y-46795977D01*
X61046765Y-46795974D01*
X61042021Y-46792049D01*
X61036602Y-46789119D01*
X61036599Y-46789117D01*
X60865531Y-46696621D01*
X60865526Y-46696619D01*
X60860111Y-46693691D01*
X60662562Y-46632539D01*
X60656437Y-46631895D01*
X60656436Y-46631895D01*
X60463025Y-46611567D01*
X60463023Y-46611567D01*
X60456896Y-46610923D01*
X60330728Y-46622405D01*
X60257090Y-46629106D01*
X60257089Y-46629106D01*
X60250949Y-46629665D01*
X60052565Y-46688053D01*
X60047100Y-46690910D01*
X59874760Y-46781007D01*
X59874756Y-46781010D01*
X59869300Y-46783862D01*
X59708134Y-46913442D01*
X59575207Y-47071859D01*
X59475581Y-47253077D01*
X59413052Y-47450195D01*
X59412366Y-47456312D01*
X59412365Y-47456316D01*
X59407605Y-47498753D01*
X59390000Y-47655705D01*
X58967650Y-47655705D01*
X58948921Y-47464688D01*
X58889150Y-47266716D01*
X58792064Y-47084124D01*
X58788173Y-47079354D01*
X58788171Y-47079350D01*
X58665257Y-46928642D01*
X58665254Y-46928639D01*
X58661362Y-46923867D01*
X58654465Y-46918161D01*
X58506770Y-46795977D01*
X58506765Y-46795974D01*
X58502021Y-46792049D01*
X58496602Y-46789119D01*
X58496599Y-46789117D01*
X58325531Y-46696621D01*
X58325526Y-46696619D01*
X58320111Y-46693691D01*
X58122562Y-46632539D01*
X58116437Y-46631895D01*
X58116436Y-46631895D01*
X57923025Y-46611567D01*
X57923023Y-46611567D01*
X57916896Y-46610923D01*
X57790728Y-46622405D01*
X57717090Y-46629106D01*
X57717089Y-46629106D01*
X57710949Y-46629665D01*
X57512565Y-46688053D01*
X57507100Y-46690910D01*
X57334760Y-46781007D01*
X57334756Y-46781010D01*
X57329300Y-46783862D01*
X57168134Y-46913442D01*
X57035207Y-47071859D01*
X56935581Y-47253077D01*
X56873052Y-47450195D01*
X56872366Y-47456312D01*
X56872365Y-47456316D01*
X56867605Y-47498753D01*
X56850000Y-47655705D01*
X56427650Y-47655705D01*
X56408921Y-47464688D01*
X56349150Y-47266716D01*
X56252064Y-47084124D01*
X56248173Y-47079354D01*
X56248171Y-47079350D01*
X56125257Y-46928642D01*
X56125254Y-46928639D01*
X56121362Y-46923867D01*
X56114465Y-46918161D01*
X55966770Y-46795977D01*
X55966765Y-46795974D01*
X55962021Y-46792049D01*
X55956602Y-46789119D01*
X55956599Y-46789117D01*
X55785531Y-46696621D01*
X55785526Y-46696619D01*
X55780111Y-46693691D01*
X55582562Y-46632539D01*
X55576437Y-46631895D01*
X55576436Y-46631895D01*
X55383025Y-46611567D01*
X55383023Y-46611567D01*
X55376896Y-46610923D01*
X55253456Y-46622157D01*
X55188738Y-46628046D01*
X55119085Y-46614300D01*
X55067921Y-46565079D01*
X55051490Y-46496010D01*
X55075008Y-46429022D01*
X55088224Y-46413470D01*
X55365289Y-46136405D01*
X55427601Y-46102379D01*
X55454384Y-46099500D01*
X67851080Y-46099500D01*
X67875028Y-46102049D01*
X67876693Y-46102128D01*
X67886876Y-46104320D01*
X67897217Y-46103096D01*
X67920223Y-46100373D01*
X67926154Y-46100023D01*
X67926146Y-46099928D01*
X67931324Y-46099500D01*
X67936524Y-46099500D01*
X67941653Y-46098646D01*
X67941656Y-46098646D01*
X67955565Y-46096331D01*
X67961443Y-46095494D01*
X68002001Y-46090694D01*
X68002002Y-46090694D01*
X68012341Y-46089470D01*
X68020593Y-46085507D01*
X68029626Y-46084004D01*
X68038795Y-46079057D01*
X68038797Y-46079056D01*
X68074732Y-46059666D01*
X68080025Y-46056969D01*
X68119082Y-46038215D01*
X68119086Y-46038212D01*
X68126232Y-46034781D01*
X68130508Y-46031186D01*
X68132431Y-46029263D01*
X68134363Y-46027491D01*
X68134442Y-46027448D01*
X68134555Y-46027572D01*
X68135095Y-46027096D01*
X68140814Y-46024010D01*
X68177417Y-45984413D01*
X68180846Y-45980848D01*
X69958588Y-44203107D01*
X70020900Y-44169081D01*
X70086618Y-44172369D01*
X70217466Y-44214884D01*
X70422809Y-44239370D01*
X70428944Y-44238898D01*
X70428946Y-44238898D01*
X70622856Y-44223977D01*
X70622860Y-44223976D01*
X70628998Y-44223504D01*
X70828178Y-44167892D01*
X70833682Y-44165112D01*
X70833684Y-44165111D01*
X71007262Y-44077431D01*
X71007264Y-44077430D01*
X71012763Y-44074652D01*
X71175722Y-43947334D01*
X71179748Y-43942670D01*
X71179751Y-43942667D01*
X71306819Y-43795457D01*
X71306820Y-43795455D01*
X71310848Y-43790789D01*
X71412995Y-43610979D01*
X71459815Y-43470232D01*
X71476325Y-43420601D01*
X71476326Y-43420598D01*
X71478270Y-43414753D01*
X71504189Y-43209586D01*
X71504602Y-43180000D01*
X71484422Y-42974189D01*
X71424651Y-42776217D01*
X71327565Y-42593625D01*
X71323674Y-42588855D01*
X71323672Y-42588851D01*
X71200758Y-42438143D01*
X71200755Y-42438140D01*
X71196863Y-42433368D01*
X71189966Y-42427662D01*
X71042271Y-42305478D01*
X71042266Y-42305475D01*
X71037522Y-42301550D01*
X71032103Y-42298620D01*
X71032100Y-42298618D01*
X70861032Y-42206122D01*
X70861027Y-42206120D01*
X70855612Y-42203192D01*
X70658063Y-42142040D01*
X70651938Y-42141396D01*
X70651937Y-42141396D01*
X70458526Y-42121068D01*
X70458524Y-42121068D01*
X70452397Y-42120424D01*
X70326229Y-42131906D01*
X70252591Y-42138607D01*
X70252590Y-42138607D01*
X70246450Y-42139166D01*
X70048066Y-42197554D01*
X70042601Y-42200411D01*
X69870261Y-42290508D01*
X69870257Y-42290511D01*
X69864801Y-42293363D01*
X69703635Y-42422943D01*
X69570708Y-42581360D01*
X69471082Y-42762578D01*
X69469219Y-42768451D01*
X69447528Y-42836830D01*
X69407865Y-42895715D01*
X69342663Y-42923807D01*
X69272623Y-42912190D01*
X69219983Y-42864550D01*
X69205719Y-42831343D01*
X69180236Y-42736239D01*
X69176490Y-42725947D01*
X69084414Y-42528489D01*
X69078931Y-42518994D01*
X69042491Y-42466952D01*
X69032012Y-42458576D01*
X69018566Y-42465644D01*
X67229923Y-44254287D01*
X67223493Y-44266062D01*
X67232789Y-44278077D01*
X67283994Y-44313931D01*
X67293489Y-44319414D01*
X67490947Y-44411490D01*
X67501239Y-44415236D01*
X67711688Y-44471625D01*
X67722481Y-44473528D01*
X67939525Y-44492517D01*
X67950475Y-44492517D01*
X68167519Y-44473528D01*
X68178312Y-44471625D01*
X68322920Y-44432878D01*
X68393896Y-44434568D01*
X68452692Y-44474362D01*
X68480640Y-44539627D01*
X68468866Y-44609640D01*
X68444626Y-44643680D01*
X67784711Y-45303595D01*
X67722399Y-45337621D01*
X67695616Y-45340500D01*
X64085384Y-45340500D01*
X64017263Y-45320498D01*
X63970770Y-45266842D01*
X63960666Y-45196568D01*
X63990160Y-45131988D01*
X63996289Y-45125405D01*
X64215289Y-44906405D01*
X64277601Y-44872379D01*
X64304384Y-44869500D01*
X65452703Y-44869499D01*
X65595066Y-44869499D01*
X65630818Y-44862388D01*
X65657126Y-44857156D01*
X65657128Y-44857155D01*
X65669301Y-44854734D01*
X65679621Y-44847839D01*
X65679622Y-44847838D01*
X65743168Y-44805377D01*
X65753484Y-44798484D01*
X65788508Y-44746068D01*
X65802839Y-44724620D01*
X65809734Y-44714301D01*
X65824500Y-44640067D01*
X65824499Y-43185475D01*
X66632483Y-43185475D01*
X66651472Y-43402519D01*
X66653375Y-43413312D01*
X66709764Y-43623761D01*
X66713510Y-43634053D01*
X66805586Y-43831511D01*
X66811069Y-43841006D01*
X66847509Y-43893048D01*
X66857988Y-43901424D01*
X66871434Y-43894356D01*
X67572978Y-43192812D01*
X67580592Y-43178868D01*
X67580461Y-43177035D01*
X67576210Y-43170420D01*
X66870713Y-42464923D01*
X66858938Y-42458493D01*
X66846923Y-42467789D01*
X66811069Y-42518994D01*
X66805586Y-42528489D01*
X66713510Y-42725947D01*
X66709764Y-42736239D01*
X66653375Y-42946688D01*
X66651472Y-42957481D01*
X66632483Y-43174525D01*
X66632483Y-43185475D01*
X65824499Y-43185475D01*
X65824499Y-42989934D01*
X65817253Y-42953504D01*
X65812156Y-42927874D01*
X65812155Y-42927872D01*
X65809734Y-42915699D01*
X65795978Y-42895111D01*
X65760377Y-42841832D01*
X65753484Y-42831516D01*
X65669301Y-42775266D01*
X65595067Y-42760500D01*
X64770134Y-42760500D01*
X63944934Y-42760501D01*
X63909182Y-42767612D01*
X63882874Y-42772844D01*
X63882872Y-42772845D01*
X63870699Y-42775266D01*
X63860379Y-42782161D01*
X63860378Y-42782162D01*
X63816906Y-42811210D01*
X63786516Y-42831516D01*
X63730266Y-42915699D01*
X63715500Y-42989933D01*
X63715500Y-42996120D01*
X63715501Y-44280615D01*
X63695499Y-44348736D01*
X63678596Y-44369710D01*
X63379711Y-44668595D01*
X63317399Y-44702621D01*
X63290616Y-44705500D01*
X63169615Y-44705500D01*
X63101494Y-44685498D01*
X63055001Y-44631842D01*
X63044897Y-44561568D01*
X63074234Y-44497169D01*
X63135848Y-44425789D01*
X63219761Y-44278077D01*
X63234950Y-44251340D01*
X63234952Y-44251336D01*
X63237995Y-44245979D01*
X63294063Y-44077431D01*
X63301325Y-44055601D01*
X63301326Y-44055598D01*
X63303270Y-44049753D01*
X63329189Y-43844586D01*
X63329602Y-43815000D01*
X63309422Y-43609189D01*
X63249651Y-43411217D01*
X63152565Y-43228625D01*
X63148674Y-43223855D01*
X63148672Y-43223851D01*
X63025758Y-43073143D01*
X63025755Y-43073140D01*
X63021863Y-43068368D01*
X63014966Y-43062662D01*
X62867271Y-42940478D01*
X62867266Y-42940475D01*
X62862522Y-42936550D01*
X62857103Y-42933620D01*
X62857100Y-42933618D01*
X62686032Y-42841122D01*
X62686027Y-42841120D01*
X62680612Y-42838192D01*
X62483063Y-42777040D01*
X62476938Y-42776396D01*
X62476937Y-42776396D01*
X62283526Y-42756068D01*
X62283524Y-42756068D01*
X62277397Y-42755424D01*
X62151229Y-42766906D01*
X62077591Y-42773607D01*
X62077590Y-42773607D01*
X62071450Y-42774166D01*
X61873066Y-42832554D01*
X61867601Y-42835411D01*
X61695261Y-42925508D01*
X61695257Y-42925511D01*
X61689801Y-42928363D01*
X61528635Y-43057943D01*
X61395708Y-43216360D01*
X61296082Y-43397578D01*
X61233553Y-43594696D01*
X61232867Y-43600813D01*
X61232866Y-43600817D01*
X61229138Y-43634053D01*
X61210501Y-43800206D01*
X61227806Y-44006278D01*
X61284807Y-44205066D01*
X61287625Y-44210548D01*
X61287626Y-44210552D01*
X61376514Y-44383509D01*
X61376517Y-44383513D01*
X61379334Y-44388995D01*
X61383163Y-44393826D01*
X61468295Y-44501236D01*
X61494932Y-44567046D01*
X61481761Y-44636810D01*
X61432964Y-44688379D01*
X61369549Y-44705500D01*
X59954615Y-44705500D01*
X59886494Y-44685498D01*
X59840001Y-44631842D01*
X59829897Y-44561568D01*
X59859234Y-44497169D01*
X59920848Y-44425789D01*
X60004761Y-44278077D01*
X60019950Y-44251340D01*
X60019952Y-44251336D01*
X60022995Y-44245979D01*
X60079063Y-44077431D01*
X60086325Y-44055601D01*
X60086326Y-44055598D01*
X60088270Y-44049753D01*
X60114189Y-43844586D01*
X60114602Y-43815000D01*
X60094422Y-43609189D01*
X60034651Y-43411217D01*
X59937565Y-43228625D01*
X59933674Y-43223855D01*
X59933672Y-43223851D01*
X59810758Y-43073143D01*
X59810755Y-43073140D01*
X59806863Y-43068368D01*
X59799966Y-43062662D01*
X59652271Y-42940478D01*
X59652266Y-42940475D01*
X59647522Y-42936550D01*
X59642103Y-42933620D01*
X59642100Y-42933618D01*
X59471032Y-42841122D01*
X59471027Y-42841120D01*
X59465612Y-42838192D01*
X59268063Y-42777040D01*
X59261938Y-42776396D01*
X59261937Y-42776396D01*
X59068526Y-42756068D01*
X59068524Y-42756068D01*
X59062397Y-42755424D01*
X58936229Y-42766906D01*
X58862591Y-42773607D01*
X58862590Y-42773607D01*
X58856450Y-42774166D01*
X58658066Y-42832554D01*
X58652601Y-42835411D01*
X58480261Y-42925508D01*
X58480257Y-42925511D01*
X58474801Y-42928363D01*
X58313635Y-43057943D01*
X58180708Y-43216360D01*
X58081082Y-43397578D01*
X58018553Y-43594696D01*
X58017867Y-43600813D01*
X58017866Y-43600817D01*
X58014138Y-43634053D01*
X57995501Y-43800206D01*
X58012806Y-44006278D01*
X58069807Y-44205066D01*
X58072625Y-44210548D01*
X58072626Y-44210552D01*
X58161514Y-44383509D01*
X58161517Y-44383513D01*
X58164334Y-44388995D01*
X58168163Y-44393826D01*
X58253295Y-44501236D01*
X58279932Y-44567046D01*
X58266761Y-44636810D01*
X58217964Y-44688379D01*
X58154549Y-44705500D01*
X57359384Y-44705500D01*
X57291263Y-44685498D01*
X57270289Y-44668595D01*
X56902941Y-44301247D01*
X56868915Y-44238935D01*
X56872478Y-44172380D01*
X56911323Y-44055607D01*
X56911324Y-44055604D01*
X56913270Y-44049753D01*
X56939189Y-43844586D01*
X56939602Y-43815000D01*
X56919422Y-43609189D01*
X56859651Y-43411217D01*
X56762565Y-43228625D01*
X56758674Y-43223855D01*
X56758672Y-43223851D01*
X56635758Y-43073143D01*
X56635755Y-43073140D01*
X56631863Y-43068368D01*
X56624966Y-43062662D01*
X56477271Y-42940478D01*
X56477266Y-42940475D01*
X56472522Y-42936550D01*
X56467103Y-42933620D01*
X56467100Y-42933618D01*
X56296032Y-42841122D01*
X56296027Y-42841120D01*
X56290612Y-42838192D01*
X56093063Y-42777040D01*
X56086938Y-42776396D01*
X56086937Y-42776396D01*
X55893526Y-42756068D01*
X55893524Y-42756068D01*
X55887397Y-42755424D01*
X55761229Y-42766906D01*
X55687591Y-42773607D01*
X55687590Y-42773607D01*
X55681450Y-42774166D01*
X55483066Y-42832554D01*
X55477601Y-42835411D01*
X55305261Y-42925508D01*
X55305257Y-42925511D01*
X55299801Y-42928363D01*
X55138635Y-43057943D01*
X55005708Y-43216360D01*
X54921131Y-43370204D01*
X54870788Y-43420260D01*
X54810719Y-43435500D01*
X53773270Y-43435500D01*
X53705149Y-43415498D01*
X53662019Y-43368653D01*
X53590459Y-43234067D01*
X53590457Y-43234064D01*
X53587565Y-43228625D01*
X53583674Y-43223855D01*
X53583672Y-43223851D01*
X53460758Y-43073143D01*
X53460755Y-43073140D01*
X53456863Y-43068368D01*
X53449966Y-43062662D01*
X53302271Y-42940478D01*
X53302266Y-42940475D01*
X53297522Y-42936550D01*
X53292103Y-42933620D01*
X53292100Y-42933618D01*
X53121032Y-42841122D01*
X53121027Y-42841120D01*
X53115612Y-42838192D01*
X52918063Y-42777040D01*
X52911938Y-42776396D01*
X52911937Y-42776396D01*
X52718526Y-42756068D01*
X52718524Y-42756068D01*
X52712397Y-42755424D01*
X52586229Y-42766906D01*
X52512591Y-42773607D01*
X52512590Y-42773607D01*
X52506450Y-42774166D01*
X52308066Y-42832554D01*
X52302601Y-42835411D01*
X52130261Y-42925508D01*
X52130257Y-42925511D01*
X52124801Y-42928363D01*
X51963635Y-43057943D01*
X51830708Y-43216360D01*
X51731082Y-43397578D01*
X51668553Y-43594696D01*
X51667867Y-43600813D01*
X51667866Y-43600817D01*
X51664138Y-43634053D01*
X51645501Y-43800206D01*
X51054000Y-43800206D01*
X51054000Y-41726062D01*
X66588493Y-41726062D01*
X66597789Y-41738077D01*
X66648994Y-41773931D01*
X66658489Y-41779414D01*
X66855947Y-41871490D01*
X66866239Y-41875236D01*
X67076688Y-41931625D01*
X67087490Y-41933530D01*
X67109854Y-41935487D01*
X67175971Y-41961351D01*
X67217610Y-42018855D01*
X67224201Y-42073978D01*
X67222454Y-42090854D01*
X67230644Y-42106434D01*
X67932188Y-42807978D01*
X67946132Y-42815592D01*
X67947965Y-42815461D01*
X67954580Y-42811210D01*
X68660077Y-42105713D01*
X68666507Y-42093938D01*
X68657211Y-42081923D01*
X68606006Y-42046069D01*
X68596511Y-42040586D01*
X68399053Y-41948510D01*
X68388761Y-41944764D01*
X68178312Y-41888375D01*
X68167510Y-41886470D01*
X68145146Y-41884513D01*
X68079029Y-41858649D01*
X68037390Y-41801145D01*
X68030799Y-41746022D01*
X68032546Y-41729146D01*
X68024356Y-41713566D01*
X67322812Y-41012022D01*
X67308868Y-41004408D01*
X67307035Y-41004539D01*
X67300420Y-41008790D01*
X66594923Y-41714287D01*
X66588493Y-41726062D01*
X51054000Y-41726062D01*
X51054000Y-40645475D01*
X65997483Y-40645475D01*
X66016472Y-40862519D01*
X66018375Y-40873312D01*
X66074764Y-41083761D01*
X66078510Y-41094053D01*
X66170586Y-41291511D01*
X66176069Y-41301006D01*
X66212509Y-41353048D01*
X66222988Y-41361424D01*
X66236434Y-41354356D01*
X66937978Y-40652812D01*
X66944356Y-40641132D01*
X67674408Y-40641132D01*
X67674539Y-40642965D01*
X67678790Y-40649580D01*
X68384287Y-41355077D01*
X68396062Y-41361507D01*
X68408077Y-41352211D01*
X68443931Y-41301006D01*
X68449414Y-41291511D01*
X68541490Y-41094053D01*
X68545236Y-41083761D01*
X68601625Y-40873312D01*
X68603528Y-40862519D01*
X68622517Y-40645475D01*
X68622517Y-40634525D01*
X68621702Y-40625206D01*
X70060501Y-40625206D01*
X70077806Y-40831278D01*
X70134807Y-41030066D01*
X70137625Y-41035548D01*
X70137626Y-41035552D01*
X70226514Y-41208509D01*
X70226517Y-41208513D01*
X70229334Y-41213995D01*
X70357786Y-41376061D01*
X70362479Y-41380055D01*
X70362480Y-41380056D01*
X70504325Y-41500775D01*
X70515271Y-41510091D01*
X70695789Y-41610980D01*
X70892466Y-41674884D01*
X71097809Y-41699370D01*
X71103944Y-41698898D01*
X71103946Y-41698898D01*
X71297856Y-41683977D01*
X71297860Y-41683976D01*
X71303998Y-41683504D01*
X71503178Y-41627892D01*
X71508682Y-41625112D01*
X71508684Y-41625111D01*
X71682262Y-41537431D01*
X71682264Y-41537430D01*
X71687763Y-41534652D01*
X71692618Y-41530859D01*
X71692624Y-41530855D01*
X71832301Y-41421727D01*
X71898295Y-41395549D01*
X71967965Y-41409206D01*
X72019192Y-41458362D01*
X72035712Y-41527411D01*
X72029977Y-41559111D01*
X71988553Y-41689696D01*
X71987867Y-41695813D01*
X71987866Y-41695817D01*
X71968161Y-41871490D01*
X71965501Y-41895206D01*
X71966743Y-41910000D01*
X71982190Y-42093938D01*
X71982806Y-42101278D01*
X72039807Y-42300066D01*
X72042625Y-42305548D01*
X72042626Y-42305552D01*
X72131514Y-42478509D01*
X72131517Y-42478513D01*
X72134334Y-42483995D01*
X72262786Y-42646061D01*
X72267479Y-42650055D01*
X72267480Y-42650056D01*
X72414602Y-42775266D01*
X72420271Y-42780091D01*
X72600789Y-42880980D01*
X72797466Y-42944884D01*
X73002809Y-42969370D01*
X73008944Y-42968898D01*
X73008946Y-42968898D01*
X73202856Y-42953977D01*
X73202860Y-42953976D01*
X73208998Y-42953504D01*
X73408178Y-42897892D01*
X73413682Y-42895112D01*
X73413684Y-42895111D01*
X73587262Y-42807431D01*
X73587264Y-42807430D01*
X73592763Y-42804652D01*
X73755722Y-42677334D01*
X73759748Y-42672670D01*
X73759751Y-42672667D01*
X73886819Y-42525457D01*
X73886820Y-42525455D01*
X73890848Y-42520789D01*
X73992995Y-42340979D01*
X74025632Y-42242866D01*
X74056325Y-42150601D01*
X74056326Y-42150598D01*
X74058270Y-42144753D01*
X74084189Y-41939586D01*
X74084602Y-41910000D01*
X74083151Y-41895206D01*
X82125501Y-41895206D01*
X82126743Y-41910000D01*
X82142190Y-42093938D01*
X82142806Y-42101278D01*
X82199807Y-42300066D01*
X82202625Y-42305548D01*
X82202626Y-42305552D01*
X82291514Y-42478509D01*
X82291517Y-42478513D01*
X82294334Y-42483995D01*
X82422786Y-42646061D01*
X82427479Y-42650055D01*
X82427480Y-42650056D01*
X82574602Y-42775266D01*
X82580271Y-42780091D01*
X82760789Y-42880980D01*
X82957466Y-42944884D01*
X83162809Y-42969370D01*
X83168944Y-42968898D01*
X83168946Y-42968898D01*
X83362856Y-42953977D01*
X83362860Y-42953976D01*
X83368998Y-42953504D01*
X83568178Y-42897892D01*
X83573682Y-42895112D01*
X83573684Y-42895111D01*
X83747262Y-42807431D01*
X83747264Y-42807430D01*
X83752763Y-42804652D01*
X83915722Y-42677334D01*
X83919748Y-42672670D01*
X83919751Y-42672667D01*
X84046819Y-42525457D01*
X84046820Y-42525455D01*
X84050848Y-42520789D01*
X84152995Y-42340979D01*
X84185632Y-42242866D01*
X84216325Y-42150601D01*
X84216326Y-42150598D01*
X84218270Y-42144753D01*
X84244189Y-41939586D01*
X84244602Y-41910000D01*
X84224422Y-41704189D01*
X84164651Y-41506217D01*
X84092877Y-41371230D01*
X84070459Y-41329067D01*
X84070457Y-41329064D01*
X84067565Y-41323625D01*
X84063674Y-41318855D01*
X84063672Y-41318851D01*
X83940758Y-41168143D01*
X83940755Y-41168140D01*
X83936863Y-41163368D01*
X83929966Y-41157662D01*
X83782271Y-41035478D01*
X83782266Y-41035475D01*
X83777522Y-41031550D01*
X83772103Y-41028620D01*
X83772100Y-41028618D01*
X83601032Y-40936122D01*
X83601027Y-40936120D01*
X83595612Y-40933192D01*
X83398063Y-40872040D01*
X83391938Y-40871396D01*
X83391937Y-40871396D01*
X83198526Y-40851068D01*
X83198524Y-40851068D01*
X83192397Y-40850424D01*
X83066229Y-40861906D01*
X82992591Y-40868607D01*
X82992590Y-40868607D01*
X82986450Y-40869166D01*
X82788066Y-40927554D01*
X82782601Y-40930411D01*
X82610261Y-41020508D01*
X82610257Y-41020511D01*
X82604801Y-41023363D01*
X82443635Y-41152943D01*
X82310708Y-41311360D01*
X82211082Y-41492578D01*
X82148553Y-41689696D01*
X82147867Y-41695813D01*
X82147866Y-41695817D01*
X82128161Y-41871490D01*
X82125501Y-41895206D01*
X74083151Y-41895206D01*
X74064422Y-41704189D01*
X74004651Y-41506217D01*
X73932877Y-41371230D01*
X73910459Y-41329067D01*
X73910457Y-41329064D01*
X73907565Y-41323625D01*
X73903674Y-41318855D01*
X73903672Y-41318851D01*
X73780758Y-41168143D01*
X73780755Y-41168140D01*
X73776863Y-41163368D01*
X73769966Y-41157662D01*
X73622271Y-41035478D01*
X73622266Y-41035475D01*
X73617522Y-41031550D01*
X73612103Y-41028620D01*
X73612100Y-41028618D01*
X73441032Y-40936122D01*
X73441027Y-40936120D01*
X73435612Y-40933192D01*
X73238063Y-40872040D01*
X73231938Y-40871396D01*
X73231937Y-40871396D01*
X73038526Y-40851068D01*
X73038524Y-40851068D01*
X73032397Y-40850424D01*
X72906229Y-40861906D01*
X72832591Y-40868607D01*
X72832590Y-40868607D01*
X72826450Y-40869166D01*
X72628066Y-40927554D01*
X72622601Y-40930411D01*
X72450261Y-41020508D01*
X72450257Y-41020511D01*
X72444801Y-41023363D01*
X72440001Y-41027223D01*
X72440000Y-41027223D01*
X72312986Y-41129344D01*
X72247363Y-41156440D01*
X72177509Y-41143756D01*
X72125601Y-41095320D01*
X72108119Y-41026509D01*
X72114476Y-40991376D01*
X72151323Y-40880610D01*
X72151326Y-40880597D01*
X72153270Y-40874753D01*
X72179189Y-40669586D01*
X72179602Y-40640000D01*
X72159422Y-40434189D01*
X72099651Y-40236217D01*
X72002565Y-40053625D01*
X71998674Y-40048855D01*
X71998672Y-40048851D01*
X71875758Y-39898143D01*
X71875755Y-39898140D01*
X71871863Y-39893368D01*
X71864966Y-39887662D01*
X71717271Y-39765478D01*
X71717266Y-39765475D01*
X71712522Y-39761550D01*
X71707103Y-39758620D01*
X71707100Y-39758618D01*
X71536032Y-39666122D01*
X71536027Y-39666120D01*
X71530612Y-39663192D01*
X71333063Y-39602040D01*
X71326938Y-39601396D01*
X71326937Y-39601396D01*
X71133526Y-39581068D01*
X71133524Y-39581068D01*
X71127397Y-39580424D01*
X71001229Y-39591906D01*
X70927591Y-39598607D01*
X70927590Y-39598607D01*
X70921450Y-39599166D01*
X70723066Y-39657554D01*
X70717601Y-39660411D01*
X70545261Y-39750508D01*
X70545257Y-39750511D01*
X70539801Y-39753363D01*
X70378635Y-39882943D01*
X70245708Y-40041360D01*
X70146082Y-40222578D01*
X70083553Y-40419696D01*
X70060501Y-40625206D01*
X68621702Y-40625206D01*
X68603528Y-40417481D01*
X68601625Y-40406688D01*
X68545236Y-40196239D01*
X68541490Y-40185947D01*
X68449414Y-39988489D01*
X68443931Y-39978994D01*
X68407491Y-39926952D01*
X68397012Y-39918576D01*
X68383566Y-39925644D01*
X67682022Y-40627188D01*
X67674408Y-40641132D01*
X66944356Y-40641132D01*
X66945592Y-40638868D01*
X66945461Y-40637035D01*
X66941210Y-40630420D01*
X66235713Y-39924923D01*
X66223938Y-39918493D01*
X66211923Y-39927789D01*
X66176069Y-39978994D01*
X66170586Y-39988489D01*
X66078510Y-40185947D01*
X66074764Y-40196239D01*
X66018375Y-40406688D01*
X66016472Y-40417481D01*
X65997483Y-40634525D01*
X65997483Y-40645475D01*
X51054000Y-40645475D01*
X51054000Y-39552988D01*
X66588576Y-39552988D01*
X66595644Y-39566434D01*
X67297188Y-40267978D01*
X67311132Y-40275592D01*
X67312965Y-40275461D01*
X67319580Y-40271210D01*
X68025077Y-39565713D01*
X68031507Y-39553938D01*
X68022211Y-39541923D01*
X67971006Y-39506069D01*
X67961511Y-39500586D01*
X67764053Y-39408510D01*
X67753761Y-39404764D01*
X67543312Y-39348375D01*
X67532519Y-39346472D01*
X67315475Y-39327483D01*
X67304525Y-39327483D01*
X67087481Y-39346472D01*
X67076688Y-39348375D01*
X66866239Y-39404764D01*
X66855947Y-39408510D01*
X66658489Y-39500586D01*
X66648994Y-39506069D01*
X66596952Y-39542509D01*
X66588576Y-39552988D01*
X51054000Y-39552988D01*
X51054000Y-38742207D01*
X73235501Y-38742207D01*
X73252806Y-38948279D01*
X73309807Y-39147067D01*
X73312625Y-39152549D01*
X73312626Y-39152553D01*
X73401514Y-39325510D01*
X73401517Y-39325514D01*
X73404334Y-39330996D01*
X73532786Y-39493062D01*
X73537479Y-39497056D01*
X73537480Y-39497057D01*
X73659504Y-39600907D01*
X73690271Y-39627092D01*
X73870789Y-39727981D01*
X74067466Y-39791885D01*
X74272809Y-39816371D01*
X74278944Y-39815899D01*
X74278946Y-39815899D01*
X74472856Y-39800978D01*
X74472860Y-39800977D01*
X74478998Y-39800505D01*
X74678178Y-39744893D01*
X74683682Y-39742113D01*
X74683684Y-39742112D01*
X74857262Y-39654432D01*
X74857264Y-39654431D01*
X74862763Y-39651653D01*
X75025722Y-39524335D01*
X75029748Y-39519671D01*
X75029751Y-39519668D01*
X75156819Y-39372458D01*
X75156820Y-39372456D01*
X75160848Y-39367790D01*
X75262995Y-39187980D01*
X75319002Y-39019616D01*
X75326325Y-38997602D01*
X75326326Y-38997599D01*
X75328270Y-38991754D01*
X75354189Y-38786587D01*
X75354602Y-38757001D01*
X75353151Y-38742207D01*
X75775501Y-38742207D01*
X75792806Y-38948279D01*
X75849807Y-39147067D01*
X75852625Y-39152549D01*
X75852626Y-39152553D01*
X75941514Y-39325510D01*
X75941517Y-39325514D01*
X75944334Y-39330996D01*
X76072786Y-39493062D01*
X76077479Y-39497056D01*
X76077480Y-39497057D01*
X76199504Y-39600907D01*
X76230271Y-39627092D01*
X76410789Y-39727981D01*
X76607466Y-39791885D01*
X76812809Y-39816371D01*
X76818944Y-39815899D01*
X76818946Y-39815899D01*
X77012856Y-39800978D01*
X77012860Y-39800977D01*
X77018998Y-39800505D01*
X77218178Y-39744893D01*
X77223682Y-39742113D01*
X77223684Y-39742112D01*
X77397262Y-39654432D01*
X77397264Y-39654431D01*
X77402763Y-39651653D01*
X77565722Y-39524335D01*
X77569748Y-39519671D01*
X77569751Y-39519668D01*
X77696819Y-39372458D01*
X77696820Y-39372456D01*
X77700848Y-39367790D01*
X77802995Y-39187980D01*
X77859002Y-39019616D01*
X77866325Y-38997602D01*
X77866326Y-38997599D01*
X77868270Y-38991754D01*
X77894189Y-38786587D01*
X77894602Y-38757001D01*
X77893151Y-38742207D01*
X78315501Y-38742207D01*
X78332806Y-38948279D01*
X78389807Y-39147067D01*
X78392625Y-39152549D01*
X78392626Y-39152553D01*
X78481514Y-39325510D01*
X78481517Y-39325514D01*
X78484334Y-39330996D01*
X78612786Y-39493062D01*
X78617479Y-39497056D01*
X78617480Y-39497057D01*
X78739504Y-39600907D01*
X78770271Y-39627092D01*
X78950789Y-39727981D01*
X79147466Y-39791885D01*
X79352809Y-39816371D01*
X79358944Y-39815899D01*
X79358946Y-39815899D01*
X79552856Y-39800978D01*
X79552860Y-39800977D01*
X79558998Y-39800505D01*
X79758178Y-39744893D01*
X79763682Y-39742113D01*
X79763684Y-39742112D01*
X79937262Y-39654432D01*
X79937264Y-39654431D01*
X79942763Y-39651653D01*
X80105722Y-39524335D01*
X80109748Y-39519671D01*
X80109751Y-39519668D01*
X80236819Y-39372458D01*
X80236820Y-39372456D01*
X80240848Y-39367790D01*
X80342995Y-39187980D01*
X80399002Y-39019616D01*
X80406325Y-38997602D01*
X80406326Y-38997599D01*
X80408270Y-38991754D01*
X80434189Y-38786587D01*
X80434602Y-38757001D01*
X80433151Y-38742207D01*
X80855501Y-38742207D01*
X80872806Y-38948279D01*
X80929807Y-39147067D01*
X80932625Y-39152549D01*
X80932626Y-39152553D01*
X81021514Y-39325510D01*
X81021517Y-39325514D01*
X81024334Y-39330996D01*
X81152786Y-39493062D01*
X81157479Y-39497056D01*
X81157480Y-39497057D01*
X81279504Y-39600907D01*
X81310271Y-39627092D01*
X81490789Y-39727981D01*
X81687466Y-39791885D01*
X81892809Y-39816371D01*
X81898944Y-39815899D01*
X81898946Y-39815899D01*
X82092856Y-39800978D01*
X82092860Y-39800977D01*
X82098998Y-39800505D01*
X82298178Y-39744893D01*
X82303682Y-39742113D01*
X82303684Y-39742112D01*
X82477262Y-39654432D01*
X82477264Y-39654431D01*
X82482763Y-39651653D01*
X82645722Y-39524335D01*
X82649748Y-39519671D01*
X82649751Y-39519668D01*
X82776819Y-39372458D01*
X82776820Y-39372456D01*
X82780848Y-39367790D01*
X82876017Y-39200264D01*
X82927057Y-39150913D01*
X82985573Y-39136501D01*
X83240079Y-39136501D01*
X83264027Y-39139050D01*
X83265692Y-39139129D01*
X83275875Y-39141321D01*
X83286216Y-39140097D01*
X83309222Y-39137374D01*
X83315153Y-39137024D01*
X83315145Y-39136929D01*
X83320323Y-39136501D01*
X83325523Y-39136501D01*
X83330652Y-39135647D01*
X83330655Y-39135647D01*
X83344564Y-39133332D01*
X83350442Y-39132495D01*
X83391000Y-39127695D01*
X83391001Y-39127695D01*
X83401340Y-39126471D01*
X83409592Y-39122508D01*
X83418625Y-39121005D01*
X83427794Y-39116058D01*
X83427796Y-39116057D01*
X83463731Y-39096667D01*
X83469024Y-39093970D01*
X83508081Y-39075216D01*
X83508085Y-39075213D01*
X83515231Y-39071782D01*
X83519507Y-39068187D01*
X83521430Y-39066264D01*
X83523362Y-39064492D01*
X83523441Y-39064449D01*
X83523554Y-39064573D01*
X83524094Y-39064097D01*
X83529813Y-39061011D01*
X83566416Y-39021414D01*
X83569845Y-39017849D01*
X84603587Y-37984107D01*
X84665899Y-37950081D01*
X84731618Y-37953369D01*
X84862466Y-37995884D01*
X85067809Y-38020370D01*
X85073944Y-38019898D01*
X85073946Y-38019898D01*
X85267856Y-38004977D01*
X85267860Y-38004976D01*
X85273998Y-38004504D01*
X85473178Y-37948892D01*
X85478682Y-37946112D01*
X85478684Y-37946111D01*
X85652262Y-37858431D01*
X85652264Y-37858430D01*
X85657763Y-37855652D01*
X85820722Y-37728334D01*
X85824748Y-37723670D01*
X85824751Y-37723667D01*
X85951819Y-37576457D01*
X85951820Y-37576455D01*
X85955848Y-37571789D01*
X86057995Y-37391979D01*
X86123270Y-37195753D01*
X86149189Y-36990586D01*
X86149602Y-36961000D01*
X86129422Y-36755189D01*
X86069651Y-36557217D01*
X85972565Y-36374625D01*
X85968674Y-36369855D01*
X85968672Y-36369851D01*
X85845758Y-36219143D01*
X85845755Y-36219140D01*
X85841863Y-36214368D01*
X85834966Y-36208662D01*
X85687271Y-36086478D01*
X85687266Y-36086475D01*
X85682522Y-36082550D01*
X85677103Y-36079620D01*
X85677100Y-36079618D01*
X85506032Y-35987122D01*
X85506027Y-35987120D01*
X85500612Y-35984192D01*
X85434382Y-35963690D01*
X85375224Y-35924440D01*
X85346676Y-35859436D01*
X85357804Y-35789317D01*
X85405075Y-35736345D01*
X85439030Y-35721619D01*
X85533764Y-35696235D01*
X85544053Y-35692490D01*
X85741511Y-35600414D01*
X85751006Y-35594931D01*
X85803048Y-35558491D01*
X85811424Y-35548012D01*
X85804356Y-35534566D01*
X85102812Y-34833022D01*
X85088868Y-34825408D01*
X85087035Y-34825539D01*
X85080420Y-34829790D01*
X84374923Y-35535287D01*
X84368493Y-35547062D01*
X84377789Y-35559077D01*
X84428994Y-35594931D01*
X84438489Y-35600414D01*
X84635947Y-35692490D01*
X84646239Y-35696236D01*
X84739874Y-35721325D01*
X84800497Y-35758277D01*
X84831518Y-35822137D01*
X84823090Y-35892632D01*
X84777887Y-35947379D01*
X84742840Y-35963905D01*
X84693066Y-35978554D01*
X84687601Y-35981411D01*
X84515261Y-36071508D01*
X84515257Y-36071511D01*
X84509801Y-36074363D01*
X84348635Y-36203943D01*
X84215708Y-36362360D01*
X84116082Y-36543578D01*
X84053553Y-36740696D01*
X84030501Y-36946206D01*
X84047806Y-37152278D01*
X84049505Y-37158203D01*
X84097371Y-37325134D01*
X84096920Y-37396129D01*
X84065347Y-37448959D01*
X83173710Y-38340596D01*
X83111398Y-38374622D01*
X83084615Y-38377501D01*
X82983270Y-38377501D01*
X82915149Y-38357499D01*
X82872019Y-38310654D01*
X82800459Y-38176068D01*
X82800457Y-38176065D01*
X82797565Y-38170626D01*
X82793674Y-38165856D01*
X82793672Y-38165852D01*
X82670758Y-38015144D01*
X82670755Y-38015141D01*
X82666863Y-38010369D01*
X82662114Y-38006440D01*
X82512271Y-37882479D01*
X82512266Y-37882476D01*
X82507522Y-37878551D01*
X82502103Y-37875621D01*
X82502100Y-37875619D01*
X82331032Y-37783123D01*
X82331027Y-37783121D01*
X82325612Y-37780193D01*
X82128063Y-37719041D01*
X82121938Y-37718397D01*
X82121937Y-37718397D01*
X81928526Y-37698069D01*
X81928524Y-37698069D01*
X81922397Y-37697425D01*
X81796229Y-37708907D01*
X81722591Y-37715608D01*
X81722590Y-37715608D01*
X81716450Y-37716167D01*
X81518066Y-37774555D01*
X81512601Y-37777412D01*
X81340261Y-37867509D01*
X81340257Y-37867512D01*
X81334801Y-37870364D01*
X81173635Y-37999944D01*
X81040708Y-38158361D01*
X80941082Y-38339579D01*
X80878553Y-38536697D01*
X80855501Y-38742207D01*
X80433151Y-38742207D01*
X80414422Y-38551190D01*
X80354651Y-38353218D01*
X80257565Y-38170626D01*
X80253674Y-38165856D01*
X80253672Y-38165852D01*
X80130758Y-38015144D01*
X80130755Y-38015141D01*
X80126863Y-38010369D01*
X80122114Y-38006440D01*
X79972271Y-37882479D01*
X79972266Y-37882476D01*
X79967522Y-37878551D01*
X79962103Y-37875621D01*
X79962100Y-37875619D01*
X79791032Y-37783123D01*
X79791027Y-37783121D01*
X79785612Y-37780193D01*
X79588063Y-37719041D01*
X79581938Y-37718397D01*
X79581937Y-37718397D01*
X79388526Y-37698069D01*
X79388524Y-37698069D01*
X79382397Y-37697425D01*
X79256229Y-37708907D01*
X79182591Y-37715608D01*
X79182590Y-37715608D01*
X79176450Y-37716167D01*
X78978066Y-37774555D01*
X78972601Y-37777412D01*
X78800261Y-37867509D01*
X78800257Y-37867512D01*
X78794801Y-37870364D01*
X78633635Y-37999944D01*
X78500708Y-38158361D01*
X78401082Y-38339579D01*
X78338553Y-38536697D01*
X78315501Y-38742207D01*
X77893151Y-38742207D01*
X77874422Y-38551190D01*
X77814651Y-38353218D01*
X77717565Y-38170626D01*
X77713674Y-38165856D01*
X77713672Y-38165852D01*
X77590758Y-38015144D01*
X77590755Y-38015141D01*
X77586863Y-38010369D01*
X77582114Y-38006440D01*
X77432271Y-37882479D01*
X77432266Y-37882476D01*
X77427522Y-37878551D01*
X77422103Y-37875621D01*
X77422100Y-37875619D01*
X77251032Y-37783123D01*
X77251027Y-37783121D01*
X77245612Y-37780193D01*
X77048063Y-37719041D01*
X77041938Y-37718397D01*
X77041937Y-37718397D01*
X76848526Y-37698069D01*
X76848524Y-37698069D01*
X76842397Y-37697425D01*
X76716229Y-37708907D01*
X76642591Y-37715608D01*
X76642590Y-37715608D01*
X76636450Y-37716167D01*
X76438066Y-37774555D01*
X76432601Y-37777412D01*
X76260261Y-37867509D01*
X76260257Y-37867512D01*
X76254801Y-37870364D01*
X76093635Y-37999944D01*
X75960708Y-38158361D01*
X75861082Y-38339579D01*
X75798553Y-38536697D01*
X75775501Y-38742207D01*
X75353151Y-38742207D01*
X75334422Y-38551190D01*
X75274651Y-38353218D01*
X75177565Y-38170626D01*
X75173674Y-38165856D01*
X75173672Y-38165852D01*
X75050758Y-38015144D01*
X75050755Y-38015141D01*
X75046863Y-38010369D01*
X75042114Y-38006440D01*
X74892271Y-37882479D01*
X74892266Y-37882476D01*
X74887522Y-37878551D01*
X74882103Y-37875621D01*
X74882100Y-37875619D01*
X74711032Y-37783123D01*
X74711027Y-37783121D01*
X74705612Y-37780193D01*
X74508063Y-37719041D01*
X74501938Y-37718397D01*
X74501937Y-37718397D01*
X74308526Y-37698069D01*
X74308524Y-37698069D01*
X74302397Y-37697425D01*
X74176229Y-37708907D01*
X74102591Y-37715608D01*
X74102590Y-37715608D01*
X74096450Y-37716167D01*
X73898066Y-37774555D01*
X73892601Y-37777412D01*
X73720261Y-37867509D01*
X73720257Y-37867512D01*
X73714801Y-37870364D01*
X73553635Y-37999944D01*
X73420708Y-38158361D01*
X73321082Y-38339579D01*
X73258553Y-38536697D01*
X73235501Y-38742207D01*
X51054000Y-38742207D01*
X51054000Y-33640206D01*
X51645501Y-33640206D01*
X51646743Y-33655000D01*
X51659717Y-33809489D01*
X51662806Y-33846278D01*
X51719807Y-34045066D01*
X51722625Y-34050548D01*
X51722626Y-34050552D01*
X51811514Y-34223509D01*
X51811517Y-34223513D01*
X51814334Y-34228995D01*
X51942786Y-34391061D01*
X51947479Y-34395055D01*
X51947480Y-34395056D01*
X52036221Y-34470580D01*
X52100271Y-34525091D01*
X52280789Y-34625980D01*
X52477466Y-34689884D01*
X52682809Y-34714370D01*
X52688944Y-34713898D01*
X52688946Y-34713898D01*
X52882856Y-34698977D01*
X52882860Y-34698976D01*
X52888998Y-34698504D01*
X53088178Y-34642892D01*
X53093682Y-34640112D01*
X53093684Y-34640111D01*
X53267262Y-34552431D01*
X53267264Y-34552430D01*
X53272763Y-34549652D01*
X53435722Y-34422334D01*
X53439748Y-34417670D01*
X53439751Y-34417667D01*
X53566819Y-34270457D01*
X53566820Y-34270455D01*
X53570848Y-34265789D01*
X53666966Y-34096592D01*
X53669950Y-34091340D01*
X53669952Y-34091336D01*
X53672995Y-34085979D01*
X53738270Y-33889753D01*
X53764189Y-33684586D01*
X53764602Y-33655000D01*
X53763151Y-33640206D01*
X54820501Y-33640206D01*
X54821743Y-33655000D01*
X54834717Y-33809489D01*
X54837806Y-33846278D01*
X54894807Y-34045066D01*
X54897625Y-34050548D01*
X54897626Y-34050552D01*
X54986514Y-34223509D01*
X54986517Y-34223513D01*
X54989334Y-34228995D01*
X55117786Y-34391061D01*
X55122479Y-34395055D01*
X55122480Y-34395056D01*
X55211221Y-34470580D01*
X55275271Y-34525091D01*
X55455789Y-34625980D01*
X55652466Y-34689884D01*
X55857809Y-34714370D01*
X55863944Y-34713898D01*
X55863946Y-34713898D01*
X56057856Y-34698977D01*
X56057860Y-34698976D01*
X56063998Y-34698504D01*
X56263178Y-34642892D01*
X56268682Y-34640112D01*
X56268684Y-34640111D01*
X56442262Y-34552431D01*
X56442264Y-34552430D01*
X56447763Y-34549652D01*
X56610722Y-34422334D01*
X56614748Y-34417670D01*
X56614751Y-34417667D01*
X56741819Y-34270457D01*
X56741820Y-34270455D01*
X56745848Y-34265789D01*
X56841966Y-34096592D01*
X56844950Y-34091340D01*
X56844952Y-34091336D01*
X56847995Y-34085979D01*
X56913270Y-33889753D01*
X56939189Y-33684586D01*
X56939602Y-33655000D01*
X56938151Y-33640206D01*
X57995501Y-33640206D01*
X57996743Y-33655000D01*
X58009717Y-33809489D01*
X58012806Y-33846278D01*
X58069807Y-34045066D01*
X58072625Y-34050548D01*
X58072626Y-34050552D01*
X58161514Y-34223509D01*
X58161517Y-34223513D01*
X58164334Y-34228995D01*
X58292786Y-34391061D01*
X58297479Y-34395055D01*
X58297480Y-34395056D01*
X58386221Y-34470580D01*
X58450271Y-34525091D01*
X58630789Y-34625980D01*
X58827466Y-34689884D01*
X59032809Y-34714370D01*
X59038944Y-34713898D01*
X59038946Y-34713898D01*
X59232856Y-34698977D01*
X59232860Y-34698976D01*
X59238998Y-34698504D01*
X59438178Y-34642892D01*
X59443682Y-34640112D01*
X59443684Y-34640111D01*
X59617262Y-34552431D01*
X59617264Y-34552430D01*
X59622763Y-34549652D01*
X59729224Y-34466475D01*
X83777483Y-34466475D01*
X83796472Y-34683519D01*
X83798375Y-34694312D01*
X83854764Y-34904761D01*
X83858510Y-34915053D01*
X83950586Y-35112511D01*
X83956069Y-35122006D01*
X83992509Y-35174048D01*
X84002988Y-35182424D01*
X84016434Y-35175356D01*
X84717978Y-34473812D01*
X84724356Y-34462132D01*
X85454408Y-34462132D01*
X85454539Y-34463965D01*
X85458790Y-34470580D01*
X86164287Y-35176077D01*
X86176062Y-35182507D01*
X86188077Y-35173211D01*
X86223931Y-35122006D01*
X86229414Y-35112511D01*
X86321490Y-34915053D01*
X86325236Y-34904761D01*
X86381625Y-34694312D01*
X86383528Y-34683519D01*
X86402517Y-34466475D01*
X86402517Y-34455525D01*
X86383528Y-34238481D01*
X86381625Y-34227688D01*
X86325236Y-34017239D01*
X86321490Y-34006947D01*
X86229414Y-33809489D01*
X86223931Y-33799994D01*
X86187491Y-33747952D01*
X86177012Y-33739576D01*
X86163566Y-33746644D01*
X85462022Y-34448188D01*
X85454408Y-34462132D01*
X84724356Y-34462132D01*
X84725592Y-34459868D01*
X84725461Y-34458035D01*
X84721210Y-34451420D01*
X84015713Y-33745923D01*
X84003938Y-33739493D01*
X83991923Y-33748789D01*
X83956069Y-33799994D01*
X83950586Y-33809489D01*
X83858510Y-34006947D01*
X83854764Y-34017239D01*
X83798375Y-34227688D01*
X83796472Y-34238481D01*
X83777483Y-34455525D01*
X83777483Y-34466475D01*
X59729224Y-34466475D01*
X59785722Y-34422334D01*
X59789748Y-34417670D01*
X59789751Y-34417667D01*
X59916819Y-34270457D01*
X59916820Y-34270455D01*
X59920848Y-34265789D01*
X60016966Y-34096592D01*
X60019950Y-34091340D01*
X60019952Y-34091336D01*
X60022995Y-34085979D01*
X60088270Y-33889753D01*
X60114189Y-33684586D01*
X60114602Y-33655000D01*
X60094422Y-33449189D01*
X60071718Y-33373988D01*
X84368576Y-33373988D01*
X84375644Y-33387434D01*
X85077188Y-34088978D01*
X85091132Y-34096592D01*
X85092965Y-34096461D01*
X85099580Y-34092210D01*
X85805077Y-33386713D01*
X85811507Y-33374938D01*
X85802211Y-33362923D01*
X85751006Y-33327069D01*
X85741511Y-33321586D01*
X85544053Y-33229510D01*
X85533761Y-33225764D01*
X85323312Y-33169375D01*
X85312519Y-33167472D01*
X85095475Y-33148483D01*
X85084525Y-33148483D01*
X84867481Y-33167472D01*
X84856688Y-33169375D01*
X84646239Y-33225764D01*
X84635947Y-33229510D01*
X84438489Y-33321586D01*
X84428994Y-33327069D01*
X84376952Y-33363509D01*
X84368576Y-33373988D01*
X60071718Y-33373988D01*
X60034651Y-33251217D01*
X59937565Y-33068625D01*
X59933674Y-33063855D01*
X59933672Y-33063851D01*
X59810758Y-32913143D01*
X59810755Y-32913140D01*
X59806863Y-32908368D01*
X59799966Y-32902662D01*
X59652271Y-32780478D01*
X59652266Y-32780475D01*
X59647522Y-32776550D01*
X59642103Y-32773620D01*
X59642100Y-32773618D01*
X59471032Y-32681122D01*
X59471027Y-32681120D01*
X59465612Y-32678192D01*
X59268063Y-32617040D01*
X59261938Y-32616396D01*
X59261937Y-32616396D01*
X59068526Y-32596068D01*
X59068524Y-32596068D01*
X59062397Y-32595424D01*
X58936229Y-32606906D01*
X58862591Y-32613607D01*
X58862590Y-32613607D01*
X58856450Y-32614166D01*
X58658066Y-32672554D01*
X58652601Y-32675411D01*
X58480261Y-32765508D01*
X58480257Y-32765511D01*
X58474801Y-32768363D01*
X58313635Y-32897943D01*
X58180708Y-33056360D01*
X58081082Y-33237578D01*
X58018553Y-33434696D01*
X57995501Y-33640206D01*
X56938151Y-33640206D01*
X56919422Y-33449189D01*
X56859651Y-33251217D01*
X56762565Y-33068625D01*
X56758674Y-33063855D01*
X56758672Y-33063851D01*
X56635758Y-32913143D01*
X56635755Y-32913140D01*
X56631863Y-32908368D01*
X56624966Y-32902662D01*
X56477271Y-32780478D01*
X56477266Y-32780475D01*
X56472522Y-32776550D01*
X56467103Y-32773620D01*
X56467100Y-32773618D01*
X56296032Y-32681122D01*
X56296027Y-32681120D01*
X56290612Y-32678192D01*
X56093063Y-32617040D01*
X56086938Y-32616396D01*
X56086937Y-32616396D01*
X55893526Y-32596068D01*
X55893524Y-32596068D01*
X55887397Y-32595424D01*
X55761229Y-32606906D01*
X55687591Y-32613607D01*
X55687590Y-32613607D01*
X55681450Y-32614166D01*
X55483066Y-32672554D01*
X55477601Y-32675411D01*
X55305261Y-32765508D01*
X55305257Y-32765511D01*
X55299801Y-32768363D01*
X55138635Y-32897943D01*
X55005708Y-33056360D01*
X54906082Y-33237578D01*
X54843553Y-33434696D01*
X54820501Y-33640206D01*
X53763151Y-33640206D01*
X53744422Y-33449189D01*
X53684651Y-33251217D01*
X53587565Y-33068625D01*
X53583674Y-33063855D01*
X53583672Y-33063851D01*
X53460758Y-32913143D01*
X53460755Y-32913140D01*
X53456863Y-32908368D01*
X53449966Y-32902662D01*
X53302271Y-32780478D01*
X53302266Y-32780475D01*
X53297522Y-32776550D01*
X53292103Y-32773620D01*
X53292100Y-32773618D01*
X53121032Y-32681122D01*
X53121027Y-32681120D01*
X53115612Y-32678192D01*
X52918063Y-32617040D01*
X52911938Y-32616396D01*
X52911937Y-32616396D01*
X52718526Y-32596068D01*
X52718524Y-32596068D01*
X52712397Y-32595424D01*
X52586229Y-32606906D01*
X52512591Y-32613607D01*
X52512590Y-32613607D01*
X52506450Y-32614166D01*
X52308066Y-32672554D01*
X52302601Y-32675411D01*
X52130261Y-32765508D01*
X52130257Y-32765511D01*
X52124801Y-32768363D01*
X51963635Y-32897943D01*
X51830708Y-33056360D01*
X51731082Y-33237578D01*
X51668553Y-33434696D01*
X51645501Y-33640206D01*
X51054000Y-33640206D01*
X51054000Y-31726638D01*
X61753012Y-31726638D01*
X61765575Y-31918304D01*
X61767376Y-31929674D01*
X61814657Y-32115843D01*
X61818498Y-32126690D01*
X61898916Y-32301130D01*
X61904664Y-32311086D01*
X61910788Y-32319751D01*
X61921377Y-32328140D01*
X61934676Y-32321113D01*
X62492979Y-31762811D01*
X62500592Y-31748868D01*
X62500461Y-31747034D01*
X62496210Y-31740420D01*
X61933538Y-31177749D01*
X61921163Y-31170992D01*
X61915197Y-31175458D01*
X61839645Y-31319058D01*
X61835242Y-31329691D01*
X61778281Y-31513132D01*
X61775891Y-31524376D01*
X61753313Y-31715137D01*
X61753012Y-31726638D01*
X51054000Y-31726638D01*
X51054000Y-29740964D01*
X51942112Y-29740964D01*
X51942312Y-29746292D01*
X51942312Y-29746294D01*
X51944464Y-29803599D01*
X51943705Y-29803628D01*
X51944034Y-29805016D01*
X51944340Y-29804989D01*
X51944374Y-29805377D01*
X51944465Y-29806838D01*
X51944523Y-29807085D01*
X51944648Y-29808507D01*
X51950736Y-29970669D01*
X51951831Y-29975888D01*
X51964628Y-30036879D01*
X51963861Y-30037040D01*
X51964841Y-30039316D01*
X51964937Y-30040408D01*
X51966361Y-30045722D01*
X51966464Y-30046307D01*
X51967635Y-30051210D01*
X51997939Y-30195637D01*
X52022784Y-30258551D01*
X52023975Y-30261566D01*
X52024724Y-30263541D01*
X52026097Y-30268663D01*
X52028422Y-30273649D01*
X52028423Y-30273651D01*
X52028947Y-30274775D01*
X52031934Y-30281717D01*
X52082372Y-30409436D01*
X52119273Y-30470246D01*
X52120811Y-30473126D01*
X52120890Y-30473080D01*
X52123639Y-30477841D01*
X52125965Y-30482829D01*
X52129122Y-30487337D01*
X52129124Y-30487341D01*
X52130674Y-30489555D01*
X52135181Y-30496462D01*
X52165152Y-30545852D01*
X52201621Y-30605952D01*
X52205116Y-30609979D01*
X52205117Y-30609981D01*
X52251993Y-30664000D01*
X52255555Y-30668563D01*
X52258346Y-30671888D01*
X52261505Y-30676401D01*
X52267791Y-30682687D01*
X52273861Y-30689201D01*
X52301109Y-30720601D01*
X52352276Y-30779566D01*
X52356407Y-30782953D01*
X52416309Y-30832070D01*
X52423574Y-30838652D01*
X52424706Y-30839602D01*
X52428599Y-30843495D01*
X52433103Y-30846649D01*
X52433108Y-30846653D01*
X52435936Y-30848633D01*
X52443554Y-30854410D01*
X52525901Y-30921931D01*
X52525907Y-30921935D01*
X52530029Y-30925315D01*
X52534668Y-30927955D01*
X52534667Y-30927955D01*
X52607355Y-30969331D01*
X52617296Y-30975622D01*
X52617660Y-30975877D01*
X52617667Y-30975881D01*
X52622171Y-30979035D01*
X52627155Y-30981359D01*
X52627160Y-30981362D01*
X52629875Y-30982628D01*
X52638952Y-30987318D01*
X52683061Y-31012426D01*
X52729798Y-31039030D01*
X52819498Y-31071590D01*
X52829753Y-31075833D01*
X52831348Y-31076577D01*
X52831350Y-31076578D01*
X52836337Y-31078903D01*
X52841653Y-31080327D01*
X52841655Y-31080328D01*
X52842719Y-31080613D01*
X52843702Y-31080876D01*
X52854081Y-31084143D01*
X52945871Y-31117461D01*
X53046443Y-31135648D01*
X53056616Y-31137926D01*
X53064592Y-31140063D01*
X53070990Y-31140623D01*
X53082412Y-31142152D01*
X53172069Y-31158364D01*
X53176208Y-31158559D01*
X53176215Y-31158560D01*
X53194670Y-31159430D01*
X53194677Y-31159430D01*
X53196158Y-31159500D01*
X53357712Y-31159500D01*
X53437444Y-31152735D01*
X53523733Y-31145413D01*
X53523737Y-31145412D01*
X53529044Y-31144962D01*
X53534199Y-31143624D01*
X53534205Y-31143623D01*
X53746368Y-31088556D01*
X53746367Y-31088556D01*
X53751539Y-31087214D01*
X53898412Y-31021052D01*
X53956262Y-30994993D01*
X53956265Y-30994992D01*
X53961123Y-30992803D01*
X54151803Y-30864430D01*
X54178826Y-30838652D01*
X54210250Y-30808675D01*
X62287788Y-30808675D01*
X62291275Y-30817065D01*
X63135115Y-31660905D01*
X63169141Y-31723217D01*
X63164076Y-31794032D01*
X63135115Y-31839095D01*
X62865000Y-32109210D01*
X62294263Y-32679948D01*
X62288067Y-32691294D01*
X62297949Y-32703784D01*
X62329239Y-32724691D01*
X62339349Y-32730181D01*
X62515835Y-32806005D01*
X62526778Y-32809560D01*
X62714120Y-32851952D01*
X62725530Y-32853454D01*
X62917469Y-32860995D01*
X62928951Y-32860393D01*
X63119045Y-32832832D01*
X63130240Y-32830144D01*
X63312131Y-32768400D01*
X63322628Y-32763726D01*
X63490233Y-32669863D01*
X63499705Y-32663353D01*
X63557588Y-32615212D01*
X63622752Y-32587031D01*
X63665092Y-32592788D01*
X63665699Y-32589734D01*
X63739933Y-32604500D01*
X64364898Y-32604500D01*
X64990066Y-32604499D01*
X65025818Y-32597388D01*
X65052126Y-32592156D01*
X65052128Y-32592155D01*
X65064301Y-32589734D01*
X65074621Y-32582839D01*
X65074622Y-32582838D01*
X65138168Y-32540377D01*
X65148484Y-32533484D01*
X65204734Y-32449301D01*
X65219500Y-32375067D01*
X65219499Y-31124934D01*
X65211997Y-31087214D01*
X65207156Y-31062874D01*
X65207155Y-31062872D01*
X65204734Y-31050699D01*
X65148484Y-30966516D01*
X65064301Y-30910266D01*
X64990067Y-30895500D01*
X64365102Y-30895500D01*
X63739934Y-30895501D01*
X63665699Y-30910266D01*
X63664810Y-30905797D01*
X63618353Y-30910694D01*
X63555458Y-30879270D01*
X63546644Y-30871123D01*
X63537514Y-30864117D01*
X63375057Y-30761614D01*
X63364814Y-30756396D01*
X63186401Y-30685216D01*
X63175373Y-30681949D01*
X62986982Y-30644476D01*
X62975535Y-30643273D01*
X62783477Y-30640759D01*
X62771997Y-30641662D01*
X62582697Y-30674190D01*
X62571577Y-30677170D01*
X62391365Y-30743653D01*
X62380991Y-30748601D01*
X62297385Y-30798342D01*
X62287788Y-30808675D01*
X54210250Y-30808675D01*
X54283165Y-30739117D01*
X54318128Y-30705764D01*
X54455342Y-30521342D01*
X54471504Y-30489555D01*
X54483884Y-30465206D01*
X66250501Y-30465206D01*
X66251743Y-30480000D01*
X66262659Y-30609981D01*
X66267806Y-30671278D01*
X66324807Y-30870066D01*
X66327625Y-30875548D01*
X66327626Y-30875552D01*
X66416514Y-31048509D01*
X66416517Y-31048513D01*
X66419334Y-31053995D01*
X66547786Y-31216061D01*
X66552479Y-31220055D01*
X66552480Y-31220056D01*
X66684635Y-31332528D01*
X66705271Y-31350091D01*
X66885789Y-31450980D01*
X67082466Y-31514884D01*
X67287809Y-31539370D01*
X67293944Y-31538898D01*
X67293946Y-31538898D01*
X67487856Y-31523977D01*
X67487860Y-31523976D01*
X67493998Y-31523504D01*
X67693178Y-31467892D01*
X67698682Y-31465112D01*
X67698684Y-31465111D01*
X67872262Y-31377431D01*
X67872264Y-31377430D01*
X67877763Y-31374652D01*
X68040722Y-31247334D01*
X68044748Y-31242670D01*
X68044751Y-31242667D01*
X68171819Y-31095457D01*
X68171820Y-31095455D01*
X68175848Y-31090789D01*
X68231512Y-30992803D01*
X68274950Y-30916340D01*
X68274952Y-30916336D01*
X68277995Y-30910979D01*
X68321710Y-30779566D01*
X68341325Y-30720601D01*
X68341326Y-30720598D01*
X68343270Y-30714753D01*
X68369189Y-30509586D01*
X68369602Y-30480000D01*
X68368151Y-30465206D01*
X70060501Y-30465206D01*
X70061743Y-30480000D01*
X70072659Y-30609981D01*
X70077806Y-30671278D01*
X70134807Y-30870066D01*
X70137625Y-30875548D01*
X70137626Y-30875552D01*
X70226514Y-31048509D01*
X70226517Y-31048513D01*
X70229334Y-31053995D01*
X70357786Y-31216061D01*
X70362479Y-31220055D01*
X70362480Y-31220056D01*
X70494635Y-31332528D01*
X70515271Y-31350091D01*
X70695789Y-31450980D01*
X70892466Y-31514884D01*
X71097809Y-31539370D01*
X71103944Y-31538898D01*
X71103946Y-31538898D01*
X71297856Y-31523977D01*
X71297860Y-31523976D01*
X71303998Y-31523504D01*
X71503178Y-31467892D01*
X71508682Y-31465112D01*
X71508684Y-31465111D01*
X71630608Y-31403523D01*
X73012273Y-31403523D01*
X73059764Y-31580762D01*
X73063510Y-31591054D01*
X73155586Y-31788512D01*
X73161069Y-31798008D01*
X73286028Y-31976468D01*
X73293084Y-31984876D01*
X73447125Y-32138917D01*
X73455533Y-32145973D01*
X73633993Y-32270932D01*
X73643489Y-32276415D01*
X73840947Y-32368491D01*
X73851239Y-32372237D01*
X74023503Y-32418395D01*
X74037599Y-32418059D01*
X74041000Y-32410117D01*
X74041000Y-32404968D01*
X74549000Y-32404968D01*
X74552973Y-32418499D01*
X74561522Y-32419728D01*
X74738761Y-32372237D01*
X74749053Y-32368491D01*
X74946511Y-32276415D01*
X74956007Y-32270932D01*
X75134467Y-32145973D01*
X75142875Y-32138917D01*
X75296916Y-31984876D01*
X75303972Y-31976468D01*
X75428931Y-31798008D01*
X75434414Y-31788512D01*
X75526490Y-31591054D01*
X75530236Y-31580762D01*
X75574452Y-31415744D01*
X75611404Y-31355121D01*
X75675264Y-31324100D01*
X75745759Y-31332528D01*
X75800506Y-31377731D01*
X75817278Y-31413625D01*
X75832042Y-31465111D01*
X75849807Y-31527067D01*
X75852625Y-31532549D01*
X75852626Y-31532553D01*
X75941514Y-31705510D01*
X75941517Y-31705514D01*
X75944334Y-31710996D01*
X76072786Y-31873062D01*
X76077479Y-31877056D01*
X76077480Y-31877057D01*
X76170095Y-31955878D01*
X76230271Y-32007092D01*
X76410789Y-32107981D01*
X76607466Y-32171885D01*
X76812809Y-32196371D01*
X76818944Y-32195899D01*
X76818946Y-32195899D01*
X77012856Y-32180978D01*
X77012860Y-32180977D01*
X77018998Y-32180505D01*
X77218178Y-32124893D01*
X77223682Y-32122113D01*
X77223684Y-32122112D01*
X77397262Y-32034432D01*
X77397264Y-32034431D01*
X77402763Y-32031653D01*
X77565722Y-31904335D01*
X77569748Y-31899671D01*
X77569751Y-31899668D01*
X77696819Y-31752458D01*
X77696820Y-31752456D01*
X77700848Y-31747790D01*
X77802995Y-31567980D01*
X77854342Y-31413625D01*
X77866325Y-31377602D01*
X77866326Y-31377599D01*
X77868270Y-31371754D01*
X77894189Y-31166587D01*
X77894602Y-31137001D01*
X77893151Y-31122207D01*
X78315501Y-31122207D01*
X78317412Y-31144962D01*
X78332032Y-31319058D01*
X78332806Y-31328279D01*
X78389807Y-31527067D01*
X78392625Y-31532549D01*
X78392626Y-31532553D01*
X78481514Y-31705510D01*
X78481517Y-31705514D01*
X78484334Y-31710996D01*
X78612786Y-31873062D01*
X78617479Y-31877056D01*
X78617480Y-31877057D01*
X78710095Y-31955878D01*
X78770271Y-32007092D01*
X78950789Y-32107981D01*
X79147466Y-32171885D01*
X79352809Y-32196371D01*
X79358944Y-32195899D01*
X79358946Y-32195899D01*
X79552856Y-32180978D01*
X79552860Y-32180977D01*
X79558998Y-32180505D01*
X79758178Y-32124893D01*
X79763682Y-32122113D01*
X79763684Y-32122112D01*
X79937262Y-32034432D01*
X79937264Y-32034431D01*
X79942763Y-32031653D01*
X80105722Y-31904335D01*
X80109748Y-31899671D01*
X80109751Y-31899668D01*
X80236819Y-31752458D01*
X80236820Y-31752456D01*
X80240848Y-31747790D01*
X80342995Y-31567980D01*
X80394342Y-31413625D01*
X80406325Y-31377602D01*
X80406326Y-31377599D01*
X80408270Y-31371754D01*
X80434189Y-31166587D01*
X80434602Y-31137001D01*
X80414422Y-30931190D01*
X80354651Y-30733218D01*
X80289125Y-30609981D01*
X80260459Y-30556068D01*
X80260457Y-30556065D01*
X80257565Y-30550626D01*
X80253674Y-30545856D01*
X80253672Y-30545852D01*
X80130758Y-30395144D01*
X80130755Y-30395141D01*
X80126863Y-30390369D01*
X80119966Y-30384663D01*
X80032052Y-30311934D01*
X80860500Y-30311934D01*
X80860501Y-31962067D01*
X80875266Y-32036302D01*
X80931516Y-32120485D01*
X81015699Y-32176735D01*
X81089933Y-32191501D01*
X81914866Y-32191501D01*
X82740066Y-32191500D01*
X82775818Y-32184389D01*
X82802126Y-32179157D01*
X82802128Y-32179156D01*
X82814301Y-32176735D01*
X82824621Y-32169840D01*
X82824622Y-32169839D01*
X82888168Y-32127378D01*
X82898484Y-32120485D01*
X82954734Y-32036302D01*
X82969500Y-31962068D01*
X82969499Y-30311935D01*
X82962108Y-30274775D01*
X82957156Y-30249875D01*
X82957155Y-30249873D01*
X82954734Y-30237700D01*
X82923144Y-30190422D01*
X82905377Y-30163833D01*
X82898484Y-30153517D01*
X82814301Y-30097267D01*
X82740067Y-30082501D01*
X81915134Y-30082501D01*
X81089934Y-30082502D01*
X81054182Y-30089613D01*
X81027874Y-30094845D01*
X81027872Y-30094846D01*
X81015699Y-30097267D01*
X81005379Y-30104162D01*
X81005378Y-30104163D01*
X80969661Y-30128029D01*
X80931516Y-30153517D01*
X80875266Y-30237700D01*
X80860500Y-30311934D01*
X80032052Y-30311934D01*
X79972271Y-30262479D01*
X79972266Y-30262476D01*
X79967522Y-30258551D01*
X79962103Y-30255621D01*
X79962100Y-30255619D01*
X79791032Y-30163123D01*
X79791027Y-30163121D01*
X79785612Y-30160193D01*
X79588063Y-30099041D01*
X79581938Y-30098397D01*
X79581937Y-30098397D01*
X79388526Y-30078069D01*
X79388524Y-30078069D01*
X79382397Y-30077425D01*
X79256229Y-30088907D01*
X79182591Y-30095608D01*
X79182590Y-30095608D01*
X79176450Y-30096167D01*
X78978066Y-30154555D01*
X78972601Y-30157412D01*
X78800261Y-30247509D01*
X78800257Y-30247512D01*
X78794801Y-30250364D01*
X78633635Y-30379944D01*
X78500708Y-30538361D01*
X78401082Y-30719579D01*
X78338553Y-30916697D01*
X78337867Y-30922814D01*
X78337866Y-30922818D01*
X78316237Y-31115642D01*
X78315501Y-31122207D01*
X77893151Y-31122207D01*
X77874422Y-30931190D01*
X77814651Y-30733218D01*
X77749125Y-30609981D01*
X77720459Y-30556068D01*
X77720457Y-30556065D01*
X77717565Y-30550626D01*
X77713674Y-30545856D01*
X77713672Y-30545852D01*
X77590758Y-30395144D01*
X77590755Y-30395141D01*
X77586863Y-30390369D01*
X77579966Y-30384663D01*
X77432271Y-30262479D01*
X77432266Y-30262476D01*
X77427522Y-30258551D01*
X77422103Y-30255621D01*
X77422100Y-30255619D01*
X77251032Y-30163123D01*
X77251027Y-30163121D01*
X77245612Y-30160193D01*
X77048063Y-30099041D01*
X77041938Y-30098397D01*
X77041937Y-30098397D01*
X76848526Y-30078069D01*
X76848524Y-30078069D01*
X76842397Y-30077425D01*
X76716229Y-30088907D01*
X76642591Y-30095608D01*
X76642590Y-30095608D01*
X76636450Y-30096167D01*
X76438066Y-30154555D01*
X76432601Y-30157412D01*
X76260261Y-30247509D01*
X76260257Y-30247512D01*
X76254801Y-30250364D01*
X76093635Y-30379944D01*
X75960708Y-30538361D01*
X75861082Y-30719579D01*
X75859219Y-30725452D01*
X75815844Y-30862188D01*
X75776181Y-30921073D01*
X75710979Y-30949165D01*
X75640939Y-30937548D01*
X75588299Y-30889908D01*
X75574035Y-30856701D01*
X75530236Y-30693240D01*
X75526490Y-30682948D01*
X75434414Y-30485490D01*
X75428931Y-30475994D01*
X75303972Y-30297534D01*
X75296916Y-30289126D01*
X75142875Y-30135085D01*
X75134467Y-30128029D01*
X74956007Y-30003070D01*
X74946511Y-29997587D01*
X74749053Y-29905511D01*
X74738761Y-29901765D01*
X74566497Y-29855607D01*
X74552401Y-29855943D01*
X74549000Y-29863885D01*
X74549000Y-32404968D01*
X74041000Y-32404968D01*
X74041000Y-31409116D01*
X74036525Y-31393877D01*
X74035135Y-31392672D01*
X74027452Y-31391001D01*
X73027033Y-31391001D01*
X73013502Y-31394974D01*
X73012273Y-31403523D01*
X71630608Y-31403523D01*
X71682262Y-31377431D01*
X71682264Y-31377430D01*
X71687763Y-31374652D01*
X71850722Y-31247334D01*
X71854748Y-31242670D01*
X71854751Y-31242667D01*
X71981819Y-31095457D01*
X71981820Y-31095455D01*
X71985848Y-31090789D01*
X72041512Y-30992803D01*
X72084950Y-30916340D01*
X72084952Y-30916336D01*
X72087995Y-30910979D01*
X72103122Y-30865504D01*
X73013606Y-30865504D01*
X73013942Y-30879600D01*
X73021884Y-30883001D01*
X74022885Y-30883001D01*
X74038124Y-30878526D01*
X74039329Y-30877136D01*
X74041000Y-30869453D01*
X74041000Y-29869034D01*
X74037027Y-29855503D01*
X74028478Y-29854274D01*
X73851239Y-29901765D01*
X73840947Y-29905511D01*
X73643489Y-29997587D01*
X73633993Y-30003070D01*
X73455533Y-30128029D01*
X73447125Y-30135085D01*
X73293084Y-30289126D01*
X73286028Y-30297534D01*
X73161069Y-30475994D01*
X73155586Y-30485490D01*
X73063510Y-30682948D01*
X73059764Y-30693240D01*
X73013606Y-30865504D01*
X72103122Y-30865504D01*
X72131710Y-30779566D01*
X72151325Y-30720601D01*
X72151326Y-30720598D01*
X72153270Y-30714753D01*
X72179189Y-30509586D01*
X72179602Y-30480000D01*
X72159422Y-30274189D01*
X72099651Y-30076217D01*
X72008885Y-29905511D01*
X72005459Y-29899067D01*
X72005457Y-29899064D01*
X72002565Y-29893625D01*
X71998674Y-29888855D01*
X71998672Y-29888851D01*
X71878059Y-29740964D01*
X83942112Y-29740964D01*
X83942312Y-29746292D01*
X83942312Y-29746294D01*
X83944464Y-29803599D01*
X83943705Y-29803628D01*
X83944034Y-29805016D01*
X83944340Y-29804989D01*
X83944374Y-29805377D01*
X83944465Y-29806838D01*
X83944523Y-29807085D01*
X83944648Y-29808507D01*
X83950736Y-29970669D01*
X83951831Y-29975888D01*
X83964628Y-30036879D01*
X83963861Y-30037040D01*
X83964841Y-30039316D01*
X83964937Y-30040408D01*
X83966361Y-30045722D01*
X83966464Y-30046307D01*
X83967635Y-30051210D01*
X83997939Y-30195637D01*
X84022784Y-30258551D01*
X84023975Y-30261566D01*
X84024724Y-30263541D01*
X84026097Y-30268663D01*
X84028422Y-30273649D01*
X84028423Y-30273651D01*
X84028947Y-30274775D01*
X84031934Y-30281717D01*
X84082372Y-30409436D01*
X84119273Y-30470246D01*
X84120811Y-30473126D01*
X84120890Y-30473080D01*
X84123639Y-30477841D01*
X84125965Y-30482829D01*
X84129122Y-30487337D01*
X84129124Y-30487341D01*
X84130674Y-30489555D01*
X84135181Y-30496462D01*
X84165152Y-30545852D01*
X84201621Y-30605952D01*
X84205116Y-30609979D01*
X84205117Y-30609981D01*
X84251993Y-30664000D01*
X84255555Y-30668563D01*
X84258346Y-30671888D01*
X84261505Y-30676401D01*
X84267791Y-30682687D01*
X84273861Y-30689201D01*
X84301109Y-30720601D01*
X84352276Y-30779566D01*
X84356407Y-30782953D01*
X84416309Y-30832070D01*
X84423574Y-30838652D01*
X84424706Y-30839602D01*
X84428599Y-30843495D01*
X84433103Y-30846649D01*
X84433108Y-30846653D01*
X84435936Y-30848633D01*
X84443554Y-30854410D01*
X84525901Y-30921931D01*
X84525907Y-30921935D01*
X84530029Y-30925315D01*
X84534668Y-30927955D01*
X84534667Y-30927955D01*
X84607355Y-30969331D01*
X84617296Y-30975622D01*
X84617660Y-30975877D01*
X84617667Y-30975881D01*
X84622171Y-30979035D01*
X84627155Y-30981359D01*
X84627160Y-30981362D01*
X84629875Y-30982628D01*
X84638952Y-30987318D01*
X84683061Y-31012426D01*
X84729798Y-31039030D01*
X84819498Y-31071590D01*
X84829753Y-31075833D01*
X84831348Y-31076577D01*
X84831350Y-31076578D01*
X84836337Y-31078903D01*
X84841653Y-31080327D01*
X84841655Y-31080328D01*
X84842719Y-31080613D01*
X84843702Y-31080876D01*
X84854081Y-31084143D01*
X84945871Y-31117461D01*
X85046443Y-31135648D01*
X85056616Y-31137926D01*
X85064592Y-31140063D01*
X85070990Y-31140623D01*
X85082412Y-31142152D01*
X85172069Y-31158364D01*
X85176208Y-31158559D01*
X85176215Y-31158560D01*
X85194670Y-31159430D01*
X85194677Y-31159430D01*
X85196158Y-31159500D01*
X85357712Y-31159500D01*
X85437444Y-31152735D01*
X85523733Y-31145413D01*
X85523737Y-31145412D01*
X85529044Y-31144962D01*
X85534199Y-31143624D01*
X85534205Y-31143623D01*
X85746368Y-31088556D01*
X85746367Y-31088556D01*
X85751539Y-31087214D01*
X85898412Y-31021052D01*
X85956262Y-30994993D01*
X85956265Y-30994992D01*
X85961123Y-30992803D01*
X86151803Y-30864430D01*
X86178826Y-30838652D01*
X86283165Y-30739117D01*
X86318128Y-30705764D01*
X86455342Y-30521342D01*
X86471504Y-30489555D01*
X86557102Y-30321194D01*
X86557102Y-30321193D01*
X86559520Y-30316438D01*
X86627685Y-30096911D01*
X86657888Y-29869036D01*
X86655536Y-29806401D01*
X86656295Y-29806372D01*
X86655966Y-29804984D01*
X86655660Y-29805011D01*
X86655626Y-29804623D01*
X86655535Y-29803162D01*
X86655477Y-29802915D01*
X86655352Y-29801493D01*
X86649264Y-29639331D01*
X86635372Y-29573121D01*
X86636139Y-29572960D01*
X86635159Y-29570684D01*
X86635063Y-29569592D01*
X86633639Y-29564278D01*
X86633536Y-29563693D01*
X86632362Y-29558778D01*
X86623886Y-29518378D01*
X86602061Y-29414363D01*
X86576025Y-29348434D01*
X86575276Y-29346459D01*
X86573903Y-29341337D01*
X86571053Y-29335225D01*
X86568066Y-29328283D01*
X86517628Y-29200564D01*
X86480727Y-29139754D01*
X86479189Y-29136874D01*
X86479110Y-29136920D01*
X86476361Y-29132159D01*
X86474035Y-29127171D01*
X86470876Y-29122659D01*
X86469326Y-29120445D01*
X86464819Y-29113538D01*
X86401147Y-29008609D01*
X86401145Y-29008606D01*
X86398379Y-29004048D01*
X86348007Y-28946000D01*
X86344445Y-28941437D01*
X86341652Y-28938108D01*
X86338495Y-28933599D01*
X86334604Y-28929708D01*
X86334599Y-28929702D01*
X86332209Y-28927313D01*
X86326139Y-28920799D01*
X86251224Y-28834467D01*
X86251222Y-28834465D01*
X86247724Y-28830434D01*
X86183692Y-28777930D01*
X86176426Y-28771348D01*
X86175294Y-28770398D01*
X86171401Y-28766505D01*
X86166897Y-28763351D01*
X86166892Y-28763347D01*
X86164064Y-28761367D01*
X86156446Y-28755590D01*
X86074099Y-28688069D01*
X86074093Y-28688065D01*
X86069971Y-28684685D01*
X85992645Y-28640669D01*
X85982704Y-28634378D01*
X85982340Y-28634123D01*
X85982333Y-28634119D01*
X85977829Y-28630965D01*
X85972845Y-28628641D01*
X85972840Y-28628638D01*
X85970125Y-28627372D01*
X85961048Y-28622682D01*
X85916939Y-28597574D01*
X85870202Y-28570970D01*
X85780502Y-28538410D01*
X85770247Y-28534167D01*
X85768652Y-28533423D01*
X85768650Y-28533422D01*
X85763663Y-28531097D01*
X85758347Y-28529673D01*
X85758345Y-28529672D01*
X85757281Y-28529387D01*
X85756298Y-28529124D01*
X85745919Y-28525857D01*
X85654129Y-28492539D01*
X85553557Y-28474352D01*
X85543384Y-28472074D01*
X85535408Y-28469937D01*
X85529010Y-28469377D01*
X85517588Y-28467848D01*
X85427931Y-28451636D01*
X85423792Y-28451441D01*
X85423785Y-28451440D01*
X85405330Y-28450570D01*
X85405323Y-28450570D01*
X85403842Y-28450500D01*
X85242288Y-28450500D01*
X85162556Y-28457265D01*
X85076267Y-28464587D01*
X85076263Y-28464588D01*
X85070956Y-28465038D01*
X85065801Y-28466376D01*
X85065795Y-28466377D01*
X84893058Y-28511211D01*
X84848461Y-28522786D01*
X84741497Y-28570970D01*
X84643738Y-28615007D01*
X84643735Y-28615008D01*
X84638877Y-28617197D01*
X84448197Y-28745570D01*
X84444340Y-28749249D01*
X84444338Y-28749251D01*
X84418404Y-28773991D01*
X84281872Y-28904236D01*
X84144658Y-29088658D01*
X84142242Y-29093409D01*
X84142240Y-29093413D01*
X84042898Y-29288806D01*
X84040480Y-29293562D01*
X83972315Y-29513089D01*
X83971614Y-29518378D01*
X83943640Y-29729439D01*
X83942112Y-29740964D01*
X71878059Y-29740964D01*
X71875758Y-29738143D01*
X71875755Y-29738140D01*
X71871863Y-29733368D01*
X71864966Y-29727662D01*
X71717271Y-29605478D01*
X71717266Y-29605475D01*
X71712522Y-29601550D01*
X71707103Y-29598620D01*
X71707100Y-29598618D01*
X71536032Y-29506122D01*
X71536027Y-29506120D01*
X71530612Y-29503192D01*
X71333063Y-29442040D01*
X71326938Y-29441396D01*
X71326937Y-29441396D01*
X71133526Y-29421068D01*
X71133524Y-29421068D01*
X71127397Y-29420424D01*
X71001229Y-29431906D01*
X70927591Y-29438607D01*
X70927590Y-29438607D01*
X70921450Y-29439166D01*
X70723066Y-29497554D01*
X70717601Y-29500411D01*
X70545261Y-29590508D01*
X70545257Y-29590511D01*
X70539801Y-29593363D01*
X70378635Y-29722943D01*
X70245708Y-29881360D01*
X70146082Y-30062578D01*
X70083553Y-30259696D01*
X70082867Y-30265813D01*
X70082866Y-30265817D01*
X70070065Y-30379944D01*
X70060501Y-30465206D01*
X68368151Y-30465206D01*
X68349422Y-30274189D01*
X68289651Y-30076217D01*
X68198885Y-29905511D01*
X68195459Y-29899067D01*
X68195457Y-29899064D01*
X68192565Y-29893625D01*
X68188674Y-29888855D01*
X68188672Y-29888851D01*
X68065758Y-29738143D01*
X68065755Y-29738140D01*
X68061863Y-29733368D01*
X68054966Y-29727662D01*
X67907271Y-29605478D01*
X67907266Y-29605475D01*
X67902522Y-29601550D01*
X67897103Y-29598620D01*
X67897100Y-29598618D01*
X67726032Y-29506122D01*
X67726027Y-29506120D01*
X67720612Y-29503192D01*
X67523063Y-29442040D01*
X67516938Y-29441396D01*
X67516937Y-29441396D01*
X67323526Y-29421068D01*
X67323524Y-29421068D01*
X67317397Y-29420424D01*
X67191229Y-29431906D01*
X67117591Y-29438607D01*
X67117590Y-29438607D01*
X67111450Y-29439166D01*
X66913066Y-29497554D01*
X66907601Y-29500411D01*
X66735261Y-29590508D01*
X66735257Y-29590511D01*
X66729801Y-29593363D01*
X66568635Y-29722943D01*
X66435708Y-29881360D01*
X66336082Y-30062578D01*
X66273553Y-30259696D01*
X66272867Y-30265813D01*
X66272866Y-30265817D01*
X66260065Y-30379944D01*
X66250501Y-30465206D01*
X54483884Y-30465206D01*
X54557102Y-30321194D01*
X54557102Y-30321193D01*
X54559520Y-30316438D01*
X54627685Y-30096911D01*
X54657888Y-29869036D01*
X54655536Y-29806401D01*
X54656295Y-29806372D01*
X54655966Y-29804984D01*
X54655660Y-29805011D01*
X54655626Y-29804623D01*
X54655535Y-29803162D01*
X54655477Y-29802915D01*
X54655352Y-29801493D01*
X54649264Y-29639331D01*
X54635372Y-29573121D01*
X54636139Y-29572960D01*
X54635159Y-29570684D01*
X54635063Y-29569592D01*
X54633639Y-29564278D01*
X54633536Y-29563693D01*
X54632362Y-29558778D01*
X54623886Y-29518378D01*
X54602061Y-29414363D01*
X54576025Y-29348434D01*
X54575276Y-29346459D01*
X54573903Y-29341337D01*
X54571053Y-29335225D01*
X54568066Y-29328283D01*
X54517628Y-29200564D01*
X54480727Y-29139754D01*
X54479189Y-29136874D01*
X54479110Y-29136920D01*
X54476361Y-29132159D01*
X54474035Y-29127171D01*
X54470876Y-29122659D01*
X54469326Y-29120445D01*
X54464819Y-29113538D01*
X54401147Y-29008609D01*
X54401145Y-29008606D01*
X54398379Y-29004048D01*
X54348007Y-28946000D01*
X54344445Y-28941437D01*
X54341652Y-28938108D01*
X54338495Y-28933599D01*
X54334604Y-28929708D01*
X54334599Y-28929702D01*
X54332209Y-28927313D01*
X54326139Y-28920799D01*
X54251224Y-28834467D01*
X54251222Y-28834465D01*
X54247724Y-28830434D01*
X54183692Y-28777930D01*
X54176426Y-28771348D01*
X54175294Y-28770398D01*
X54171401Y-28766505D01*
X54166897Y-28763351D01*
X54166892Y-28763347D01*
X54164064Y-28761367D01*
X54156446Y-28755590D01*
X54074099Y-28688069D01*
X54074093Y-28688065D01*
X54069971Y-28684685D01*
X53992645Y-28640669D01*
X53982704Y-28634378D01*
X53982340Y-28634123D01*
X53982333Y-28634119D01*
X53977829Y-28630965D01*
X53972845Y-28628641D01*
X53972840Y-28628638D01*
X53970125Y-28627372D01*
X53961048Y-28622682D01*
X53916939Y-28597574D01*
X53870202Y-28570970D01*
X53780502Y-28538410D01*
X53770247Y-28534167D01*
X53768652Y-28533423D01*
X53768650Y-28533422D01*
X53763663Y-28531097D01*
X53758347Y-28529673D01*
X53758345Y-28529672D01*
X53757281Y-28529387D01*
X53756298Y-28529124D01*
X53745919Y-28525857D01*
X53654129Y-28492539D01*
X53553557Y-28474352D01*
X53543384Y-28472074D01*
X53535408Y-28469937D01*
X53529010Y-28469377D01*
X53517588Y-28467848D01*
X53427931Y-28451636D01*
X53423792Y-28451441D01*
X53423785Y-28451440D01*
X53405330Y-28450570D01*
X53405323Y-28450570D01*
X53403842Y-28450500D01*
X53242288Y-28450500D01*
X53162556Y-28457265D01*
X53076267Y-28464587D01*
X53076263Y-28464588D01*
X53070956Y-28465038D01*
X53065801Y-28466376D01*
X53065795Y-28466377D01*
X52893058Y-28511211D01*
X52848461Y-28522786D01*
X52741497Y-28570970D01*
X52643738Y-28615007D01*
X52643735Y-28615008D01*
X52638877Y-28617197D01*
X52448197Y-28745570D01*
X52444340Y-28749249D01*
X52444338Y-28749251D01*
X52418404Y-28773991D01*
X52281872Y-28904236D01*
X52144658Y-29088658D01*
X52142242Y-29093409D01*
X52142240Y-29093413D01*
X52042898Y-29288806D01*
X52040480Y-29293562D01*
X51972315Y-29513089D01*
X51971614Y-29518378D01*
X51943640Y-29729439D01*
X51942112Y-29740964D01*
X51054000Y-29740964D01*
X51054000Y-23875000D01*
X51074002Y-23806879D01*
X51127658Y-23760386D01*
X51180000Y-23749000D01*
X87420000Y-23749000D01*
X87488121Y-23769002D01*
G37*
%TD.AperFunction*%
%TD*%
M02*
