%TF.GenerationSoftware,KiCad,Pcbnew,(6.0.0)*%
%TF.CreationDate,2022-03-19T09:51:22+00:00*%
%TF.ProjectId,open-amiga-samplerV1,6f70656e-2d61-46d6-9967-612d73616d70,rev?*%
%TF.SameCoordinates,Original*%
%TF.FileFunction,Legend,Top*%
%TF.FilePolarity,Positive*%
%FSLAX46Y46*%
G04 Gerber Fmt 4.6, Leading zero omitted, Abs format (unit mm)*
G04 Created by KiCad (PCBNEW (6.0.0)) date 2022-03-19 09:51:22*
%MOMM*%
%LPD*%
G01*
G04 APERTURE LIST*
%ADD10C,0.150000*%
%ADD11C,0.120000*%
G04 APERTURE END LIST*
D10*
X64788095Y-28710000D02*
X64692857Y-28662380D01*
X64550000Y-28662380D01*
X64407142Y-28710000D01*
X64311904Y-28805238D01*
X64264285Y-28900476D01*
X64216666Y-29090952D01*
X64216666Y-29233809D01*
X64264285Y-29424285D01*
X64311904Y-29519523D01*
X64407142Y-29614761D01*
X64550000Y-29662380D01*
X64645238Y-29662380D01*
X64788095Y-29614761D01*
X64835714Y-29567142D01*
X64835714Y-29233809D01*
X64645238Y-29233809D01*
X65264285Y-29662380D02*
X65264285Y-28662380D01*
X65835714Y-29662380D01*
X65835714Y-28662380D01*
X66311904Y-29662380D02*
X66311904Y-28662380D01*
X66550000Y-28662380D01*
X66692857Y-28710000D01*
X66788095Y-28805238D01*
X66835714Y-28900476D01*
X66883333Y-29090952D01*
X66883333Y-29233809D01*
X66835714Y-29424285D01*
X66788095Y-29519523D01*
X66692857Y-29614761D01*
X66550000Y-29662380D01*
X66311904Y-29662380D01*
X76050000Y-28662380D02*
X76240476Y-28662380D01*
X76335714Y-28710000D01*
X76430952Y-28805238D01*
X76478571Y-28995714D01*
X76478571Y-29329047D01*
X76430952Y-29519523D01*
X76335714Y-29614761D01*
X76240476Y-29662380D01*
X76050000Y-29662380D01*
X75954761Y-29614761D01*
X75859523Y-29519523D01*
X75811904Y-29329047D01*
X75811904Y-28995714D01*
X75859523Y-28805238D01*
X75954761Y-28710000D01*
X76050000Y-28662380D01*
X76907142Y-28662380D02*
X76907142Y-29471904D01*
X76954761Y-29567142D01*
X77002380Y-29614761D01*
X77097619Y-29662380D01*
X77288095Y-29662380D01*
X77383333Y-29614761D01*
X77430952Y-29567142D01*
X77478571Y-29471904D01*
X77478571Y-28662380D01*
X77811904Y-28662380D02*
X78383333Y-28662380D01*
X78097619Y-29662380D02*
X78097619Y-28662380D01*
X71585714Y-28662380D02*
X71919047Y-29662380D01*
X72252380Y-28662380D01*
X73157142Y-29662380D02*
X72823809Y-29186190D01*
X72585714Y-29662380D02*
X72585714Y-28662380D01*
X72966666Y-28662380D01*
X73061904Y-28710000D01*
X73109523Y-28757619D01*
X73157142Y-28852857D01*
X73157142Y-28995714D01*
X73109523Y-29090952D01*
X73061904Y-29138571D01*
X72966666Y-29186190D01*
X72585714Y-29186190D01*
X73585714Y-29138571D02*
X73919047Y-29138571D01*
X74061904Y-29662380D02*
X73585714Y-29662380D01*
X73585714Y-28662380D01*
X74061904Y-28662380D01*
X74823809Y-29138571D02*
X74490476Y-29138571D01*
X74490476Y-29662380D02*
X74490476Y-28662380D01*
X74966666Y-28662380D01*
X69240476Y-29662380D02*
X68907142Y-29186190D01*
X68669047Y-29662380D02*
X68669047Y-28662380D01*
X69050000Y-28662380D01*
X69145238Y-28710000D01*
X69192857Y-28757619D01*
X69240476Y-28852857D01*
X69240476Y-28995714D01*
X69192857Y-29090952D01*
X69145238Y-29138571D01*
X69050000Y-29186190D01*
X68669047Y-29186190D01*
X69669047Y-29281428D02*
X70430952Y-29281428D01*
X70050000Y-29662380D02*
X70050000Y-28900476D01*
X57490476Y-29662380D02*
X57014285Y-29662380D01*
X57014285Y-28662380D01*
X57823809Y-29281428D02*
X58585714Y-29281428D01*
X58204761Y-29662380D02*
X58204761Y-28900476D01*
X80014285Y-29567142D02*
X79966666Y-29614761D01*
X79823809Y-29662380D01*
X79728571Y-29662380D01*
X79585714Y-29614761D01*
X79490476Y-29519523D01*
X79442857Y-29424285D01*
X79395238Y-29233809D01*
X79395238Y-29090952D01*
X79442857Y-28900476D01*
X79490476Y-28805238D01*
X79585714Y-28710000D01*
X79728571Y-28662380D01*
X79823809Y-28662380D01*
X79966666Y-28710000D01*
X80014285Y-28757619D01*
X80442857Y-29662380D02*
X80442857Y-28662380D01*
X80776190Y-29376666D01*
X81109523Y-28662380D01*
X81109523Y-29662380D01*
X81585714Y-29662380D02*
X81585714Y-28662380D01*
X82157142Y-29662380D01*
X82157142Y-28662380D01*
X60788095Y-28710000D02*
X60692857Y-28662380D01*
X60550000Y-28662380D01*
X60407142Y-28710000D01*
X60311904Y-28805238D01*
X60264285Y-28900476D01*
X60216666Y-29090952D01*
X60216666Y-29233809D01*
X60264285Y-29424285D01*
X60311904Y-29519523D01*
X60407142Y-29614761D01*
X60550000Y-29662380D01*
X60645238Y-29662380D01*
X60788095Y-29614761D01*
X60835714Y-29567142D01*
X60835714Y-29233809D01*
X60645238Y-29233809D01*
X61264285Y-29662380D02*
X61264285Y-28662380D01*
X61835714Y-29662380D01*
X61835714Y-28662380D01*
X62311904Y-29662380D02*
X62311904Y-28662380D01*
X62550000Y-28662380D01*
X62692857Y-28710000D01*
X62788095Y-28805238D01*
X62835714Y-28900476D01*
X62883333Y-29090952D01*
X62883333Y-29233809D01*
X62835714Y-29424285D01*
X62788095Y-29519523D01*
X62692857Y-29614761D01*
X62550000Y-29662380D01*
X62311904Y-29662380D01*
%TO.C,R7*%
X77938333Y-42362380D02*
X77605000Y-41886190D01*
X77366904Y-42362380D02*
X77366904Y-41362380D01*
X77747857Y-41362380D01*
X77843095Y-41410000D01*
X77890714Y-41457619D01*
X77938333Y-41552857D01*
X77938333Y-41695714D01*
X77890714Y-41790952D01*
X77843095Y-41838571D01*
X77747857Y-41886190D01*
X77366904Y-41886190D01*
X78271666Y-41362380D02*
X78938333Y-41362380D01*
X78509761Y-42362380D01*
%TO.C,C6*%
X72223333Y-44172142D02*
X72175714Y-44219761D01*
X72032857Y-44267380D01*
X71937619Y-44267380D01*
X71794761Y-44219761D01*
X71699523Y-44124523D01*
X71651904Y-44029285D01*
X71604285Y-43838809D01*
X71604285Y-43695952D01*
X71651904Y-43505476D01*
X71699523Y-43410238D01*
X71794761Y-43315000D01*
X71937619Y-43267380D01*
X72032857Y-43267380D01*
X72175714Y-43315000D01*
X72223333Y-43362619D01*
X73080476Y-43267380D02*
X72890000Y-43267380D01*
X72794761Y-43315000D01*
X72747142Y-43362619D01*
X72651904Y-43505476D01*
X72604285Y-43695952D01*
X72604285Y-44076904D01*
X72651904Y-44172142D01*
X72699523Y-44219761D01*
X72794761Y-44267380D01*
X72985238Y-44267380D01*
X73080476Y-44219761D01*
X73128095Y-44172142D01*
X73175714Y-44076904D01*
X73175714Y-43838809D01*
X73128095Y-43743571D01*
X73080476Y-43695952D01*
X72985238Y-43648333D01*
X72794761Y-43648333D01*
X72699523Y-43695952D01*
X72651904Y-43743571D01*
X72604285Y-43838809D01*
%TO.C,C5*%
X85447142Y-32573667D02*
X85494761Y-32621286D01*
X85542380Y-32764143D01*
X85542380Y-32859381D01*
X85494761Y-33002239D01*
X85399523Y-33097477D01*
X85304285Y-33145096D01*
X85113809Y-33192715D01*
X84970952Y-33192715D01*
X84780476Y-33145096D01*
X84685238Y-33097477D01*
X84590000Y-33002239D01*
X84542380Y-32859381D01*
X84542380Y-32764143D01*
X84590000Y-32621286D01*
X84637619Y-32573667D01*
X84542380Y-31668905D02*
X84542380Y-32145096D01*
X85018571Y-32192715D01*
X84970952Y-32145096D01*
X84923333Y-32049858D01*
X84923333Y-31811762D01*
X84970952Y-31716524D01*
X85018571Y-31668905D01*
X85113809Y-31621286D01*
X85351904Y-31621286D01*
X85447142Y-31668905D01*
X85494761Y-31716524D01*
X85542380Y-31811762D01*
X85542380Y-32049858D01*
X85494761Y-32145096D01*
X85447142Y-32192715D01*
%TO.C,C3*%
X81078142Y-48680666D02*
X81125761Y-48728285D01*
X81173380Y-48871142D01*
X81173380Y-48966380D01*
X81125761Y-49109238D01*
X81030523Y-49204476D01*
X80935285Y-49252095D01*
X80744809Y-49299714D01*
X80601952Y-49299714D01*
X80411476Y-49252095D01*
X80316238Y-49204476D01*
X80221000Y-49109238D01*
X80173380Y-48966380D01*
X80173380Y-48871142D01*
X80221000Y-48728285D01*
X80268619Y-48680666D01*
X80173380Y-48347333D02*
X80173380Y-47728285D01*
X80554333Y-48061619D01*
X80554333Y-47918761D01*
X80601952Y-47823523D01*
X80649571Y-47775904D01*
X80744809Y-47728285D01*
X80982904Y-47728285D01*
X81078142Y-47775904D01*
X81125761Y-47823523D01*
X81173380Y-47918761D01*
X81173380Y-48204476D01*
X81125761Y-48299714D01*
X81078142Y-48347333D01*
%TO.C,C1*%
X63353333Y-40362142D02*
X63305714Y-40409761D01*
X63162857Y-40457380D01*
X63067619Y-40457380D01*
X62924761Y-40409761D01*
X62829523Y-40314523D01*
X62781904Y-40219285D01*
X62734285Y-40028809D01*
X62734285Y-39885952D01*
X62781904Y-39695476D01*
X62829523Y-39600238D01*
X62924761Y-39505000D01*
X63067619Y-39457380D01*
X63162857Y-39457380D01*
X63305714Y-39505000D01*
X63353333Y-39552619D01*
X64305714Y-40457380D02*
X63734285Y-40457380D01*
X64020000Y-40457380D02*
X64020000Y-39457380D01*
X63924761Y-39600238D01*
X63829523Y-39695476D01*
X63734285Y-39743095D01*
%TO.C,J3*%
X78341666Y-55272380D02*
X78341666Y-55986666D01*
X78294047Y-56129523D01*
X78198809Y-56224761D01*
X78055952Y-56272380D01*
X77960714Y-56272380D01*
X78722619Y-55272380D02*
X79341666Y-55272380D01*
X79008333Y-55653333D01*
X79151190Y-55653333D01*
X79246428Y-55700952D01*
X79294047Y-55748571D01*
X79341666Y-55843809D01*
X79341666Y-56081904D01*
X79294047Y-56177142D01*
X79246428Y-56224761D01*
X79151190Y-56272380D01*
X78865476Y-56272380D01*
X78770238Y-56224761D01*
X78722619Y-56177142D01*
%TO.C,U1*%
X64578095Y-50827380D02*
X64578095Y-51636904D01*
X64625714Y-51732142D01*
X64673333Y-51779761D01*
X64768571Y-51827380D01*
X64959047Y-51827380D01*
X65054285Y-51779761D01*
X65101904Y-51732142D01*
X65149523Y-51636904D01*
X65149523Y-50827380D01*
X66149523Y-51827380D02*
X65578095Y-51827380D01*
X65863809Y-51827380D02*
X65863809Y-50827380D01*
X65768571Y-50970238D01*
X65673333Y-51065476D01*
X65578095Y-51113095D01*
%TO.C,R6*%
X67582380Y-35736666D02*
X67106190Y-36070000D01*
X67582380Y-36308095D02*
X66582380Y-36308095D01*
X66582380Y-35927142D01*
X66630000Y-35831904D01*
X66677619Y-35784285D01*
X66772857Y-35736666D01*
X66915714Y-35736666D01*
X67010952Y-35784285D01*
X67058571Y-35831904D01*
X67106190Y-35927142D01*
X67106190Y-36308095D01*
X66582380Y-34879523D02*
X66582380Y-35070000D01*
X66630000Y-35165238D01*
X66677619Y-35212857D01*
X66820476Y-35308095D01*
X67010952Y-35355714D01*
X67391904Y-35355714D01*
X67487142Y-35308095D01*
X67534761Y-35260476D01*
X67582380Y-35165238D01*
X67582380Y-34974761D01*
X67534761Y-34879523D01*
X67487142Y-34831904D01*
X67391904Y-34784285D01*
X67153809Y-34784285D01*
X67058571Y-34831904D01*
X67010952Y-34879523D01*
X66963333Y-34974761D01*
X66963333Y-35165238D01*
X67010952Y-35260476D01*
X67058571Y-35308095D01*
X67153809Y-35355714D01*
%TO.C,R5*%
X71717380Y-35726666D02*
X71241190Y-36060000D01*
X71717380Y-36298095D02*
X70717380Y-36298095D01*
X70717380Y-35917142D01*
X70765000Y-35821904D01*
X70812619Y-35774285D01*
X70907857Y-35726666D01*
X71050714Y-35726666D01*
X71145952Y-35774285D01*
X71193571Y-35821904D01*
X71241190Y-35917142D01*
X71241190Y-36298095D01*
X70717380Y-34821904D02*
X70717380Y-35298095D01*
X71193571Y-35345714D01*
X71145952Y-35298095D01*
X71098333Y-35202857D01*
X71098333Y-34964761D01*
X71145952Y-34869523D01*
X71193571Y-34821904D01*
X71288809Y-34774285D01*
X71526904Y-34774285D01*
X71622142Y-34821904D01*
X71669761Y-34869523D01*
X71717380Y-34964761D01*
X71717380Y-35202857D01*
X71669761Y-35298095D01*
X71622142Y-35345714D01*
%TO.C,U2*%
X77342096Y-34554882D02*
X77342096Y-35364406D01*
X77389715Y-35459644D01*
X77437334Y-35507263D01*
X77532572Y-35554882D01*
X77723048Y-35554882D01*
X77818286Y-35507263D01*
X77865905Y-35459644D01*
X77913524Y-35364406D01*
X77913524Y-34554882D01*
X78342096Y-34650121D02*
X78389715Y-34602502D01*
X78484953Y-34554882D01*
X78723048Y-34554882D01*
X78818286Y-34602502D01*
X78865905Y-34650121D01*
X78913524Y-34745359D01*
X78913524Y-34840597D01*
X78865905Y-34983454D01*
X78294477Y-35554882D01*
X78913524Y-35554882D01*
%TO.C,R2*%
X56321881Y-38923667D02*
X55845691Y-39257001D01*
X56321881Y-39495096D02*
X55321881Y-39495096D01*
X55321881Y-39114143D01*
X55369501Y-39018905D01*
X55417120Y-38971286D01*
X55512358Y-38923667D01*
X55655215Y-38923667D01*
X55750453Y-38971286D01*
X55798072Y-39018905D01*
X55845691Y-39114143D01*
X55845691Y-39495096D01*
X55417120Y-38542715D02*
X55369501Y-38495096D01*
X55321881Y-38399858D01*
X55321881Y-38161762D01*
X55369501Y-38066524D01*
X55417120Y-38018905D01*
X55512358Y-37971286D01*
X55607596Y-37971286D01*
X55750453Y-38018905D01*
X56321881Y-38590334D01*
X56321881Y-37971286D01*
%TO.C,R1*%
X52905881Y-38901666D02*
X52429691Y-39235000D01*
X52905881Y-39473095D02*
X51905881Y-39473095D01*
X51905881Y-39092142D01*
X51953501Y-38996904D01*
X52001120Y-38949285D01*
X52096358Y-38901666D01*
X52239215Y-38901666D01*
X52334453Y-38949285D01*
X52382072Y-38996904D01*
X52429691Y-39092142D01*
X52429691Y-39473095D01*
X52905881Y-37949285D02*
X52905881Y-38520714D01*
X52905881Y-38235000D02*
X51905881Y-38235000D01*
X52048739Y-38330238D01*
X52143977Y-38425476D01*
X52191596Y-38520714D01*
%TO.C,R4*%
X59573381Y-38901666D02*
X59097191Y-39235000D01*
X59573381Y-39473095D02*
X58573381Y-39473095D01*
X58573381Y-39092142D01*
X58621001Y-38996904D01*
X58668620Y-38949285D01*
X58763858Y-38901666D01*
X58906715Y-38901666D01*
X59001953Y-38949285D01*
X59049572Y-38996904D01*
X59097191Y-39092142D01*
X59097191Y-39473095D01*
X58906715Y-38044523D02*
X59573381Y-38044523D01*
X58525762Y-38282619D02*
X59240048Y-38520714D01*
X59240048Y-37901666D01*
%TO.C,R3*%
X85468881Y-51051666D02*
X84992691Y-51385000D01*
X85468881Y-51623095D02*
X84468881Y-51623095D01*
X84468881Y-51242142D01*
X84516501Y-51146904D01*
X84564120Y-51099285D01*
X84659358Y-51051666D01*
X84802215Y-51051666D01*
X84897453Y-51099285D01*
X84945072Y-51146904D01*
X84992691Y-51242142D01*
X84992691Y-51623095D01*
X84468881Y-50718333D02*
X84468881Y-50099285D01*
X84849834Y-50432619D01*
X84849834Y-50289761D01*
X84897453Y-50194523D01*
X84945072Y-50146904D01*
X85040310Y-50099285D01*
X85278405Y-50099285D01*
X85373643Y-50146904D01*
X85421262Y-50194523D01*
X85468881Y-50289761D01*
X85468881Y-50575476D01*
X85421262Y-50670714D01*
X85373643Y-50718333D01*
%TO.C,C2*%
X61008142Y-31932666D02*
X61055761Y-31980285D01*
X61103380Y-32123142D01*
X61103380Y-32218380D01*
X61055761Y-32361238D01*
X60960523Y-32456476D01*
X60865285Y-32504095D01*
X60674809Y-32551714D01*
X60531952Y-32551714D01*
X60341476Y-32504095D01*
X60246238Y-32456476D01*
X60151000Y-32361238D01*
X60103380Y-32218380D01*
X60103380Y-32123142D01*
X60151000Y-31980285D01*
X60198619Y-31932666D01*
X60198619Y-31551714D02*
X60151000Y-31504095D01*
X60103380Y-31408857D01*
X60103380Y-31170761D01*
X60151000Y-31075523D01*
X60198619Y-31027904D01*
X60293857Y-30980285D01*
X60389095Y-30980285D01*
X60531952Y-31027904D01*
X61103380Y-31599333D01*
X61103380Y-30980285D01*
D11*
%TO.C,R7*%
X74835000Y-40540000D02*
X74835000Y-43280000D01*
X74835000Y-43280000D02*
X81375000Y-43280000D01*
X81375000Y-43280000D02*
X81375000Y-40540000D01*
X81375000Y-40540000D02*
X74835000Y-40540000D01*
X74065000Y-41910000D02*
X74835000Y-41910000D01*
X82145000Y-41910000D02*
X81375000Y-41910000D01*
%TO.C,C6*%
X71015000Y-44350000D02*
X67375000Y-44350000D01*
X71015000Y-42010000D02*
X67375000Y-42010000D01*
X71015000Y-44350000D02*
X71015000Y-44105000D01*
X71015000Y-42255000D02*
X71015000Y-42010000D01*
X67375000Y-44350000D02*
X67375000Y-44105000D01*
X67375000Y-42255000D02*
X67375000Y-42010000D01*
%TO.C,C5*%
X83920000Y-37531000D02*
X83920000Y-33891000D01*
X86260000Y-37531000D02*
X86260000Y-33891000D01*
X83920000Y-37531000D02*
X84165000Y-37531000D01*
X86015000Y-37531000D02*
X86260000Y-37531000D01*
X83920000Y-33891000D02*
X84165000Y-33891000D01*
X86015000Y-33891000D02*
X86260000Y-33891000D01*
%TO.C,C3*%
X79591000Y-46694000D02*
X79591000Y-50334000D01*
X77251000Y-46694000D02*
X77251000Y-50334000D01*
X79591000Y-46694000D02*
X79346000Y-46694000D01*
X77496000Y-46694000D02*
X77251000Y-46694000D01*
X79591000Y-50334000D02*
X79346000Y-50334000D01*
X77496000Y-50334000D02*
X77251000Y-50334000D01*
%TO.C,C1*%
X66390000Y-43815000D02*
G75*
G03*
X66390000Y-43815000I-2870000J0D01*
G01*
X66592262Y-45430000D02*
X66042262Y-45430000D01*
X66317262Y-45705000D02*
X66317262Y-45155000D01*
%TO.C,J3*%
X51496667Y-57305000D02*
X51496667Y-61045000D01*
X87103333Y-61045000D02*
X87103333Y-57305000D01*
X51256667Y-57065000D02*
X55450000Y-57065000D01*
X87103333Y-57305000D02*
X51496667Y-57305000D01*
X51256667Y-59305000D02*
X51256667Y-57065000D01*
%TO.C,U1*%
X51439499Y-46340499D02*
X51439499Y-56620499D01*
X77019499Y-48830499D02*
X51499499Y-48830499D01*
X77019499Y-54130499D02*
X77019499Y-48830499D01*
X51499499Y-54130499D02*
X77019499Y-54130499D01*
X77079499Y-56620499D02*
X77079499Y-46340499D01*
X51499499Y-52480499D02*
X51499499Y-54130499D01*
X51499499Y-48830499D02*
X51499499Y-50480499D01*
X77079499Y-46340499D02*
X51439499Y-46340499D01*
X51439499Y-56620499D02*
X77079499Y-56620499D01*
X51499499Y-52480499D02*
G75*
G03*
X51499499Y-50480499I0J1000000D01*
G01*
%TO.C,R6*%
X68680000Y-38830000D02*
X68680000Y-32290000D01*
X65940000Y-38830000D02*
X68680000Y-38830000D01*
X67310000Y-39600000D02*
X67310000Y-38830000D01*
X65940000Y-32290000D02*
X65940000Y-38830000D01*
X68680000Y-32290000D02*
X65940000Y-32290000D01*
X67310000Y-31520000D02*
X67310000Y-32290000D01*
%TO.C,R5*%
X72490000Y-32290000D02*
X69750000Y-32290000D01*
X69750000Y-32290000D02*
X69750000Y-38830000D01*
X72490000Y-38830000D02*
X72490000Y-32290000D01*
X71120000Y-39600000D02*
X71120000Y-38830000D01*
X71120000Y-31520000D02*
X71120000Y-32290000D01*
X69750000Y-38830000D02*
X72490000Y-38830000D01*
%TO.C,U2*%
X83245000Y-33947001D02*
X83245000Y-32297001D01*
X83245000Y-32297001D02*
X72965000Y-32297001D01*
X83245000Y-37597001D02*
X83245000Y-35947001D01*
X72905000Y-40087001D02*
X83305000Y-40087001D01*
X72965000Y-37597001D02*
X83245000Y-37597001D01*
X72965000Y-32297001D02*
X72965000Y-37597001D01*
X83305000Y-29807001D02*
X72905000Y-29807001D01*
X83305000Y-40087001D02*
X83305000Y-29807001D01*
X72905000Y-29807001D02*
X72905000Y-40087001D01*
X83245000Y-33947001D02*
G75*
G03*
X83245000Y-35947001I0J-1000000D01*
G01*
%TO.C,R2*%
X57250000Y-35465000D02*
X54510000Y-35465000D01*
X54510000Y-35465000D02*
X54510000Y-42005000D01*
X54510000Y-42005000D02*
X57250000Y-42005000D01*
X55880000Y-42775000D02*
X55880000Y-42005000D01*
X55880000Y-34695000D02*
X55880000Y-35465000D01*
X57250000Y-42005000D02*
X57250000Y-35465000D01*
%TO.C,R1*%
X52705000Y-42775000D02*
X52705000Y-42005000D01*
X54075000Y-35465000D02*
X51335000Y-35465000D01*
X51335000Y-42005000D02*
X54075000Y-42005000D01*
X52705000Y-34695000D02*
X52705000Y-35465000D01*
X51335000Y-35465000D02*
X51335000Y-42005000D01*
X54075000Y-42005000D02*
X54075000Y-35465000D01*
%TO.C,R4*%
X60425000Y-35465000D02*
X57685000Y-35465000D01*
X59055000Y-34695000D02*
X59055000Y-35465000D01*
X59055000Y-42775000D02*
X59055000Y-42005000D01*
X57685000Y-35465000D02*
X57685000Y-42005000D01*
X60425000Y-42005000D02*
X60425000Y-35465000D01*
X57685000Y-42005000D02*
X60425000Y-42005000D01*
%TO.C,R3*%
X83680000Y-54155000D02*
X86420000Y-54155000D01*
X86420000Y-54155000D02*
X86420000Y-47615000D01*
X85050000Y-54925000D02*
X85050000Y-54155000D01*
X83680000Y-47615000D02*
X83680000Y-54155000D01*
X85050000Y-46845000D02*
X85050000Y-47615000D01*
X86420000Y-47615000D02*
X83680000Y-47615000D01*
%TO.C,C2*%
X62054000Y-30910000D02*
X62054000Y-30354000D01*
X61614000Y-32414000D02*
X61614000Y-31086000D01*
X62854000Y-30910000D02*
X62854000Y-29810000D01*
X62134000Y-33228000D02*
X62134000Y-32590000D01*
X62894000Y-33704000D02*
X62894000Y-32590000D01*
X63055000Y-33755000D02*
X63055000Y-32590000D01*
X62935000Y-33718000D02*
X62935000Y-32590000D01*
X62414000Y-30910000D02*
X62414000Y-30042000D01*
X63175000Y-33784000D02*
X63175000Y-32590000D01*
X63055000Y-30910000D02*
X63055000Y-29745000D01*
X62975000Y-30910000D02*
X62975000Y-29768000D01*
X62574000Y-30910000D02*
X62574000Y-29942000D01*
X62494000Y-33510000D02*
X62494000Y-32590000D01*
X65884801Y-32945000D02*
X65484801Y-32945000D01*
X63535000Y-33829000D02*
X63535000Y-32590000D01*
X62054000Y-33146000D02*
X62054000Y-32590000D01*
X62814000Y-30910000D02*
X62814000Y-29826000D01*
X62694000Y-33620000D02*
X62694000Y-32590000D01*
X62214000Y-33302000D02*
X62214000Y-32590000D01*
X63455000Y-30910000D02*
X63455000Y-29676000D01*
X61734000Y-32690000D02*
X61734000Y-30810000D01*
X63495000Y-30910000D02*
X63495000Y-29673000D01*
X62294000Y-33369000D02*
X62294000Y-32590000D01*
X65684801Y-33145000D02*
X65684801Y-32745000D01*
X62494000Y-30910000D02*
X62494000Y-29990000D01*
X63575000Y-33830000D02*
X63575000Y-32590000D01*
X62894000Y-30910000D02*
X62894000Y-29796000D01*
X62534000Y-33535000D02*
X62534000Y-32590000D01*
X63175000Y-30910000D02*
X63175000Y-29716000D01*
X62134000Y-30910000D02*
X62134000Y-30272000D01*
X62774000Y-30910000D02*
X62774000Y-29843000D01*
X63415000Y-33821000D02*
X63415000Y-32590000D01*
X63375000Y-33817000D02*
X63375000Y-32590000D01*
X62174000Y-33266000D02*
X62174000Y-32590000D01*
X63295000Y-30910000D02*
X63295000Y-29694000D01*
X61774000Y-32763000D02*
X61774000Y-30737000D01*
X61854000Y-32892000D02*
X61854000Y-30608000D01*
X62334000Y-30910000D02*
X62334000Y-30100000D01*
X62254000Y-30910000D02*
X62254000Y-30163000D01*
X63615000Y-33830000D02*
X63615000Y-32590000D01*
X62654000Y-30910000D02*
X62654000Y-29899000D01*
X63255000Y-30910000D02*
X63255000Y-29700000D01*
X61534000Y-32120000D02*
X61534000Y-31380000D01*
X62654000Y-33601000D02*
X62654000Y-32590000D01*
X63255000Y-33800000D02*
X63255000Y-32590000D01*
X63095000Y-30910000D02*
X63095000Y-29734000D01*
X63215000Y-30910000D02*
X63215000Y-29708000D01*
X63575000Y-30910000D02*
X63575000Y-29670000D01*
X62574000Y-33558000D02*
X62574000Y-32590000D01*
X62214000Y-30910000D02*
X62214000Y-30198000D01*
X62614000Y-33580000D02*
X62614000Y-32590000D01*
X62174000Y-30910000D02*
X62174000Y-30234000D01*
X62374000Y-33430000D02*
X62374000Y-32590000D01*
X63095000Y-33766000D02*
X63095000Y-32590000D01*
X62254000Y-33337000D02*
X62254000Y-32590000D01*
X63455000Y-33824000D02*
X63455000Y-32590000D01*
X61694000Y-32609000D02*
X61694000Y-30891000D01*
X62614000Y-30910000D02*
X62614000Y-29920000D01*
X62414000Y-33458000D02*
X62414000Y-32590000D01*
X62975000Y-33732000D02*
X62975000Y-32590000D01*
X62774000Y-33657000D02*
X62774000Y-32590000D01*
X62454000Y-30910000D02*
X62454000Y-30015000D01*
X61974000Y-33054000D02*
X61974000Y-30446000D01*
X62734000Y-30910000D02*
X62734000Y-29861000D01*
X61894000Y-32950000D02*
X61894000Y-30550000D01*
X62814000Y-33674000D02*
X62814000Y-32590000D01*
X63375000Y-30910000D02*
X63375000Y-29683000D01*
X63335000Y-33812000D02*
X63335000Y-32590000D01*
X62734000Y-33639000D02*
X62734000Y-32590000D01*
X63415000Y-30910000D02*
X63415000Y-29679000D01*
X63215000Y-33792000D02*
X63215000Y-32590000D01*
X62294000Y-30910000D02*
X62294000Y-30131000D01*
X61814000Y-32830000D02*
X61814000Y-30670000D01*
X61654000Y-32518000D02*
X61654000Y-30982000D01*
X62454000Y-33485000D02*
X62454000Y-32590000D01*
X62334000Y-33400000D02*
X62334000Y-32590000D01*
X61934000Y-33004000D02*
X61934000Y-30496000D01*
X62534000Y-30910000D02*
X62534000Y-29965000D01*
X61574000Y-32287000D02*
X61574000Y-31213000D01*
X63335000Y-30910000D02*
X63335000Y-29688000D01*
X63015000Y-30910000D02*
X63015000Y-29756000D01*
X62094000Y-33188000D02*
X62094000Y-32590000D01*
X63535000Y-30910000D02*
X63535000Y-29671000D01*
X63015000Y-33744000D02*
X63015000Y-32590000D01*
X62374000Y-30910000D02*
X62374000Y-30070000D01*
X62854000Y-33690000D02*
X62854000Y-32590000D01*
X63495000Y-33827000D02*
X63495000Y-32590000D01*
X62694000Y-30910000D02*
X62694000Y-29880000D01*
X63615000Y-30910000D02*
X63615000Y-29670000D01*
X62014000Y-33101000D02*
X62014000Y-30399000D01*
X63295000Y-33806000D02*
X63295000Y-32590000D01*
X62094000Y-30910000D02*
X62094000Y-30312000D01*
X63135000Y-33775000D02*
X63135000Y-32590000D01*
X63135000Y-30910000D02*
X63135000Y-29725000D01*
X62935000Y-30910000D02*
X62935000Y-29782000D01*
X65735000Y-31750000D02*
G75*
G03*
X65735000Y-31750000I-2120000J0D01*
G01*
%TD*%
M02*
