%TF.GenerationSoftware,KiCad,Pcbnew,(6.0.0)*%
%TF.CreationDate,2022-03-19T09:51:22+00:00*%
%TF.ProjectId,open-amiga-samplerV1,6f70656e-2d61-46d6-9967-612d73616d70,rev?*%
%TF.SameCoordinates,Original*%
%TF.FileFunction,Legend,Bot*%
%TF.FilePolarity,Positive*%
%FSLAX46Y46*%
G04 Gerber Fmt 4.6, Leading zero omitted, Abs format (unit mm)*
G04 Created by KiCad (PCBNEW (6.0.0)) date 2022-03-19 09:51:22*
%MOMM*%
%LPD*%
G01*
G04 APERTURE LIST*
%ADD10C,0.120000*%
%ADD11C,0.150000*%
G04 APERTURE END LIST*
D10*
X84390000Y-45533000D02*
X84390000Y-54550000D01*
X79056000Y-45533000D02*
X84390000Y-45533000D01*
X79056000Y-54550000D02*
X79056000Y-45533000D01*
D11*
X73834047Y-24852380D02*
X73834047Y-25566666D01*
X73881666Y-25709523D01*
X73976904Y-25804761D01*
X74119761Y-25852380D01*
X74215000Y-25852380D01*
X72881666Y-25852380D02*
X73357857Y-25852380D01*
X73357857Y-24852380D01*
X71976904Y-25757142D02*
X72024523Y-25804761D01*
X72167380Y-25852380D01*
X72262619Y-25852380D01*
X72405476Y-25804761D01*
X72500714Y-25709523D01*
X72548333Y-25614285D01*
X72595952Y-25423809D01*
X72595952Y-25280952D01*
X72548333Y-25090476D01*
X72500714Y-24995238D01*
X72405476Y-24900000D01*
X72262619Y-24852380D01*
X72167380Y-24852380D01*
X72024523Y-24900000D01*
X71976904Y-24947619D01*
X71262619Y-24852380D02*
X71262619Y-25566666D01*
X71310238Y-25709523D01*
X71405476Y-25804761D01*
X71548333Y-25852380D01*
X71643571Y-25852380D01*
X70310238Y-25852380D02*
X70786428Y-25852380D01*
X70786428Y-24852380D01*
X69405476Y-25757142D02*
X69453095Y-25804761D01*
X69595952Y-25852380D01*
X69691190Y-25852380D01*
X69834047Y-25804761D01*
X69929285Y-25709523D01*
X69976904Y-25614285D01*
X70024523Y-25423809D01*
X70024523Y-25280952D01*
X69976904Y-25090476D01*
X69929285Y-24995238D01*
X69834047Y-24900000D01*
X69691190Y-24852380D01*
X69595952Y-24852380D01*
X69453095Y-24900000D01*
X69405476Y-24947619D01*
X68691190Y-24852380D02*
X68691190Y-25566666D01*
X68738809Y-25709523D01*
X68834047Y-25804761D01*
X68976904Y-25852380D01*
X69072142Y-25852380D01*
X67738809Y-25852380D02*
X68215000Y-25852380D01*
X68215000Y-24852380D01*
X66834047Y-25757142D02*
X66881666Y-25804761D01*
X67024523Y-25852380D01*
X67119761Y-25852380D01*
X67262619Y-25804761D01*
X67357857Y-25709523D01*
X67405476Y-25614285D01*
X67453095Y-25423809D01*
X67453095Y-25280952D01*
X67405476Y-25090476D01*
X67357857Y-24995238D01*
X67262619Y-24900000D01*
X67119761Y-24852380D01*
X67024523Y-24852380D01*
X66881666Y-24900000D01*
X66834047Y-24947619D01*
X66119761Y-24852380D02*
X66119761Y-25566666D01*
X66167380Y-25709523D01*
X66262619Y-25804761D01*
X66405476Y-25852380D01*
X66500714Y-25852380D01*
X65167380Y-25852380D02*
X65643571Y-25852380D01*
X65643571Y-24852380D01*
X64262619Y-25757142D02*
X64310238Y-25804761D01*
X64453095Y-25852380D01*
X64548333Y-25852380D01*
X64691190Y-25804761D01*
X64786428Y-25709523D01*
X64834047Y-25614285D01*
X64881666Y-25423809D01*
X64881666Y-25280952D01*
X64834047Y-25090476D01*
X64786428Y-24995238D01*
X64691190Y-24900000D01*
X64548333Y-24852380D01*
X64453095Y-24852380D01*
X64310238Y-24900000D01*
X64262619Y-24947619D01*
X75571428Y-35477380D02*
X75380952Y-35477380D01*
X75285714Y-35525000D01*
X75190476Y-35620238D01*
X75142857Y-35810714D01*
X75142857Y-36144047D01*
X75190476Y-36334523D01*
X75285714Y-36429761D01*
X75380952Y-36477380D01*
X75571428Y-36477380D01*
X75666666Y-36429761D01*
X75761904Y-36334523D01*
X75809523Y-36144047D01*
X75809523Y-35810714D01*
X75761904Y-35620238D01*
X75666666Y-35525000D01*
X75571428Y-35477380D01*
X74761904Y-36191666D02*
X74285714Y-36191666D01*
X74857142Y-36477380D02*
X74523809Y-35477380D01*
X74190476Y-36477380D01*
X73904761Y-36429761D02*
X73761904Y-36477380D01*
X73523809Y-36477380D01*
X73428571Y-36429761D01*
X73380952Y-36382142D01*
X73333333Y-36286904D01*
X73333333Y-36191666D01*
X73380952Y-36096428D01*
X73428571Y-36048809D01*
X73523809Y-36001190D01*
X73714285Y-35953571D01*
X73809523Y-35905952D01*
X73857142Y-35858333D01*
X73904761Y-35763095D01*
X73904761Y-35667857D01*
X73857142Y-35572619D01*
X73809523Y-35525000D01*
X73714285Y-35477380D01*
X73476190Y-35477380D01*
X73333333Y-35525000D01*
X72238095Y-35810714D02*
X72000000Y-36477380D01*
X71761904Y-35810714D01*
X70857142Y-36477380D02*
X71428571Y-36477380D01*
X71142857Y-36477380D02*
X71142857Y-35477380D01*
X71238095Y-35620238D01*
X71333333Y-35715476D01*
X71428571Y-35763095D01*
X70428571Y-36382142D02*
X70380952Y-36429761D01*
X70428571Y-36477380D01*
X70476190Y-36429761D01*
X70428571Y-36382142D01*
X70428571Y-36477380D01*
X69428571Y-36477380D02*
X70000000Y-36477380D01*
X69714285Y-36477380D02*
X69714285Y-35477380D01*
X69809523Y-35620238D01*
X69904761Y-35715476D01*
X70000000Y-35763095D01*
X68238095Y-36477380D02*
X68238095Y-35477380D01*
X68238095Y-35858333D02*
X68142857Y-35810714D01*
X67952380Y-35810714D01*
X67857142Y-35858333D01*
X67809523Y-35905952D01*
X67761904Y-36001190D01*
X67761904Y-36286904D01*
X67809523Y-36382142D01*
X67857142Y-36429761D01*
X67952380Y-36477380D01*
X68142857Y-36477380D01*
X68238095Y-36429761D01*
X67428571Y-35810714D02*
X67190476Y-36477380D01*
X66952380Y-35810714D02*
X67190476Y-36477380D01*
X67285714Y-36715476D01*
X67333333Y-36763095D01*
X67428571Y-36810714D01*
X65809523Y-36477380D02*
X65809523Y-35810714D01*
X65809523Y-35905952D02*
X65761904Y-35858333D01*
X65666666Y-35810714D01*
X65523809Y-35810714D01*
X65428571Y-35858333D01*
X65380952Y-35953571D01*
X65380952Y-36477380D01*
X65380952Y-35953571D02*
X65333333Y-35858333D01*
X65238095Y-35810714D01*
X65095238Y-35810714D01*
X65000000Y-35858333D01*
X64952380Y-35953571D01*
X64952380Y-36477380D01*
X64476190Y-35810714D02*
X64476190Y-36477380D01*
X64476190Y-35905952D02*
X64428571Y-35858333D01*
X64333333Y-35810714D01*
X64190476Y-35810714D01*
X64095238Y-35858333D01*
X64047619Y-35953571D01*
X64047619Y-36477380D01*
X63619047Y-36429761D02*
X63523809Y-36477380D01*
X63333333Y-36477380D01*
X63238095Y-36429761D01*
X63190476Y-36334523D01*
X63190476Y-36286904D01*
X63238095Y-36191666D01*
X63333333Y-36144047D01*
X63476190Y-36144047D01*
X63571428Y-36096428D01*
X63619047Y-36001190D01*
X63619047Y-35953571D01*
X63571428Y-35858333D01*
X63476190Y-35810714D01*
X63333333Y-35810714D01*
X63238095Y-35858333D01*
X62904761Y-35810714D02*
X62523809Y-35810714D01*
X62761904Y-35477380D02*
X62761904Y-36334523D01*
X62714285Y-36429761D01*
X62619047Y-36477380D01*
X62523809Y-36477380D01*
X62190476Y-36477380D02*
X62190476Y-35810714D01*
X62190476Y-36001190D02*
X62142857Y-35905952D01*
X62095238Y-35858333D01*
X62000000Y-35810714D01*
X61904761Y-35810714D01*
X61571428Y-36477380D02*
X61571428Y-35810714D01*
X61571428Y-35905952D02*
X61523809Y-35858333D01*
X61428571Y-35810714D01*
X61285714Y-35810714D01*
X61190476Y-35858333D01*
X61142857Y-35953571D01*
X61142857Y-36477380D01*
X61142857Y-35953571D02*
X61095238Y-35858333D01*
X61000000Y-35810714D01*
X60857142Y-35810714D01*
X60761904Y-35858333D01*
X60714285Y-35953571D01*
X60714285Y-36477380D01*
X60238095Y-35810714D02*
X60238095Y-36477380D01*
X60238095Y-35905952D02*
X60190476Y-35858333D01*
X60095238Y-35810714D01*
X59952380Y-35810714D01*
X59857142Y-35858333D01*
X59809523Y-35953571D01*
X59809523Y-36477380D01*
X58904761Y-36429761D02*
X59000000Y-36477380D01*
X59190476Y-36477380D01*
X59285714Y-36429761D01*
X59333333Y-36382142D01*
X59380952Y-36286904D01*
X59380952Y-36001190D01*
X59333333Y-35905952D01*
X59285714Y-35858333D01*
X59190476Y-35810714D01*
X59000000Y-35810714D01*
X58904761Y-35858333D01*
X58476190Y-36477380D02*
X58476190Y-35477380D01*
X58047619Y-36477380D02*
X58047619Y-35953571D01*
X58095238Y-35858333D01*
X58190476Y-35810714D01*
X58333333Y-35810714D01*
X58428571Y-35858333D01*
X58476190Y-35905952D01*
X57523809Y-36429761D02*
X57523809Y-36477380D01*
X57571428Y-36572619D01*
X57619047Y-36620238D01*
X56380952Y-36429761D02*
X56285714Y-36477380D01*
X56095238Y-36477380D01*
X56000000Y-36429761D01*
X55952380Y-36334523D01*
X55952380Y-36286904D01*
X56000000Y-36191666D01*
X56095238Y-36144047D01*
X56238095Y-36144047D01*
X56333333Y-36096428D01*
X56380952Y-36001190D01*
X56380952Y-35953571D01*
X56333333Y-35858333D01*
X56238095Y-35810714D01*
X56095238Y-35810714D01*
X56000000Y-35858333D01*
X55619047Y-35810714D02*
X55380952Y-36477380D01*
X55142857Y-35810714D02*
X55380952Y-36477380D01*
X55476190Y-36715476D01*
X55523809Y-36763095D01*
X55619047Y-36810714D01*
X54761904Y-35810714D02*
X54761904Y-36810714D01*
X54761904Y-35858333D02*
X54666666Y-35810714D01*
X54476190Y-35810714D01*
X54380952Y-35858333D01*
X54333333Y-35905952D01*
X54285714Y-36001190D01*
X54285714Y-36286904D01*
X54333333Y-36382142D01*
X54380952Y-36429761D01*
X54476190Y-36477380D01*
X54666666Y-36477380D01*
X54761904Y-36429761D01*
X53857142Y-36477380D02*
X53857142Y-35477380D01*
X53428571Y-36477380D02*
X53428571Y-35953571D01*
X53476190Y-35858333D01*
X53571428Y-35810714D01*
X53714285Y-35810714D01*
X53809523Y-35858333D01*
X53857142Y-35905952D01*
X52523809Y-35810714D02*
X52523809Y-36477380D01*
X52952380Y-35810714D02*
X52952380Y-36334523D01*
X52904761Y-36429761D01*
X52809523Y-36477380D01*
X52666666Y-36477380D01*
X52571428Y-36429761D01*
X52523809Y-36382142D01*
X52095238Y-36429761D02*
X52000000Y-36477380D01*
X51809523Y-36477380D01*
X51714285Y-36429761D01*
X51666666Y-36334523D01*
X51666666Y-36286904D01*
X51714285Y-36191666D01*
X51809523Y-36144047D01*
X51952380Y-36144047D01*
X52047619Y-36096428D01*
X52095238Y-36001190D01*
X52095238Y-35953571D01*
X52047619Y-35858333D01*
X51952380Y-35810714D01*
X51809523Y-35810714D01*
X51714285Y-35858333D01*
X51190476Y-36429761D02*
X51190476Y-36477380D01*
X51238095Y-36572619D01*
X51285714Y-36620238D01*
X71809523Y-37420714D02*
X71809523Y-38230238D01*
X71857142Y-38325476D01*
X71904761Y-38373095D01*
X72000000Y-38420714D01*
X72142857Y-38420714D01*
X72238095Y-38373095D01*
X71809523Y-38039761D02*
X71904761Y-38087380D01*
X72095238Y-38087380D01*
X72190476Y-38039761D01*
X72238095Y-37992142D01*
X72285714Y-37896904D01*
X72285714Y-37611190D01*
X72238095Y-37515952D01*
X72190476Y-37468333D01*
X72095238Y-37420714D01*
X71904761Y-37420714D01*
X71809523Y-37468333D01*
X71428571Y-37420714D02*
X71238095Y-38087380D01*
X71047619Y-37611190D01*
X70857142Y-38087380D01*
X70666666Y-37420714D01*
X70285714Y-37563571D02*
X69952380Y-37563571D01*
X69809523Y-38087380D02*
X70285714Y-38087380D01*
X70285714Y-37087380D01*
X69809523Y-37087380D01*
X69380952Y-38087380D02*
X69380952Y-37087380D01*
X69047619Y-37801666D01*
X68714285Y-37087380D01*
X68714285Y-38087380D01*
X68333333Y-37087380D02*
X67714285Y-37087380D01*
X68047619Y-37468333D01*
X67904761Y-37468333D01*
X67809523Y-37515952D01*
X67761904Y-37563571D01*
X67714285Y-37658809D01*
X67714285Y-37896904D01*
X67761904Y-37992142D01*
X67809523Y-38039761D01*
X67904761Y-38087380D01*
X68190476Y-38087380D01*
X68285714Y-38039761D01*
X68333333Y-37992142D01*
X67095238Y-37087380D02*
X67000000Y-37087380D01*
X66904761Y-37135000D01*
X66857142Y-37182619D01*
X66809523Y-37277857D01*
X66761904Y-37468333D01*
X66761904Y-37706428D01*
X66809523Y-37896904D01*
X66857142Y-37992142D01*
X66904761Y-38039761D01*
X67000000Y-38087380D01*
X67095238Y-38087380D01*
X67190476Y-38039761D01*
X67238095Y-37992142D01*
X67285714Y-37896904D01*
X67333333Y-37706428D01*
X67333333Y-37468333D01*
X67285714Y-37277857D01*
X67238095Y-37182619D01*
X67190476Y-37135000D01*
X67095238Y-37087380D01*
X66428571Y-37087380D02*
X65809523Y-37087380D01*
X66142857Y-37468333D01*
X66000000Y-37468333D01*
X65904761Y-37515952D01*
X65857142Y-37563571D01*
X65809523Y-37658809D01*
X65809523Y-37896904D01*
X65857142Y-37992142D01*
X65904761Y-38039761D01*
X66000000Y-38087380D01*
X66285714Y-38087380D01*
X66380952Y-38039761D01*
X66428571Y-37992142D01*
X64190476Y-38087380D02*
X64190476Y-37563571D01*
X64238095Y-37468333D01*
X64333333Y-37420714D01*
X64523809Y-37420714D01*
X64619047Y-37468333D01*
X64190476Y-38039761D02*
X64285714Y-38087380D01*
X64523809Y-38087380D01*
X64619047Y-38039761D01*
X64666666Y-37944523D01*
X64666666Y-37849285D01*
X64619047Y-37754047D01*
X64523809Y-37706428D01*
X64285714Y-37706428D01*
X64190476Y-37658809D01*
X63714285Y-37420714D02*
X63714285Y-38087380D01*
X63714285Y-37515952D02*
X63666666Y-37468333D01*
X63571428Y-37420714D01*
X63428571Y-37420714D01*
X63333333Y-37468333D01*
X63285714Y-37563571D01*
X63285714Y-38087380D01*
X62380952Y-38087380D02*
X62380952Y-37087380D01*
X62380952Y-38039761D02*
X62476190Y-38087380D01*
X62666666Y-38087380D01*
X62761904Y-38039761D01*
X62809523Y-37992142D01*
X62857142Y-37896904D01*
X62857142Y-37611190D01*
X62809523Y-37515952D01*
X62761904Y-37468333D01*
X62666666Y-37420714D01*
X62476190Y-37420714D01*
X62380952Y-37468333D01*
X60714285Y-38039761D02*
X60809523Y-38087380D01*
X61000000Y-38087380D01*
X61095238Y-38039761D01*
X61142857Y-37992142D01*
X61190476Y-37896904D01*
X61190476Y-37611190D01*
X61142857Y-37515952D01*
X61095238Y-37468333D01*
X61000000Y-37420714D01*
X60809523Y-37420714D01*
X60714285Y-37468333D01*
X60285714Y-38087380D02*
X60285714Y-37087380D01*
X59857142Y-38087380D02*
X59857142Y-37563571D01*
X59904761Y-37468333D01*
X60000000Y-37420714D01*
X60142857Y-37420714D01*
X60238095Y-37468333D01*
X60285714Y-37515952D01*
X59380952Y-38087380D02*
X59380952Y-37420714D01*
X59380952Y-37087380D02*
X59428571Y-37135000D01*
X59380952Y-37182619D01*
X59333333Y-37135000D01*
X59380952Y-37087380D01*
X59380952Y-37182619D01*
X58904761Y-37420714D02*
X58904761Y-38420714D01*
X58904761Y-37468333D02*
X58809523Y-37420714D01*
X58619047Y-37420714D01*
X58523809Y-37468333D01*
X58476190Y-37515952D01*
X58428571Y-37611190D01*
X58428571Y-37896904D01*
X58476190Y-37992142D01*
X58523809Y-38039761D01*
X58619047Y-38087380D01*
X58809523Y-38087380D01*
X58904761Y-38039761D01*
X58000000Y-37420714D02*
X58000000Y-38087380D01*
X58000000Y-37515952D02*
X57952380Y-37468333D01*
X57857142Y-37420714D01*
X57714285Y-37420714D01*
X57619047Y-37468333D01*
X57571428Y-37563571D01*
X57571428Y-38087380D01*
X56952380Y-38087380D02*
X57047619Y-38039761D01*
X57095238Y-37992142D01*
X57142857Y-37896904D01*
X57142857Y-37611190D01*
X57095238Y-37515952D01*
X57047619Y-37468333D01*
X56952380Y-37420714D01*
X56809523Y-37420714D01*
X56714285Y-37468333D01*
X56666666Y-37515952D01*
X56619047Y-37611190D01*
X56619047Y-37896904D01*
X56666666Y-37992142D01*
X56714285Y-38039761D01*
X56809523Y-38087380D01*
X56952380Y-38087380D01*
X56333333Y-37420714D02*
X55952380Y-37420714D01*
X56190476Y-37087380D02*
X56190476Y-37944523D01*
X56142857Y-38039761D01*
X56047619Y-38087380D01*
X55952380Y-38087380D01*
X55619047Y-38087380D02*
X55619047Y-37420714D01*
X55619047Y-37087380D02*
X55666666Y-37135000D01*
X55619047Y-37182619D01*
X55571428Y-37135000D01*
X55619047Y-37087380D01*
X55619047Y-37182619D01*
X54714285Y-38039761D02*
X54809523Y-38087380D01*
X55000000Y-38087380D01*
X55095238Y-38039761D01*
X55142857Y-37992142D01*
X55190476Y-37896904D01*
X55190476Y-37611190D01*
X55142857Y-37515952D01*
X55095238Y-37468333D01*
X55000000Y-37420714D01*
X54809523Y-37420714D01*
X54714285Y-37468333D01*
%TO.C,C4*%
X78333666Y-56177142D02*
X78381285Y-56224761D01*
X78524142Y-56272380D01*
X78619380Y-56272380D01*
X78762238Y-56224761D01*
X78857476Y-56129523D01*
X78905095Y-56034285D01*
X78952714Y-55843809D01*
X78952714Y-55700952D01*
X78905095Y-55510476D01*
X78857476Y-55415238D01*
X78762238Y-55320000D01*
X78619380Y-55272380D01*
X78524142Y-55272380D01*
X78381285Y-55320000D01*
X78333666Y-55367619D01*
X77476523Y-55605714D02*
X77476523Y-56272380D01*
X77714619Y-55224761D02*
X77952714Y-55939047D01*
X77333666Y-55939047D01*
D10*
X80778000Y-52130499D02*
X80778000Y-53488499D01*
X80098000Y-52524499D02*
X80098000Y-53488499D01*
X80538000Y-52238499D02*
X80538000Y-53488499D01*
X81059000Y-55568499D02*
X81059000Y-57019499D01*
X79938000Y-52664499D02*
X79938000Y-53488499D01*
X80058000Y-55568499D02*
X80058000Y-56499499D01*
X81419000Y-55568499D02*
X81419000Y-57089499D01*
X80498000Y-52260499D02*
X80498000Y-53488499D01*
X80978000Y-52060499D02*
X80978000Y-53488499D01*
X80338000Y-52353499D02*
X80338000Y-53488499D01*
X80698000Y-52163499D02*
X80698000Y-53488499D01*
X80418000Y-55568499D02*
X80418000Y-56752499D01*
X79778000Y-55568499D02*
X79778000Y-56227499D01*
X79978000Y-52627499D02*
X79978000Y-53488499D01*
X79858000Y-52743499D02*
X79858000Y-53488499D01*
X80538000Y-55568499D02*
X80538000Y-56818499D01*
X81018000Y-55568499D02*
X81018000Y-57008499D01*
X79578000Y-53085499D02*
X79578000Y-55971499D01*
X80378000Y-52328499D02*
X80378000Y-53488499D01*
X81219000Y-52000499D02*
X81219000Y-53488499D01*
X81699000Y-51948499D02*
X81699000Y-53488499D01*
X80658000Y-52180499D02*
X80658000Y-53488499D01*
X79818000Y-55568499D02*
X79818000Y-56271499D01*
X81299000Y-51985499D02*
X81299000Y-53488499D01*
X80938000Y-52073499D02*
X80938000Y-53488499D01*
X80938000Y-55568499D02*
X80938000Y-56983499D01*
X81699000Y-55568499D02*
X81699000Y-57108499D01*
X79858000Y-55568499D02*
X79858000Y-56313499D01*
X79178000Y-54010499D02*
X79178000Y-55046499D01*
X80818000Y-52114499D02*
X80818000Y-53488499D01*
X81379000Y-55568499D02*
X81379000Y-57084499D01*
X79698000Y-52923499D02*
X79698000Y-56133499D01*
X81219000Y-55568499D02*
X81219000Y-57056499D01*
X80298000Y-52379499D02*
X80298000Y-53488499D01*
X81179000Y-55568499D02*
X81179000Y-57048499D01*
X81659000Y-51949499D02*
X81659000Y-53488499D01*
X80178000Y-55568499D02*
X80178000Y-56593499D01*
X81379000Y-51972499D02*
X81379000Y-53488499D01*
X80578000Y-55568499D02*
X80578000Y-56838499D01*
X81339000Y-55568499D02*
X81339000Y-57078499D01*
X81499000Y-55568499D02*
X81499000Y-57097499D01*
X81539000Y-51955499D02*
X81539000Y-53488499D01*
X81139000Y-55568499D02*
X81139000Y-57039499D01*
X80458000Y-52281499D02*
X80458000Y-53488499D01*
X80218000Y-55568499D02*
X80218000Y-56623499D01*
X79218000Y-53851499D02*
X79218000Y-55205499D01*
X79338000Y-53517499D02*
X79338000Y-55539499D01*
X80978000Y-55568499D02*
X80978000Y-56996499D01*
X80738000Y-55568499D02*
X80738000Y-56910499D01*
X79818000Y-52785499D02*
X79818000Y-53488499D01*
X80738000Y-52146499D02*
X80738000Y-53488499D01*
X80138000Y-55568499D02*
X80138000Y-56563499D01*
X80778000Y-55568499D02*
X80778000Y-56926499D01*
X84293775Y-52803499D02*
X84293775Y-53303499D01*
X80898000Y-52086499D02*
X80898000Y-53488499D01*
X79498000Y-53209499D02*
X79498000Y-55847499D01*
X80658000Y-55568499D02*
X80658000Y-56876499D01*
X81339000Y-51978499D02*
X81339000Y-53488499D01*
X81059000Y-52037499D02*
X81059000Y-53488499D01*
X81659000Y-55568499D02*
X81659000Y-57107499D01*
X79538000Y-53145499D02*
X79538000Y-55911499D01*
X81099000Y-55568499D02*
X81099000Y-57029499D01*
X81579000Y-51952499D02*
X81579000Y-53488499D01*
X80018000Y-55568499D02*
X80018000Y-56465499D01*
X79938000Y-55568499D02*
X79938000Y-56392499D01*
X80578000Y-52218499D02*
X80578000Y-53488499D01*
X80378000Y-55568499D02*
X80378000Y-56728499D01*
X80338000Y-55568499D02*
X80338000Y-56703499D01*
X79618000Y-53028499D02*
X79618000Y-56028499D01*
X81419000Y-51967499D02*
X81419000Y-53488499D01*
X81139000Y-52017499D02*
X81139000Y-53488499D01*
X79458000Y-53277499D02*
X79458000Y-55779499D01*
X80618000Y-55568499D02*
X80618000Y-56857499D01*
X81619000Y-51950499D02*
X81619000Y-53488499D01*
X80258000Y-55568499D02*
X80258000Y-56650499D01*
X79658000Y-52974499D02*
X79658000Y-56082499D01*
X80858000Y-55568499D02*
X80858000Y-56956499D01*
X80218000Y-52433499D02*
X80218000Y-53488499D01*
X79778000Y-52829499D02*
X79778000Y-53488499D01*
X81459000Y-51963499D02*
X81459000Y-53488499D01*
X81739000Y-51948499D02*
X81739000Y-53488499D01*
X79738000Y-52875499D02*
X79738000Y-53488499D01*
X79738000Y-55568499D02*
X79738000Y-56181499D01*
X81259000Y-51992499D02*
X81259000Y-53488499D01*
X80138000Y-52493499D02*
X80138000Y-53488499D01*
X79258000Y-53723499D02*
X79258000Y-55333499D01*
X81018000Y-52048499D02*
X81018000Y-53488499D01*
X80018000Y-52591499D02*
X80018000Y-53488499D01*
X80618000Y-52199499D02*
X80618000Y-53488499D01*
X81619000Y-55568499D02*
X81619000Y-57106499D01*
X79898000Y-52702499D02*
X79898000Y-53488499D01*
X80418000Y-52304499D02*
X80418000Y-53488499D01*
X81579000Y-55568499D02*
X81579000Y-57104499D01*
X79138000Y-54244499D02*
X79138000Y-54812499D01*
X81099000Y-52027499D02*
X81099000Y-53488499D01*
X79418000Y-53350499D02*
X79418000Y-55706499D01*
X80818000Y-55568499D02*
X80818000Y-56942499D01*
X81259000Y-55568499D02*
X81259000Y-57064499D01*
X81539000Y-55568499D02*
X81539000Y-57101499D01*
X80178000Y-52463499D02*
X80178000Y-53488499D01*
X80698000Y-55568499D02*
X80698000Y-56893499D01*
X80258000Y-52406499D02*
X80258000Y-53488499D01*
X80098000Y-55568499D02*
X80098000Y-56532499D01*
X80058000Y-52557499D02*
X80058000Y-53488499D01*
X79298000Y-53613499D02*
X79298000Y-55443499D01*
X80898000Y-55568499D02*
X80898000Y-56970499D01*
X81739000Y-55568499D02*
X81739000Y-57108499D01*
X79978000Y-55568499D02*
X79978000Y-56429499D01*
X80498000Y-55568499D02*
X80498000Y-56796499D01*
X80858000Y-52100499D02*
X80858000Y-53488499D01*
X81179000Y-52008499D02*
X81179000Y-53488499D01*
X80298000Y-55568499D02*
X80298000Y-56677499D01*
X79378000Y-53430499D02*
X79378000Y-55626499D01*
X81459000Y-55568499D02*
X81459000Y-57093499D01*
X81299000Y-55568499D02*
X81299000Y-57071499D01*
X84543775Y-53053499D02*
X84043775Y-53053499D01*
X79898000Y-55568499D02*
X79898000Y-56354499D01*
X80458000Y-55568499D02*
X80458000Y-56775499D01*
X81499000Y-51959499D02*
X81499000Y-53488499D01*
X84359000Y-54528499D02*
G75*
G03*
X84359000Y-54528499I-2620000J0D01*
G01*
%TD*%
M02*
