M48
; DRILL file {KiCad (6.0.0)} date Sat Mar 19 09:51:25 2022
; FORMAT={-:-/ absolute / inch / decimal}
; #@! TF.CreationDate,2022-03-19T09:51:25+00:00
; #@! TF.GenerationSoftware,Kicad,Pcbnew,(6.0.0)
; #@! TF.FileFunction,Plated,1,2,PTH
FMAT,2
INCH
; #@! TA.AperFunction,Plated,PTH,ViaDrill
T1C0.0157
; #@! TA.AperFunction,Plated,PTH,ComponentDrill
T2C0.0236
; #@! TA.AperFunction,Plated,PTH,ComponentDrill
T3C0.0315
%
G90
G05
T1
X2.0492Y-1.2522
X2.0492Y-1.7935
X2.1673Y-1.1144
X2.6807Y-2.0281
X2.8835Y-2.0434
X3.2894Y-1.1144
X3.3878Y-1.6852
X3.3878Y-1.7344
X3.3878Y-1.8526
X3.4075Y-1.262
X3.4075Y-1.3211
X3.4075Y-2.1577
X3.4075Y-2.2167
T2
X2.475Y-1.25
X2.5341Y-1.25
T3
X2.075Y-1.325
X2.075Y-1.725
X2.0799Y-1.8768
X2.0799Y-2.1768
X2.1799Y-1.8768
X2.1799Y-2.1768
X2.2Y-1.325
X2.2Y-1.725
X2.2799Y-1.8768
X2.2799Y-2.1768
X2.325Y-1.325
X2.325Y-1.725
X2.3799Y-1.8768
X2.3799Y-2.1768
X2.4516Y-1.725
X2.4799Y-1.8768
X2.4799Y-2.1768
X2.55Y-1.725
X2.5799Y-1.8768
X2.5799Y-2.1768
X2.65Y-1.2
X2.65Y-1.6
X2.675Y-1.7
X2.6799Y-1.8768
X2.6799Y-2.1768
X2.7734Y-1.7
X2.7799Y-1.8768
X2.7799Y-2.1768
X2.8Y-1.2
X2.8Y-1.6
X2.875Y-1.65
X2.8799Y-1.8768
X2.8799Y-2.1768
X2.925Y-1.2259
X2.925Y-1.5259
X2.9799Y-1.8768
X2.9799Y-2.1768
X3.025Y-1.2259
X3.025Y-1.5259
X3.0874Y-1.8608
X3.0874Y-1.9592
X3.125Y-1.2259
X3.125Y-1.5259
X3.1787Y-2.1468
X3.225Y-1.2259
X3.225Y-1.5259
X3.2574Y-2.1468
X3.275Y-1.65
X3.3484Y-1.8033
X3.3484Y-2.2033
X3.35Y-1.3567
X3.35Y-1.4552
T0
M30
