%TF.GenerationSoftware,KiCad,Pcbnew,(6.0.0)*%
%TF.CreationDate,2022-03-19T09:51:22+00:00*%
%TF.ProjectId,open-amiga-samplerV1,6f70656e-2d61-46d6-9967-612d73616d70,rev?*%
%TF.SameCoordinates,Original*%
%TF.FileFunction,Copper,L1,Top*%
%TF.FilePolarity,Positive*%
%FSLAX46Y46*%
G04 Gerber Fmt 4.6, Leading zero omitted, Abs format (unit mm)*
G04 Created by KiCad (PCBNEW (6.0.0)) date 2022-03-19 09:51:22*
%MOMM*%
%LPD*%
G01*
G04 APERTURE LIST*
G04 Aperture macros list*
%AMRoundRect*
0 Rectangle with rounded corners*
0 $1 Rounding radius*
0 $2 $3 $4 $5 $6 $7 $8 $9 X,Y pos of 4 corners*
0 Add a 4 corners polygon primitive as box body*
4,1,4,$2,$3,$4,$5,$6,$7,$8,$9,$2,$3,0*
0 Add four circle primitives for the rounded corners*
1,1,$1+$1,$2,$3*
1,1,$1+$1,$4,$5*
1,1,$1+$1,$6,$7*
1,1,$1+$1,$8,$9*
0 Add four rect primitives between the rounded corners*
20,1,$1+$1,$2,$3,$4,$5,0*
20,1,$1+$1,$4,$5,$6,$7,0*
20,1,$1+$1,$6,$7,$8,$9,0*
20,1,$1+$1,$8,$9,$2,$3,0*%
G04 Aperture macros list end*
%TA.AperFunction,ComponentPad*%
%ADD10C,1.600000*%
%TD*%
%TA.AperFunction,ComponentPad*%
%ADD11O,1.600000X1.600000*%
%TD*%
%TA.AperFunction,ComponentPad*%
%ADD12R,1.600000X1.600000*%
%TD*%
%TA.AperFunction,SMDPad,CuDef*%
%ADD13R,1.846667X3.480000*%
%TD*%
%TA.AperFunction,ConnectorPad*%
%ADD14RoundRect,0.750000X0.750000X1.250000X-0.750000X1.250000X-0.750000X-1.250000X0.750000X-1.250000X0*%
%TD*%
%TA.AperFunction,ConnectorPad*%
%ADD15RoundRect,0.750000X-0.750000X-1.250000X0.750000X-1.250000X0.750000X1.250000X-0.750000X1.250000X0*%
%TD*%
%TA.AperFunction,ComponentPad*%
%ADD16R,1.200000X1.200000*%
%TD*%
%TA.AperFunction,ComponentPad*%
%ADD17C,1.200000*%
%TD*%
%TA.AperFunction,ViaPad*%
%ADD18C,0.800000*%
%TD*%
%TA.AperFunction,Conductor*%
%ADD19C,0.250000*%
%TD*%
G04 APERTURE END LIST*
D10*
%TO.P,R7,1*%
%TO.N,Net-(U1-Pad1)*%
X73025000Y-41910000D03*
D11*
%TO.P,R7,2*%
%TO.N,Vo*%
X83185000Y-41910000D03*
%TD*%
D10*
%TO.P,C6,1*%
%TO.N,Net-(U1-Pad1)*%
X70445000Y-43180000D03*
%TO.P,C6,2*%
%TO.N,GND*%
X67945000Y-43180000D03*
%TD*%
%TO.P,C5,1*%
%TO.N,VCC*%
X85090000Y-36961000D03*
%TO.P,C5,2*%
%TO.N,GND*%
X85090000Y-34461000D03*
%TD*%
%TO.P,C3,1*%
%TO.N,VCC*%
X78421000Y-47264000D03*
%TO.P,C3,2*%
%TO.N,GND*%
X78421000Y-49764000D03*
%TD*%
D12*
%TO.P,C1,1*%
%TO.N,MONO_AUDIO*%
X64770000Y-43815000D03*
D10*
%TO.P,C1,2*%
%TO.N,Net-(C1-Pad2)*%
X62270000Y-43815000D03*
%TD*%
D13*
%TO.P,J3,1,1*%
%TO.N,STROBE*%
X52680000Y-59305000D03*
%TO.P,J3,2,2*%
%TO.N,D0*%
X55450000Y-59305000D03*
%TO.P,J3,3,3*%
%TO.N,D1*%
X58220000Y-59305000D03*
%TO.P,J3,4,4*%
%TO.N,D2*%
X60990000Y-59305000D03*
%TO.P,J3,5,5*%
%TO.N,D3*%
X63760000Y-59305000D03*
%TO.P,J3,6,6*%
%TO.N,D4*%
X66530000Y-59305000D03*
%TO.P,J3,7,7*%
%TO.N,D5*%
X69300000Y-59305000D03*
%TO.P,J3,8,8*%
%TO.N,D6*%
X72070000Y-59305000D03*
%TO.P,J3,9,9*%
%TO.N,D7*%
X74840000Y-59305000D03*
%TO.P,J3,10,10*%
%TO.N,unconnected-(J3-Pad10)*%
X77610000Y-59305000D03*
%TO.P,J3,11,11*%
%TO.N,unconnected-(J3-Pad11)*%
X80380000Y-59305000D03*
%TO.P,J3,12,12*%
%TO.N,unconnected-(J3-Pad12)*%
X83150000Y-59305000D03*
%TO.P,J3,13,13*%
%TO.N,unconnected-(J3-Pad13)*%
X85920000Y-59305000D03*
%TD*%
D12*
%TO.P,U1,1,VIN*%
%TO.N,Net-(U1-Pad1)*%
X52829499Y-55290499D03*
D11*
%TO.P,U1,2,DB0*%
%TO.N,D0*%
X55369499Y-55290499D03*
%TO.P,U1,3,DB1*%
%TO.N,D1*%
X57909499Y-55290499D03*
%TO.P,U1,4,DB2*%
%TO.N,D2*%
X60449499Y-55290499D03*
%TO.P,U1,5,DB3*%
%TO.N,D3*%
X62989499Y-55290499D03*
%TO.P,U1,6,~{WR!/RDY}*%
%TO.N,STROBE*%
X65529499Y-55290499D03*
%TO.P,U1,7,MODE*%
%TO.N,Net-(R3-Pad1)*%
X68069499Y-55290499D03*
%TO.P,U1,8,~{RD}*%
%TO.N,GND*%
X70609499Y-55290499D03*
%TO.P,U1,9,~{INT}*%
%TO.N,unconnected-(U1-Pad9)*%
X73149499Y-55290499D03*
%TO.P,U1,10,GND*%
%TO.N,GND*%
X75689499Y-55290499D03*
%TO.P,U1,11,VREF(-)*%
X75689499Y-47670499D03*
%TO.P,U1,12,VREF(+)*%
%TO.N,VCC*%
X73149499Y-47670499D03*
%TO.P,U1,13,~{CS}*%
%TO.N,GND*%
X70609499Y-47670499D03*
%TO.P,U1,14,DB4*%
%TO.N,D4*%
X68069499Y-47670499D03*
%TO.P,U1,15,DB5*%
%TO.N,D5*%
X65529499Y-47670499D03*
%TO.P,U1,16,DB6*%
%TO.N,D6*%
X62989499Y-47670499D03*
%TO.P,U1,17,DB7*%
%TO.N,D7*%
X60449499Y-47670499D03*
%TO.P,U1,18,~{OFL}*%
%TO.N,unconnected-(U1-Pad18)*%
X57909499Y-47670499D03*
%TO.P,U1,19*%
%TO.N,N/C*%
X55369499Y-47670499D03*
%TO.P,U1,20,VCC*%
%TO.N,VCC*%
X52829499Y-47670499D03*
%TD*%
%TO.P,R6,2*%
%TO.N,Net-(U2-Pad5)*%
X67310000Y-30480000D03*
D10*
%TO.P,R6,1*%
%TO.N,GND*%
X67310000Y-40640000D03*
%TD*%
%TO.P,R5,1*%
%TO.N,Net-(U2-Pad5)*%
X71120000Y-30480000D03*
D11*
%TO.P,R5,2*%
%TO.N,VCC*%
X71120000Y-40640000D03*
%TD*%
D12*
%TO.P,U2,1*%
%TO.N,Vo*%
X81915000Y-31137001D03*
D11*
%TO.P,U2,2,-*%
%TO.N,Net-(R4-Pad1)*%
X79375000Y-31137001D03*
%TO.P,U2,3,+*%
%TO.N,Net-(U2-Pad5)*%
X76835000Y-31137001D03*
%TO.P,U2,4,V-*%
%TO.N,GND*%
X74295000Y-31137001D03*
%TO.P,U2,5,+*%
%TO.N,Net-(U2-Pad5)*%
X74295000Y-38757001D03*
%TO.P,U2,6,-*%
%TO.N,Net-(U2-Pad6)*%
X76835000Y-38757001D03*
%TO.P,U2,7*%
X79375000Y-38757001D03*
%TO.P,U2,8,V+*%
%TO.N,VCC*%
X81915000Y-38757001D03*
%TD*%
D14*
%TO.P,J2,1,In*%
%TO.N,Net-(J2-Pad1)*%
X69469000Y-25971500D03*
%TO.P,J2,2,Ext*%
%TO.N,GND*%
X65659000Y-25971500D03*
%TD*%
D15*
%TO.P,RV1,1,1*%
%TO.N,Net-(R4-Pad1)*%
X73342500Y-26035000D03*
%TO.P,RV1,2,2*%
%TO.N,Vo*%
X77152500Y-26035000D03*
%TO.P,RV1,3,3*%
X80962500Y-26035000D03*
%TD*%
%TO.P,J1,1,In*%
%TO.N,Net-(J1-Pad1)*%
X57785000Y-25971500D03*
%TO.P,J1,2,Ext*%
%TO.N,GND*%
X61595000Y-25971500D03*
%TD*%
D11*
%TO.P,R2,2*%
%TO.N,Net-(J2-Pad1)*%
X55880000Y-33655000D03*
D10*
%TO.P,R2,1*%
%TO.N,MONO_AUDIO*%
X55880000Y-43815000D03*
%TD*%
%TO.P,R1,1*%
%TO.N,MONO_AUDIO*%
X52705000Y-43815000D03*
D11*
%TO.P,R1,2*%
%TO.N,Net-(J1-Pad1)*%
X52705000Y-33655000D03*
%TD*%
%TO.P,R4,2*%
%TO.N,Net-(C1-Pad2)*%
X59055000Y-43815000D03*
D10*
%TO.P,R4,1*%
%TO.N,Net-(R4-Pad1)*%
X59055000Y-33655000D03*
%TD*%
%TO.P,R3,1*%
%TO.N,Net-(R3-Pad1)*%
X85050000Y-45805000D03*
D11*
%TO.P,R3,2*%
%TO.N,VCC*%
X85050000Y-55965000D03*
%TD*%
D12*
%TO.P,C4,1*%
%TO.N,VCC*%
X82739000Y-54528499D03*
D10*
%TO.P,C4,2*%
%TO.N,GND*%
X80739000Y-54528499D03*
%TD*%
D16*
%TO.P,C2,1*%
%TO.N,Net-(U2-Pad5)*%
X64365000Y-31750000D03*
D17*
%TO.P,C2,2*%
%TO.N,GND*%
X62865000Y-31750000D03*
%TD*%
D18*
%TO.N,GND*%
X73239884Y-51903054D03*
X68088600Y-51514401D03*
X86550000Y-56305000D03*
X86550000Y-32055000D03*
X86550000Y-33555000D03*
X86050000Y-42805000D03*
X52050000Y-45555000D03*
X55050000Y-28305000D03*
X86050000Y-47055000D03*
X86550000Y-54805000D03*
X83550000Y-28305000D03*
X52050000Y-31805000D03*
X86050000Y-44055000D03*
%TD*%
D19*
%TO.N,Net-(J2-Pad1)*%
X55880000Y-33020000D02*
X55880000Y-33655000D01*
X57150000Y-31750000D02*
X55880000Y-33020000D01*
X63313802Y-28760480D02*
X60324282Y-31750000D01*
X60324282Y-31750000D02*
X57150000Y-31750000D01*
X66680020Y-28760480D02*
X63313802Y-28760480D01*
X69469000Y-25971500D02*
X66680020Y-28760480D01*
%TO.N,Net-(C1-Pad2)*%
X59055000Y-43815000D02*
X62270000Y-43815000D01*
%TO.N,Net-(U2-Pad5)*%
X66040000Y-31750000D02*
X67310000Y-30480000D01*
X64365000Y-31750000D02*
X66040000Y-31750000D01*
X74295000Y-33655000D02*
X76835000Y-33655000D01*
X71120000Y-30480000D02*
X74295000Y-33655000D01*
X76835000Y-33655000D02*
X76835000Y-36217001D01*
X76835000Y-31137001D02*
X76835000Y-33655000D01*
X67310000Y-30480000D02*
X71120000Y-30480000D01*
%TO.N,Net-(U2-Pad6)*%
X76835000Y-38757001D02*
X79375000Y-38757001D01*
%TO.N,Net-(U2-Pad5)*%
X76835000Y-36217001D02*
X74295000Y-38757001D01*
%TO.N,VCC*%
X80032001Y-40640000D02*
X81915000Y-38757001D01*
X71120000Y-40640000D02*
X80032001Y-40640000D01*
X69320489Y-42439511D02*
X69320489Y-45190489D01*
X69320489Y-45190489D02*
X69325470Y-45195470D01*
X71120000Y-40640000D02*
X69320489Y-42439511D01*
%TO.N,Net-(U1-Pad1)*%
X72390000Y-43180000D02*
X70445000Y-43180000D01*
X73025000Y-42545000D02*
X72390000Y-43180000D01*
X73025000Y-41910000D02*
X73025000Y-42545000D01*
%TO.N,Vo*%
X82965000Y-31137001D02*
X83185000Y-31357001D01*
X83185000Y-31357001D02*
X83185000Y-41910000D01*
X81915000Y-31137001D02*
X82965000Y-31137001D01*
X81915000Y-26987500D02*
X81915000Y-31137001D01*
X80962500Y-26035000D02*
X81915000Y-26987500D01*
X77152500Y-26035000D02*
X80962500Y-26035000D01*
%TO.N,Net-(R4-Pad1)*%
X79375000Y-29845000D02*
X79375000Y-31137001D01*
X78740000Y-29210000D02*
X79375000Y-29845000D01*
X76517500Y-29210000D02*
X78740000Y-29210000D01*
X73342500Y-26035000D02*
X76517500Y-29210000D01*
X70167500Y-29210000D02*
X73342500Y-26035000D01*
X63500000Y-29210000D02*
X70167500Y-29210000D01*
X59055000Y-33655000D02*
X63500000Y-29210000D01*
%TO.N,Net-(J1-Pad1)*%
X52705000Y-33655000D02*
X57785000Y-28575000D01*
X57785000Y-25971500D02*
X57785000Y-28575000D01*
%TO.N,VCC*%
X76352470Y-45195470D02*
X78421000Y-47264000D01*
X82739000Y-54528499D02*
X83613499Y-54528499D01*
X80533000Y-47264000D02*
X82739000Y-49470000D01*
X52829499Y-47670499D02*
X55304528Y-45195470D01*
X55304528Y-45195470D02*
X76352470Y-45195470D01*
X83613499Y-54528499D02*
X85050000Y-55965000D01*
X82739000Y-49470000D02*
X82739000Y-54528499D01*
X78421000Y-47264000D02*
X80533000Y-47264000D01*
%TO.N,STROBE*%
X52680000Y-59305000D02*
X52680000Y-58488334D01*
X54244498Y-54750498D02*
X54829498Y-54165498D01*
X52680000Y-58488334D02*
X54244498Y-56923836D01*
X54244498Y-56923836D02*
X54244498Y-54750498D01*
X54829498Y-54165498D02*
X64404498Y-54165498D01*
X64404498Y-54165498D02*
X65529499Y-55290499D01*
%TO.N,D0*%
X55369499Y-55290499D02*
X55369499Y-59224499D01*
X55450000Y-58829498D02*
X55450000Y-59305000D01*
X55369499Y-59224499D02*
X55450000Y-59305000D01*
%TO.N,D1*%
X58220000Y-58599498D02*
X58220000Y-59305000D01*
X57909499Y-55290499D02*
X57909499Y-58994499D01*
X57909499Y-58994499D02*
X58220000Y-59305000D01*
%TO.N,D2*%
X60449499Y-58764499D02*
X60990000Y-59305000D01*
X60449499Y-55290499D02*
X60449499Y-58764499D01*
X60990000Y-58369498D02*
X60990000Y-59305000D01*
X60893999Y-59208999D02*
X60990000Y-59305000D01*
%TO.N,D3*%
X63560999Y-59105999D02*
X63760000Y-59305000D01*
X63760000Y-58139498D02*
X63760000Y-59305000D01*
X62989499Y-55290499D02*
X62989499Y-58534499D01*
X62989499Y-58534499D02*
X63760000Y-59305000D01*
%TO.N,D4*%
X66944498Y-58890502D02*
X66530000Y-59305000D01*
X68069499Y-47670499D02*
X66944498Y-48795500D01*
X66545499Y-59289501D02*
X66530000Y-59305000D01*
X66944498Y-48795500D02*
X66944498Y-58890502D01*
%TO.N,D5*%
X69300000Y-46946000D02*
X69300000Y-59305000D01*
X65529499Y-47670499D02*
X66654500Y-46545498D01*
X68577499Y-58582499D02*
X69300000Y-59305000D01*
X68899498Y-46545498D02*
X69300000Y-46946000D01*
X69385000Y-59220000D02*
X69300000Y-59305000D01*
X66654500Y-46545498D02*
X68899498Y-46545498D01*
%TO.N,D6*%
X64564509Y-46095489D02*
X70939489Y-46095489D01*
X72024498Y-59259498D02*
X72070000Y-59305000D01*
X70939489Y-46095489D02*
X72024498Y-47180498D01*
X72070000Y-58826664D02*
X72070000Y-59305000D01*
X71925000Y-59160000D02*
X72070000Y-59305000D01*
X72024498Y-47180498D02*
X72024498Y-59259498D01*
X62989499Y-47670499D02*
X64564509Y-46095489D01*
%TO.N,D7*%
X62474518Y-45645480D02*
X72789482Y-45645480D01*
X60449499Y-47670499D02*
X62474518Y-45645480D01*
X72789482Y-45645480D02*
X74564498Y-47420496D01*
X74863999Y-59281001D02*
X74840000Y-59305000D01*
X74564498Y-47420496D02*
X74564498Y-59029498D01*
X74564498Y-59029498D02*
X74840000Y-59305000D01*
%TD*%
%TA.AperFunction,Conductor*%
%TO.N,GND*%
G36*
X87488121Y-23769002D02*
G01*
X87534614Y-23822658D01*
X87546000Y-23875000D01*
X87546000Y-60925000D01*
X87525998Y-60993121D01*
X87472342Y-61039614D01*
X87420000Y-61051000D01*
X87223833Y-61051000D01*
X87155712Y-61030998D01*
X87109219Y-60977342D01*
X87097833Y-60925000D01*
X87097832Y-57546123D01*
X87097832Y-57539934D01*
X87083067Y-57465699D01*
X87070002Y-57446145D01*
X87033710Y-57391832D01*
X87026817Y-57381516D01*
X86942634Y-57325266D01*
X86868400Y-57310500D01*
X85920154Y-57310500D01*
X84971601Y-57310501D01*
X84943652Y-57316060D01*
X84909541Y-57322844D01*
X84909539Y-57322845D01*
X84897366Y-57325266D01*
X84887046Y-57332161D01*
X84887045Y-57332162D01*
X84826652Y-57372516D01*
X84813183Y-57381516D01*
X84756933Y-57465699D01*
X84742167Y-57539933D01*
X84742167Y-57546120D01*
X84742168Y-60925000D01*
X84722166Y-60993121D01*
X84668510Y-61039614D01*
X84616168Y-61051000D01*
X84453833Y-61051000D01*
X84385712Y-61030998D01*
X84339219Y-60977342D01*
X84327833Y-60925000D01*
X84327832Y-57546123D01*
X84327832Y-57539934D01*
X84313067Y-57465699D01*
X84300002Y-57446145D01*
X84263710Y-57391832D01*
X84256817Y-57381516D01*
X84172634Y-57325266D01*
X84098400Y-57310500D01*
X83150154Y-57310500D01*
X82201601Y-57310501D01*
X82173652Y-57316060D01*
X82139541Y-57322844D01*
X82139539Y-57322845D01*
X82127366Y-57325266D01*
X82117046Y-57332161D01*
X82117045Y-57332162D01*
X82056652Y-57372516D01*
X82043183Y-57381516D01*
X81986933Y-57465699D01*
X81972167Y-57539933D01*
X81972167Y-57546120D01*
X81972168Y-60925000D01*
X81952166Y-60993121D01*
X81898510Y-61039614D01*
X81846168Y-61051000D01*
X81683833Y-61051000D01*
X81615712Y-61030998D01*
X81569219Y-60977342D01*
X81557833Y-60925000D01*
X81557832Y-57546123D01*
X81557832Y-57539934D01*
X81543067Y-57465699D01*
X81530002Y-57446145D01*
X81493710Y-57391832D01*
X81486817Y-57381516D01*
X81402634Y-57325266D01*
X81328400Y-57310500D01*
X80380154Y-57310500D01*
X79431601Y-57310501D01*
X79403652Y-57316060D01*
X79369541Y-57322844D01*
X79369539Y-57322845D01*
X79357366Y-57325266D01*
X79347046Y-57332161D01*
X79347045Y-57332162D01*
X79286652Y-57372516D01*
X79273183Y-57381516D01*
X79216933Y-57465699D01*
X79202167Y-57539933D01*
X79202167Y-57546120D01*
X79202168Y-60925000D01*
X79182166Y-60993121D01*
X79128510Y-61039614D01*
X79076168Y-61051000D01*
X78913833Y-61051000D01*
X78845712Y-61030998D01*
X78799219Y-60977342D01*
X78787833Y-60925000D01*
X78787832Y-57546123D01*
X78787832Y-57539934D01*
X78773067Y-57465699D01*
X78760002Y-57446145D01*
X78723710Y-57391832D01*
X78716817Y-57381516D01*
X78632634Y-57325266D01*
X78558400Y-57310500D01*
X77610154Y-57310500D01*
X76661601Y-57310501D01*
X76633652Y-57316060D01*
X76599541Y-57322844D01*
X76599539Y-57322845D01*
X76587366Y-57325266D01*
X76577046Y-57332161D01*
X76577045Y-57332162D01*
X76516652Y-57372516D01*
X76503183Y-57381516D01*
X76446933Y-57465699D01*
X76432167Y-57539933D01*
X76432167Y-57546120D01*
X76432168Y-60925000D01*
X76412166Y-60993121D01*
X76358510Y-61039614D01*
X76306168Y-61051000D01*
X76143833Y-61051000D01*
X76075712Y-61030998D01*
X76029219Y-60977342D01*
X76017833Y-60925000D01*
X76017832Y-57546123D01*
X76017832Y-57539934D01*
X76003067Y-57465699D01*
X75990002Y-57446145D01*
X75953710Y-57391832D01*
X75946817Y-57381516D01*
X75862634Y-57325266D01*
X75788400Y-57310500D01*
X75069998Y-57310500D01*
X75001877Y-57290498D01*
X74955384Y-57236842D01*
X74943998Y-57184500D01*
X74943998Y-56583865D01*
X74964000Y-56515744D01*
X75017656Y-56469251D01*
X75087930Y-56459147D01*
X75123248Y-56469670D01*
X75235446Y-56521989D01*
X75245738Y-56525735D01*
X75418002Y-56571893D01*
X75432098Y-56571557D01*
X75435499Y-56563615D01*
X75435499Y-56558466D01*
X75943499Y-56558466D01*
X75947472Y-56571997D01*
X75956021Y-56573226D01*
X76133260Y-56525735D01*
X76143552Y-56521989D01*
X76341010Y-56429913D01*
X76350506Y-56424430D01*
X76528966Y-56299471D01*
X76537374Y-56292415D01*
X76691415Y-56138374D01*
X76698471Y-56129966D01*
X76823430Y-55951506D01*
X76828913Y-55942010D01*
X76920989Y-55744552D01*
X76924735Y-55734260D01*
X76970893Y-55561996D01*
X76970557Y-55547900D01*
X76962615Y-55544499D01*
X75961614Y-55544499D01*
X75946375Y-55548974D01*
X75945170Y-55550364D01*
X75943499Y-55558047D01*
X75943499Y-56558466D01*
X75435499Y-56558466D01*
X75435499Y-55018384D01*
X75943499Y-55018384D01*
X75947974Y-55033623D01*
X75949364Y-55034828D01*
X75957047Y-55036499D01*
X76957466Y-55036499D01*
X76970997Y-55032526D01*
X76972226Y-55023977D01*
X76924735Y-54846738D01*
X76920989Y-54836446D01*
X76828913Y-54638988D01*
X76823430Y-54629492D01*
X76756548Y-54533974D01*
X79426483Y-54533974D01*
X79445472Y-54751018D01*
X79447375Y-54761811D01*
X79503764Y-54972260D01*
X79507510Y-54982552D01*
X79599586Y-55180010D01*
X79605069Y-55189505D01*
X79641509Y-55241547D01*
X79651988Y-55249923D01*
X79665434Y-55242855D01*
X80366978Y-54541311D01*
X80374592Y-54527367D01*
X80374461Y-54525534D01*
X80370210Y-54518919D01*
X79664713Y-53813422D01*
X79652938Y-53806992D01*
X79640923Y-53816288D01*
X79605069Y-53867493D01*
X79599586Y-53876988D01*
X79507510Y-54074446D01*
X79503764Y-54084738D01*
X79447375Y-54295187D01*
X79445472Y-54305980D01*
X79426483Y-54523024D01*
X79426483Y-54533974D01*
X76756548Y-54533974D01*
X76698471Y-54451032D01*
X76691415Y-54442624D01*
X76537374Y-54288583D01*
X76528966Y-54281527D01*
X76350506Y-54156568D01*
X76341010Y-54151085D01*
X76143552Y-54059009D01*
X76133260Y-54055263D01*
X75960996Y-54009105D01*
X75946900Y-54009441D01*
X75943499Y-54017383D01*
X75943499Y-55018384D01*
X75435499Y-55018384D01*
X75435499Y-54022532D01*
X75431526Y-54009001D01*
X75422977Y-54007772D01*
X75245738Y-54055263D01*
X75235446Y-54059009D01*
X75123248Y-54111328D01*
X75053056Y-54121989D01*
X74988244Y-54093009D01*
X74949387Y-54033589D01*
X74943998Y-53997133D01*
X74943998Y-50850062D01*
X77699493Y-50850062D01*
X77708789Y-50862077D01*
X77759994Y-50897931D01*
X77769489Y-50903414D01*
X77966947Y-50995490D01*
X77977239Y-50999236D01*
X78187688Y-51055625D01*
X78198481Y-51057528D01*
X78415525Y-51076517D01*
X78426475Y-51076517D01*
X78643519Y-51057528D01*
X78654312Y-51055625D01*
X78864761Y-50999236D01*
X78875053Y-50995490D01*
X79072511Y-50903414D01*
X79082006Y-50897931D01*
X79134048Y-50861491D01*
X79142424Y-50851012D01*
X79135356Y-50837566D01*
X78433812Y-50136022D01*
X78419868Y-50128408D01*
X78418035Y-50128539D01*
X78411420Y-50132790D01*
X77705923Y-50838287D01*
X77699493Y-50850062D01*
X74943998Y-50850062D01*
X74943998Y-49769475D01*
X77108483Y-49769475D01*
X77127472Y-49986519D01*
X77129375Y-49997312D01*
X77185764Y-50207761D01*
X77189510Y-50218053D01*
X77281586Y-50415511D01*
X77287069Y-50425006D01*
X77323509Y-50477048D01*
X77333988Y-50485424D01*
X77347434Y-50478356D01*
X78048978Y-49776812D01*
X78055356Y-49765132D01*
X78785408Y-49765132D01*
X78785539Y-49766965D01*
X78789790Y-49773580D01*
X79495287Y-50479077D01*
X79507062Y-50485507D01*
X79519077Y-50476211D01*
X79554931Y-50425006D01*
X79560414Y-50415511D01*
X79652490Y-50218053D01*
X79656236Y-50207761D01*
X79712625Y-49997312D01*
X79714528Y-49986519D01*
X79733517Y-49769475D01*
X79733517Y-49758525D01*
X79714528Y-49541481D01*
X79712625Y-49530688D01*
X79656236Y-49320239D01*
X79652490Y-49309947D01*
X79560414Y-49112489D01*
X79554931Y-49102994D01*
X79518491Y-49050952D01*
X79508012Y-49042576D01*
X79494566Y-49049644D01*
X78793022Y-49751188D01*
X78785408Y-49765132D01*
X78055356Y-49765132D01*
X78056592Y-49762868D01*
X78056461Y-49761035D01*
X78052210Y-49754420D01*
X77346713Y-49048923D01*
X77334938Y-49042493D01*
X77322923Y-49051789D01*
X77287069Y-49102994D01*
X77281586Y-49112489D01*
X77189510Y-49309947D01*
X77185764Y-49320239D01*
X77129375Y-49530688D01*
X77127472Y-49541481D01*
X77108483Y-49758525D01*
X77108483Y-49769475D01*
X74943998Y-49769475D01*
X74943998Y-48963865D01*
X74964000Y-48895744D01*
X75017656Y-48849251D01*
X75087930Y-48839147D01*
X75123248Y-48849670D01*
X75235446Y-48901989D01*
X75245738Y-48905735D01*
X75418002Y-48951893D01*
X75432098Y-48951557D01*
X75435499Y-48943615D01*
X75435499Y-48938466D01*
X75943499Y-48938466D01*
X75947472Y-48951997D01*
X75956021Y-48953226D01*
X76133260Y-48905735D01*
X76143552Y-48901989D01*
X76341010Y-48809913D01*
X76350506Y-48804430D01*
X76528966Y-48679471D01*
X76537374Y-48672415D01*
X76691415Y-48518374D01*
X76698471Y-48509966D01*
X76823430Y-48331506D01*
X76828913Y-48322010D01*
X76920989Y-48124552D01*
X76924735Y-48114260D01*
X76970893Y-47941996D01*
X76970557Y-47927900D01*
X76962615Y-47924499D01*
X75961614Y-47924499D01*
X75946375Y-47928974D01*
X75945170Y-47930364D01*
X75943499Y-47938047D01*
X75943499Y-48938466D01*
X75435499Y-48938466D01*
X75435499Y-47398384D01*
X75943499Y-47398384D01*
X75947974Y-47413623D01*
X75949364Y-47414828D01*
X75957047Y-47416499D01*
X76957466Y-47416499D01*
X76970997Y-47412526D01*
X76972226Y-47403977D01*
X76924735Y-47226738D01*
X76920989Y-47216446D01*
X76828913Y-47018988D01*
X76823430Y-47009492D01*
X76698471Y-46831032D01*
X76691415Y-46822624D01*
X76537374Y-46668583D01*
X76528966Y-46661527D01*
X76350506Y-46536568D01*
X76341010Y-46531085D01*
X76143552Y-46439009D01*
X76133260Y-46435263D01*
X75960996Y-46389105D01*
X75946900Y-46389441D01*
X75943499Y-46397383D01*
X75943499Y-47398384D01*
X75435499Y-47398384D01*
X75435499Y-46402532D01*
X75431526Y-46389001D01*
X75422977Y-46387772D01*
X75245738Y-46435263D01*
X75235446Y-46439009D01*
X75037988Y-46531085D01*
X75028492Y-46536568D01*
X74850032Y-46661527D01*
X74841630Y-46668578D01*
X74684548Y-46825661D01*
X74622236Y-46859686D01*
X74551420Y-46854622D01*
X74506357Y-46825661D01*
X73470761Y-45790065D01*
X73436735Y-45727753D01*
X73441800Y-45656938D01*
X73484347Y-45600102D01*
X73550867Y-45575291D01*
X73559856Y-45574970D01*
X76143086Y-45574970D01*
X76211207Y-45594972D01*
X76232181Y-45611875D01*
X77397680Y-46777374D01*
X77431706Y-46839686D01*
X77428687Y-46904567D01*
X77384553Y-47043696D01*
X77383867Y-47049813D01*
X77383866Y-47049817D01*
X77367103Y-47199264D01*
X77361501Y-47249206D01*
X77363467Y-47272615D01*
X77376506Y-47427885D01*
X77378806Y-47455278D01*
X77435807Y-47654066D01*
X77438625Y-47659548D01*
X77438626Y-47659552D01*
X77527514Y-47832509D01*
X77527517Y-47832513D01*
X77530334Y-47837995D01*
X77658786Y-48000061D01*
X77663479Y-48004055D01*
X77663480Y-48004056D01*
X77805063Y-48124552D01*
X77816271Y-48134091D01*
X77996789Y-48234980D01*
X78076976Y-48261034D01*
X78078933Y-48261670D01*
X78137539Y-48301743D01*
X78165176Y-48367140D01*
X78153069Y-48437097D01*
X78105063Y-48489403D01*
X78072608Y-48503210D01*
X77977239Y-48528764D01*
X77966947Y-48532510D01*
X77769489Y-48624586D01*
X77759994Y-48630069D01*
X77707952Y-48666509D01*
X77699576Y-48676988D01*
X77706644Y-48690434D01*
X78408188Y-49391978D01*
X78422132Y-49399592D01*
X78423965Y-49399461D01*
X78430580Y-49395210D01*
X79136077Y-48689713D01*
X79142507Y-48677938D01*
X79133211Y-48665923D01*
X79082006Y-48630069D01*
X79072511Y-48624586D01*
X78875053Y-48532510D01*
X78864761Y-48528764D01*
X78772709Y-48504099D01*
X78712086Y-48467147D01*
X78681065Y-48403287D01*
X78689493Y-48332792D01*
X78734696Y-48278045D01*
X78771435Y-48261034D01*
X78798237Y-48253551D01*
X78798239Y-48253550D01*
X78804178Y-48251892D01*
X78809682Y-48249112D01*
X78809684Y-48249111D01*
X78983262Y-48161431D01*
X78983264Y-48161430D01*
X78988763Y-48158652D01*
X79151722Y-48031334D01*
X79155748Y-48026670D01*
X79155751Y-48026667D01*
X79282819Y-47879457D01*
X79282820Y-47879455D01*
X79286848Y-47874789D01*
X79382017Y-47707263D01*
X79433057Y-47657912D01*
X79491573Y-47643500D01*
X80323616Y-47643500D01*
X80391737Y-47663502D01*
X80412711Y-47680405D01*
X82322595Y-49590289D01*
X82356621Y-49652601D01*
X82359500Y-49679384D01*
X82359500Y-53348000D01*
X82339498Y-53416121D01*
X82285842Y-53462614D01*
X82233500Y-53474000D01*
X81913934Y-53474000D01*
X81878182Y-53481111D01*
X81851874Y-53486343D01*
X81851872Y-53486344D01*
X81839699Y-53488765D01*
X81829379Y-53495660D01*
X81829378Y-53495661D01*
X81755516Y-53545015D01*
X81753702Y-53542301D01*
X81708906Y-53566762D01*
X81638091Y-53561697D01*
X81593028Y-53532736D01*
X81586875Y-53526583D01*
X81578467Y-53519527D01*
X81400007Y-53394568D01*
X81390511Y-53389085D01*
X81193053Y-53297009D01*
X81182761Y-53293263D01*
X80972312Y-53236874D01*
X80961519Y-53234971D01*
X80744475Y-53215982D01*
X80733525Y-53215982D01*
X80516481Y-53234971D01*
X80505688Y-53236874D01*
X80295239Y-53293263D01*
X80284947Y-53297009D01*
X80087489Y-53389085D01*
X80077994Y-53394568D01*
X80025952Y-53431008D01*
X80017576Y-53441487D01*
X80024644Y-53454933D01*
X81009115Y-54439404D01*
X81043141Y-54501716D01*
X81038076Y-54572531D01*
X81009115Y-54617594D01*
X80023923Y-55602786D01*
X80017493Y-55614561D01*
X80026789Y-55626576D01*
X80077994Y-55662430D01*
X80087489Y-55667913D01*
X80284947Y-55759989D01*
X80295239Y-55763735D01*
X80505688Y-55820124D01*
X80516481Y-55822027D01*
X80733525Y-55841016D01*
X80744475Y-55841016D01*
X80961519Y-55822027D01*
X80972312Y-55820124D01*
X81182761Y-55763735D01*
X81193053Y-55759989D01*
X81390511Y-55667913D01*
X81400007Y-55662430D01*
X81578467Y-55537471D01*
X81586875Y-55530415D01*
X81593028Y-55524262D01*
X81655340Y-55490236D01*
X81726155Y-55495301D01*
X81754493Y-55513513D01*
X81755516Y-55511983D01*
X81821055Y-55555775D01*
X81839699Y-55568233D01*
X81913933Y-55582999D01*
X82738866Y-55582999D01*
X83564066Y-55582998D01*
X83599818Y-55575887D01*
X83626126Y-55570655D01*
X83626128Y-55570654D01*
X83638301Y-55568233D01*
X83648621Y-55561338D01*
X83648622Y-55561337D01*
X83712168Y-55518876D01*
X83722484Y-55511983D01*
X83772493Y-55437140D01*
X83826970Y-55391612D01*
X83897413Y-55382765D01*
X83966353Y-55418047D01*
X84026680Y-55478374D01*
X84060706Y-55540686D01*
X84057687Y-55605567D01*
X84013553Y-55744696D01*
X84012867Y-55750813D01*
X84012866Y-55750817D01*
X83994059Y-55918488D01*
X83990501Y-55950206D01*
X83991743Y-55965000D01*
X84006303Y-56138374D01*
X84007806Y-56156278D01*
X84064807Y-56355066D01*
X84067625Y-56360548D01*
X84067626Y-56360552D01*
X84156514Y-56533509D01*
X84156517Y-56533513D01*
X84159334Y-56538995D01*
X84287786Y-56701061D01*
X84292479Y-56705055D01*
X84292480Y-56705056D01*
X84364844Y-56766642D01*
X84445271Y-56835091D01*
X84625789Y-56935980D01*
X84822466Y-56999884D01*
X85027809Y-57024370D01*
X85033944Y-57023898D01*
X85033946Y-57023898D01*
X85227856Y-57008977D01*
X85227860Y-57008976D01*
X85233998Y-57008504D01*
X85433178Y-56952892D01*
X85438682Y-56950112D01*
X85438684Y-56950111D01*
X85612262Y-56862431D01*
X85612264Y-56862430D01*
X85617763Y-56859652D01*
X85780722Y-56732334D01*
X85784748Y-56727670D01*
X85784751Y-56727667D01*
X85911819Y-56580457D01*
X85911820Y-56580455D01*
X85915848Y-56575789D01*
X85976132Y-56469670D01*
X86014950Y-56401340D01*
X86014952Y-56401336D01*
X86017995Y-56395979D01*
X86073689Y-56228556D01*
X86081325Y-56205601D01*
X86081326Y-56205598D01*
X86083270Y-56199753D01*
X86109189Y-55994586D01*
X86109602Y-55965000D01*
X86089422Y-55759189D01*
X86029651Y-55561217D01*
X85953526Y-55418047D01*
X85935459Y-55384067D01*
X85935457Y-55384064D01*
X85932565Y-55378625D01*
X85928674Y-55373855D01*
X85928672Y-55373851D01*
X85805758Y-55223143D01*
X85805755Y-55223140D01*
X85801863Y-55218368D01*
X85766974Y-55189505D01*
X85647271Y-55090478D01*
X85647266Y-55090475D01*
X85642522Y-55086550D01*
X85637103Y-55083620D01*
X85637100Y-55083618D01*
X85466032Y-54991122D01*
X85466027Y-54991120D01*
X85460612Y-54988192D01*
X85263063Y-54927040D01*
X85256938Y-54926396D01*
X85256937Y-54926396D01*
X85063526Y-54906068D01*
X85063524Y-54906068D01*
X85057397Y-54905424D01*
X84931229Y-54916906D01*
X84857591Y-54923607D01*
X84857590Y-54923607D01*
X84851450Y-54924166D01*
X84795090Y-54940754D01*
X84687118Y-54972532D01*
X84616122Y-54972578D01*
X84562448Y-54940754D01*
X83919977Y-54298283D01*
X83904835Y-54279535D01*
X83903720Y-54278310D01*
X83898070Y-54269559D01*
X83889892Y-54263112D01*
X83889890Y-54263110D01*
X83871699Y-54248770D01*
X83867258Y-54244824D01*
X83867196Y-54244897D01*
X83863233Y-54241539D01*
X83859555Y-54237861D01*
X83846241Y-54228347D01*
X83802448Y-54172469D01*
X83793499Y-54125833D01*
X83793499Y-53703433D01*
X83778734Y-53629198D01*
X83722484Y-53545015D01*
X83638301Y-53488765D01*
X83564067Y-53473999D01*
X83244500Y-53473999D01*
X83176379Y-53453997D01*
X83129886Y-53400341D01*
X83118500Y-53347999D01*
X83118500Y-49523920D01*
X83121049Y-49499972D01*
X83121128Y-49498307D01*
X83123320Y-49488124D01*
X83119373Y-49454777D01*
X83119023Y-49448846D01*
X83118928Y-49448854D01*
X83118500Y-49443676D01*
X83118500Y-49438476D01*
X83117646Y-49433344D01*
X83115331Y-49419435D01*
X83114494Y-49413557D01*
X83109694Y-49372999D01*
X83109694Y-49372998D01*
X83108470Y-49362659D01*
X83104507Y-49354407D01*
X83103004Y-49345374D01*
X83078665Y-49300266D01*
X83075969Y-49294975D01*
X83057215Y-49255918D01*
X83057212Y-49255914D01*
X83053781Y-49248768D01*
X83050186Y-49244492D01*
X83048263Y-49242569D01*
X83046491Y-49240637D01*
X83046448Y-49240558D01*
X83046572Y-49240445D01*
X83046096Y-49239905D01*
X83043010Y-49234186D01*
X83003413Y-49197583D01*
X82999848Y-49194154D01*
X80839478Y-47033784D01*
X80824336Y-47015036D01*
X80823221Y-47013811D01*
X80817571Y-47005060D01*
X80809393Y-46998613D01*
X80809391Y-46998611D01*
X80791200Y-46984271D01*
X80786759Y-46980325D01*
X80786697Y-46980398D01*
X80782733Y-46977039D01*
X80779056Y-46973362D01*
X80763308Y-46962108D01*
X80758638Y-46958602D01*
X80718353Y-46926844D01*
X80709719Y-46923812D01*
X80702266Y-46918486D01*
X80653150Y-46903797D01*
X80647508Y-46901964D01*
X80606633Y-46887610D01*
X80606632Y-46887610D01*
X80599149Y-46884982D01*
X80593584Y-46884500D01*
X80590876Y-46884500D01*
X80588242Y-46884386D01*
X80588144Y-46884357D01*
X80588151Y-46884193D01*
X80587447Y-46884149D01*
X80581222Y-46882287D01*
X80527365Y-46884403D01*
X80522418Y-46884500D01*
X79489270Y-46884500D01*
X79421149Y-46864498D01*
X79378019Y-46817653D01*
X79364854Y-46792892D01*
X79349131Y-46763323D01*
X79306459Y-46683067D01*
X79306457Y-46683064D01*
X79303565Y-46677625D01*
X79299674Y-46672855D01*
X79299672Y-46672851D01*
X79176758Y-46522143D01*
X79176755Y-46522140D01*
X79172863Y-46517368D01*
X79145814Y-46494991D01*
X79018271Y-46389478D01*
X79018266Y-46389475D01*
X79013522Y-46385550D01*
X79008103Y-46382620D01*
X79008100Y-46382618D01*
X78837032Y-46290122D01*
X78837027Y-46290120D01*
X78831612Y-46287192D01*
X78634063Y-46226040D01*
X78627938Y-46225396D01*
X78627937Y-46225396D01*
X78434526Y-46205068D01*
X78434524Y-46205068D01*
X78428397Y-46204424D01*
X78302229Y-46215906D01*
X78228591Y-46222607D01*
X78228590Y-46222607D01*
X78222450Y-46223166D01*
X78160701Y-46241340D01*
X78058118Y-46271532D01*
X77987122Y-46271578D01*
X77933448Y-46239754D01*
X77483900Y-45790206D01*
X83990501Y-45790206D01*
X84007806Y-45996278D01*
X84064807Y-46195066D01*
X84067625Y-46200548D01*
X84067626Y-46200552D01*
X84156514Y-46373509D01*
X84156517Y-46373513D01*
X84159334Y-46378995D01*
X84287786Y-46541061D01*
X84292479Y-46545055D01*
X84292480Y-46545056D01*
X84393944Y-46631408D01*
X84445271Y-46675091D01*
X84625789Y-46775980D01*
X84822466Y-46839884D01*
X85027809Y-46864370D01*
X85033944Y-46863898D01*
X85033946Y-46863898D01*
X85227856Y-46848977D01*
X85227860Y-46848976D01*
X85233998Y-46848504D01*
X85433178Y-46792892D01*
X85438682Y-46790112D01*
X85438684Y-46790111D01*
X85612262Y-46702431D01*
X85612264Y-46702430D01*
X85617763Y-46699652D01*
X85780722Y-46572334D01*
X85784748Y-46567670D01*
X85784751Y-46567667D01*
X85911819Y-46420457D01*
X85911820Y-46420455D01*
X85915848Y-46415789D01*
X86017995Y-46235979D01*
X86050633Y-46137866D01*
X86081325Y-46045601D01*
X86081326Y-46045598D01*
X86083270Y-46039753D01*
X86109189Y-45834586D01*
X86109602Y-45805000D01*
X86089422Y-45599189D01*
X86029651Y-45401217D01*
X85932565Y-45218625D01*
X85928674Y-45213855D01*
X85928672Y-45213851D01*
X85805758Y-45063143D01*
X85805755Y-45063140D01*
X85801863Y-45058368D01*
X85794966Y-45052662D01*
X85647271Y-44930478D01*
X85647266Y-44930475D01*
X85642522Y-44926550D01*
X85637103Y-44923620D01*
X85637100Y-44923618D01*
X85466032Y-44831122D01*
X85466027Y-44831120D01*
X85460612Y-44828192D01*
X85263063Y-44767040D01*
X85256938Y-44766396D01*
X85256937Y-44766396D01*
X85063526Y-44746068D01*
X85063524Y-44746068D01*
X85057397Y-44745424D01*
X84958841Y-44754393D01*
X84857591Y-44763607D01*
X84857590Y-44763607D01*
X84851450Y-44764166D01*
X84653066Y-44822554D01*
X84647601Y-44825411D01*
X84475261Y-44915508D01*
X84475257Y-44915511D01*
X84469801Y-44918363D01*
X84308635Y-45047943D01*
X84175708Y-45206360D01*
X84076082Y-45387578D01*
X84013553Y-45584696D01*
X84012867Y-45590813D01*
X84012866Y-45590817D01*
X83998499Y-45718902D01*
X83990501Y-45790206D01*
X77483900Y-45790206D01*
X76658948Y-44965254D01*
X76643806Y-44946506D01*
X76642691Y-44945281D01*
X76637041Y-44936530D01*
X76628863Y-44930083D01*
X76628861Y-44930081D01*
X76610670Y-44915741D01*
X76606229Y-44911795D01*
X76606167Y-44911868D01*
X76602203Y-44908509D01*
X76598526Y-44904832D01*
X76582778Y-44893578D01*
X76578108Y-44890072D01*
X76537823Y-44858314D01*
X76529189Y-44855282D01*
X76521736Y-44849956D01*
X76472620Y-44835267D01*
X76466978Y-44833434D01*
X76426103Y-44819080D01*
X76426102Y-44819080D01*
X76418619Y-44816452D01*
X76413054Y-44815970D01*
X76410346Y-44815970D01*
X76407712Y-44815856D01*
X76407614Y-44815827D01*
X76407621Y-44815663D01*
X76406917Y-44815619D01*
X76400692Y-44813757D01*
X76346835Y-44815873D01*
X76341888Y-44815970D01*
X69825989Y-44815970D01*
X69757868Y-44795968D01*
X69711375Y-44742312D01*
X69699989Y-44689970D01*
X69699989Y-44186452D01*
X69719991Y-44118331D01*
X69773647Y-44071838D01*
X69843921Y-44061734D01*
X69887460Y-44076464D01*
X70015411Y-44147975D01*
X70015417Y-44147977D01*
X70020789Y-44150980D01*
X70217466Y-44214884D01*
X70422809Y-44239370D01*
X70428944Y-44238898D01*
X70428946Y-44238898D01*
X70622856Y-44223977D01*
X70622860Y-44223976D01*
X70628998Y-44223504D01*
X70828178Y-44167892D01*
X70833682Y-44165112D01*
X70833684Y-44165111D01*
X71007262Y-44077431D01*
X71007264Y-44077430D01*
X71012763Y-44074652D01*
X71175722Y-43947334D01*
X71179748Y-43942670D01*
X71179751Y-43942667D01*
X71306819Y-43795457D01*
X71306820Y-43795455D01*
X71310848Y-43790789D01*
X71406017Y-43623263D01*
X71457057Y-43573912D01*
X71515573Y-43559500D01*
X72336080Y-43559500D01*
X72360028Y-43562049D01*
X72361693Y-43562128D01*
X72371876Y-43564320D01*
X72382217Y-43563096D01*
X72405223Y-43560373D01*
X72411154Y-43560023D01*
X72411146Y-43559928D01*
X72416324Y-43559500D01*
X72421524Y-43559500D01*
X72426653Y-43558646D01*
X72426656Y-43558646D01*
X72440565Y-43556331D01*
X72446443Y-43555494D01*
X72487001Y-43550694D01*
X72487002Y-43550694D01*
X72497341Y-43549470D01*
X72505593Y-43545507D01*
X72514626Y-43544004D01*
X72523795Y-43539057D01*
X72523797Y-43539056D01*
X72559732Y-43519666D01*
X72565025Y-43516969D01*
X72604082Y-43498215D01*
X72604086Y-43498212D01*
X72611232Y-43494781D01*
X72615508Y-43491186D01*
X72617431Y-43489263D01*
X72619363Y-43487491D01*
X72619442Y-43487448D01*
X72619555Y-43487572D01*
X72620095Y-43487096D01*
X72625814Y-43484010D01*
X72662417Y-43444413D01*
X72665846Y-43440848D01*
X73115580Y-42991114D01*
X73177892Y-42957088D01*
X73195010Y-42954580D01*
X73196898Y-42954435D01*
X73202856Y-42953977D01*
X73202860Y-42953976D01*
X73208998Y-42953504D01*
X73214931Y-42951848D01*
X73214934Y-42951847D01*
X73300794Y-42927874D01*
X73408178Y-42897892D01*
X73413682Y-42895112D01*
X73413684Y-42895111D01*
X73587262Y-42807431D01*
X73587264Y-42807430D01*
X73592763Y-42804652D01*
X73755722Y-42677334D01*
X73759748Y-42672670D01*
X73759751Y-42672667D01*
X73886819Y-42525457D01*
X73886820Y-42525455D01*
X73890848Y-42520789D01*
X73958504Y-42401694D01*
X73989950Y-42346340D01*
X73989952Y-42346336D01*
X73992995Y-42340979D01*
X74036846Y-42209158D01*
X74056325Y-42150601D01*
X74056326Y-42150598D01*
X74058270Y-42144753D01*
X74084189Y-41939586D01*
X74084602Y-41910000D01*
X74064422Y-41704189D01*
X74004651Y-41506217D01*
X73945808Y-41395549D01*
X73910459Y-41329067D01*
X73910457Y-41329064D01*
X73907565Y-41323625D01*
X73903671Y-41318850D01*
X73903668Y-41318846D01*
X73827240Y-41225135D01*
X73799686Y-41159704D01*
X73811882Y-41089762D01*
X73859954Y-41037517D01*
X73924883Y-41019500D01*
X79978081Y-41019500D01*
X80002029Y-41022049D01*
X80003694Y-41022128D01*
X80013877Y-41024320D01*
X80024218Y-41023096D01*
X80046101Y-41020506D01*
X80047224Y-41020373D01*
X80053155Y-41020023D01*
X80053147Y-41019928D01*
X80058325Y-41019500D01*
X80063525Y-41019500D01*
X80068654Y-41018646D01*
X80068657Y-41018646D01*
X80082566Y-41016331D01*
X80088444Y-41015494D01*
X80129002Y-41010694D01*
X80129003Y-41010694D01*
X80139342Y-41009470D01*
X80147594Y-41005507D01*
X80156627Y-41004004D01*
X80165796Y-40999057D01*
X80165798Y-40999056D01*
X80201733Y-40979666D01*
X80207026Y-40976969D01*
X80246083Y-40958215D01*
X80246087Y-40958212D01*
X80253233Y-40954781D01*
X80257509Y-40951186D01*
X80259432Y-40949263D01*
X80261364Y-40947491D01*
X80261443Y-40947448D01*
X80261556Y-40947572D01*
X80262096Y-40947096D01*
X80267815Y-40944010D01*
X80304418Y-40904413D01*
X80307847Y-40900848D01*
X81428587Y-39780108D01*
X81490899Y-39746082D01*
X81556618Y-39749370D01*
X81687466Y-39791885D01*
X81892809Y-39816371D01*
X81898944Y-39815899D01*
X81898946Y-39815899D01*
X82092856Y-39800978D01*
X82092860Y-39800977D01*
X82098998Y-39800505D01*
X82298178Y-39744893D01*
X82303682Y-39742113D01*
X82303684Y-39742112D01*
X82477262Y-39654432D01*
X82477264Y-39654431D01*
X82482763Y-39651653D01*
X82601927Y-39558552D01*
X82667921Y-39532374D01*
X82737591Y-39546031D01*
X82788818Y-39595187D01*
X82805500Y-39657841D01*
X82805500Y-40842131D01*
X82785498Y-40910252D01*
X82737876Y-40953792D01*
X82610265Y-41020506D01*
X82610261Y-41020508D01*
X82604801Y-41023363D01*
X82443635Y-41152943D01*
X82310708Y-41311360D01*
X82211082Y-41492578D01*
X82148553Y-41689696D01*
X82147867Y-41695813D01*
X82147866Y-41695817D01*
X82128161Y-41871490D01*
X82125501Y-41895206D01*
X82126743Y-41910000D01*
X82142190Y-42093938D01*
X82142806Y-42101278D01*
X82199807Y-42300066D01*
X82202625Y-42305548D01*
X82202626Y-42305552D01*
X82291514Y-42478509D01*
X82291517Y-42478513D01*
X82294334Y-42483995D01*
X82422786Y-42646061D01*
X82427479Y-42650055D01*
X82427480Y-42650056D01*
X82574602Y-42775266D01*
X82580271Y-42780091D01*
X82760789Y-42880980D01*
X82957466Y-42944884D01*
X83162809Y-42969370D01*
X83168944Y-42968898D01*
X83168946Y-42968898D01*
X83362856Y-42953977D01*
X83362860Y-42953976D01*
X83368998Y-42953504D01*
X83568178Y-42897892D01*
X83573682Y-42895112D01*
X83573684Y-42895111D01*
X83747262Y-42807431D01*
X83747264Y-42807430D01*
X83752763Y-42804652D01*
X83915722Y-42677334D01*
X83919748Y-42672670D01*
X83919751Y-42672667D01*
X84046819Y-42525457D01*
X84046820Y-42525455D01*
X84050848Y-42520789D01*
X84118504Y-42401694D01*
X84149950Y-42346340D01*
X84149952Y-42346336D01*
X84152995Y-42340979D01*
X84196846Y-42209158D01*
X84216325Y-42150601D01*
X84216326Y-42150598D01*
X84218270Y-42144753D01*
X84244189Y-41939586D01*
X84244602Y-41910000D01*
X84224422Y-41704189D01*
X84164651Y-41506217D01*
X84105808Y-41395549D01*
X84070459Y-41329067D01*
X84070457Y-41329064D01*
X84067565Y-41323625D01*
X84063674Y-41318855D01*
X84063672Y-41318851D01*
X83940758Y-41168143D01*
X83940755Y-41168140D01*
X83936863Y-41163368D01*
X83929966Y-41157662D01*
X83782271Y-41035478D01*
X83782266Y-41035475D01*
X83777522Y-41031550D01*
X83772103Y-41028620D01*
X83772100Y-41028618D01*
X83630572Y-40952095D01*
X83580163Y-40902100D01*
X83564500Y-40841259D01*
X83564500Y-36946206D01*
X84030501Y-36946206D01*
X84047806Y-37152278D01*
X84104807Y-37351066D01*
X84107625Y-37356548D01*
X84107626Y-37356552D01*
X84196514Y-37529509D01*
X84196517Y-37529513D01*
X84199334Y-37534995D01*
X84327786Y-37697061D01*
X84332479Y-37701055D01*
X84332480Y-37701056D01*
X84428909Y-37783123D01*
X84485271Y-37831091D01*
X84665789Y-37931980D01*
X84862466Y-37995884D01*
X85067809Y-38020370D01*
X85073944Y-38019898D01*
X85073946Y-38019898D01*
X85267856Y-38004977D01*
X85267860Y-38004976D01*
X85273998Y-38004504D01*
X85473178Y-37948892D01*
X85478682Y-37946112D01*
X85478684Y-37946111D01*
X85652262Y-37858431D01*
X85652264Y-37858430D01*
X85657763Y-37855652D01*
X85820722Y-37728334D01*
X85824748Y-37723670D01*
X85824751Y-37723667D01*
X85951819Y-37576457D01*
X85951820Y-37576455D01*
X85955848Y-37571789D01*
X86057995Y-37391979D01*
X86123270Y-37195753D01*
X86149189Y-36990586D01*
X86149602Y-36961000D01*
X86129422Y-36755189D01*
X86069651Y-36557217D01*
X85985103Y-36398205D01*
X85975459Y-36380067D01*
X85975457Y-36380064D01*
X85972565Y-36374625D01*
X85968674Y-36369855D01*
X85968672Y-36369851D01*
X85845758Y-36219143D01*
X85845755Y-36219140D01*
X85841863Y-36214368D01*
X85834966Y-36208662D01*
X85687271Y-36086478D01*
X85687266Y-36086475D01*
X85682522Y-36082550D01*
X85677103Y-36079620D01*
X85677100Y-36079618D01*
X85506032Y-35987122D01*
X85506027Y-35987120D01*
X85500612Y-35984192D01*
X85434382Y-35963690D01*
X85375224Y-35924440D01*
X85346676Y-35859436D01*
X85357804Y-35789317D01*
X85405075Y-35736345D01*
X85439030Y-35721619D01*
X85533764Y-35696235D01*
X85544053Y-35692490D01*
X85741511Y-35600414D01*
X85751006Y-35594931D01*
X85803048Y-35558491D01*
X85811424Y-35548012D01*
X85804356Y-35534566D01*
X85102812Y-34833022D01*
X85088868Y-34825408D01*
X85087035Y-34825539D01*
X85080420Y-34829790D01*
X84374923Y-35535287D01*
X84368493Y-35547062D01*
X84377789Y-35559077D01*
X84428994Y-35594931D01*
X84438489Y-35600414D01*
X84635947Y-35692490D01*
X84646239Y-35696236D01*
X84739874Y-35721325D01*
X84800497Y-35758277D01*
X84831518Y-35822137D01*
X84823090Y-35892632D01*
X84777887Y-35947379D01*
X84742840Y-35963905D01*
X84693066Y-35978554D01*
X84687601Y-35981411D01*
X84515261Y-36071508D01*
X84515257Y-36071511D01*
X84509801Y-36074363D01*
X84348635Y-36203943D01*
X84215708Y-36362360D01*
X84116082Y-36543578D01*
X84053553Y-36740696D01*
X84030501Y-36946206D01*
X83564500Y-36946206D01*
X83564500Y-34778546D01*
X83584502Y-34710425D01*
X83638158Y-34663932D01*
X83708432Y-34653828D01*
X83773012Y-34683322D01*
X83812207Y-34745935D01*
X83854764Y-34904761D01*
X83858510Y-34915053D01*
X83950586Y-35112511D01*
X83956069Y-35122006D01*
X83992509Y-35174048D01*
X84002988Y-35182424D01*
X84016434Y-35175356D01*
X84717978Y-34473812D01*
X84724356Y-34462132D01*
X85454408Y-34462132D01*
X85454539Y-34463965D01*
X85458790Y-34470580D01*
X86164287Y-35176077D01*
X86176062Y-35182507D01*
X86188077Y-35173211D01*
X86223931Y-35122006D01*
X86229414Y-35112511D01*
X86321490Y-34915053D01*
X86325236Y-34904761D01*
X86381625Y-34694312D01*
X86383528Y-34683519D01*
X86402517Y-34466475D01*
X86402517Y-34455525D01*
X86383528Y-34238481D01*
X86381625Y-34227688D01*
X86325236Y-34017239D01*
X86321490Y-34006947D01*
X86229414Y-33809489D01*
X86223931Y-33799994D01*
X86187491Y-33747952D01*
X86177012Y-33739576D01*
X86163566Y-33746644D01*
X85462022Y-34448188D01*
X85454408Y-34462132D01*
X84724356Y-34462132D01*
X84725592Y-34459868D01*
X84725461Y-34458035D01*
X84721210Y-34451420D01*
X84015713Y-33745923D01*
X84003938Y-33739493D01*
X83991923Y-33748789D01*
X83956069Y-33799994D01*
X83950586Y-33809489D01*
X83858510Y-34006947D01*
X83854764Y-34017239D01*
X83812207Y-34176065D01*
X83775255Y-34236688D01*
X83711395Y-34267709D01*
X83640900Y-34259281D01*
X83586153Y-34214078D01*
X83564500Y-34143454D01*
X83564500Y-33373988D01*
X84368576Y-33373988D01*
X84375644Y-33387434D01*
X85077188Y-34088978D01*
X85091132Y-34096592D01*
X85092965Y-34096461D01*
X85099580Y-34092210D01*
X85805077Y-33386713D01*
X85811507Y-33374938D01*
X85802211Y-33362923D01*
X85751006Y-33327069D01*
X85741511Y-33321586D01*
X85544053Y-33229510D01*
X85533761Y-33225764D01*
X85323312Y-33169375D01*
X85312519Y-33167472D01*
X85095475Y-33148483D01*
X85084525Y-33148483D01*
X84867481Y-33167472D01*
X84856688Y-33169375D01*
X84646239Y-33225764D01*
X84635947Y-33229510D01*
X84438489Y-33321586D01*
X84428994Y-33327069D01*
X84376952Y-33363509D01*
X84368576Y-33373988D01*
X83564500Y-33373988D01*
X83564500Y-31410921D01*
X83567049Y-31386973D01*
X83567128Y-31385308D01*
X83569320Y-31375125D01*
X83565373Y-31341778D01*
X83565023Y-31335847D01*
X83564928Y-31335855D01*
X83564500Y-31330677D01*
X83564500Y-31325477D01*
X83563646Y-31320345D01*
X83561331Y-31306436D01*
X83560494Y-31300558D01*
X83555694Y-31260000D01*
X83555694Y-31259999D01*
X83554470Y-31249660D01*
X83550507Y-31241408D01*
X83549004Y-31232375D01*
X83540202Y-31216061D01*
X83524666Y-31187269D01*
X83521969Y-31181976D01*
X83503215Y-31142919D01*
X83503212Y-31142915D01*
X83499781Y-31135769D01*
X83496186Y-31131493D01*
X83494263Y-31129570D01*
X83492491Y-31127638D01*
X83492448Y-31127559D01*
X83492572Y-31127446D01*
X83492096Y-31126906D01*
X83489010Y-31121187D01*
X83449413Y-31084584D01*
X83445848Y-31081155D01*
X83271478Y-30906785D01*
X83256336Y-30888037D01*
X83255221Y-30886812D01*
X83249571Y-30878061D01*
X83241393Y-30871614D01*
X83241391Y-30871612D01*
X83223200Y-30857272D01*
X83218759Y-30853326D01*
X83218697Y-30853399D01*
X83214733Y-30850040D01*
X83211056Y-30846363D01*
X83195308Y-30835109D01*
X83190638Y-30831603D01*
X83150353Y-30799845D01*
X83141719Y-30796813D01*
X83134266Y-30791487D01*
X83085150Y-30776798D01*
X83079507Y-30774965D01*
X83053749Y-30765919D01*
X82996104Y-30724475D01*
X82970016Y-30658445D01*
X82969499Y-30647037D01*
X82969499Y-30311935D01*
X82962108Y-30274775D01*
X82957156Y-30249875D01*
X82957155Y-30249873D01*
X82954734Y-30237700D01*
X82923144Y-30190422D01*
X82905377Y-30163833D01*
X82898484Y-30153517D01*
X82814301Y-30097267D01*
X82740067Y-30082501D01*
X82420500Y-30082501D01*
X82352379Y-30062499D01*
X82305886Y-30008843D01*
X82294500Y-29956501D01*
X82294500Y-29740964D01*
X83942112Y-29740964D01*
X83942312Y-29746292D01*
X83942312Y-29746294D01*
X83944464Y-29803599D01*
X83943705Y-29803628D01*
X83944034Y-29805016D01*
X83944340Y-29804989D01*
X83944374Y-29805377D01*
X83944465Y-29806838D01*
X83944523Y-29807085D01*
X83944648Y-29808507D01*
X83950736Y-29970669D01*
X83951831Y-29975888D01*
X83964628Y-30036879D01*
X83963861Y-30037040D01*
X83964841Y-30039316D01*
X83964937Y-30040408D01*
X83966361Y-30045722D01*
X83966464Y-30046307D01*
X83967635Y-30051210D01*
X83997939Y-30195637D01*
X84022784Y-30258551D01*
X84023975Y-30261566D01*
X84024724Y-30263541D01*
X84026097Y-30268663D01*
X84028422Y-30273649D01*
X84028423Y-30273651D01*
X84028947Y-30274775D01*
X84031934Y-30281717D01*
X84082372Y-30409436D01*
X84119273Y-30470246D01*
X84120811Y-30473126D01*
X84120890Y-30473080D01*
X84123639Y-30477841D01*
X84125965Y-30482829D01*
X84129122Y-30487337D01*
X84129124Y-30487341D01*
X84130674Y-30489555D01*
X84135181Y-30496462D01*
X84165152Y-30545852D01*
X84201621Y-30605952D01*
X84205116Y-30609979D01*
X84205117Y-30609981D01*
X84251993Y-30664000D01*
X84255555Y-30668563D01*
X84258346Y-30671888D01*
X84261505Y-30676401D01*
X84267791Y-30682687D01*
X84273861Y-30689201D01*
X84340434Y-30765919D01*
X84352276Y-30779566D01*
X84377008Y-30799845D01*
X84416309Y-30832070D01*
X84423574Y-30838652D01*
X84424706Y-30839602D01*
X84428599Y-30843495D01*
X84433103Y-30846649D01*
X84433108Y-30846653D01*
X84435936Y-30848633D01*
X84443554Y-30854410D01*
X84525901Y-30921931D01*
X84525907Y-30921935D01*
X84530029Y-30925315D01*
X84534668Y-30927955D01*
X84534667Y-30927955D01*
X84607355Y-30969331D01*
X84617296Y-30975622D01*
X84617660Y-30975877D01*
X84617667Y-30975881D01*
X84622171Y-30979035D01*
X84627155Y-30981359D01*
X84627160Y-30981362D01*
X84629875Y-30982628D01*
X84638952Y-30987318D01*
X84683061Y-31012426D01*
X84729798Y-31039030D01*
X84819498Y-31071590D01*
X84829753Y-31075833D01*
X84831348Y-31076577D01*
X84831350Y-31076578D01*
X84836337Y-31078903D01*
X84841653Y-31080327D01*
X84841655Y-31080328D01*
X84842719Y-31080613D01*
X84843702Y-31080876D01*
X84854081Y-31084143D01*
X84945871Y-31117461D01*
X85046443Y-31135648D01*
X85056616Y-31137926D01*
X85064592Y-31140063D01*
X85070990Y-31140623D01*
X85082412Y-31142152D01*
X85172069Y-31158364D01*
X85176208Y-31158559D01*
X85176215Y-31158560D01*
X85194670Y-31159430D01*
X85194677Y-31159430D01*
X85196158Y-31159500D01*
X85357712Y-31159500D01*
X85437444Y-31152735D01*
X85523733Y-31145413D01*
X85523737Y-31145412D01*
X85529044Y-31144962D01*
X85534199Y-31143624D01*
X85534205Y-31143623D01*
X85746368Y-31088556D01*
X85746367Y-31088556D01*
X85751539Y-31087214D01*
X85898412Y-31021052D01*
X85956262Y-30994993D01*
X85956265Y-30994992D01*
X85961123Y-30992803D01*
X86151803Y-30864430D01*
X86163367Y-30853399D01*
X86244991Y-30775533D01*
X86318128Y-30705764D01*
X86455342Y-30521342D01*
X86471504Y-30489555D01*
X86557102Y-30321194D01*
X86557102Y-30321193D01*
X86559520Y-30316438D01*
X86627685Y-30096911D01*
X86636069Y-30033653D01*
X86657188Y-29874319D01*
X86657188Y-29874316D01*
X86657888Y-29869036D01*
X86655536Y-29806401D01*
X86656295Y-29806372D01*
X86655966Y-29804984D01*
X86655660Y-29805011D01*
X86655626Y-29804623D01*
X86655535Y-29803162D01*
X86655477Y-29802915D01*
X86655352Y-29801493D01*
X86649264Y-29639331D01*
X86635372Y-29573121D01*
X86636139Y-29572960D01*
X86635159Y-29570684D01*
X86635063Y-29569592D01*
X86633639Y-29564278D01*
X86633536Y-29563693D01*
X86632362Y-29558778D01*
X86632304Y-29558499D01*
X86602061Y-29414363D01*
X86576025Y-29348434D01*
X86575276Y-29346459D01*
X86573903Y-29341337D01*
X86571053Y-29335225D01*
X86568066Y-29328283D01*
X86517628Y-29200564D01*
X86480727Y-29139754D01*
X86479189Y-29136874D01*
X86479110Y-29136920D01*
X86476361Y-29132159D01*
X86474035Y-29127171D01*
X86470876Y-29122659D01*
X86469326Y-29120445D01*
X86464819Y-29113538D01*
X86401147Y-29008609D01*
X86401145Y-29008606D01*
X86398379Y-29004048D01*
X86394883Y-29000019D01*
X86348007Y-28946000D01*
X86344445Y-28941437D01*
X86341652Y-28938108D01*
X86338495Y-28933599D01*
X86334604Y-28929708D01*
X86334599Y-28929702D01*
X86332209Y-28927313D01*
X86326139Y-28920799D01*
X86251224Y-28834467D01*
X86251222Y-28834465D01*
X86247724Y-28830434D01*
X86183692Y-28777930D01*
X86176426Y-28771348D01*
X86175294Y-28770398D01*
X86171401Y-28766505D01*
X86166897Y-28763351D01*
X86166892Y-28763347D01*
X86164064Y-28761367D01*
X86156446Y-28755590D01*
X86074099Y-28688069D01*
X86074093Y-28688065D01*
X86069971Y-28684685D01*
X85992645Y-28640669D01*
X85982704Y-28634378D01*
X85982340Y-28634123D01*
X85982333Y-28634119D01*
X85977829Y-28630965D01*
X85972845Y-28628641D01*
X85972840Y-28628638D01*
X85970125Y-28627372D01*
X85961048Y-28622682D01*
X85916939Y-28597574D01*
X85870202Y-28570970D01*
X85780502Y-28538410D01*
X85770247Y-28534167D01*
X85768652Y-28533423D01*
X85768650Y-28533422D01*
X85763663Y-28531097D01*
X85758347Y-28529673D01*
X85758345Y-28529672D01*
X85757281Y-28529387D01*
X85756298Y-28529124D01*
X85745919Y-28525857D01*
X85654129Y-28492539D01*
X85553557Y-28474352D01*
X85543384Y-28472074D01*
X85535408Y-28469937D01*
X85529010Y-28469377D01*
X85517588Y-28467848D01*
X85427931Y-28451636D01*
X85423792Y-28451441D01*
X85423785Y-28451440D01*
X85405330Y-28450570D01*
X85405323Y-28450570D01*
X85403842Y-28450500D01*
X85242288Y-28450500D01*
X85171931Y-28456470D01*
X85076267Y-28464587D01*
X85076263Y-28464588D01*
X85070956Y-28465038D01*
X85065801Y-28466376D01*
X85065795Y-28466377D01*
X84893058Y-28511211D01*
X84848461Y-28522786D01*
X84745060Y-28569365D01*
X84643738Y-28615007D01*
X84643735Y-28615008D01*
X84638877Y-28617197D01*
X84634453Y-28620176D01*
X84634452Y-28620176D01*
X84619636Y-28630151D01*
X84448197Y-28745570D01*
X84444340Y-28749249D01*
X84444338Y-28749251D01*
X84418404Y-28773991D01*
X84281872Y-28904236D01*
X84144658Y-29088658D01*
X84142242Y-29093409D01*
X84142240Y-29093413D01*
X84049500Y-29275820D01*
X84040480Y-29293562D01*
X84038898Y-29298657D01*
X83984883Y-29472615D01*
X83972315Y-29513089D01*
X83971614Y-29518378D01*
X83943640Y-29729439D01*
X83942112Y-29740964D01*
X82294500Y-29740964D01*
X82294500Y-28161236D01*
X82314502Y-28093115D01*
X82340865Y-28063593D01*
X82375095Y-28035676D01*
X82423609Y-27996109D01*
X82552073Y-27838596D01*
X82646241Y-27658470D01*
X82702266Y-27463087D01*
X82710732Y-27368230D01*
X82712751Y-27345609D01*
X82712751Y-27345603D01*
X82713000Y-27342816D01*
X82713000Y-24727184D01*
X82707084Y-24660891D01*
X82702799Y-24612886D01*
X82702266Y-24606913D01*
X82646241Y-24411530D01*
X82552073Y-24231404D01*
X82504899Y-24173562D01*
X82427638Y-24078831D01*
X82423609Y-24073891D01*
X82418669Y-24069862D01*
X82418665Y-24069858D01*
X82299467Y-23972643D01*
X82259319Y-23914089D01*
X82257201Y-23843124D01*
X82293786Y-23782279D01*
X82357458Y-23750873D01*
X82379102Y-23749000D01*
X87420000Y-23749000D01*
X87488121Y-23769002D01*
G37*
%TD.AperFunction*%
%TA.AperFunction,Conductor*%
G36*
X56358660Y-23769002D02*
G01*
X56405153Y-23822658D01*
X56415257Y-23892932D01*
X56385763Y-23957512D01*
X56370174Y-23972643D01*
X56328835Y-24006358D01*
X56328831Y-24006362D01*
X56323891Y-24010391D01*
X56319862Y-24015331D01*
X56250160Y-24100795D01*
X56195427Y-24167904D01*
X56101259Y-24348030D01*
X56045234Y-24543413D01*
X56034500Y-24663684D01*
X56034500Y-27279316D01*
X56034749Y-27282103D01*
X56034749Y-27282109D01*
X56040705Y-27348840D01*
X56045234Y-27399587D01*
X56101259Y-27594970D01*
X56195427Y-27775096D01*
X56199458Y-27780039D01*
X56199459Y-27780040D01*
X56251248Y-27843540D01*
X56323891Y-27932609D01*
X56328831Y-27936638D01*
X56476403Y-28056994D01*
X56481404Y-28061073D01*
X56661530Y-28155241D01*
X56856913Y-28211266D01*
X56888545Y-28214089D01*
X56974391Y-28221751D01*
X56974397Y-28221751D01*
X56977184Y-28222000D01*
X57279500Y-28222000D01*
X57347621Y-28242002D01*
X57394114Y-28295658D01*
X57405500Y-28348000D01*
X57405500Y-28365616D01*
X57385498Y-28433737D01*
X57368595Y-28454711D01*
X53191886Y-32631420D01*
X53129574Y-32665446D01*
X53065534Y-32662690D01*
X52918063Y-32617040D01*
X52911938Y-32616396D01*
X52911937Y-32616396D01*
X52718526Y-32596068D01*
X52718524Y-32596068D01*
X52712397Y-32595424D01*
X52586229Y-32606906D01*
X52512591Y-32613607D01*
X52512590Y-32613607D01*
X52506450Y-32614166D01*
X52308066Y-32672554D01*
X52302601Y-32675411D01*
X52130261Y-32765508D01*
X52130257Y-32765511D01*
X52124801Y-32768363D01*
X51963635Y-32897943D01*
X51830708Y-33056360D01*
X51731082Y-33237578D01*
X51668553Y-33434696D01*
X51645501Y-33640206D01*
X51646743Y-33655000D01*
X51659717Y-33809489D01*
X51662806Y-33846278D01*
X51719807Y-34045066D01*
X51722625Y-34050548D01*
X51722626Y-34050552D01*
X51811514Y-34223509D01*
X51811517Y-34223513D01*
X51814334Y-34228995D01*
X51942786Y-34391061D01*
X51947479Y-34395055D01*
X51947480Y-34395056D01*
X52036221Y-34470580D01*
X52100271Y-34525091D01*
X52280789Y-34625980D01*
X52477466Y-34689884D01*
X52682809Y-34714370D01*
X52688944Y-34713898D01*
X52688946Y-34713898D01*
X52882856Y-34698977D01*
X52882860Y-34698976D01*
X52888998Y-34698504D01*
X53088178Y-34642892D01*
X53093682Y-34640112D01*
X53093684Y-34640111D01*
X53267262Y-34552431D01*
X53267264Y-34552430D01*
X53272763Y-34549652D01*
X53435722Y-34422334D01*
X53439748Y-34417670D01*
X53439751Y-34417667D01*
X53566819Y-34270457D01*
X53566820Y-34270455D01*
X53570848Y-34265789D01*
X53630661Y-34160500D01*
X53669950Y-34091340D01*
X53669952Y-34091336D01*
X53672995Y-34085979D01*
X53706351Y-33985707D01*
X53736325Y-33895601D01*
X53736326Y-33895598D01*
X53738270Y-33889753D01*
X53764189Y-33684586D01*
X53764602Y-33655000D01*
X53744422Y-33449189D01*
X53697362Y-33293318D01*
X53696821Y-33222323D01*
X53728889Y-33167805D01*
X58015216Y-28881478D01*
X58033964Y-28866336D01*
X58035189Y-28865221D01*
X58043940Y-28859571D01*
X58050387Y-28851393D01*
X58050389Y-28851391D01*
X58064729Y-28833200D01*
X58068675Y-28828759D01*
X58068602Y-28828697D01*
X58071961Y-28824733D01*
X58075638Y-28821056D01*
X58086892Y-28805308D01*
X58090398Y-28800638D01*
X58122156Y-28760353D01*
X58125188Y-28751719D01*
X58130514Y-28744266D01*
X58145203Y-28695150D01*
X58147036Y-28689508D01*
X58161390Y-28648633D01*
X58161390Y-28648632D01*
X58164018Y-28641149D01*
X58164500Y-28635584D01*
X58164500Y-28632876D01*
X58164614Y-28630242D01*
X58164643Y-28630144D01*
X58164807Y-28630151D01*
X58164851Y-28629447D01*
X58166713Y-28623222D01*
X58164597Y-28569365D01*
X58164500Y-28564418D01*
X58164500Y-28348000D01*
X58184502Y-28279879D01*
X58238158Y-28233386D01*
X58290500Y-28222000D01*
X58592816Y-28222000D01*
X58595603Y-28221751D01*
X58595609Y-28221751D01*
X58681455Y-28214089D01*
X58713087Y-28211266D01*
X58908470Y-28155241D01*
X59088596Y-28061073D01*
X59093598Y-28056994D01*
X59241169Y-27936638D01*
X59246109Y-27932609D01*
X59318752Y-27843540D01*
X59370541Y-27780040D01*
X59370542Y-27780039D01*
X59374573Y-27775096D01*
X59377531Y-27769438D01*
X59436788Y-27656092D01*
X59486074Y-27604990D01*
X59555164Y-27588647D01*
X59622122Y-27612251D01*
X59663013Y-27662017D01*
X59745510Y-27842205D01*
X59751046Y-27851912D01*
X59872803Y-28027097D01*
X59879976Y-28035676D01*
X60030824Y-28186524D01*
X60039403Y-28193697D01*
X60214588Y-28315454D01*
X60224295Y-28320990D01*
X60418269Y-28409799D01*
X60428815Y-28413533D01*
X60635679Y-28466647D01*
X60646234Y-28468418D01*
X60779930Y-28479293D01*
X60785036Y-28479500D01*
X61322885Y-28479500D01*
X61338124Y-28475025D01*
X61339329Y-28473635D01*
X61341000Y-28465952D01*
X61341000Y-25843500D01*
X61361002Y-25775379D01*
X61414658Y-25728886D01*
X61467000Y-25717500D01*
X63584885Y-25717500D01*
X63587930Y-25716606D01*
X63650210Y-25714381D01*
X63664548Y-25717500D01*
X65787000Y-25717500D01*
X65855121Y-25737502D01*
X65901614Y-25791158D01*
X65913000Y-25843500D01*
X65913000Y-26099500D01*
X65892998Y-26167621D01*
X65839342Y-26214114D01*
X65787000Y-26225500D01*
X63669115Y-26225500D01*
X63666070Y-26226394D01*
X63603790Y-26228619D01*
X63589452Y-26225500D01*
X61867115Y-26225500D01*
X61851876Y-26229975D01*
X61850671Y-26231365D01*
X61849000Y-26239048D01*
X61849000Y-28461384D01*
X61853475Y-28476623D01*
X61854865Y-28477828D01*
X61862548Y-28479499D01*
X62404961Y-28479499D01*
X62410071Y-28479291D01*
X62543767Y-28468418D01*
X62554320Y-28466648D01*
X62761185Y-28413533D01*
X62771731Y-28409799D01*
X62791749Y-28400634D01*
X62862014Y-28390464D01*
X62926622Y-28419896D01*
X62965063Y-28479585D01*
X62965130Y-28550582D01*
X62933295Y-28604293D01*
X60203993Y-31333595D01*
X60141681Y-31367621D01*
X60114898Y-31370500D01*
X57203920Y-31370500D01*
X57179973Y-31367951D01*
X57178307Y-31367872D01*
X57168124Y-31365680D01*
X57157782Y-31366904D01*
X57157779Y-31366904D01*
X57134787Y-31369626D01*
X57128846Y-31369977D01*
X57128854Y-31370072D01*
X57123674Y-31370500D01*
X57118476Y-31370500D01*
X57113354Y-31371353D01*
X57113349Y-31371353D01*
X57099427Y-31373671D01*
X57093550Y-31374508D01*
X57087049Y-31375277D01*
X57052997Y-31379307D01*
X57052995Y-31379308D01*
X57042659Y-31380531D01*
X57034410Y-31384492D01*
X57025374Y-31385996D01*
X57016205Y-31390943D01*
X57016203Y-31390944D01*
X56980240Y-31410348D01*
X56974951Y-31413043D01*
X56935915Y-31431788D01*
X56928768Y-31435220D01*
X56924492Y-31438814D01*
X56922552Y-31440754D01*
X56920641Y-31442507D01*
X56920551Y-31442556D01*
X56920439Y-31442433D01*
X56919904Y-31442905D01*
X56914186Y-31445990D01*
X56907119Y-31453635D01*
X56877584Y-31485586D01*
X56874154Y-31489152D01*
X55788169Y-32575137D01*
X55725857Y-32609163D01*
X55710511Y-32611521D01*
X55681450Y-32614166D01*
X55675536Y-32615907D01*
X55675534Y-32615907D01*
X55622826Y-32631420D01*
X55483066Y-32672554D01*
X55477601Y-32675411D01*
X55305261Y-32765508D01*
X55305257Y-32765511D01*
X55299801Y-32768363D01*
X55138635Y-32897943D01*
X55005708Y-33056360D01*
X54906082Y-33237578D01*
X54843553Y-33434696D01*
X54820501Y-33640206D01*
X54821743Y-33655000D01*
X54834717Y-33809489D01*
X54837806Y-33846278D01*
X54894807Y-34045066D01*
X54897625Y-34050548D01*
X54897626Y-34050552D01*
X54986514Y-34223509D01*
X54986517Y-34223513D01*
X54989334Y-34228995D01*
X55117786Y-34391061D01*
X55122479Y-34395055D01*
X55122480Y-34395056D01*
X55211221Y-34470580D01*
X55275271Y-34525091D01*
X55455789Y-34625980D01*
X55652466Y-34689884D01*
X55857809Y-34714370D01*
X55863944Y-34713898D01*
X55863946Y-34713898D01*
X56057856Y-34698977D01*
X56057860Y-34698976D01*
X56063998Y-34698504D01*
X56263178Y-34642892D01*
X56268682Y-34640112D01*
X56268684Y-34640111D01*
X56442262Y-34552431D01*
X56442264Y-34552430D01*
X56447763Y-34549652D01*
X56610722Y-34422334D01*
X56614748Y-34417670D01*
X56614751Y-34417667D01*
X56741819Y-34270457D01*
X56741820Y-34270455D01*
X56745848Y-34265789D01*
X56805661Y-34160500D01*
X56844950Y-34091340D01*
X56844952Y-34091336D01*
X56847995Y-34085979D01*
X56881351Y-33985707D01*
X56911325Y-33895601D01*
X56911326Y-33895598D01*
X56913270Y-33889753D01*
X56939189Y-33684586D01*
X56939602Y-33655000D01*
X56919422Y-33449189D01*
X56859651Y-33251217D01*
X56762565Y-33068625D01*
X56758674Y-33063855D01*
X56758672Y-33063851D01*
X56657309Y-32939568D01*
X56629755Y-32874136D01*
X56641951Y-32804194D01*
X56665857Y-32770837D01*
X57270289Y-32166405D01*
X57332601Y-32132379D01*
X57359384Y-32129500D01*
X59739616Y-32129500D01*
X59807737Y-32149502D01*
X59854230Y-32203158D01*
X59864334Y-32273432D01*
X59834840Y-32338012D01*
X59828711Y-32344595D01*
X59541886Y-32631420D01*
X59479574Y-32665446D01*
X59415534Y-32662690D01*
X59268063Y-32617040D01*
X59261938Y-32616396D01*
X59261937Y-32616396D01*
X59068526Y-32596068D01*
X59068524Y-32596068D01*
X59062397Y-32595424D01*
X58936229Y-32606906D01*
X58862591Y-32613607D01*
X58862590Y-32613607D01*
X58856450Y-32614166D01*
X58658066Y-32672554D01*
X58652601Y-32675411D01*
X58480261Y-32765508D01*
X58480257Y-32765511D01*
X58474801Y-32768363D01*
X58313635Y-32897943D01*
X58180708Y-33056360D01*
X58081082Y-33237578D01*
X58018553Y-33434696D01*
X57995501Y-33640206D01*
X57996743Y-33655000D01*
X58009717Y-33809489D01*
X58012806Y-33846278D01*
X58069807Y-34045066D01*
X58072625Y-34050548D01*
X58072626Y-34050552D01*
X58161514Y-34223509D01*
X58161517Y-34223513D01*
X58164334Y-34228995D01*
X58292786Y-34391061D01*
X58297479Y-34395055D01*
X58297480Y-34395056D01*
X58386221Y-34470580D01*
X58450271Y-34525091D01*
X58630789Y-34625980D01*
X58827466Y-34689884D01*
X59032809Y-34714370D01*
X59038944Y-34713898D01*
X59038946Y-34713898D01*
X59232856Y-34698977D01*
X59232860Y-34698976D01*
X59238998Y-34698504D01*
X59438178Y-34642892D01*
X59443682Y-34640112D01*
X59443684Y-34640111D01*
X59617262Y-34552431D01*
X59617264Y-34552430D01*
X59622763Y-34549652D01*
X59785722Y-34422334D01*
X59789748Y-34417670D01*
X59789751Y-34417667D01*
X59916819Y-34270457D01*
X59916820Y-34270455D01*
X59920848Y-34265789D01*
X59980661Y-34160500D01*
X60019950Y-34091340D01*
X60019952Y-34091336D01*
X60022995Y-34085979D01*
X60056351Y-33985707D01*
X60086325Y-33895601D01*
X60086326Y-33895598D01*
X60088270Y-33889753D01*
X60114189Y-33684586D01*
X60114602Y-33655000D01*
X60094422Y-33449189D01*
X60047362Y-33293318D01*
X60046821Y-33222323D01*
X60078889Y-33167805D01*
X61542045Y-31704649D01*
X61604357Y-31670623D01*
X61675172Y-31675688D01*
X61732008Y-31718235D01*
X61756870Y-31785503D01*
X61765575Y-31918304D01*
X61767376Y-31929674D01*
X61814657Y-32115843D01*
X61818498Y-32126690D01*
X61898916Y-32301130D01*
X61904664Y-32311086D01*
X61910788Y-32319751D01*
X61921377Y-32328140D01*
X61934678Y-32321112D01*
X62775905Y-31479885D01*
X62838217Y-31445859D01*
X62909032Y-31450924D01*
X62954095Y-31479885D01*
X63135115Y-31660905D01*
X63169141Y-31723217D01*
X63164076Y-31794032D01*
X63135115Y-31839095D01*
X62294260Y-32679950D01*
X62288066Y-32691294D01*
X62297948Y-32703783D01*
X62329239Y-32724691D01*
X62339349Y-32730181D01*
X62515835Y-32806005D01*
X62526778Y-32809560D01*
X62714120Y-32851952D01*
X62725530Y-32853454D01*
X62917469Y-32860995D01*
X62928951Y-32860393D01*
X63119045Y-32832832D01*
X63130240Y-32830144D01*
X63312131Y-32768400D01*
X63322628Y-32763726D01*
X63490233Y-32669863D01*
X63499705Y-32663353D01*
X63557588Y-32615212D01*
X63622752Y-32587031D01*
X63665092Y-32592788D01*
X63665699Y-32589734D01*
X63739933Y-32604500D01*
X64364898Y-32604500D01*
X64990066Y-32604499D01*
X65025818Y-32597388D01*
X65052126Y-32592156D01*
X65052128Y-32592155D01*
X65064301Y-32589734D01*
X65074621Y-32582839D01*
X65074622Y-32582838D01*
X65138168Y-32540377D01*
X65148484Y-32533484D01*
X65204734Y-32449301D01*
X65219500Y-32375067D01*
X65219500Y-32255500D01*
X65239502Y-32187379D01*
X65293158Y-32140886D01*
X65345500Y-32129500D01*
X65986080Y-32129500D01*
X66010028Y-32132049D01*
X66011693Y-32132128D01*
X66021876Y-32134320D01*
X66032217Y-32133096D01*
X66055223Y-32130373D01*
X66061154Y-32130023D01*
X66061146Y-32129928D01*
X66066324Y-32129500D01*
X66071524Y-32129500D01*
X66076653Y-32128646D01*
X66076656Y-32128646D01*
X66090565Y-32126331D01*
X66096443Y-32125494D01*
X66137001Y-32120694D01*
X66137002Y-32120694D01*
X66147341Y-32119470D01*
X66155593Y-32115507D01*
X66164626Y-32114004D01*
X66173795Y-32109057D01*
X66173797Y-32109056D01*
X66209732Y-32089666D01*
X66215025Y-32086969D01*
X66254082Y-32068215D01*
X66254086Y-32068212D01*
X66261232Y-32064781D01*
X66265508Y-32061186D01*
X66267431Y-32059263D01*
X66269363Y-32057491D01*
X66269442Y-32057448D01*
X66269555Y-32057572D01*
X66270095Y-32057096D01*
X66275814Y-32054010D01*
X66312417Y-32014413D01*
X66315846Y-32010848D01*
X66823587Y-31503107D01*
X66885899Y-31469081D01*
X66951618Y-31472369D01*
X67082466Y-31514884D01*
X67287809Y-31539370D01*
X67293944Y-31538898D01*
X67293946Y-31538898D01*
X67487856Y-31523977D01*
X67487860Y-31523976D01*
X67493998Y-31523504D01*
X67693178Y-31467892D01*
X67698682Y-31465112D01*
X67698684Y-31465111D01*
X67872262Y-31377431D01*
X67872264Y-31377430D01*
X67877763Y-31374652D01*
X68040722Y-31247334D01*
X68044748Y-31242670D01*
X68044751Y-31242667D01*
X68171819Y-31095457D01*
X68171820Y-31095455D01*
X68175848Y-31090789D01*
X68262902Y-30937548D01*
X68271017Y-30923263D01*
X68322057Y-30873912D01*
X68380573Y-30859500D01*
X70052467Y-30859500D01*
X70120588Y-30879502D01*
X70164533Y-30927906D01*
X70226514Y-31048509D01*
X70226517Y-31048513D01*
X70229334Y-31053995D01*
X70357786Y-31216061D01*
X70362479Y-31220055D01*
X70362480Y-31220056D01*
X70494635Y-31332528D01*
X70515271Y-31350091D01*
X70695789Y-31450980D01*
X70892466Y-31514884D01*
X71097809Y-31539370D01*
X71103944Y-31538898D01*
X71103946Y-31538898D01*
X71297856Y-31523977D01*
X71297860Y-31523976D01*
X71303998Y-31523504D01*
X71485438Y-31472845D01*
X71556427Y-31473792D01*
X71608415Y-31505109D01*
X73988522Y-33885216D01*
X74003664Y-33903964D01*
X74004779Y-33905189D01*
X74010429Y-33913940D01*
X74018607Y-33920387D01*
X74018609Y-33920389D01*
X74036800Y-33934729D01*
X74041241Y-33938675D01*
X74041303Y-33938602D01*
X74045267Y-33941961D01*
X74048944Y-33945638D01*
X74064692Y-33956892D01*
X74069362Y-33960398D01*
X74109647Y-33992156D01*
X74118281Y-33995188D01*
X74125734Y-34000514D01*
X74174850Y-34015203D01*
X74180492Y-34017036D01*
X74221367Y-34031390D01*
X74228851Y-34034018D01*
X74234416Y-34034500D01*
X74237124Y-34034500D01*
X74239758Y-34034614D01*
X74239856Y-34034643D01*
X74239849Y-34034807D01*
X74240553Y-34034851D01*
X74246778Y-34036713D01*
X74300635Y-34034597D01*
X74305582Y-34034500D01*
X76329500Y-34034500D01*
X76397621Y-34054502D01*
X76444114Y-34108158D01*
X76455500Y-34160500D01*
X76455500Y-36007617D01*
X76435498Y-36075738D01*
X76418595Y-36096712D01*
X74781886Y-37733421D01*
X74719574Y-37767447D01*
X74655534Y-37764691D01*
X74508063Y-37719041D01*
X74501938Y-37718397D01*
X74501937Y-37718397D01*
X74308526Y-37698069D01*
X74308524Y-37698069D01*
X74302397Y-37697425D01*
X74176229Y-37708907D01*
X74102591Y-37715608D01*
X74102590Y-37715608D01*
X74096450Y-37716167D01*
X73898066Y-37774555D01*
X73892601Y-37777412D01*
X73720261Y-37867509D01*
X73720257Y-37867512D01*
X73714801Y-37870364D01*
X73553635Y-37999944D01*
X73420708Y-38158361D01*
X73321082Y-38339579D01*
X73258553Y-38536697D01*
X73235501Y-38742207D01*
X73252806Y-38948279D01*
X73309807Y-39147067D01*
X73312625Y-39152549D01*
X73312626Y-39152553D01*
X73401514Y-39325510D01*
X73401517Y-39325514D01*
X73404334Y-39330996D01*
X73532786Y-39493062D01*
X73537479Y-39497056D01*
X73537480Y-39497057D01*
X73659504Y-39600907D01*
X73690271Y-39627092D01*
X73870789Y-39727981D01*
X74067466Y-39791885D01*
X74272809Y-39816371D01*
X74278944Y-39815899D01*
X74278946Y-39815899D01*
X74472856Y-39800978D01*
X74472860Y-39800977D01*
X74478998Y-39800505D01*
X74678178Y-39744893D01*
X74683682Y-39742113D01*
X74683684Y-39742112D01*
X74857262Y-39654432D01*
X74857264Y-39654431D01*
X74862763Y-39651653D01*
X75025722Y-39524335D01*
X75029748Y-39519671D01*
X75029751Y-39519668D01*
X75156819Y-39372458D01*
X75156820Y-39372456D01*
X75160848Y-39367790D01*
X75262995Y-39187980D01*
X75328270Y-38991754D01*
X75354189Y-38786587D01*
X75354602Y-38757001D01*
X75353151Y-38742207D01*
X75775501Y-38742207D01*
X75792806Y-38948279D01*
X75849807Y-39147067D01*
X75852625Y-39152549D01*
X75852626Y-39152553D01*
X75941514Y-39325510D01*
X75941517Y-39325514D01*
X75944334Y-39330996D01*
X76072786Y-39493062D01*
X76077479Y-39497056D01*
X76077480Y-39497057D01*
X76199504Y-39600907D01*
X76230271Y-39627092D01*
X76410789Y-39727981D01*
X76607466Y-39791885D01*
X76812809Y-39816371D01*
X76818944Y-39815899D01*
X76818946Y-39815899D01*
X77012856Y-39800978D01*
X77012860Y-39800977D01*
X77018998Y-39800505D01*
X77218178Y-39744893D01*
X77223682Y-39742113D01*
X77223684Y-39742112D01*
X77397262Y-39654432D01*
X77397264Y-39654431D01*
X77402763Y-39651653D01*
X77565722Y-39524335D01*
X77569748Y-39519671D01*
X77569751Y-39519668D01*
X77696819Y-39372458D01*
X77696820Y-39372456D01*
X77700848Y-39367790D01*
X77796017Y-39200264D01*
X77847057Y-39150913D01*
X77905573Y-39136501D01*
X78307467Y-39136501D01*
X78375588Y-39156503D01*
X78419533Y-39204907D01*
X78481514Y-39325510D01*
X78481517Y-39325514D01*
X78484334Y-39330996D01*
X78612786Y-39493062D01*
X78617479Y-39497056D01*
X78617480Y-39497057D01*
X78739504Y-39600907D01*
X78770271Y-39627092D01*
X78950789Y-39727981D01*
X79147466Y-39791885D01*
X79352809Y-39816371D01*
X79358944Y-39815899D01*
X79358946Y-39815899D01*
X79552856Y-39800978D01*
X79552860Y-39800977D01*
X79558998Y-39800505D01*
X79758178Y-39744893D01*
X79763682Y-39742113D01*
X79763684Y-39742112D01*
X79937262Y-39654432D01*
X79937264Y-39654431D01*
X79942763Y-39651653D01*
X80105722Y-39524335D01*
X80109748Y-39519671D01*
X80109751Y-39519668D01*
X80236819Y-39372458D01*
X80236820Y-39372456D01*
X80240848Y-39367790D01*
X80342995Y-39187980D01*
X80408270Y-38991754D01*
X80434189Y-38786587D01*
X80434602Y-38757001D01*
X80414422Y-38551190D01*
X80354651Y-38353218D01*
X80306108Y-38261922D01*
X80260459Y-38176068D01*
X80260457Y-38176065D01*
X80257565Y-38170626D01*
X80253674Y-38165856D01*
X80253672Y-38165852D01*
X80130758Y-38015144D01*
X80130755Y-38015141D01*
X80126863Y-38010369D01*
X80122114Y-38006440D01*
X79972271Y-37882479D01*
X79972266Y-37882476D01*
X79967522Y-37878551D01*
X79962103Y-37875621D01*
X79962100Y-37875619D01*
X79791032Y-37783123D01*
X79791027Y-37783121D01*
X79785612Y-37780193D01*
X79588063Y-37719041D01*
X79581938Y-37718397D01*
X79581937Y-37718397D01*
X79388526Y-37698069D01*
X79388524Y-37698069D01*
X79382397Y-37697425D01*
X79256229Y-37708907D01*
X79182591Y-37715608D01*
X79182590Y-37715608D01*
X79176450Y-37716167D01*
X78978066Y-37774555D01*
X78972601Y-37777412D01*
X78800261Y-37867509D01*
X78800257Y-37867512D01*
X78794801Y-37870364D01*
X78633635Y-37999944D01*
X78500708Y-38158361D01*
X78416131Y-38312205D01*
X78365788Y-38362261D01*
X78305719Y-38377501D01*
X77903270Y-38377501D01*
X77835149Y-38357499D01*
X77792019Y-38310654D01*
X77720459Y-38176068D01*
X77720457Y-38176065D01*
X77717565Y-38170626D01*
X77713674Y-38165856D01*
X77713672Y-38165852D01*
X77590758Y-38015144D01*
X77590755Y-38015141D01*
X77586863Y-38010369D01*
X77582114Y-38006440D01*
X77432271Y-37882479D01*
X77432266Y-37882476D01*
X77427522Y-37878551D01*
X77422103Y-37875621D01*
X77422100Y-37875619D01*
X77251032Y-37783123D01*
X77251027Y-37783121D01*
X77245612Y-37780193D01*
X77048063Y-37719041D01*
X77041938Y-37718397D01*
X77041937Y-37718397D01*
X76848526Y-37698069D01*
X76848524Y-37698069D01*
X76842397Y-37697425D01*
X76716229Y-37708907D01*
X76642591Y-37715608D01*
X76642590Y-37715608D01*
X76636450Y-37716167D01*
X76438066Y-37774555D01*
X76432601Y-37777412D01*
X76260261Y-37867509D01*
X76260257Y-37867512D01*
X76254801Y-37870364D01*
X76093635Y-37999944D01*
X75960708Y-38158361D01*
X75861082Y-38339579D01*
X75798553Y-38536697D01*
X75775501Y-38742207D01*
X75353151Y-38742207D01*
X75334422Y-38551190D01*
X75287362Y-38395319D01*
X75286821Y-38324324D01*
X75318889Y-38269806D01*
X76191356Y-37397340D01*
X77065219Y-36523477D01*
X77083961Y-36508340D01*
X77085190Y-36507222D01*
X77093940Y-36501572D01*
X77114729Y-36475201D01*
X77118676Y-36470760D01*
X77118603Y-36470698D01*
X77121963Y-36466733D01*
X77125638Y-36463058D01*
X77128655Y-36458836D01*
X77128660Y-36458830D01*
X77136862Y-36447351D01*
X77140428Y-36442601D01*
X77165711Y-36410529D01*
X77172156Y-36402354D01*
X77175189Y-36393717D01*
X77180513Y-36386267D01*
X77195202Y-36337152D01*
X77197034Y-36331515D01*
X77211390Y-36290634D01*
X77211390Y-36290633D01*
X77214018Y-36283150D01*
X77214500Y-36277585D01*
X77214500Y-36274877D01*
X77214614Y-36272243D01*
X77214643Y-36272145D01*
X77214807Y-36272152D01*
X77214851Y-36271448D01*
X77216713Y-36265223D01*
X77214597Y-36211366D01*
X77214500Y-36206419D01*
X77214500Y-33677146D01*
X77214970Y-33666274D01*
X77215946Y-33655000D01*
X77218561Y-33624813D01*
X77216050Y-33614705D01*
X77215233Y-33604322D01*
X77215873Y-33604272D01*
X77214500Y-33593048D01*
X77214500Y-32204267D01*
X77234502Y-32136146D01*
X77283690Y-32091801D01*
X77397262Y-32034432D01*
X77397264Y-32034431D01*
X77402763Y-32031653D01*
X77565722Y-31904335D01*
X77569748Y-31899671D01*
X77569751Y-31899668D01*
X77696819Y-31752458D01*
X77696820Y-31752456D01*
X77700848Y-31747790D01*
X77802995Y-31567980D01*
X77844712Y-31442574D01*
X77866325Y-31377602D01*
X77866326Y-31377599D01*
X77868270Y-31371754D01*
X77894189Y-31166587D01*
X77894602Y-31137001D01*
X77874422Y-30931190D01*
X77814651Y-30733218D01*
X77749125Y-30609981D01*
X77720459Y-30556068D01*
X77720457Y-30556065D01*
X77717565Y-30550626D01*
X77713674Y-30545856D01*
X77713672Y-30545852D01*
X77590758Y-30395144D01*
X77590755Y-30395141D01*
X77586863Y-30390369D01*
X77579966Y-30384663D01*
X77432271Y-30262479D01*
X77432266Y-30262476D01*
X77427522Y-30258551D01*
X77422103Y-30255621D01*
X77422100Y-30255619D01*
X77251032Y-30163123D01*
X77251027Y-30163121D01*
X77245612Y-30160193D01*
X77048063Y-30099041D01*
X77041938Y-30098397D01*
X77041937Y-30098397D01*
X76848526Y-30078069D01*
X76848524Y-30078069D01*
X76842397Y-30077425D01*
X76716229Y-30088907D01*
X76642591Y-30095608D01*
X76642590Y-30095608D01*
X76636450Y-30096167D01*
X76438066Y-30154555D01*
X76432601Y-30157412D01*
X76260261Y-30247509D01*
X76260257Y-30247512D01*
X76254801Y-30250364D01*
X76093635Y-30379944D01*
X75960708Y-30538361D01*
X75861082Y-30719579D01*
X75859219Y-30725452D01*
X75815844Y-30862188D01*
X75776181Y-30921073D01*
X75710979Y-30949165D01*
X75640939Y-30937548D01*
X75588299Y-30889908D01*
X75574035Y-30856701D01*
X75530236Y-30693240D01*
X75526490Y-30682948D01*
X75434414Y-30485490D01*
X75428931Y-30475994D01*
X75303972Y-30297534D01*
X75296916Y-30289126D01*
X75142875Y-30135085D01*
X75134467Y-30128029D01*
X74956007Y-30003070D01*
X74946511Y-29997587D01*
X74749053Y-29905511D01*
X74738761Y-29901765D01*
X74566497Y-29855607D01*
X74552401Y-29855943D01*
X74549000Y-29863885D01*
X74549000Y-32404968D01*
X74552973Y-32418499D01*
X74561522Y-32419728D01*
X74738761Y-32372237D01*
X74749053Y-32368491D01*
X74946511Y-32276415D01*
X74956007Y-32270932D01*
X75134467Y-32145973D01*
X75142875Y-32138917D01*
X75296916Y-31984876D01*
X75303972Y-31976468D01*
X75428931Y-31798008D01*
X75434414Y-31788512D01*
X75526490Y-31591054D01*
X75530236Y-31580762D01*
X75574452Y-31415744D01*
X75611404Y-31355121D01*
X75675264Y-31324100D01*
X75745759Y-31332528D01*
X75800506Y-31377731D01*
X75817278Y-31413625D01*
X75828751Y-31453635D01*
X75849807Y-31527067D01*
X75852625Y-31532549D01*
X75852626Y-31532553D01*
X75941514Y-31705510D01*
X75941517Y-31705514D01*
X75944334Y-31710996D01*
X76072786Y-31873062D01*
X76077479Y-31877056D01*
X76077480Y-31877057D01*
X76170095Y-31955878D01*
X76230271Y-32007092D01*
X76314220Y-32054010D01*
X76390971Y-32096905D01*
X76440676Y-32147599D01*
X76455500Y-32206893D01*
X76455500Y-33149500D01*
X76435498Y-33217621D01*
X76381842Y-33264114D01*
X76329500Y-33275500D01*
X74504384Y-33275500D01*
X74436263Y-33255498D01*
X74415289Y-33238595D01*
X73770787Y-32594093D01*
X73736761Y-32531781D01*
X73741826Y-32460966D01*
X73784373Y-32404130D01*
X73850893Y-32379319D01*
X73892493Y-32383291D01*
X74023503Y-32418395D01*
X74037599Y-32418059D01*
X74041000Y-32410117D01*
X74041000Y-31409116D01*
X74036525Y-31393877D01*
X74035135Y-31392672D01*
X74027452Y-31391001D01*
X73027033Y-31391001D01*
X73013502Y-31394974D01*
X73012273Y-31403523D01*
X73048710Y-31539508D01*
X73047020Y-31610485D01*
X73007226Y-31669280D01*
X72941961Y-31697228D01*
X72871948Y-31685454D01*
X72837908Y-31661214D01*
X72142941Y-30966247D01*
X72108915Y-30903935D01*
X72110972Y-30865504D01*
X73013606Y-30865504D01*
X73013942Y-30879600D01*
X73021884Y-30883001D01*
X74022885Y-30883001D01*
X74038124Y-30878526D01*
X74039329Y-30877136D01*
X74041000Y-30869453D01*
X74041000Y-29869034D01*
X74037027Y-29855503D01*
X74028478Y-29854274D01*
X73851239Y-29901765D01*
X73840947Y-29905511D01*
X73643489Y-29997587D01*
X73633993Y-30003070D01*
X73455533Y-30128029D01*
X73447125Y-30135085D01*
X73293084Y-30289126D01*
X73286028Y-30297534D01*
X73161069Y-30475994D01*
X73155586Y-30485490D01*
X73063510Y-30682948D01*
X73059764Y-30693240D01*
X73013606Y-30865504D01*
X72110972Y-30865504D01*
X72112478Y-30837380D01*
X72151323Y-30720607D01*
X72151324Y-30720604D01*
X72153270Y-30714753D01*
X72179189Y-30509586D01*
X72179602Y-30480000D01*
X72159422Y-30274189D01*
X72099651Y-30076217D01*
X72040696Y-29965338D01*
X72005459Y-29899067D01*
X72005457Y-29899064D01*
X72002565Y-29893625D01*
X71998674Y-29888855D01*
X71998672Y-29888851D01*
X71875758Y-29738143D01*
X71875755Y-29738140D01*
X71871863Y-29733368D01*
X71867075Y-29729407D01*
X71717271Y-29605478D01*
X71717266Y-29605475D01*
X71712522Y-29601550D01*
X71707103Y-29598620D01*
X71707100Y-29598618D01*
X71536032Y-29506122D01*
X71536027Y-29506120D01*
X71530612Y-29503192D01*
X71333063Y-29442040D01*
X71326938Y-29441396D01*
X71326937Y-29441396D01*
X71133526Y-29421068D01*
X71133524Y-29421068D01*
X71127397Y-29420424D01*
X71001229Y-29431906D01*
X70927591Y-29438607D01*
X70927590Y-29438607D01*
X70921450Y-29439166D01*
X70763043Y-29485788D01*
X70692048Y-29485834D01*
X70632297Y-29447488D01*
X70602763Y-29382926D01*
X70612822Y-29312646D01*
X70638374Y-29275820D01*
X71821098Y-28093096D01*
X71883410Y-28059070D01*
X71954225Y-28064135D01*
X71989828Y-28084547D01*
X72038904Y-28124573D01*
X72219030Y-28218741D01*
X72414413Y-28274766D01*
X72446045Y-28277589D01*
X72531891Y-28285251D01*
X72531897Y-28285251D01*
X72534684Y-28285500D01*
X74150316Y-28285500D01*
X74153103Y-28285251D01*
X74153109Y-28285251D01*
X74238955Y-28277589D01*
X74270587Y-28274766D01*
X74465970Y-28218741D01*
X74646096Y-28124573D01*
X74695172Y-28084548D01*
X74760602Y-28056994D01*
X74830544Y-28069189D01*
X74863902Y-28093096D01*
X76211022Y-29440216D01*
X76226164Y-29458964D01*
X76227279Y-29460189D01*
X76232929Y-29468940D01*
X76241107Y-29475387D01*
X76241109Y-29475389D01*
X76259300Y-29489729D01*
X76263741Y-29493675D01*
X76263803Y-29493602D01*
X76267767Y-29496961D01*
X76271444Y-29500638D01*
X76287192Y-29511892D01*
X76291862Y-29515398D01*
X76332147Y-29547156D01*
X76340781Y-29550188D01*
X76348234Y-29555514D01*
X76397350Y-29570203D01*
X76402992Y-29572036D01*
X76443867Y-29586390D01*
X76451351Y-29589018D01*
X76456916Y-29589500D01*
X76459624Y-29589500D01*
X76462258Y-29589614D01*
X76462356Y-29589643D01*
X76462349Y-29589807D01*
X76463053Y-29589851D01*
X76469278Y-29591713D01*
X76523135Y-29589597D01*
X76528082Y-29589500D01*
X78530616Y-29589500D01*
X78598737Y-29609502D01*
X78619711Y-29626405D01*
X78958595Y-29965289D01*
X78992621Y-30027601D01*
X78995500Y-30054384D01*
X78995500Y-30069132D01*
X78975498Y-30137253D01*
X78927876Y-30180793D01*
X78800265Y-30247507D01*
X78800261Y-30247509D01*
X78794801Y-30250364D01*
X78633635Y-30379944D01*
X78500708Y-30538361D01*
X78401082Y-30719579D01*
X78338553Y-30916697D01*
X78337867Y-30922814D01*
X78337866Y-30922818D01*
X78316408Y-31114120D01*
X78315501Y-31122207D01*
X78332806Y-31328279D01*
X78389807Y-31527067D01*
X78392625Y-31532549D01*
X78392626Y-31532553D01*
X78481514Y-31705510D01*
X78481517Y-31705514D01*
X78484334Y-31710996D01*
X78612786Y-31873062D01*
X78617479Y-31877056D01*
X78617480Y-31877057D01*
X78710095Y-31955878D01*
X78770271Y-32007092D01*
X78950789Y-32107981D01*
X79147466Y-32171885D01*
X79352809Y-32196371D01*
X79358944Y-32195899D01*
X79358946Y-32195899D01*
X79552856Y-32180978D01*
X79552860Y-32180977D01*
X79558998Y-32180505D01*
X79758178Y-32124893D01*
X79763682Y-32122113D01*
X79763684Y-32122112D01*
X79937262Y-32034432D01*
X79937264Y-32034431D01*
X79942763Y-32031653D01*
X80105722Y-31904335D01*
X80109748Y-31899671D01*
X80109751Y-31899668D01*
X80236819Y-31752458D01*
X80236820Y-31752456D01*
X80240848Y-31747790D01*
X80342995Y-31567980D01*
X80384712Y-31442574D01*
X80406325Y-31377602D01*
X80406326Y-31377599D01*
X80408270Y-31371754D01*
X80434189Y-31166587D01*
X80434602Y-31137001D01*
X80414422Y-30931190D01*
X80354651Y-30733218D01*
X80289125Y-30609981D01*
X80260459Y-30556068D01*
X80260457Y-30556065D01*
X80257565Y-30550626D01*
X80253674Y-30545856D01*
X80253672Y-30545852D01*
X80130758Y-30395144D01*
X80130755Y-30395141D01*
X80126863Y-30390369D01*
X80119966Y-30384663D01*
X79972271Y-30262479D01*
X79972266Y-30262476D01*
X79967522Y-30258551D01*
X79962103Y-30255621D01*
X79962100Y-30255619D01*
X79860327Y-30200591D01*
X79820571Y-30179095D01*
X79770163Y-30129101D01*
X79754500Y-30068260D01*
X79754500Y-29898925D01*
X79757050Y-29874967D01*
X79757128Y-29873308D01*
X79759321Y-29863124D01*
X79758097Y-29852782D01*
X79758097Y-29852779D01*
X79755374Y-29829779D01*
X79755024Y-29823848D01*
X79754928Y-29823856D01*
X79754500Y-29818680D01*
X79754500Y-29813476D01*
X79751327Y-29794412D01*
X79750496Y-29788566D01*
X79745694Y-29748001D01*
X79744470Y-29737659D01*
X79740507Y-29729407D01*
X79739004Y-29720374D01*
X79714665Y-29675266D01*
X79711969Y-29669975D01*
X79693215Y-29630919D01*
X79693214Y-29630918D01*
X79689781Y-29623768D01*
X79686187Y-29619493D01*
X79684262Y-29617568D01*
X79682491Y-29615638D01*
X79682445Y-29615553D01*
X79682568Y-29615441D01*
X79682096Y-29614906D01*
X79679010Y-29609186D01*
X79639413Y-29572583D01*
X79635848Y-29569154D01*
X79046478Y-28979784D01*
X79031336Y-28961036D01*
X79030221Y-28959811D01*
X79024571Y-28951060D01*
X79016393Y-28944613D01*
X79016391Y-28944611D01*
X78998200Y-28930271D01*
X78993759Y-28926325D01*
X78993697Y-28926398D01*
X78989733Y-28923039D01*
X78986056Y-28919362D01*
X78970308Y-28908108D01*
X78965638Y-28904602D01*
X78925353Y-28872844D01*
X78916719Y-28869812D01*
X78909266Y-28864486D01*
X78860150Y-28849797D01*
X78854508Y-28847964D01*
X78813633Y-28833610D01*
X78813632Y-28833610D01*
X78806149Y-28830982D01*
X78800584Y-28830500D01*
X78797876Y-28830500D01*
X78795242Y-28830386D01*
X78795144Y-28830357D01*
X78795151Y-28830193D01*
X78794447Y-28830149D01*
X78788222Y-28828287D01*
X78734365Y-28830403D01*
X78729418Y-28830500D01*
X76726884Y-28830500D01*
X76658763Y-28810498D01*
X76637789Y-28793595D01*
X76344789Y-28500595D01*
X76310763Y-28438283D01*
X76315828Y-28367468D01*
X76358375Y-28310632D01*
X76424895Y-28285821D01*
X76433884Y-28285500D01*
X77960316Y-28285500D01*
X77963103Y-28285251D01*
X77963109Y-28285251D01*
X78048955Y-28277589D01*
X78080587Y-28274766D01*
X78275970Y-28218741D01*
X78456096Y-28124573D01*
X78484501Y-28101407D01*
X78608669Y-28000138D01*
X78613609Y-27996109D01*
X78742073Y-27838596D01*
X78836241Y-27658470D01*
X78892266Y-27463087D01*
X78900732Y-27368230D01*
X78902751Y-27345609D01*
X78902751Y-27345603D01*
X78903000Y-27342816D01*
X78903000Y-26540500D01*
X78923002Y-26472379D01*
X78976658Y-26425886D01*
X79029000Y-26414500D01*
X79086000Y-26414500D01*
X79154121Y-26434502D01*
X79200614Y-26488158D01*
X79212000Y-26540500D01*
X79212000Y-27342816D01*
X79212249Y-27345603D01*
X79212249Y-27345609D01*
X79214268Y-27368230D01*
X79222734Y-27463087D01*
X79278759Y-27658470D01*
X79372927Y-27838596D01*
X79501391Y-27996109D01*
X79506331Y-28000138D01*
X79630500Y-28101407D01*
X79658904Y-28124573D01*
X79839030Y-28218741D01*
X80034413Y-28274766D01*
X80066045Y-28277589D01*
X80151891Y-28285251D01*
X80151897Y-28285251D01*
X80154684Y-28285500D01*
X81409500Y-28285500D01*
X81477621Y-28305502D01*
X81524114Y-28359158D01*
X81535500Y-28411500D01*
X81535500Y-29956502D01*
X81515498Y-30024623D01*
X81461842Y-30071116D01*
X81409500Y-30082502D01*
X81089934Y-30082502D01*
X81054182Y-30089613D01*
X81027874Y-30094845D01*
X81027872Y-30094846D01*
X81015699Y-30097267D01*
X81005379Y-30104162D01*
X81005378Y-30104163D01*
X80959101Y-30135085D01*
X80931516Y-30153517D01*
X80875266Y-30237700D01*
X80860500Y-30311934D01*
X80860501Y-31962067D01*
X80865038Y-31984876D01*
X80870913Y-32014414D01*
X80875266Y-32036302D01*
X80882161Y-32046622D01*
X80882162Y-32046623D01*
X80891893Y-32061186D01*
X80931516Y-32120485D01*
X81015699Y-32176735D01*
X81089933Y-32191501D01*
X81242876Y-32191501D01*
X82679500Y-32191500D01*
X82747621Y-32211502D01*
X82794114Y-32265158D01*
X82805500Y-32317500D01*
X82805500Y-37857296D01*
X82785498Y-37925417D01*
X82731842Y-37971910D01*
X82661568Y-37982014D01*
X82599185Y-37954381D01*
X82512271Y-37882479D01*
X82512266Y-37882476D01*
X82507522Y-37878551D01*
X82502103Y-37875621D01*
X82502100Y-37875619D01*
X82331032Y-37783123D01*
X82331027Y-37783121D01*
X82325612Y-37780193D01*
X82128063Y-37719041D01*
X82121938Y-37718397D01*
X82121937Y-37718397D01*
X81928526Y-37698069D01*
X81928524Y-37698069D01*
X81922397Y-37697425D01*
X81796229Y-37708907D01*
X81722591Y-37715608D01*
X81722590Y-37715608D01*
X81716450Y-37716167D01*
X81518066Y-37774555D01*
X81512601Y-37777412D01*
X81340261Y-37867509D01*
X81340257Y-37867512D01*
X81334801Y-37870364D01*
X81173635Y-37999944D01*
X81040708Y-38158361D01*
X80941082Y-38339579D01*
X80878553Y-38536697D01*
X80855501Y-38742207D01*
X80872806Y-38948279D01*
X80874505Y-38954204D01*
X80922371Y-39121135D01*
X80921920Y-39192130D01*
X80890347Y-39244960D01*
X79911712Y-40223595D01*
X79849400Y-40257621D01*
X79822617Y-40260500D01*
X72188270Y-40260500D01*
X72120149Y-40240498D01*
X72077019Y-40193653D01*
X72005459Y-40059067D01*
X72005457Y-40059064D01*
X72002565Y-40053625D01*
X71998674Y-40048855D01*
X71998672Y-40048851D01*
X71875758Y-39898143D01*
X71875755Y-39898140D01*
X71871863Y-39893368D01*
X71864966Y-39887662D01*
X71717271Y-39765478D01*
X71717266Y-39765475D01*
X71712522Y-39761550D01*
X71707103Y-39758620D01*
X71707100Y-39758618D01*
X71536032Y-39666122D01*
X71536027Y-39666120D01*
X71530612Y-39663192D01*
X71333063Y-39602040D01*
X71326938Y-39601396D01*
X71326937Y-39601396D01*
X71133526Y-39581068D01*
X71133524Y-39581068D01*
X71127397Y-39580424D01*
X71001229Y-39591906D01*
X70927591Y-39598607D01*
X70927590Y-39598607D01*
X70921450Y-39599166D01*
X70723066Y-39657554D01*
X70717601Y-39660411D01*
X70545261Y-39750508D01*
X70545257Y-39750511D01*
X70539801Y-39753363D01*
X70378635Y-39882943D01*
X70245708Y-40041360D01*
X70146082Y-40222578D01*
X70083553Y-40419696D01*
X70060501Y-40625206D01*
X70077806Y-40831278D01*
X70079505Y-40837203D01*
X70127371Y-41004134D01*
X70126920Y-41075129D01*
X70095347Y-41127959D01*
X69090273Y-42133033D01*
X69071525Y-42148175D01*
X69070300Y-42149290D01*
X69061549Y-42154940D01*
X69055102Y-42163118D01*
X69055100Y-42163120D01*
X69040760Y-42181311D01*
X69036814Y-42185752D01*
X69036887Y-42185814D01*
X69033528Y-42189778D01*
X69029851Y-42193455D01*
X69018597Y-42209203D01*
X69015091Y-42213873D01*
X68983333Y-42254158D01*
X68980301Y-42262792D01*
X68974975Y-42270245D01*
X68971990Y-42280226D01*
X68960288Y-42319355D01*
X68958453Y-42325003D01*
X68952843Y-42340979D01*
X68941471Y-42373362D01*
X68940989Y-42378927D01*
X68940989Y-42381635D01*
X68940875Y-42384269D01*
X68940846Y-42384367D01*
X68940682Y-42384360D01*
X68940638Y-42385064D01*
X68938776Y-42391289D01*
X68939185Y-42401694D01*
X68940892Y-42445146D01*
X68940989Y-42450093D01*
X68940989Y-42491031D01*
X68920987Y-42559152D01*
X68904084Y-42580126D01*
X67229923Y-44254287D01*
X67223493Y-44266062D01*
X67232789Y-44278077D01*
X67283994Y-44313931D01*
X67293489Y-44319414D01*
X67490947Y-44411490D01*
X67501239Y-44415236D01*
X67711688Y-44471625D01*
X67722481Y-44473528D01*
X67939525Y-44492517D01*
X67950475Y-44492517D01*
X68167519Y-44473528D01*
X68178312Y-44471625D01*
X68388761Y-44415236D01*
X68399053Y-44411490D01*
X68596511Y-44319414D01*
X68606012Y-44313928D01*
X68742719Y-44218205D01*
X68809993Y-44195517D01*
X68878853Y-44212802D01*
X68927437Y-44264572D01*
X68940989Y-44321418D01*
X68940989Y-44689970D01*
X68920987Y-44758091D01*
X68867331Y-44804584D01*
X68814989Y-44815970D01*
X65943042Y-44815970D01*
X65874921Y-44795968D01*
X65828428Y-44742312D01*
X65819463Y-44665388D01*
X65823293Y-44646133D01*
X65824500Y-44640067D01*
X65824499Y-43185475D01*
X66632483Y-43185475D01*
X66651472Y-43402519D01*
X66653375Y-43413312D01*
X66709764Y-43623761D01*
X66713510Y-43634053D01*
X66805586Y-43831511D01*
X66811069Y-43841006D01*
X66847509Y-43893048D01*
X66857988Y-43901424D01*
X66871434Y-43894356D01*
X67572978Y-43192812D01*
X67580592Y-43178868D01*
X67580461Y-43177035D01*
X67576210Y-43170420D01*
X66870713Y-42464923D01*
X66858938Y-42458493D01*
X66846923Y-42467789D01*
X66811069Y-42518994D01*
X66805586Y-42528489D01*
X66713510Y-42725947D01*
X66709764Y-42736239D01*
X66653375Y-42946688D01*
X66651472Y-42957481D01*
X66632483Y-43174525D01*
X66632483Y-43185475D01*
X65824499Y-43185475D01*
X65824499Y-42989934D01*
X65816924Y-42951847D01*
X65812156Y-42927874D01*
X65812155Y-42927872D01*
X65809734Y-42915699D01*
X65795978Y-42895111D01*
X65760377Y-42841832D01*
X65753484Y-42831516D01*
X65669301Y-42775266D01*
X65595067Y-42760500D01*
X64770134Y-42760500D01*
X63944934Y-42760501D01*
X63909182Y-42767612D01*
X63882874Y-42772844D01*
X63882872Y-42772845D01*
X63870699Y-42775266D01*
X63860379Y-42782161D01*
X63860378Y-42782162D01*
X63816906Y-42811210D01*
X63786516Y-42831516D01*
X63730266Y-42915699D01*
X63715500Y-42989933D01*
X63715501Y-44640066D01*
X63716709Y-44646138D01*
X63720538Y-44665391D01*
X63714209Y-44736105D01*
X63670654Y-44792171D01*
X63596959Y-44815970D01*
X63067612Y-44815970D01*
X62999491Y-44795968D01*
X62952998Y-44742312D01*
X62942894Y-44672038D01*
X62972388Y-44607458D01*
X62990036Y-44590683D01*
X63000722Y-44582334D01*
X63004748Y-44577670D01*
X63004751Y-44577667D01*
X63131819Y-44430457D01*
X63131820Y-44430455D01*
X63135848Y-44425789D01*
X63219761Y-44278077D01*
X63234950Y-44251340D01*
X63234952Y-44251336D01*
X63237995Y-44245979D01*
X63294385Y-44076464D01*
X63301325Y-44055601D01*
X63301326Y-44055598D01*
X63303270Y-44049753D01*
X63329189Y-43844586D01*
X63329602Y-43815000D01*
X63309422Y-43609189D01*
X63249651Y-43411217D01*
X63152565Y-43228625D01*
X63148674Y-43223855D01*
X63148672Y-43223851D01*
X63025758Y-43073143D01*
X63025755Y-43073140D01*
X63021863Y-43068368D01*
X63014966Y-43062662D01*
X62867271Y-42940478D01*
X62867266Y-42940475D01*
X62862522Y-42936550D01*
X62857103Y-42933620D01*
X62857100Y-42933618D01*
X62686032Y-42841122D01*
X62686027Y-42841120D01*
X62680612Y-42838192D01*
X62483063Y-42777040D01*
X62476938Y-42776396D01*
X62476937Y-42776396D01*
X62283526Y-42756068D01*
X62283524Y-42756068D01*
X62277397Y-42755424D01*
X62151229Y-42766906D01*
X62077591Y-42773607D01*
X62077590Y-42773607D01*
X62071450Y-42774166D01*
X61873066Y-42832554D01*
X61867601Y-42835411D01*
X61695261Y-42925508D01*
X61695257Y-42925511D01*
X61689801Y-42928363D01*
X61528635Y-43057943D01*
X61395708Y-43216360D01*
X61311131Y-43370204D01*
X61260788Y-43420260D01*
X61200719Y-43435500D01*
X60123270Y-43435500D01*
X60055149Y-43415498D01*
X60012019Y-43368653D01*
X59940459Y-43234067D01*
X59940457Y-43234064D01*
X59937565Y-43228625D01*
X59933674Y-43223855D01*
X59933672Y-43223851D01*
X59810758Y-43073143D01*
X59810755Y-43073140D01*
X59806863Y-43068368D01*
X59799966Y-43062662D01*
X59652271Y-42940478D01*
X59652266Y-42940475D01*
X59647522Y-42936550D01*
X59642103Y-42933620D01*
X59642100Y-42933618D01*
X59471032Y-42841122D01*
X59471027Y-42841120D01*
X59465612Y-42838192D01*
X59268063Y-42777040D01*
X59261938Y-42776396D01*
X59261937Y-42776396D01*
X59068526Y-42756068D01*
X59068524Y-42756068D01*
X59062397Y-42755424D01*
X58936229Y-42766906D01*
X58862591Y-42773607D01*
X58862590Y-42773607D01*
X58856450Y-42774166D01*
X58658066Y-42832554D01*
X58652601Y-42835411D01*
X58480261Y-42925508D01*
X58480257Y-42925511D01*
X58474801Y-42928363D01*
X58313635Y-43057943D01*
X58180708Y-43216360D01*
X58081082Y-43397578D01*
X58079219Y-43403451D01*
X58030989Y-43555494D01*
X58018553Y-43594696D01*
X58017867Y-43600813D01*
X58017866Y-43600817D01*
X58014138Y-43634053D01*
X57995501Y-43800206D01*
X58012806Y-44006278D01*
X58069807Y-44205066D01*
X58072625Y-44210548D01*
X58072626Y-44210552D01*
X58161514Y-44383509D01*
X58161517Y-44383513D01*
X58164334Y-44388995D01*
X58292786Y-44551061D01*
X58297479Y-44555055D01*
X58297480Y-44555056D01*
X58343258Y-44594016D01*
X58382171Y-44653399D01*
X58382802Y-44724393D01*
X58344950Y-44784458D01*
X58280634Y-44814523D01*
X58261595Y-44815970D01*
X56677612Y-44815970D01*
X56609491Y-44795968D01*
X56562998Y-44742312D01*
X56552894Y-44672038D01*
X56582388Y-44607458D01*
X56600036Y-44590683D01*
X56610722Y-44582334D01*
X56614748Y-44577670D01*
X56614751Y-44577667D01*
X56741819Y-44430457D01*
X56741820Y-44430455D01*
X56745848Y-44425789D01*
X56829761Y-44278077D01*
X56844950Y-44251340D01*
X56844952Y-44251336D01*
X56847995Y-44245979D01*
X56904385Y-44076464D01*
X56911325Y-44055601D01*
X56911326Y-44055598D01*
X56913270Y-44049753D01*
X56939189Y-43844586D01*
X56939602Y-43815000D01*
X56919422Y-43609189D01*
X56859651Y-43411217D01*
X56762565Y-43228625D01*
X56758674Y-43223855D01*
X56758672Y-43223851D01*
X56635758Y-43073143D01*
X56635755Y-43073140D01*
X56631863Y-43068368D01*
X56624966Y-43062662D01*
X56477271Y-42940478D01*
X56477266Y-42940475D01*
X56472522Y-42936550D01*
X56467103Y-42933620D01*
X56467100Y-42933618D01*
X56296032Y-42841122D01*
X56296027Y-42841120D01*
X56290612Y-42838192D01*
X56093063Y-42777040D01*
X56086938Y-42776396D01*
X56086937Y-42776396D01*
X55893526Y-42756068D01*
X55893524Y-42756068D01*
X55887397Y-42755424D01*
X55761229Y-42766906D01*
X55687591Y-42773607D01*
X55687590Y-42773607D01*
X55681450Y-42774166D01*
X55483066Y-42832554D01*
X55477601Y-42835411D01*
X55305261Y-42925508D01*
X55305257Y-42925511D01*
X55299801Y-42928363D01*
X55138635Y-43057943D01*
X55005708Y-43216360D01*
X54906082Y-43397578D01*
X54904219Y-43403451D01*
X54855989Y-43555494D01*
X54843553Y-43594696D01*
X54842867Y-43600813D01*
X54842866Y-43600817D01*
X54839138Y-43634053D01*
X54820501Y-43800206D01*
X54837806Y-44006278D01*
X54894807Y-44205066D01*
X54897625Y-44210548D01*
X54897626Y-44210552D01*
X54986514Y-44383509D01*
X54986517Y-44383513D01*
X54989334Y-44388995D01*
X55117786Y-44551061D01*
X55122479Y-44555055D01*
X55122480Y-44555056D01*
X55203508Y-44624016D01*
X55242421Y-44683399D01*
X55243052Y-44754393D01*
X55205200Y-44814457D01*
X55178956Y-44829710D01*
X55179903Y-44831465D01*
X55151166Y-44846971D01*
X55138110Y-44854016D01*
X55134783Y-44855811D01*
X55129530Y-44858488D01*
X55083297Y-44880689D01*
X55079021Y-44884283D01*
X55077081Y-44886223D01*
X55075169Y-44887977D01*
X55075080Y-44888025D01*
X55074968Y-44887902D01*
X55074432Y-44888375D01*
X55068714Y-44891460D01*
X55061647Y-44899105D01*
X55032112Y-44931056D01*
X55028682Y-44934622D01*
X53316385Y-46646919D01*
X53254073Y-46680945D01*
X53190033Y-46678189D01*
X53042562Y-46632539D01*
X53036437Y-46631895D01*
X53036436Y-46631895D01*
X52843025Y-46611567D01*
X52843023Y-46611567D01*
X52836896Y-46610923D01*
X52710728Y-46622405D01*
X52637090Y-46629106D01*
X52637089Y-46629106D01*
X52630949Y-46629665D01*
X52432565Y-46688053D01*
X52427100Y-46690910D01*
X52254760Y-46781007D01*
X52254756Y-46781010D01*
X52249300Y-46783862D01*
X52088134Y-46913442D01*
X51955207Y-47071859D01*
X51855581Y-47253077D01*
X51793052Y-47450195D01*
X51792366Y-47456312D01*
X51792365Y-47456316D01*
X51791817Y-47461203D01*
X51770000Y-47655705D01*
X51771242Y-47670499D01*
X51785714Y-47842827D01*
X51787305Y-47861777D01*
X51844306Y-48060565D01*
X51847124Y-48066047D01*
X51847125Y-48066051D01*
X51936013Y-48239008D01*
X51936016Y-48239012D01*
X51938833Y-48244494D01*
X52067285Y-48406560D01*
X52071978Y-48410554D01*
X52071979Y-48410555D01*
X52181970Y-48504164D01*
X52224770Y-48540590D01*
X52405288Y-48641479D01*
X52601965Y-48705383D01*
X52807308Y-48729869D01*
X52813443Y-48729397D01*
X52813445Y-48729397D01*
X53007355Y-48714476D01*
X53007359Y-48714475D01*
X53013497Y-48714003D01*
X53212677Y-48658391D01*
X53218181Y-48655611D01*
X53218183Y-48655610D01*
X53391761Y-48567930D01*
X53391763Y-48567929D01*
X53397262Y-48565151D01*
X53560221Y-48437833D01*
X53564247Y-48433169D01*
X53564250Y-48433166D01*
X53691318Y-48285956D01*
X53691319Y-48285954D01*
X53695347Y-48281288D01*
X53763436Y-48161431D01*
X53794449Y-48106839D01*
X53794451Y-48106835D01*
X53797494Y-48101478D01*
X53851860Y-47938047D01*
X53860824Y-47911100D01*
X53860825Y-47911097D01*
X53862769Y-47905252D01*
X53888688Y-47700085D01*
X53889101Y-47670499D01*
X53887650Y-47655705D01*
X54310000Y-47655705D01*
X54311242Y-47670499D01*
X54325714Y-47842827D01*
X54327305Y-47861777D01*
X54384306Y-48060565D01*
X54387124Y-48066047D01*
X54387125Y-48066051D01*
X54476013Y-48239008D01*
X54476016Y-48239012D01*
X54478833Y-48244494D01*
X54607285Y-48406560D01*
X54611978Y-48410554D01*
X54611979Y-48410555D01*
X54721970Y-48504164D01*
X54764770Y-48540590D01*
X54945288Y-48641479D01*
X55141965Y-48705383D01*
X55347308Y-48729869D01*
X55353443Y-48729397D01*
X55353445Y-48729397D01*
X55547355Y-48714476D01*
X55547359Y-48714475D01*
X55553497Y-48714003D01*
X55752677Y-48658391D01*
X55758181Y-48655611D01*
X55758183Y-48655610D01*
X55931761Y-48567930D01*
X55931763Y-48567929D01*
X55937262Y-48565151D01*
X56100221Y-48437833D01*
X56104247Y-48433169D01*
X56104250Y-48433166D01*
X56231318Y-48285956D01*
X56231319Y-48285954D01*
X56235347Y-48281288D01*
X56303436Y-48161431D01*
X56334449Y-48106839D01*
X56334451Y-48106835D01*
X56337494Y-48101478D01*
X56391860Y-47938047D01*
X56400824Y-47911100D01*
X56400825Y-47911097D01*
X56402769Y-47905252D01*
X56428688Y-47700085D01*
X56429101Y-47670499D01*
X56427650Y-47655705D01*
X56850000Y-47655705D01*
X56851242Y-47670499D01*
X56865714Y-47842827D01*
X56867305Y-47861777D01*
X56924306Y-48060565D01*
X56927124Y-48066047D01*
X56927125Y-48066051D01*
X57016013Y-48239008D01*
X57016016Y-48239012D01*
X57018833Y-48244494D01*
X57147285Y-48406560D01*
X57151978Y-48410554D01*
X57151979Y-48410555D01*
X57261970Y-48504164D01*
X57304770Y-48540590D01*
X57485288Y-48641479D01*
X57681965Y-48705383D01*
X57887308Y-48729869D01*
X57893443Y-48729397D01*
X57893445Y-48729397D01*
X58087355Y-48714476D01*
X58087359Y-48714475D01*
X58093497Y-48714003D01*
X58292677Y-48658391D01*
X58298181Y-48655611D01*
X58298183Y-48655610D01*
X58471761Y-48567930D01*
X58471763Y-48567929D01*
X58477262Y-48565151D01*
X58640221Y-48437833D01*
X58644247Y-48433169D01*
X58644250Y-48433166D01*
X58771318Y-48285956D01*
X58771319Y-48285954D01*
X58775347Y-48281288D01*
X58843436Y-48161431D01*
X58874449Y-48106839D01*
X58874451Y-48106835D01*
X58877494Y-48101478D01*
X58931860Y-47938047D01*
X58940824Y-47911100D01*
X58940825Y-47911097D01*
X58942769Y-47905252D01*
X58968688Y-47700085D01*
X58969101Y-47670499D01*
X58948921Y-47464688D01*
X58889150Y-47266716D01*
X58792064Y-47084124D01*
X58788173Y-47079354D01*
X58788171Y-47079350D01*
X58665257Y-46928642D01*
X58665254Y-46928639D01*
X58661362Y-46923867D01*
X58656613Y-46919938D01*
X58506770Y-46795977D01*
X58506765Y-46795974D01*
X58502021Y-46792049D01*
X58496602Y-46789119D01*
X58496599Y-46789117D01*
X58325531Y-46696621D01*
X58325526Y-46696619D01*
X58320111Y-46693691D01*
X58122562Y-46632539D01*
X58116437Y-46631895D01*
X58116436Y-46631895D01*
X57923025Y-46611567D01*
X57923023Y-46611567D01*
X57916896Y-46610923D01*
X57790728Y-46622405D01*
X57717090Y-46629106D01*
X57717089Y-46629106D01*
X57710949Y-46629665D01*
X57512565Y-46688053D01*
X57507100Y-46690910D01*
X57334760Y-46781007D01*
X57334756Y-46781010D01*
X57329300Y-46783862D01*
X57168134Y-46913442D01*
X57035207Y-47071859D01*
X56935581Y-47253077D01*
X56873052Y-47450195D01*
X56872366Y-47456312D01*
X56872365Y-47456316D01*
X56871817Y-47461203D01*
X56850000Y-47655705D01*
X56427650Y-47655705D01*
X56408921Y-47464688D01*
X56349150Y-47266716D01*
X56252064Y-47084124D01*
X56248173Y-47079354D01*
X56248171Y-47079350D01*
X56125257Y-46928642D01*
X56125254Y-46928639D01*
X56121362Y-46923867D01*
X56116613Y-46919938D01*
X55966770Y-46795977D01*
X55966765Y-46795974D01*
X55962021Y-46792049D01*
X55956602Y-46789119D01*
X55956599Y-46789117D01*
X55785531Y-46696621D01*
X55785526Y-46696619D01*
X55780111Y-46693691D01*
X55582562Y-46632539D01*
X55576437Y-46631895D01*
X55576436Y-46631895D01*
X55383025Y-46611567D01*
X55383023Y-46611567D01*
X55376896Y-46610923D01*
X55250728Y-46622405D01*
X55177090Y-46629106D01*
X55177089Y-46629106D01*
X55170949Y-46629665D01*
X54972565Y-46688053D01*
X54967100Y-46690910D01*
X54794760Y-46781007D01*
X54794756Y-46781010D01*
X54789300Y-46783862D01*
X54628134Y-46913442D01*
X54495207Y-47071859D01*
X54395581Y-47253077D01*
X54333052Y-47450195D01*
X54332366Y-47456312D01*
X54332365Y-47456316D01*
X54331817Y-47461203D01*
X54310000Y-47655705D01*
X53887650Y-47655705D01*
X53868921Y-47464688D01*
X53821861Y-47308817D01*
X53821320Y-47237822D01*
X53853388Y-47183304D01*
X55424817Y-45611875D01*
X55487129Y-45577849D01*
X55513912Y-45574970D01*
X61704144Y-45574970D01*
X61772265Y-45594972D01*
X61818758Y-45648628D01*
X61828862Y-45718902D01*
X61799368Y-45783482D01*
X61793239Y-45790065D01*
X60936385Y-46646919D01*
X60874073Y-46680945D01*
X60810033Y-46678189D01*
X60662562Y-46632539D01*
X60656437Y-46631895D01*
X60656436Y-46631895D01*
X60463025Y-46611567D01*
X60463023Y-46611567D01*
X60456896Y-46610923D01*
X60330728Y-46622405D01*
X60257090Y-46629106D01*
X60257089Y-46629106D01*
X60250949Y-46629665D01*
X60052565Y-46688053D01*
X60047100Y-46690910D01*
X59874760Y-46781007D01*
X59874756Y-46781010D01*
X59869300Y-46783862D01*
X59708134Y-46913442D01*
X59575207Y-47071859D01*
X59475581Y-47253077D01*
X59413052Y-47450195D01*
X59412366Y-47456312D01*
X59412365Y-47456316D01*
X59411817Y-47461203D01*
X59390000Y-47655705D01*
X59391242Y-47670499D01*
X59405714Y-47842827D01*
X59407305Y-47861777D01*
X59464306Y-48060565D01*
X59467124Y-48066047D01*
X59467125Y-48066051D01*
X59556013Y-48239008D01*
X59556016Y-48239012D01*
X59558833Y-48244494D01*
X59687285Y-48406560D01*
X59691978Y-48410554D01*
X59691979Y-48410555D01*
X59801970Y-48504164D01*
X59844770Y-48540590D01*
X60025288Y-48641479D01*
X60221965Y-48705383D01*
X60427308Y-48729869D01*
X60433443Y-48729397D01*
X60433445Y-48729397D01*
X60627355Y-48714476D01*
X60627359Y-48714475D01*
X60633497Y-48714003D01*
X60832677Y-48658391D01*
X60838181Y-48655611D01*
X60838183Y-48655610D01*
X61011761Y-48567930D01*
X61011763Y-48567929D01*
X61017262Y-48565151D01*
X61180221Y-48437833D01*
X61184247Y-48433169D01*
X61184250Y-48433166D01*
X61311318Y-48285956D01*
X61311319Y-48285954D01*
X61315347Y-48281288D01*
X61383436Y-48161431D01*
X61414449Y-48106839D01*
X61414451Y-48106835D01*
X61417494Y-48101478D01*
X61471860Y-47938047D01*
X61480824Y-47911100D01*
X61480825Y-47911097D01*
X61482769Y-47905252D01*
X61508688Y-47700085D01*
X61509101Y-47670499D01*
X61488921Y-47464688D01*
X61441861Y-47308817D01*
X61441320Y-47237822D01*
X61473388Y-47183304D01*
X62594807Y-46061885D01*
X62657119Y-46027859D01*
X62683902Y-46024980D01*
X63794134Y-46024980D01*
X63862255Y-46044982D01*
X63908748Y-46098638D01*
X63918852Y-46168912D01*
X63889358Y-46233492D01*
X63883229Y-46240075D01*
X63476385Y-46646919D01*
X63414073Y-46680945D01*
X63350033Y-46678189D01*
X63202562Y-46632539D01*
X63196437Y-46631895D01*
X63196436Y-46631895D01*
X63003025Y-46611567D01*
X63003023Y-46611567D01*
X62996896Y-46610923D01*
X62870728Y-46622405D01*
X62797090Y-46629106D01*
X62797089Y-46629106D01*
X62790949Y-46629665D01*
X62592565Y-46688053D01*
X62587100Y-46690910D01*
X62414760Y-46781007D01*
X62414756Y-46781010D01*
X62409300Y-46783862D01*
X62248134Y-46913442D01*
X62115207Y-47071859D01*
X62015581Y-47253077D01*
X61953052Y-47450195D01*
X61952366Y-47456312D01*
X61952365Y-47456316D01*
X61951817Y-47461203D01*
X61930000Y-47655705D01*
X61931242Y-47670499D01*
X61945714Y-47842827D01*
X61947305Y-47861777D01*
X62004306Y-48060565D01*
X62007124Y-48066047D01*
X62007125Y-48066051D01*
X62096013Y-48239008D01*
X62096016Y-48239012D01*
X62098833Y-48244494D01*
X62227285Y-48406560D01*
X62231978Y-48410554D01*
X62231979Y-48410555D01*
X62341970Y-48504164D01*
X62384770Y-48540590D01*
X62565288Y-48641479D01*
X62761965Y-48705383D01*
X62967308Y-48729869D01*
X62973443Y-48729397D01*
X62973445Y-48729397D01*
X63167355Y-48714476D01*
X63167359Y-48714475D01*
X63173497Y-48714003D01*
X63372677Y-48658391D01*
X63378181Y-48655611D01*
X63378183Y-48655610D01*
X63551761Y-48567930D01*
X63551763Y-48567929D01*
X63557262Y-48565151D01*
X63720221Y-48437833D01*
X63724247Y-48433169D01*
X63724250Y-48433166D01*
X63851318Y-48285956D01*
X63851319Y-48285954D01*
X63855347Y-48281288D01*
X63923436Y-48161431D01*
X63954449Y-48106839D01*
X63954451Y-48106835D01*
X63957494Y-48101478D01*
X64011860Y-47938047D01*
X64020824Y-47911100D01*
X64020825Y-47911097D01*
X64022769Y-47905252D01*
X64048688Y-47700085D01*
X64049101Y-47670499D01*
X64028921Y-47464688D01*
X63981861Y-47308817D01*
X63981320Y-47237822D01*
X64013388Y-47183304D01*
X64684798Y-46511894D01*
X64747110Y-46477868D01*
X64773893Y-46474989D01*
X65027139Y-46474989D01*
X65095260Y-46494991D01*
X65141753Y-46548647D01*
X65151857Y-46618921D01*
X65122363Y-46683501D01*
X65085515Y-46712650D01*
X64949300Y-46783862D01*
X64788134Y-46913442D01*
X64655207Y-47071859D01*
X64555581Y-47253077D01*
X64493052Y-47450195D01*
X64492366Y-47456312D01*
X64492365Y-47456316D01*
X64491817Y-47461203D01*
X64470000Y-47655705D01*
X64471242Y-47670499D01*
X64485714Y-47842827D01*
X64487305Y-47861777D01*
X64544306Y-48060565D01*
X64547124Y-48066047D01*
X64547125Y-48066051D01*
X64636013Y-48239008D01*
X64636016Y-48239012D01*
X64638833Y-48244494D01*
X64767285Y-48406560D01*
X64771978Y-48410554D01*
X64771979Y-48410555D01*
X64881970Y-48504164D01*
X64924770Y-48540590D01*
X65105288Y-48641479D01*
X65301965Y-48705383D01*
X65507308Y-48729869D01*
X65513443Y-48729397D01*
X65513445Y-48729397D01*
X65707355Y-48714476D01*
X65707359Y-48714475D01*
X65713497Y-48714003D01*
X65912677Y-48658391D01*
X65918181Y-48655611D01*
X65918183Y-48655610D01*
X66091761Y-48567930D01*
X66091763Y-48567929D01*
X66097262Y-48565151D01*
X66260221Y-48437833D01*
X66264247Y-48433169D01*
X66264250Y-48433166D01*
X66391318Y-48285956D01*
X66391319Y-48285954D01*
X66395347Y-48281288D01*
X66463436Y-48161431D01*
X66494449Y-48106839D01*
X66494451Y-48106835D01*
X66497494Y-48101478D01*
X66551860Y-47938047D01*
X66560824Y-47911100D01*
X66560825Y-47911097D01*
X66562769Y-47905252D01*
X66588688Y-47700085D01*
X66589101Y-47670499D01*
X66568921Y-47464688D01*
X66521861Y-47308817D01*
X66521320Y-47237822D01*
X66553388Y-47183304D01*
X66774789Y-46961903D01*
X66837101Y-46927877D01*
X66863884Y-46924998D01*
X67062891Y-46924998D01*
X67131012Y-46945000D01*
X67177505Y-46998656D01*
X67187609Y-47068930D01*
X67173306Y-47111697D01*
X67095581Y-47253077D01*
X67033052Y-47450195D01*
X67032366Y-47456312D01*
X67032365Y-47456316D01*
X67031817Y-47461203D01*
X67010000Y-47655705D01*
X67011242Y-47670499D01*
X67025714Y-47842827D01*
X67027305Y-47861777D01*
X67029004Y-47867702D01*
X67076870Y-48034633D01*
X67076419Y-48105628D01*
X67044846Y-48158458D01*
X66714282Y-48489022D01*
X66695534Y-48504164D01*
X66694309Y-48505279D01*
X66685558Y-48510929D01*
X66679111Y-48519107D01*
X66679109Y-48519109D01*
X66664769Y-48537300D01*
X66660823Y-48541741D01*
X66660896Y-48541803D01*
X66657537Y-48545767D01*
X66653860Y-48549444D01*
X66642606Y-48565192D01*
X66639100Y-48569862D01*
X66607342Y-48610147D01*
X66604310Y-48618781D01*
X66598984Y-48626234D01*
X66595999Y-48636215D01*
X66584297Y-48675344D01*
X66582462Y-48680992D01*
X66568108Y-48721867D01*
X66565480Y-48729351D01*
X66564998Y-48734916D01*
X66564998Y-48737624D01*
X66564884Y-48740258D01*
X66564855Y-48740356D01*
X66564691Y-48740349D01*
X66564647Y-48741053D01*
X66562785Y-48747278D01*
X66563194Y-48757683D01*
X66564901Y-48801135D01*
X66564998Y-48806082D01*
X66564998Y-54537790D01*
X66544996Y-54605911D01*
X66491340Y-54652404D01*
X66421066Y-54662508D01*
X66356486Y-54633014D01*
X66341355Y-54617425D01*
X66285261Y-54548647D01*
X66285258Y-54548644D01*
X66281362Y-54543867D01*
X66276613Y-54539938D01*
X66126770Y-54415977D01*
X66126765Y-54415974D01*
X66122021Y-54412049D01*
X66116602Y-54409119D01*
X66116599Y-54409117D01*
X65945531Y-54316621D01*
X65945526Y-54316619D01*
X65940111Y-54313691D01*
X65742562Y-54252539D01*
X65736437Y-54251895D01*
X65736436Y-54251895D01*
X65543025Y-54231567D01*
X65543023Y-54231567D01*
X65536896Y-54230923D01*
X65410728Y-54242405D01*
X65337090Y-54249106D01*
X65337089Y-54249106D01*
X65330949Y-54249665D01*
X65189280Y-54291361D01*
X65166617Y-54298031D01*
X65095621Y-54298077D01*
X65041947Y-54266253D01*
X64710976Y-53935282D01*
X64695834Y-53916534D01*
X64694719Y-53915309D01*
X64689069Y-53906558D01*
X64680891Y-53900111D01*
X64680889Y-53900109D01*
X64662698Y-53885769D01*
X64658257Y-53881823D01*
X64658195Y-53881896D01*
X64654231Y-53878537D01*
X64650554Y-53874860D01*
X64634806Y-53863606D01*
X64630136Y-53860100D01*
X64589851Y-53828342D01*
X64581217Y-53825310D01*
X64573764Y-53819984D01*
X64524648Y-53805295D01*
X64519006Y-53803462D01*
X64478131Y-53789108D01*
X64478130Y-53789108D01*
X64470647Y-53786480D01*
X64465082Y-53785998D01*
X64462374Y-53785998D01*
X64459740Y-53785884D01*
X64459642Y-53785855D01*
X64459649Y-53785691D01*
X64458945Y-53785647D01*
X64452720Y-53783785D01*
X64398863Y-53785901D01*
X64393916Y-53785998D01*
X54883418Y-53785998D01*
X54859470Y-53783449D01*
X54857805Y-53783370D01*
X54847622Y-53781178D01*
X54837281Y-53782402D01*
X54814275Y-53785125D01*
X54808344Y-53785475D01*
X54808352Y-53785570D01*
X54803174Y-53785998D01*
X54797974Y-53785998D01*
X54792845Y-53786852D01*
X54792842Y-53786852D01*
X54778933Y-53789167D01*
X54773055Y-53790004D01*
X54732497Y-53794804D01*
X54732496Y-53794804D01*
X54722157Y-53796028D01*
X54713905Y-53799991D01*
X54704872Y-53801494D01*
X54695703Y-53806441D01*
X54695701Y-53806442D01*
X54659766Y-53825832D01*
X54654473Y-53828529D01*
X54615416Y-53847283D01*
X54615412Y-53847286D01*
X54608266Y-53850717D01*
X54603990Y-53854312D01*
X54602067Y-53856235D01*
X54600135Y-53858007D01*
X54600056Y-53858050D01*
X54599943Y-53857926D01*
X54599403Y-53858402D01*
X54593684Y-53861488D01*
X54586617Y-53869133D01*
X54557082Y-53901084D01*
X54553652Y-53904650D01*
X54057052Y-54401250D01*
X53994740Y-54435276D01*
X53923925Y-54430211D01*
X53863193Y-54382159D01*
X53812983Y-54307015D01*
X53728800Y-54250765D01*
X53654566Y-54235999D01*
X52829633Y-54235999D01*
X52004433Y-54236000D01*
X51968681Y-54243111D01*
X51942373Y-54248343D01*
X51942371Y-54248344D01*
X51930198Y-54250765D01*
X51919878Y-54257660D01*
X51919877Y-54257661D01*
X51863717Y-54295187D01*
X51846015Y-54307015D01*
X51789765Y-54391198D01*
X51774999Y-54465432D01*
X51775000Y-56115565D01*
X51779537Y-56138374D01*
X51786217Y-56171959D01*
X51789765Y-56189800D01*
X51796660Y-56200120D01*
X51796661Y-56200121D01*
X51815661Y-56228556D01*
X51846015Y-56273983D01*
X51930198Y-56330233D01*
X52004432Y-56344999D01*
X52829365Y-56344999D01*
X53654565Y-56344998D01*
X53714420Y-56333093D01*
X53785132Y-56339422D01*
X53841199Y-56382977D01*
X53864998Y-56456672D01*
X53864998Y-56714452D01*
X53844996Y-56782573D01*
X53828093Y-56803547D01*
X53358045Y-57273595D01*
X53295733Y-57307621D01*
X53268950Y-57310500D01*
X51900115Y-57310501D01*
X51731601Y-57310501D01*
X51703652Y-57316060D01*
X51669541Y-57322844D01*
X51669539Y-57322845D01*
X51657366Y-57325266D01*
X51647046Y-57332161D01*
X51647045Y-57332162D01*
X51586652Y-57372516D01*
X51573183Y-57381516D01*
X51516933Y-57465699D01*
X51502167Y-57539933D01*
X51502167Y-57546120D01*
X51502168Y-60925000D01*
X51482166Y-60993121D01*
X51428510Y-61039614D01*
X51376168Y-61051000D01*
X51180000Y-61051000D01*
X51111879Y-61030998D01*
X51065386Y-60977342D01*
X51054000Y-60925000D01*
X51054000Y-43800206D01*
X51645501Y-43800206D01*
X51662806Y-44006278D01*
X51719807Y-44205066D01*
X51722625Y-44210548D01*
X51722626Y-44210552D01*
X51811514Y-44383509D01*
X51811517Y-44383513D01*
X51814334Y-44388995D01*
X51942786Y-44551061D01*
X51947479Y-44555055D01*
X51947480Y-44555056D01*
X52077124Y-44665391D01*
X52100271Y-44685091D01*
X52280789Y-44785980D01*
X52477466Y-44849884D01*
X52682809Y-44874370D01*
X52688944Y-44873898D01*
X52688946Y-44873898D01*
X52882856Y-44858977D01*
X52882860Y-44858976D01*
X52888998Y-44858504D01*
X53088178Y-44802892D01*
X53093682Y-44800112D01*
X53093684Y-44800111D01*
X53267262Y-44712431D01*
X53267264Y-44712430D01*
X53272763Y-44709652D01*
X53435722Y-44582334D01*
X53439748Y-44577670D01*
X53439751Y-44577667D01*
X53566819Y-44430457D01*
X53566820Y-44430455D01*
X53570848Y-44425789D01*
X53654761Y-44278077D01*
X53669950Y-44251340D01*
X53669952Y-44251336D01*
X53672995Y-44245979D01*
X53729385Y-44076464D01*
X53736325Y-44055601D01*
X53736326Y-44055598D01*
X53738270Y-44049753D01*
X53764189Y-43844586D01*
X53764602Y-43815000D01*
X53744422Y-43609189D01*
X53684651Y-43411217D01*
X53587565Y-43228625D01*
X53583674Y-43223855D01*
X53583672Y-43223851D01*
X53460758Y-43073143D01*
X53460755Y-43073140D01*
X53456863Y-43068368D01*
X53449966Y-43062662D01*
X53302271Y-42940478D01*
X53302266Y-42940475D01*
X53297522Y-42936550D01*
X53292103Y-42933620D01*
X53292100Y-42933618D01*
X53121032Y-42841122D01*
X53121027Y-42841120D01*
X53115612Y-42838192D01*
X52918063Y-42777040D01*
X52911938Y-42776396D01*
X52911937Y-42776396D01*
X52718526Y-42756068D01*
X52718524Y-42756068D01*
X52712397Y-42755424D01*
X52586229Y-42766906D01*
X52512591Y-42773607D01*
X52512590Y-42773607D01*
X52506450Y-42774166D01*
X52308066Y-42832554D01*
X52302601Y-42835411D01*
X52130261Y-42925508D01*
X52130257Y-42925511D01*
X52124801Y-42928363D01*
X51963635Y-43057943D01*
X51830708Y-43216360D01*
X51731082Y-43397578D01*
X51729219Y-43403451D01*
X51680989Y-43555494D01*
X51668553Y-43594696D01*
X51667867Y-43600813D01*
X51667866Y-43600817D01*
X51664138Y-43634053D01*
X51645501Y-43800206D01*
X51054000Y-43800206D01*
X51054000Y-41726062D01*
X66588493Y-41726062D01*
X66597789Y-41738077D01*
X66648994Y-41773931D01*
X66658489Y-41779414D01*
X66855947Y-41871490D01*
X66866239Y-41875236D01*
X67076688Y-41931625D01*
X67087490Y-41933530D01*
X67109854Y-41935487D01*
X67175971Y-41961351D01*
X67217610Y-42018855D01*
X67224201Y-42073978D01*
X67222454Y-42090854D01*
X67230644Y-42106434D01*
X67932188Y-42807978D01*
X67946132Y-42815592D01*
X67947965Y-42815461D01*
X67954580Y-42811210D01*
X68660077Y-42105713D01*
X68666507Y-42093938D01*
X68657211Y-42081923D01*
X68606006Y-42046069D01*
X68596511Y-42040586D01*
X68399053Y-41948510D01*
X68388761Y-41944764D01*
X68178312Y-41888375D01*
X68167510Y-41886470D01*
X68145146Y-41884513D01*
X68079029Y-41858649D01*
X68037390Y-41801145D01*
X68030799Y-41746022D01*
X68032546Y-41729146D01*
X68024356Y-41713566D01*
X67322812Y-41012022D01*
X67308868Y-41004408D01*
X67307035Y-41004539D01*
X67300420Y-41008790D01*
X66594923Y-41714287D01*
X66588493Y-41726062D01*
X51054000Y-41726062D01*
X51054000Y-40645475D01*
X65997483Y-40645475D01*
X66016472Y-40862519D01*
X66018375Y-40873312D01*
X66074764Y-41083761D01*
X66078510Y-41094053D01*
X66170586Y-41291511D01*
X66176069Y-41301006D01*
X66212509Y-41353048D01*
X66222988Y-41361424D01*
X66236434Y-41354356D01*
X66937978Y-40652812D01*
X66944356Y-40641132D01*
X67674408Y-40641132D01*
X67674539Y-40642965D01*
X67678790Y-40649580D01*
X68384287Y-41355077D01*
X68396062Y-41361507D01*
X68408077Y-41352211D01*
X68443931Y-41301006D01*
X68449414Y-41291511D01*
X68541490Y-41094053D01*
X68545236Y-41083761D01*
X68601625Y-40873312D01*
X68603528Y-40862519D01*
X68622517Y-40645475D01*
X68622517Y-40634525D01*
X68603528Y-40417481D01*
X68601625Y-40406688D01*
X68545236Y-40196239D01*
X68541490Y-40185947D01*
X68449414Y-39988489D01*
X68443931Y-39978994D01*
X68407491Y-39926952D01*
X68397012Y-39918576D01*
X68383566Y-39925644D01*
X67682022Y-40627188D01*
X67674408Y-40641132D01*
X66944356Y-40641132D01*
X66945592Y-40638868D01*
X66945461Y-40637035D01*
X66941210Y-40630420D01*
X66235713Y-39924923D01*
X66223938Y-39918493D01*
X66211923Y-39927789D01*
X66176069Y-39978994D01*
X66170586Y-39988489D01*
X66078510Y-40185947D01*
X66074764Y-40196239D01*
X66018375Y-40406688D01*
X66016472Y-40417481D01*
X65997483Y-40634525D01*
X65997483Y-40645475D01*
X51054000Y-40645475D01*
X51054000Y-39552988D01*
X66588576Y-39552988D01*
X66595644Y-39566434D01*
X67297188Y-40267978D01*
X67311132Y-40275592D01*
X67312965Y-40275461D01*
X67319580Y-40271210D01*
X68025077Y-39565713D01*
X68031507Y-39553938D01*
X68022211Y-39541923D01*
X67971006Y-39506069D01*
X67961511Y-39500586D01*
X67764053Y-39408510D01*
X67753761Y-39404764D01*
X67543312Y-39348375D01*
X67532519Y-39346472D01*
X67315475Y-39327483D01*
X67304525Y-39327483D01*
X67087481Y-39346472D01*
X67076688Y-39348375D01*
X66866239Y-39404764D01*
X66855947Y-39408510D01*
X66658489Y-39500586D01*
X66648994Y-39506069D01*
X66596952Y-39542509D01*
X66588576Y-39552988D01*
X51054000Y-39552988D01*
X51054000Y-29740964D01*
X51942112Y-29740964D01*
X51942312Y-29746292D01*
X51942312Y-29746294D01*
X51944464Y-29803599D01*
X51943705Y-29803628D01*
X51944034Y-29805016D01*
X51944340Y-29804989D01*
X51944374Y-29805377D01*
X51944465Y-29806838D01*
X51944523Y-29807085D01*
X51944648Y-29808507D01*
X51950736Y-29970669D01*
X51951831Y-29975888D01*
X51964628Y-30036879D01*
X51963861Y-30037040D01*
X51964841Y-30039316D01*
X51964937Y-30040408D01*
X51966361Y-30045722D01*
X51966464Y-30046307D01*
X51967635Y-30051210D01*
X51997939Y-30195637D01*
X52022784Y-30258551D01*
X52023975Y-30261566D01*
X52024724Y-30263541D01*
X52026097Y-30268663D01*
X52028422Y-30273649D01*
X52028423Y-30273651D01*
X52028947Y-30274775D01*
X52031934Y-30281717D01*
X52082372Y-30409436D01*
X52119273Y-30470246D01*
X52120811Y-30473126D01*
X52120890Y-30473080D01*
X52123639Y-30477841D01*
X52125965Y-30482829D01*
X52129122Y-30487337D01*
X52129124Y-30487341D01*
X52130674Y-30489555D01*
X52135181Y-30496462D01*
X52165152Y-30545852D01*
X52201621Y-30605952D01*
X52205116Y-30609979D01*
X52205117Y-30609981D01*
X52251993Y-30664000D01*
X52255555Y-30668563D01*
X52258346Y-30671888D01*
X52261505Y-30676401D01*
X52267791Y-30682687D01*
X52273861Y-30689201D01*
X52340434Y-30765919D01*
X52352276Y-30779566D01*
X52377008Y-30799845D01*
X52416309Y-30832070D01*
X52423574Y-30838652D01*
X52424706Y-30839602D01*
X52428599Y-30843495D01*
X52433103Y-30846649D01*
X52433108Y-30846653D01*
X52435936Y-30848633D01*
X52443554Y-30854410D01*
X52525901Y-30921931D01*
X52525907Y-30921935D01*
X52530029Y-30925315D01*
X52534668Y-30927955D01*
X52534667Y-30927955D01*
X52607355Y-30969331D01*
X52617296Y-30975622D01*
X52617660Y-30975877D01*
X52617667Y-30975881D01*
X52622171Y-30979035D01*
X52627155Y-30981359D01*
X52627160Y-30981362D01*
X52629875Y-30982628D01*
X52638952Y-30987318D01*
X52683061Y-31012426D01*
X52729798Y-31039030D01*
X52819498Y-31071590D01*
X52829753Y-31075833D01*
X52831348Y-31076577D01*
X52831350Y-31076578D01*
X52836337Y-31078903D01*
X52841653Y-31080327D01*
X52841655Y-31080328D01*
X52842719Y-31080613D01*
X52843702Y-31080876D01*
X52854081Y-31084143D01*
X52945871Y-31117461D01*
X53046443Y-31135648D01*
X53056616Y-31137926D01*
X53064592Y-31140063D01*
X53070990Y-31140623D01*
X53082412Y-31142152D01*
X53172069Y-31158364D01*
X53176208Y-31158559D01*
X53176215Y-31158560D01*
X53194670Y-31159430D01*
X53194677Y-31159430D01*
X53196158Y-31159500D01*
X53357712Y-31159500D01*
X53437444Y-31152735D01*
X53523733Y-31145413D01*
X53523737Y-31145412D01*
X53529044Y-31144962D01*
X53534199Y-31143624D01*
X53534205Y-31143623D01*
X53746368Y-31088556D01*
X53746367Y-31088556D01*
X53751539Y-31087214D01*
X53898412Y-31021052D01*
X53956262Y-30994993D01*
X53956265Y-30994992D01*
X53961123Y-30992803D01*
X54151803Y-30864430D01*
X54163367Y-30853399D01*
X54244991Y-30775533D01*
X54318128Y-30705764D01*
X54455342Y-30521342D01*
X54471504Y-30489555D01*
X54557102Y-30321194D01*
X54557102Y-30321193D01*
X54559520Y-30316438D01*
X54627685Y-30096911D01*
X54636069Y-30033653D01*
X54657188Y-29874319D01*
X54657188Y-29874316D01*
X54657888Y-29869036D01*
X54655536Y-29806401D01*
X54656295Y-29806372D01*
X54655966Y-29804984D01*
X54655660Y-29805011D01*
X54655626Y-29804623D01*
X54655535Y-29803162D01*
X54655477Y-29802915D01*
X54655352Y-29801493D01*
X54649264Y-29639331D01*
X54635372Y-29573121D01*
X54636139Y-29572960D01*
X54635159Y-29570684D01*
X54635063Y-29569592D01*
X54633639Y-29564278D01*
X54633536Y-29563693D01*
X54632362Y-29558778D01*
X54632304Y-29558499D01*
X54602061Y-29414363D01*
X54576025Y-29348434D01*
X54575276Y-29346459D01*
X54573903Y-29341337D01*
X54571053Y-29335225D01*
X54568066Y-29328283D01*
X54517628Y-29200564D01*
X54480727Y-29139754D01*
X54479189Y-29136874D01*
X54479110Y-29136920D01*
X54476361Y-29132159D01*
X54474035Y-29127171D01*
X54470876Y-29122659D01*
X54469326Y-29120445D01*
X54464819Y-29113538D01*
X54401147Y-29008609D01*
X54401145Y-29008606D01*
X54398379Y-29004048D01*
X54394883Y-29000019D01*
X54348007Y-28946000D01*
X54344445Y-28941437D01*
X54341652Y-28938108D01*
X54338495Y-28933599D01*
X54334604Y-28929708D01*
X54334599Y-28929702D01*
X54332209Y-28927313D01*
X54326139Y-28920799D01*
X54251224Y-28834467D01*
X54251222Y-28834465D01*
X54247724Y-28830434D01*
X54183692Y-28777930D01*
X54176426Y-28771348D01*
X54175294Y-28770398D01*
X54171401Y-28766505D01*
X54166897Y-28763351D01*
X54166892Y-28763347D01*
X54164064Y-28761367D01*
X54156446Y-28755590D01*
X54074099Y-28688069D01*
X54074093Y-28688065D01*
X54069971Y-28684685D01*
X53992645Y-28640669D01*
X53982704Y-28634378D01*
X53982340Y-28634123D01*
X53982333Y-28634119D01*
X53977829Y-28630965D01*
X53972845Y-28628641D01*
X53972840Y-28628638D01*
X53970125Y-28627372D01*
X53961048Y-28622682D01*
X53916939Y-28597574D01*
X53870202Y-28570970D01*
X53780502Y-28538410D01*
X53770247Y-28534167D01*
X53768652Y-28533423D01*
X53768650Y-28533422D01*
X53763663Y-28531097D01*
X53758347Y-28529673D01*
X53758345Y-28529672D01*
X53757281Y-28529387D01*
X53756298Y-28529124D01*
X53745919Y-28525857D01*
X53654129Y-28492539D01*
X53553557Y-28474352D01*
X53543384Y-28472074D01*
X53535408Y-28469937D01*
X53529010Y-28469377D01*
X53517588Y-28467848D01*
X53427931Y-28451636D01*
X53423792Y-28451441D01*
X53423785Y-28451440D01*
X53405330Y-28450570D01*
X53405323Y-28450570D01*
X53403842Y-28450500D01*
X53242288Y-28450500D01*
X53171931Y-28456470D01*
X53076267Y-28464587D01*
X53076263Y-28464588D01*
X53070956Y-28465038D01*
X53065801Y-28466376D01*
X53065795Y-28466377D01*
X52893058Y-28511211D01*
X52848461Y-28522786D01*
X52745060Y-28569365D01*
X52643738Y-28615007D01*
X52643735Y-28615008D01*
X52638877Y-28617197D01*
X52634453Y-28620176D01*
X52634452Y-28620176D01*
X52619636Y-28630151D01*
X52448197Y-28745570D01*
X52444340Y-28749249D01*
X52444338Y-28749251D01*
X52418404Y-28773991D01*
X52281872Y-28904236D01*
X52144658Y-29088658D01*
X52142242Y-29093409D01*
X52142240Y-29093413D01*
X52049500Y-29275820D01*
X52040480Y-29293562D01*
X52038898Y-29298657D01*
X51984883Y-29472615D01*
X51972315Y-29513089D01*
X51971614Y-29518378D01*
X51943640Y-29729439D01*
X51942112Y-29740964D01*
X51054000Y-29740964D01*
X51054000Y-23875000D01*
X51074002Y-23806879D01*
X51127658Y-23760386D01*
X51180000Y-23749000D01*
X56290539Y-23749000D01*
X56358660Y-23769002D01*
G37*
%TD.AperFunction*%
%TA.AperFunction,Conductor*%
G36*
X70805620Y-47436501D02*
G01*
X70852113Y-47490157D01*
X70863499Y-47542499D01*
X70863499Y-48938466D01*
X70867472Y-48951997D01*
X70876021Y-48953226D01*
X71053260Y-48905735D01*
X71063552Y-48901989D01*
X71261010Y-48809913D01*
X71270505Y-48804430D01*
X71446727Y-48681038D01*
X71514001Y-48658350D01*
X71582861Y-48675635D01*
X71631446Y-48727405D01*
X71644998Y-48784251D01*
X71644998Y-54176747D01*
X71624996Y-54244868D01*
X71571340Y-54291361D01*
X71501066Y-54301465D01*
X71446727Y-54279960D01*
X71270505Y-54156568D01*
X71261010Y-54151085D01*
X71063552Y-54059009D01*
X71053260Y-54055263D01*
X70880996Y-54009105D01*
X70866900Y-54009441D01*
X70863499Y-54017383D01*
X70863499Y-56558466D01*
X70867472Y-56571997D01*
X70876021Y-56573226D01*
X71053260Y-56525735D01*
X71063552Y-56521989D01*
X71261010Y-56429913D01*
X71270505Y-56424430D01*
X71446727Y-56301038D01*
X71514001Y-56278350D01*
X71582861Y-56295635D01*
X71631446Y-56347405D01*
X71644998Y-56404251D01*
X71644998Y-57184501D01*
X71624996Y-57252622D01*
X71571340Y-57299115D01*
X71518998Y-57310501D01*
X71121601Y-57310501D01*
X71093652Y-57316060D01*
X71059541Y-57322844D01*
X71059539Y-57322845D01*
X71047366Y-57325266D01*
X71037046Y-57332161D01*
X71037045Y-57332162D01*
X70976652Y-57372516D01*
X70963183Y-57381516D01*
X70906933Y-57465699D01*
X70892167Y-57539933D01*
X70892167Y-57546120D01*
X70892168Y-60925000D01*
X70872166Y-60993121D01*
X70818510Y-61039614D01*
X70766168Y-61051000D01*
X70603833Y-61051000D01*
X70535712Y-61030998D01*
X70489219Y-60977342D01*
X70477833Y-60925000D01*
X70477832Y-57546123D01*
X70477832Y-57539934D01*
X70463067Y-57465699D01*
X70450002Y-57446145D01*
X70413710Y-57391832D01*
X70406817Y-57381516D01*
X70322634Y-57325266D01*
X70248400Y-57310500D01*
X69805500Y-57310500D01*
X69737379Y-57290498D01*
X69690886Y-57236842D01*
X69679500Y-57184500D01*
X69679500Y-56478123D01*
X69699502Y-56410002D01*
X69753158Y-56363509D01*
X69823432Y-56353405D01*
X69877771Y-56374910D01*
X69948493Y-56424430D01*
X69957988Y-56429913D01*
X70155446Y-56521989D01*
X70165738Y-56525735D01*
X70338002Y-56571893D01*
X70352098Y-56571557D01*
X70355499Y-56563615D01*
X70355499Y-54022532D01*
X70351526Y-54009001D01*
X70342977Y-54007772D01*
X70165738Y-54055263D01*
X70155446Y-54059009D01*
X69957988Y-54151085D01*
X69948493Y-54156568D01*
X69877771Y-54206088D01*
X69810497Y-54228776D01*
X69741637Y-54211491D01*
X69693052Y-54159722D01*
X69679500Y-54102875D01*
X69679500Y-48858123D01*
X69699502Y-48790002D01*
X69753158Y-48743509D01*
X69823432Y-48733405D01*
X69877771Y-48754910D01*
X69948493Y-48804430D01*
X69957988Y-48809913D01*
X70155446Y-48901989D01*
X70165738Y-48905735D01*
X70338002Y-48951893D01*
X70352098Y-48951557D01*
X70355499Y-48943615D01*
X70355499Y-47542499D01*
X70375501Y-47474378D01*
X70429157Y-47427885D01*
X70481499Y-47416499D01*
X70737499Y-47416499D01*
X70805620Y-47436501D01*
G37*
%TD.AperFunction*%
%TA.AperFunction,Conductor*%
G36*
X74154065Y-48340855D02*
G01*
X74183681Y-48405380D01*
X74184998Y-48423549D01*
X74184998Y-54537790D01*
X74164996Y-54605911D01*
X74111340Y-54652404D01*
X74041066Y-54662508D01*
X73976486Y-54633014D01*
X73961355Y-54617425D01*
X73905261Y-54548647D01*
X73905258Y-54548644D01*
X73901362Y-54543867D01*
X73896613Y-54539938D01*
X73746770Y-54415977D01*
X73746765Y-54415974D01*
X73742021Y-54412049D01*
X73736602Y-54409119D01*
X73736599Y-54409117D01*
X73565531Y-54316621D01*
X73565526Y-54316619D01*
X73560111Y-54313691D01*
X73362562Y-54252539D01*
X73356437Y-54251895D01*
X73356436Y-54251895D01*
X73163025Y-54231567D01*
X73163023Y-54231567D01*
X73156896Y-54230923D01*
X73030728Y-54242405D01*
X72957090Y-54249106D01*
X72957089Y-54249106D01*
X72950949Y-54249665D01*
X72752565Y-54308053D01*
X72588372Y-54393891D01*
X72518738Y-54407725D01*
X72452677Y-54381715D01*
X72411165Y-54324119D01*
X72403998Y-54282229D01*
X72403998Y-48676677D01*
X72424000Y-48608556D01*
X72477656Y-48562063D01*
X72547930Y-48551959D01*
X72591467Y-48566688D01*
X72593689Y-48567930D01*
X72719910Y-48638474D01*
X72719916Y-48638476D01*
X72725288Y-48641479D01*
X72921965Y-48705383D01*
X73127308Y-48729869D01*
X73133443Y-48729397D01*
X73133445Y-48729397D01*
X73327355Y-48714476D01*
X73327359Y-48714475D01*
X73333497Y-48714003D01*
X73532677Y-48658391D01*
X73538181Y-48655611D01*
X73538183Y-48655610D01*
X73711761Y-48567930D01*
X73711763Y-48567929D01*
X73717262Y-48565151D01*
X73880221Y-48437833D01*
X73884247Y-48433169D01*
X73884250Y-48433166D01*
X73963617Y-48341218D01*
X74023270Y-48302721D01*
X74094266Y-48302586D01*
X74154065Y-48340855D01*
G37*
%TD.AperFunction*%
%TA.AperFunction,Conductor*%
G36*
X68852591Y-48490389D02*
G01*
X68903818Y-48539545D01*
X68920500Y-48602199D01*
X68920500Y-54358118D01*
X68900498Y-54426239D01*
X68846842Y-54472732D01*
X68776568Y-54482836D01*
X68714184Y-54455202D01*
X68712132Y-54453504D01*
X68679174Y-54426239D01*
X68666771Y-54415978D01*
X68666768Y-54415976D01*
X68662021Y-54412049D01*
X68656602Y-54409119D01*
X68656599Y-54409117D01*
X68485531Y-54316621D01*
X68485526Y-54316619D01*
X68480111Y-54313691D01*
X68282562Y-54252539D01*
X68276437Y-54251895D01*
X68276436Y-54251895D01*
X68083025Y-54231567D01*
X68083023Y-54231567D01*
X68076896Y-54230923D01*
X67950728Y-54242405D01*
X67877090Y-54249106D01*
X67877089Y-54249106D01*
X67870949Y-54249665D01*
X67672565Y-54308053D01*
X67508372Y-54393891D01*
X67438738Y-54407725D01*
X67372677Y-54381715D01*
X67331165Y-54324119D01*
X67323998Y-54282229D01*
X67323998Y-49004884D01*
X67344000Y-48936763D01*
X67360903Y-48915789D01*
X67583086Y-48693606D01*
X67645398Y-48659580D01*
X67711117Y-48662868D01*
X67841965Y-48705383D01*
X68047308Y-48729869D01*
X68053443Y-48729397D01*
X68053445Y-48729397D01*
X68247355Y-48714476D01*
X68247359Y-48714475D01*
X68253497Y-48714003D01*
X68452677Y-48658391D01*
X68458181Y-48655611D01*
X68458183Y-48655610D01*
X68631761Y-48567930D01*
X68631763Y-48567929D01*
X68637262Y-48565151D01*
X68716927Y-48502910D01*
X68782920Y-48476732D01*
X68852591Y-48490389D01*
G37*
%TD.AperFunction*%
%TD*%
M02*
