%TF.GenerationSoftware,KiCad,Pcbnew,(6.0.0)*%
%TF.CreationDate,2022-03-19T09:51:23+00:00*%
%TF.ProjectId,open-amiga-samplerV1,6f70656e-2d61-46d6-9967-612d73616d70,rev?*%
%TF.SameCoordinates,Original*%
%TF.FileFunction,Soldermask,Bot*%
%TF.FilePolarity,Negative*%
%FSLAX46Y46*%
G04 Gerber Fmt 4.6, Leading zero omitted, Abs format (unit mm)*
G04 Created by KiCad (PCBNEW (6.0.0)) date 2022-03-19 09:51:23*
%MOMM*%
%LPD*%
G01*
G04 APERTURE LIST*
%ADD10C,1.600000*%
%ADD11O,1.600000X1.600000*%
%ADD12R,1.600000X1.600000*%
%ADD13R,1.846667X3.480000*%
%ADD14C,2.200000*%
%ADD15R,1.200000X1.200000*%
%ADD16C,1.200000*%
G04 APERTURE END LIST*
D10*
%TO.C,R7*%
X73025000Y-41910000D03*
D11*
X83185000Y-41910000D03*
%TD*%
D10*
%TO.C,C6*%
X70445000Y-43180000D03*
X67945000Y-43180000D03*
%TD*%
%TO.C,C5*%
X85090000Y-36961000D03*
X85090000Y-34461000D03*
%TD*%
%TO.C,C3*%
X78421000Y-47264000D03*
X78421000Y-49764000D03*
%TD*%
D12*
%TO.C,C1*%
X64770000Y-43815000D03*
D10*
X62270000Y-43815000D03*
%TD*%
D13*
%TO.C,J3*%
X54065000Y-59305000D03*
X56835000Y-59305000D03*
X59605000Y-59305000D03*
X62375000Y-59305000D03*
X65145000Y-59305000D03*
X67915000Y-59305000D03*
X70685000Y-59305000D03*
X73455000Y-59305000D03*
X76225000Y-59305000D03*
X78995000Y-59305000D03*
X81765000Y-59305000D03*
X84535000Y-59305000D03*
%TD*%
D12*
%TO.C,U1*%
X52829499Y-55290499D03*
D11*
X55369499Y-55290499D03*
X57909499Y-55290499D03*
X60449499Y-55290499D03*
X62989499Y-55290499D03*
X65529499Y-55290499D03*
X68069499Y-55290499D03*
X70609499Y-55290499D03*
X73149499Y-55290499D03*
X75689499Y-55290499D03*
X75689499Y-47670499D03*
X73149499Y-47670499D03*
X70609499Y-47670499D03*
X68069499Y-47670499D03*
X65529499Y-47670499D03*
X62989499Y-47670499D03*
X60449499Y-47670499D03*
X57909499Y-47670499D03*
X55369499Y-47670499D03*
X52829499Y-47670499D03*
%TD*%
%TO.C,R6*%
X67310000Y-30480000D03*
D10*
X67310000Y-40640000D03*
%TD*%
%TO.C,R5*%
X71120000Y-30480000D03*
D11*
X71120000Y-40640000D03*
%TD*%
D12*
%TO.C,U2*%
X81915000Y-31137001D03*
D11*
X79375000Y-31137001D03*
X76835000Y-31137001D03*
X74295000Y-31137001D03*
X74295000Y-38757001D03*
X76835000Y-38757001D03*
X79375000Y-38757001D03*
X81915000Y-38757001D03*
%TD*%
%TO.C,R2*%
X55880000Y-33655000D03*
D10*
X55880000Y-43815000D03*
%TD*%
%TO.C,R1*%
X52705000Y-43815000D03*
D11*
X52705000Y-33655000D03*
%TD*%
%TO.C,R4*%
X59055000Y-43815000D03*
D10*
X59055000Y-33655000D03*
%TD*%
%TO.C,R3*%
X85050000Y-45805000D03*
D11*
X85050000Y-55965000D03*
%TD*%
D14*
%TO.C,H1*%
X53300000Y-29805000D03*
%TD*%
%TO.C,H2*%
X85300000Y-29805000D03*
%TD*%
D12*
%TO.C,C4*%
X82739000Y-54528499D03*
D10*
X80739000Y-54528499D03*
%TD*%
D15*
%TO.C,C2*%
X64365000Y-31750000D03*
D16*
X62865000Y-31750000D03*
%TD*%
M02*
